<?xml version="1.0" encoding="utf-8"?>
<!-- Generator: Adobe Illustrator 16.0.0, SVG Export Plug-In . SVG Version: 6.00 Build 0)  -->
<!DOCTYPE svg PUBLIC "-//W3C//DTD SVG 1.1//EN" "http://www.w3.org/Graphics/SVG/1.1/DTD/svg11.dtd">
<svg version="1.1" xmlns="http://www.w3.org/2000/svg" xmlns:xlink="http://www.w3.org/1999/xlink" x="0px" y="0px" width="100px"
	 height="100px" viewBox="0 0 100 100" enable-background="new 0 0 100 100" xml:space="preserve">
<g id="BG" display="none">
	<g id="affiliations" display="inline">
		<rect width="100" height="100"/>
		<g>
			<path fill="#00FA5C" d="M71,28v43H28V28H71 M72,27H27v45h45V27L72,27z"/>
		</g>
	</g>
</g>
<g id="Symbols">
	<path id="affiliations_1_" fill="#FFFFFF" d="M72.46,32.167c0,0,3.088-2.819,8.055,2.147s6.712,11.545,6.712,11.545
		s2.953,2.685-2.685,6.443c-5.639,3.759-12.351,1.074-12.351,1.074L55.545,38.073l-1.342,0.269l-5.37,1.074
		c0,0-5.906,1.61-9.665-1.074s-1.074-3.759-1.074-3.759l12.082-5.639c0,0,5.102-1.342,7.786,0.269
		C60.646,30.824,67.896,34.852,72.46,32.167z M42.757,30.644l3.579-1.663c-2.174-1.317-4.309-2.406-6.342-3.157
		c-2.289-0.847-4.531-1.275-6.665-1.275c-8.965,0-13.119,7.334-13.311,7.682c-0.159,0.307-3.85,7.566,0.026,14.423
		c0.231,0.409,0.519,0.866,0.849,1.359l2.475-2.098c-0.193-0.3-0.372-0.588-0.519-0.848c-3.002-5.312-0.001-11.295,0.006-11.31
		c0.137-0.243,3.447-5.986,10.474-5.986c1.752,0,3.618,0.36,5.549,1.076C40.122,29.306,41.423,29.918,42.757,30.644z M71.593,54.873
		l-0.046-0.02c0.979,0.965,1.754,1.712,2.281,2.163c2.036,1.747,1.434,2.951-0.547,5.487c-0.174,0.222-0.343,0.438-0.499,0.646
		l-0.128,0.055c-0.724,0-2.125-0.936-2.9-1.648L57.94,51.353c-0.662-0.572-1.661-0.51-2.248,0.139
		c-0.588,0.65-0.548,1.651,0.089,2.253c4.949,4.673,10.513,10.041,11.072,10.773c0.361,0.505,0.771,0.918,1.132,1.285
		c0.227,0.229,0.556,0.562,0.672,0.749c-0.083,0.155-0.386,0.59-1.445,1.367c-1.64,1.204-4.964-2.032-6.112-3.465
		c-0.058-0.071-0.123-0.141-0.19-0.201l-6.981-6.175c-0.64-0.564-1.609-0.535-2.21,0.071c-0.602,0.605-0.627,1.575-0.056,2.21
		c5.198,5.794,7.824,8.55,9.211,9.882c-0.55,0.409-1.222,0.877-1.71,1.217c-0.371,0.258-0.733,0.51-1.063,0.744
		c-0.02,0.015-0.038,0.027-0.111,0.027c-0.679,0-1.945-0.979-2.632-1.72c-7.209-7.398-7.632-7.398-8.398-7.398
		c-0.12,0-0.238,0.025-0.354,0.051c0.259,1.191,0.157,2.445-0.273,3.618c0.052,0.067,0.103,0.135,0.158,0.206
		c2.794,3.593,2.485,4.589,2.472,4.631c-0.011,0.027-0.182,0.193-0.757,0.327c-1.369,0.317-3.073-0.896-4.222-1.972
		c-0.128,0.101-0.254,0.201-0.39,0.294l-2.319,1.579c1.289,1.341,3.693,3.375,6.445,3.375c0.409,0,0.816-0.046,1.21-0.136
		c1.998-0.462,2.771-1.555,3.067-2.39c0.095-0.264,0.155-0.539,0.185-0.826c0.281,0.287,0.562,0.572,0.836,0.854
		c0.418,0.455,2.621,2.729,4.973,2.729c0.724,0,1.409-0.217,1.984-0.628c0.319-0.229,0.671-0.472,1.028-0.722
		c1.917-1.331,3.105-2.158,3.577-3.014c1.562,0.524,3.241,0.38,4.538-0.57c1.821-1.337,2.677-2.49,2.776-3.746
		c0.012-0.144,0.013-0.283,0.005-0.418c0.251,0.046,0.504,0.071,0.757,0.071c1.095,0,2.056-0.476,2.706-1.343
		c0.145-0.192,0.3-0.392,0.46-0.598c1.348-1.724,3.974-5.103,1.362-8.581C74.049,55.829,71.695,54.915,71.593,54.873z
		 M43.049,62.881c-0.703-1.034-2.004-1.443-3.307-1.189h0.001c2.344-1.596,3.31-4.264,2.154-5.961
		c-1.154-1.694-3.991-1.776-6.337-0.181l-1.932,1.315l0.663-0.562c2.093-1.772,2.866-4.3,1.728-5.642
		c-0.894-1.054-2.695-1.052-4.441-0.153c0.372-1.08,0.304-2.144-0.32-2.88c-1.139-1.341-3.641-1.091-5.59,0.56l-5.643,4.785
		c-1.947,1.65-2.606,4.077-1.467,5.422c0.795,0.938,2.257,1.082,3.73,0.53c-0.573,1.244-0.593,2.483,0.094,3.293
		c0.871,1.028,2.605,1.06,4.31,0.227c-0.687,1.286-0.773,2.664-0.075,3.69c1.034,1.519,3.41,1.73,5.579,0.618
		c-0.791,1.14-0.914,2.567-0.184,3.642c0.991,1.456,3.167,1.701,4.86,0.55l4.905-3.34C43.47,66.451,44.04,64.335,43.049,62.881z"/>
</g>
</svg>
