<?xml version="1.0" encoding="utf-8"?>
<!-- Generator: Adobe Illustrator 16.0.0, SVG Export Plug-In . SVG Version: 6.00 Build 0)  -->
<!DOCTYPE svg PUBLIC "-//W3C//DTD SVG 1.1//EN" "http://www.w3.org/Graphics/SVG/1.1/DTD/svg11.dtd">
<svg version="1.1" xmlns="http://www.w3.org/2000/svg" xmlns:xlink="http://www.w3.org/1999/xlink" x="0px" y="0px" width="100px"
	 height="100px" viewBox="0 0 100 100" enable-background="new 0 0 100 100" xml:space="preserve">
<g id="BG" display="none">
	<g id="jobs_1_" display="inline">
		<rect width="100" height="100"/>
		<g>
			<path fill="#00FA5C" d="M71,28v43H28V28H71 M72,27H27v45h45V27L72,27z"/>
		</g>
	</g>
</g>
<g id="Symbols">
	<path fill="#FFFFFF" d="M39.24,25.68c0-5.944,4.815-10.759,10.76-10.759c5.941,0,10.76,4.814,10.76,10.759
		c0,5.941-4.818,10.759-10.76,10.759C44.056,36.438,39.24,31.621,39.24,25.68z M37,50h24v5h5.648c0.042,0-0.748,0-0.706,0
		l0.831-1.738c0-9.393-7.636-13.741-17.025-13.741c-9.392,0-17.025,4.324-17.025,13.716L33.553,55H37V50z M73.672,68.307
		l-2.076-5.689c-0.877-2.616-3.689-3.361-6.107-3.414C65.446,59.201,65.493,59,65.449,59H62v5h3.159l-2.491,5h-0.415h-23.67H38
		v-1.316L36.091,64H38v-5h-3.154h-0.291c-2.477,0-5,1.145-6.146,3.846l-4.152,11.107c0,2.477,2.008,5.047,4.484,5.047h42.522
		c2.446,0,4.432-2.615,4.479-5.068L73.672,68.307z M50.089,54.959c-1.913,0-3.463,1.55-3.463,3.462c0,1.913,1.55,3.463,3.463,3.463
		c1.912,0,3.462-1.55,3.462-3.463C53.551,56.509,52.001,54.959,50.089,54.959z"/>
</g>
</svg>
