<?xml version="1.0" encoding="utf-8"?>
<!-- Generator: Adobe Illustrator 16.0.0, SVG Export Plug-In . SVG Version: 6.00 Build 0)  -->
<!DOCTYPE svg PUBLIC "-//W3C//DTD SVG 1.1//EN" "http://www.w3.org/Graphics/SVG/1.1/DTD/svg11.dtd">
<svg version="1.1" xmlns="http://www.w3.org/2000/svg" xmlns:xlink="http://www.w3.org/1999/xlink" x="0px" y="0px" width="100px"
	 height="100px" viewBox="0 0 100 100" enable-background="new 0 0 100 100" xml:space="preserve">
<g id="BG" display="none">
	<g id="disease_specialties" display="inline">
		<rect width="100" height="100"/>
		<g>
			<path fill="#00FA5C" d="M71,29v43H28V29H71 M72,28H27v45h45V28L72,28z"/>
		</g>
	</g>
</g>
<g id="Symbols">
	<path id="disease_specialties_1_" fill="#FFFFFF" d="M76.281,37.256L79,34.537L66.291,21.828l-2.719,2.719l3.219,3.219l-5.43,5.431
		l-6.062-6.061l-3.226,3.226l2.369,2.37L31.159,56.014c0.042,2.697,0.843,5.188,2.184,7.287l-2.856,2.859l1.014,1.016L21,77.677
		l3.81,0.495l8.844-8.845l1.015,1.016l2.857-2.857c2.103,1.343,4.592,2.141,7.289,2.184l23.283-23.283l2.369,2.371l3.227-3.228
		l-6.062-6.063l5.431-5.429L76.281,37.256z M44.544,66.749l-2.575-2.575l1.413-1.413l2.575,2.573L44.544,66.749z M50.75,60.628
		l-2.574-2.575l1.414-1.413l2.574,2.575L50.75,60.628z M56.827,54.378l-2.576-2.575l1.415-1.415l2.575,2.575L56.827,54.378z
		 M63.922,46.316l-2.092-2.093l-1.416,1.415l2.094,2.092c-0.681,0.682-1.31,1.31-1.897,1.899c-2.466-2.466-4.931-4.929-7.394-7.395
		l-17.31,17.309L33.9,57.537l22.39-22.409l9.411,9.411C65.07,45.17,64.48,45.76,63.922,46.316z"/>
</g>
</svg>
