<?xml version="1.0" encoding="utf-8"?>
<!-- Generator: Adobe Illustrator 16.0.0, SVG Export Plug-In . SVG Version: 6.00 Build 0)  -->
<!DOCTYPE svg PUBLIC "-//W3C//DTD SVG 1.1//EN" "http://www.w3.org/Graphics/SVG/1.1/DTD/svg11.dtd">
<svg version="1.1" xmlns="http://www.w3.org/2000/svg" xmlns:xlink="http://www.w3.org/1999/xlink" x="0px" y="0px" width="100px"
	 height="100px" viewBox="0 0 100 100" enable-background="new 0 0 100 100" xml:space="preserve">
<g id="BG" display="none">
	<g id="flexcare" display="inline">
		<rect width="100" height="100"/>
		<g>
			<path fill="#00FA5C" d="M71,29v43H28V29H71 M72,28H27v45h45V28L72,28z"/>
		</g>
	</g>
</g>
<g id="Symbols">
	<g id="flexcare_1_">
		<path fill="#FFFFFF" d="M71.977,23.653h-6.51c-1.094-1.394-2.772-2.261-5.152-2.261c-5.995,0-5.995-3.576-5.995-3.576
			c-0.005-2.383-1.938-4.315-4.323-4.315c-2.382,0-4.314,1.932-4.314,4.315c0,0,0,3.576-5.996,3.576c-2.38,0-4.06,0.868-5.152,2.261
			h-6.51c-1.268,0-2.293,1.027-2.293,2.293v50.261c0,1.266,1.025,2.293,2.293,2.293h43.953c1.268,0,2.293-1.027,2.293-2.293V25.946
			C74.27,24.68,73.244,23.653,71.977,23.653z M49.996,16.002c1.003,0,1.815,0.812,1.815,1.813c0,1.002-0.812,1.815-1.815,1.815
			c-0.999,0-1.812-0.812-1.812-1.815C48.184,16.814,48.997,16.002,49.996,16.002z M69.312,73.333H30.688v-46.43h2.436
			c-0.148,0.75-0.222,1.546-0.222,2.37h34.197c0-0.824-0.074-1.62-0.222-2.37h2.436V73.333z"/>
		<rect x="35.577" y="36.096" fill="#FFFFFF" width="6.164" height="6.164"/>
		<rect x="35.577" y="48.734" fill="#FFFFFF" width="6.164" height="6.163"/>
		<rect x="35.577" y="61.372" fill="#FFFFFF" width="6.164" height="6.164"/>
		<rect x="46.288" y="37.648" fill="#FFFFFF" width="17.902" height="3.059"/>
		<rect x="46.288" y="50.288" fill="#FFFFFF" width="17.902" height="3.057"/>
		<rect x="46.288" y="62.926" fill="#FFFFFF" width="17.902" height="3.057"/>
	</g>
</g>
</svg>
