<?xml version="1.0" encoding="utf-8"?>
<!-- Generator: Adobe Illustrator 16.0.0, SVG Export Plug-In . SVG Version: 6.00 Build 0)  -->
<!DOCTYPE svg PUBLIC "-//W3C//DTD SVG 1.1//EN" "http://www.w3.org/Graphics/SVG/1.1/DTD/svg11.dtd">
<svg version="1.1" xmlns="http://www.w3.org/2000/svg" xmlns:xlink="http://www.w3.org/1999/xlink" x="0px" y="0px" width="100px"
	 height="100px" viewBox="0 0 100 100" enable-background="new 0 0 100 100" xml:space="preserve">
<g id="BG" display="none">
	<rect id="gears" display="inline" width="100" height="100"/>
</g>
<g id="Symbols">
	<g id="gears_1_">
		<defs>
			<rect id="SVGID_1_" width="100" height="100"/>
		</defs>
		<clipPath id="SVGID_2_">
			<use xlink:href="#SVGID_1_"  overflow="visible"/>
		</clipPath>
		<path clip-path="url(#SVGID_2_)" fill="#FFFFFF" d="M86,30V11h-9.422c-0.424-1-0.932-2.441-1.517-3.582l6.354-6.366L68.921-11.453
			l-6.03,6.521C61.801-5.453,62-5.905,60-6.281V-15H41v8.969c-1,0.384-1.955,0.833-2.967,1.341l-6.684-6.77L18.894,1.036l6.865,6.87
			C25.276,8.895,24.875,10,24.512,11H15v19h9.414c0.359,1,0.782,1.45,1.269,2.472l-6.743,6.397l12.494,12.322l6.406-6.662
			C38.911,45.079,40,45.477,41,45.883V56h19v-9.867c2-0.398,1.939-0.879,3.09-1.439l6.076,6.325L81.54,38.523l-6.315-5.564
			C75.812,31.788,76.259,32,76.677,30H86z M50.599,42.328c-12.389,0-22.467-10.079-22.467-22.468S38.209-2.606,50.599-2.606
			c12.389,0,22.468,10.078,22.468,22.467S62.987,42.328,50.599,42.328z M50.599-0.467c-11.209,0-20.328,9.118-20.328,20.327
			s9.119,20.328,20.328,20.328s20.328-9.119,20.328-20.328S61.808-0.467,50.599-0.467z M50.472,36.535
			c-9.254,0-16.755-7.502-16.755-16.755c0-9.254,7.501-16.755,16.755-16.755c9.253,0,16.755,7.501,16.755,16.755
			C67.227,29.033,59.725,36.535,50.472,36.535z"/>
		<path clip-path="url(#SVGID_2_)" fill="#FFFFFF" d="M49.36,94.129l1.149-18.965l-9.405-0.57c-0.362-1.023-0.782-2.493-1.297-3.667
			l6.728-5.971L34.819,51.719l-6.414,6.146c-1.056-0.587-0.83-1.026-2.804-1.522l0.527-8.702L7.164,46.49l-0.542,8.953
			C5.6,55.766,4.62,56.156,3.579,56.602l-6.263-7.161l-13.188,11.721l6.438,7.272c-0.542,0.957-1.008,2.036-1.432,3.013
			l-9.495-0.575l-1.148,18.965l9.396,0.569c0.298,1.021,0.693,1.495,1.117,2.544l-7.118,5.979l11.726,13.055l6.797-6.263
			c1.038,0.613,2.101,1.076,3.074,1.542L2.871,117.36l18.965,1.149l0.597-9.85c2.02-0.276,1.989-0.76,3.171-1.25l5.683,6.681
			l13.107-11.724l-5.967-5.937c0.658-1.133,1.09-0.895,1.628-2.865L49.36,94.129z M13.279,104.294
			C0.912,103.545-8.538,92.875-7.789,80.509C-7.04,68.144,3.629,58.692,15.996,59.441c12.366,0.749,21.817,11.418,21.068,23.784
			S25.645,105.043,13.279,104.294z M15.866,61.577C4.678,60.899-4.976,69.45-5.653,80.639s7.873,20.842,19.062,21.52
			s20.842-7.873,21.52-19.062S27.055,62.255,15.866,61.577z M13.502,98.504c-9.237-0.56-16.271-8.501-15.711-17.737
			s8.5-16.271,17.737-15.711c9.236,0.56,16.271,8.5,15.711,17.737C30.68,92.029,22.738,99.063,13.502,98.504z"/>
		<path clip-path="url(#SVGID_2_)" fill="#FFFFFF" d="M124.136,86.385l-3.455-18.683l-9.266,1.713
			c-0.598-0.905-1.359-2.231-2.143-3.246l5.091-7.416L99.803,48.729l-4.744,7.51c-1.166-0.314-1.054-0.796-3.088-0.802l-1.586-8.573
			l-18.683,3.455l1.631,8.819c-0.914,0.56-1.771,1.175-2.674,1.858l-7.804-5.44l-9.975,14.553l8,5.507
			c-0.296,1.06-0.488,2.22-0.663,3.27l-9.354,1.729l3.455,18.683l9.258-1.712c0.535,0.918,1.032,1.283,1.696,2.2l-5.467,7.517
			l14.526,9.845l5.087-7.716c1.155,0.345,2.298,0.538,3.354,0.755l1.841,9.949l18.683-3.455l-1.794-9.703
			c1.895-0.756,1.747-1.217,2.776-1.978l7.125,5.114l9.896-14.536l-7.222-4.323c0.364-1.259,0.842-1.132,0.889-3.174L124.136,86.385
			z M91.566,104.946c-12.183,2.253-23.926-5.824-26.179-18.007c-2.254-12.182,5.824-23.925,18.007-26.179
			c12.183-2.253,23.926,5.824,26.18,18.006C111.826,90.948,103.749,102.693,91.566,104.946z M83.783,62.865
			C72.762,64.904,65.454,75.528,67.492,86.55c2.039,11.022,12.663,18.331,23.686,16.292c11.021-2.038,18.33-12.664,16.292-23.687
			C105.432,68.134,94.806,60.826,83.783,62.865z M90.389,99.272c-9.1,1.684-17.84-4.329-19.522-13.428
			c-1.684-9.1,4.328-17.84,13.428-19.522c9.099-1.684,17.84,4.328,19.522,13.428C105.5,88.849,99.487,97.591,90.389,99.272z"/>
	</g>
</g>
</svg>
