<?xml version="1.0" encoding="utf-8"?>
<!-- Generator: Adobe Illustrator 16.0.0, SVG Export Plug-In . SVG Version: 6.00 Build 0)  -->
<!DOCTYPE svg PUBLIC "-//W3C//DTD SVG 1.1//EN" "http://www.w3.org/Graphics/SVG/1.1/DTD/svg11.dtd">
<svg version="1.1" xmlns="http://www.w3.org/2000/svg" xmlns:xlink="http://www.w3.org/1999/xlink" x="0px" y="0px" width="100px"
	 height="100px" viewBox="0 0 100 100" enable-background="new 0 0 100 100" xml:space="preserve">
<g id="BG" display="none">
	<rect display="inline" width="100" height="100"/>
</g>
<g id="Symbols">
	<g id="hands_2_">
		<path fill="#FFFFFF" d="M93.624,77.332c8.824-8.822,5.02-18.19,1.044-22.167L75.89,36.474c-1.085-1.083-2.888-1.041-4.025,0.097
			c-1.136,1.139-1.18,2.942-0.097,4.024l10.221,10.22c-0.741,0.168-1.483,0.407-2.223,0.686L66.527,38.263
			c-1.189-1.191-3.166-1.145-4.419,0.107c-1.248,1.25-1.298,3.23-0.109,4.419l12.105,12.104c-0.805,0.653-1.495,1.412-1.495,1.412
			L59.432,43.129c-1.192-1.189-3.172-1.144-4.418,0.105c-1.251,1.25-1.3,3.231-0.109,4.424l13.973,13.967
			c-0.329,0.683-0.616,1.371-0.844,2.066L55.834,51.492c-1.189-1.188-3.168-1.142-4.419,0.108s-1.3,3.229-0.109,4.419l15.047,15.046
			c0,0-12.867-4.169-12.527,5.257c0.056,1.503,5.855-0.83,14.677,2.841C73.677,80.936,83.268,87.688,93.624,77.332z"/>
		<path fill="#FFFFFF" d="M6.376,23.167c-8.823,8.823-5.02,18.192-1.045,22.167l18.778,18.692c1.086,1.083,2.888,1.039,4.027-0.099
			c1.136-1.14,1.18-2.94,0.097-4.022L18.011,49.686c0.742-0.168,1.485-0.407,2.224-0.686l13.237,13.237
			c1.191,1.19,3.169,1.145,4.419-0.107c1.25-1.249,1.298-3.23,0.11-4.419L25.897,45.607c0.804-0.653,1.494-1.412,1.494-1.412
			l13.18,13.177c1.189,1.188,3.17,1.144,4.418-0.107c1.249-1.25,1.298-3.23,0.107-4.423L31.125,38.876
			c0.327-0.684,0.613-1.373,0.841-2.068l12.2,12.199c1.19,1.188,3.168,1.142,4.419-0.108c1.251-1.249,1.3-3.229,0.109-4.419
			L33.647,29.436c0,0,12.866,4.167,12.526-5.259c-0.054-1.502-5.854,0.832-14.676-2.841C26.325,19.565,16.732,12.811,6.376,23.167z"
			/>
	</g>
</g>
</svg>
