<?xml version="1.0" encoding="utf-8"?>
<!-- Generator: Adobe Illustrator 16.0.0, SVG Export Plug-In . SVG Version: 6.00 Build 0)  -->
<!DOCTYPE svg PUBLIC "-//W3C//DTD SVG 1.1//EN" "http://www.w3.org/Graphics/SVG/1.1/DTD/svg11.dtd">
<svg version="1.1" xmlns="http://www.w3.org/2000/svg" xmlns:xlink="http://www.w3.org/1999/xlink" x="0px" y="0px" width="100px"
	 height="100px" viewBox="0 0 100 100" enable-background="new 0 0 100 100" xml:space="preserve">
<g id="BG" display="none">
	<g id="home_care" display="inline">
		<rect width="100" height="100"/>
		<g>
			<path fill="#00FA5C" d="M71,29v43H28V29H71 M72,28H27v45h45V28L72,28z"/>
		</g>
	</g>
</g>
<g id="Symbols">
	<g id="home_care_2_">
		<path fill="#FFFFFF" d="M80.608,38.076l-29.763-19.27l-1.956-0.003L39,25.407V22h-8v9.459l-10.392,7.107l3.499,6.323L27,42.3
			v19.107c1,0.277,2.434,0.689,3.137,1.251c0.32-0.26,1.863-0.489,1.863-0.688V40.031l18.082-12.539L68,39.159V69h-4V52H54v17
			H43.864c0.049,2,0.083,0.582,0.083,0.98c0,1.092-0.228,3.02-0.61,3.02H72V41.291l4.713,3.234L80.608,38.076z"/>
		<rect x="39" y="44" fill="#FFFFFF" width="9" height="11"/>
		<path fill="#FFFFFF" d="M29.83,70.463c0-9.548-11.148-8.305-11.148,0.297c0,4.999,11.148,10.6,11.148,10.6
			s11.147-5.601,11.147-10.6C40.978,62.158,29.83,60.887,29.83,70.463z"/>
	</g>
</g>
</svg>
