<?xml version="1.0" encoding="utf-8"?>
<!-- Generator: Adobe Illustrator 16.0.0, SVG Export Plug-In . SVG Version: 6.00 Build 0)  -->
<!DOCTYPE svg PUBLIC "-//W3C//DTD SVG 1.1//EN" "http://www.w3.org/Graphics/SVG/1.1/DTD/svg11.dtd">
<svg version="1.1" xmlns="http://www.w3.org/2000/svg" xmlns:xlink="http://www.w3.org/1999/xlink" x="0px" y="0px" width="100px"
	 height="100px" viewBox="0 0 100 100" enable-background="new 0 0 100 100" xml:space="preserve">
<g id="BG" display="none">
	<g id="how_we_train" display="inline">
		<rect width="100" height="100"/>
		<g>
			<path fill="#00FA5C" d="M71,28v43H28V28H71 M72,27H27v45h45V27L72,27z"/>
		</g>
	</g>
</g>
<g id="Symbols">
	<path id="how_we_train_1_" fill="#FFFFFF" d="M82.386,49.968c0-2.216-1.095-4.171-2.771-5.364c1.677-1.195,2.771-3.148,2.771-5.364
		c0-1.857-0.771-3.531-2.006-4.729c1.024-0.991,1.666-2.378,1.666-3.915c0-3.01-2.439-5.449-5.45-5.449
		c-1.745,0-3.295,0.823-4.291,2.101C71.049,25.869,69.247,25,67.236,25c-2.306,0-4.341,1.141-5.586,2.883
		C60.406,26.141,58.372,25,56.066,25s-4.342,1.141-5.586,2.885C49.236,26.141,47.202,25,44.895,25c-2.306,0-4.34,1.141-5.584,2.883
		C38.066,26.141,36.03,25,33.727,25c-2.236,0-4.216,1.073-5.47,2.729c-0.961-1.549-2.673-2.583-4.628-2.583
		c-3.009,0-5.448,2.439-5.448,5.449c0,1.5,0.607,2.859,1.59,3.846c-1.322,1.205-2.156,2.936-2.156,4.864
		c0,2.215,1.095,4.169,2.77,5.364c-1.675,1.194-2.77,3.148-2.77,5.362c0,2.216,1.095,4.171,2.771,5.364
		c-1.677,1.195-2.771,3.148-2.771,5.364c0,1.78,0.708,3.391,1.854,4.576c-1.12,0.998-1.832,2.448-1.832,4.067
		c0,3.01,2.44,5.449,5.45,5.449c1.802,0,3.396-0.879,4.387-2.229C28.73,74.077,30.586,75,32.658,75c2.306,0,4.34-1.141,5.584-2.883
		C39.486,73.859,41.522,75,43.826,75c2.308,0,4.342-1.141,5.588-2.885C50.658,73.859,52.692,75,55,75
		c2.306,0,4.34-1.141,5.584-2.883C61.828,73.859,63.862,75,66.168,75c2.235,0,4.216-1.073,5.468-2.729
		c0.962,1.549,2.673,2.583,4.63,2.583c3.008,0,5.447-2.439,5.447-5.449c0-1.476-0.588-2.812-1.541-3.793
		c1.354-1.207,2.214-2.96,2.214-4.917c0-2.216-1.095-4.169-2.771-5.365C81.291,54.136,82.386,52.182,82.386,49.968z M76.146,68.745
		H23.854V31.256h52.292V68.745z M67.48,43.71H32.521v-3.396H67.48V43.71z M39.076,49.512h21.849v3.396H39.076V49.512z
		 M66.482,54.926l1.094-0.629l0.765,0.999l1.251-0.165l0.325,1.219l1.219,0.324l-0.168,1.251l1.002,0.767l-0.63,1.091l0.63,1.091
		l-1.002,0.768l0.168,1.25l-1.219,0.325l-0.325,1.217l-1.251-0.164l-0.765,1l-1.094-0.63l-1.09,0.63l-0.767-1l-1.249,0.164
		l-0.327-1.217l-1.219-0.325l0.166-1.25l-1-0.768l0.63-1.091l-0.63-1.091l1-0.767l-0.166-1.251l1.219-0.324l0.327-1.219l1.249,0.165
		l0.767-0.999L66.482,54.926z"/>
</g>
</svg>
