<?xml version="1.0" encoding="utf-8"?>
<!-- Generator: Adobe Illustrator 16.0.0, SVG Export Plug-In . SVG Version: 6.00 Build 0)  -->
<!DOCTYPE svg PUBLIC "-//W3C//DTD SVG 1.1//EN" "http://www.w3.org/Graphics/SVG/1.1/DTD/svg11.dtd">
<svg version="1.1" xmlns="http://www.w3.org/2000/svg" xmlns:xlink="http://www.w3.org/1999/xlink" x="0px" y="0px" width="100px"
	 height="100px" viewBox="0 0 100 100" enable-background="new 0 0 100 100" xml:space="preserve">
<g id="BG" display="none">
	<g id="how_we_match" display="inline">
		<rect width="100" height="100"/>
		<g>
			<path fill="#00FA5C" d="M71,28v43H28V28H71 M72,27H27v45h45V27L72,27z"/>
		</g>
	</g>
</g>
<g id="Symbols">
	<g id="gears_1_">
		<defs>
			<rect id="SVGID_1_" x="-120" y="2" width="100" height="100"/>
		</defs>
		<clipPath id="SVGID_2_">
			<use xlink:href="#SVGID_1_"  overflow="visible"/>
		</clipPath>
		<path clip-path="url(#SVGID_2_)" fill="#FFFFFF" d="M4.136,88.385L0.681,69.702l-9.266,1.713
			c-0.598-0.905-1.359-2.231-2.143-3.246l5.091-7.416l-14.561-10.023l-4.744,7.51c-1.166-0.314-1.054-0.796-3.088-0.802
			l-1.586-8.573l-18.683,3.455l1.631,8.819c-0.914,0.56-1.771,1.175-2.674,1.858l-7.804-5.44l-9.975,14.553l8,5.507
			c-0.296,1.06-0.488,2.22-0.663,3.27l-9.354,1.729l3.455,18.683l9.258-1.712c0.535,0.918,1.032,1.283,1.696,2.2l-5.467,7.517
			l14.526,9.845l5.087-7.716c1.155,0.345,2.298,0.538,3.354,0.755l1.841,9.949l18.683-3.455l-1.794-9.703
			c1.895-0.756,1.747-1.217,2.776-1.978l7.125,5.114l9.896-14.536l-7.222-4.323c0.364-1.259,0.842-1.132,0.889-3.174L4.136,88.385z
			 M-28.434,106.946c-12.183,2.253-23.926-5.824-26.179-18.007c-2.254-12.182,5.824-23.925,18.007-26.179
			c12.183-2.253,23.926,5.824,26.18,18.006C-8.174,92.948-16.251,104.693-28.434,106.946z M-36.217,64.865
			c-11.021,2.039-18.329,12.663-16.291,23.685c2.039,11.022,12.663,18.331,23.686,16.292c11.021-2.038,18.33-12.664,16.292-23.687
			C-14.568,70.134-25.194,62.826-36.217,64.865z M-29.611,101.272c-9.1,1.684-17.84-4.329-19.522-13.428
			c-1.684-9.1,4.328-17.84,13.428-19.522c9.099-1.684,17.84,4.328,19.522,13.428C-14.5,90.849-20.513,99.591-29.611,101.272z"/>
	</g>
	<g id="how_we_match_1_">
		<path fill="#FFFFFF" d="M52.76,56.171L51.462,72h21.361l0.793-11.726L76.599,72h8.856c0,0-2.235-14.687-4.509-21.726
			C80.946,50.274,77.705,55.624,52.76,56.171z"/>
		<circle fill="#FFFFFF" cx="37.295" cy="28.091" r="9.09"/>
		<path fill="#FFFFFF" d="M70.186,39.149c0.634-1.202,0.997-2.569,0.997-4.022c0-4.779-3.874-8.65-8.648-8.65
			c-4.777,0-8.649,3.871-8.649,8.65c0,1.343,0.315,2.609,0.863,3.744C58.007,39.515,66.6,39.906,70.186,39.149z"/>
		<path fill="#FFFFFF" d="M74.995,41.856c2.488-0.363,4.457,1.333,4.517,3.897c0.042,1.896-1.63,2.922-3.967,3.914
			c-2.405,1.021-5.667,2.071-13.666,2.596c-6.44,0.423-12.218,0.701-12.218,0.701L48.086,72H27.177l-0.793-14.106L23.401,72h-8.856
			c0,0,3.194-20.733,5.984-25.414c2.515-4.215,5.873-6.015,17.787-6.015c9.066,0,14.423,2.068,22.828,2.229
			C64.173,42.858,67.981,42.882,74.995,41.856z"/>
	</g>
</g>
</svg>
