<?xml version="1.0" encoding="utf-8"?>
<!-- Generator: Adobe Illustrator 16.0.4, SVG Export Plug-In . SVG Version: 6.00 Build 0)  -->
<!DOCTYPE svg PUBLIC "-//W3C//DTD SVG 1.1//EN" "http://www.w3.org/Graphics/SVG/1.1/DTD/svg11.dtd">
<svg version="1.1" id="Layer_1" xmlns="http://www.w3.org/2000/svg" xmlns:xlink="http://www.w3.org/1999/xlink" x="0px" y="0px"
	 width="24px" height="19.562px" viewBox="0 0 24 19.562" enable-background="new 0 0 24 19.562" xml:space="preserve">
<g>
	<path fill="#FFFFFF" d="M22.82,11.289c-0.072,0.088-0.19,0.147-0.307,0.16c-0.015,0-0.03,0-0.044,0
		c-0.118,0-0.222-0.028-0.31-0.102L12,2.875l-10.16,8.473c-0.103,0.073-0.221,0.117-0.353,0.102
		c-0.118-0.013-0.235-0.072-0.309-0.16L0.27,10.2c-0.162-0.189-0.132-0.499,0.059-0.66l10.556-8.794
		c0.617-0.514,1.615-0.514,2.232,0l3.583,2.995V0.878c0-0.265,0.205-0.47,0.47-0.47h2.818c0.265,0,0.47,0.205,0.47,0.47v5.99
		l3.216,2.671c0.189,0.162,0.22,0.471,0.059,0.66L22.82,11.289z M20.457,18.263c0,0.513-0.426,0.939-0.938,0.939h-5.638v-5.639
		h-3.76v5.639H4.483c-0.514,0-0.94-0.427-0.94-0.939v-7.048c0-0.029,0.015-0.06,0.015-0.089L12,4.167l8.443,6.959
		c0.014,0.029,0.014,0.06,0.014,0.089V18.263z"/>
</g>
</svg>
