<?xml version="1.0" encoding="utf-8"?>
<!-- Generator: Adobe Illustrator 16.0.4, SVG Export Plug-In . SVG Version: 6.00 Build 0)  -->
<!DOCTYPE svg PUBLIC "-//W3C//DTD SVG 1.1//EN" "http://www.w3.org/Graphics/SVG/1.1/DTD/svg11.dtd">
<svg version="1.1" id="Layer_1" xmlns="http://www.w3.org/2000/svg" xmlns:xlink="http://www.w3.org/1999/xlink" x="0px" y="0px"
	 width="25px" height="28px" viewBox="0 0 25 28" enable-background="new 0 0 25 28" xml:space="preserve">
<g>
	<path fill="#002F6C" d="M23.519,19.482c-0.327,0.765-1.2,1.263-1.901,1.653c-0.918,0.497-1.853,0.793-2.896,0.793
		c-1.447,0-2.757-0.59-4.082-1.074c-0.95-0.343-1.868-0.763-2.724-1.293c-2.647-1.635-5.84-4.827-7.476-7.474
		c-0.529-0.857-0.951-1.776-1.292-2.726C2.663,8.037,2.072,6.728,2.072,5.281c0-1.044,0.296-1.98,0.794-2.897
		c0.39-0.702,0.888-1.576,1.651-1.903C5.032,0.25,6.122,0,6.683,0C6.792,0,6.902,0,7.01,0.047c0.326,0.108,0.669,0.87,0.825,1.183
		C8.333,2.118,8.816,3.021,9.33,3.894c0.25,0.405,0.717,0.902,0.717,1.387c0,0.95-2.819,2.336-2.819,3.177
		c0,0.42,0.388,0.966,0.607,1.34c1.574,2.835,3.535,4.796,6.369,6.369c0.375,0.219,0.919,0.608,1.342,0.608
		c0.841,0,2.226-2.821,3.176-2.821c0.483,0,0.982,0.469,1.387,0.716c0.872,0.514,1.774,0.997,2.662,1.495
		c0.312,0.156,1.076,0.5,1.186,0.826C24,17.1,24,17.209,24,17.317C24.001,17.88,23.753,18.97,23.519,19.482z"/>
</g>
</svg>
