<?xml version="1.0" encoding="utf-8"?>
<!-- Generator: Adobe Illustrator 16.0.4, SVG Export Plug-In . SVG Version: 6.00 Build 0)  -->
<!DOCTYPE svg PUBLIC "-//W3C//DTD SVG 1.1//EN" "http://www.w3.org/Graphics/SVG/1.1/DTD/svg11.dtd">
<svg version="1.1" id="Layer_1" xmlns="http://www.w3.org/2000/svg" xmlns:xlink="http://www.w3.org/1999/xlink" x="0px" y="0px"
	 width="55px" height="55px" viewBox="0 0 55 55" enable-background="new 0 0 55 55" xml:space="preserve">
<g>
	<g>
		<polygon fill="#FFFFFF" points="20.05,29.229 15.39,24.75 13.095,27.142 20.206,33.97 34.265,18.595 31.815,16.359 		"/>
		<path fill="#FFFFFF" d="M47.328,25.164C47.328,12.372,36.956,2,24.165,2C11.373,2,1,12.372,1,25.164
			C1,37.958,11.372,48.33,24.165,48.33c5.801,0,11.088-2.147,15.152-5.671L51.658,55L54,52.658L41.659,40.317
			C45.183,36.252,47.328,30.966,47.328,25.164z M4.313,25.164c0-10.945,8.906-19.851,19.853-19.851
			c10.947,0,19.852,8.906,19.852,19.851c0,10.949-8.904,19.854-19.852,19.854C13.219,45.018,4.313,36.111,4.313,25.164z"/>
	</g>
</g>
</svg>
