<?xml version="1.0" encoding="utf-8"?>
<!-- Generator: Adobe Illustrator 16.0.4, SVG Export Plug-In . SVG Version: 6.00 Build 0)  -->
<!DOCTYPE svg PUBLIC "-//W3C//DTD SVG 1.1//EN" "http://www.w3.org/Graphics/SVG/1.1/DTD/svg11.dtd">
<svg version="1.1" id="Layer_1" xmlns="http://www.w3.org/2000/svg" xmlns:xlink="http://www.w3.org/1999/xlink" x="0px" y="0px"
	 width="100px" height="100px" viewBox="0 0 100 100" enable-background="new 0 0 100 100" xml:space="preserve">
<g>
	<path fill="#002E6D" d="M44.147,57.046c1.85,4.07,6.21,7.168,11.558,7.976C53.856,60.949,49.491,57.859,44.147,57.046z"/>
	<path fill="#FF5000" d="M43.195,52.488c-0.029,1.55,0.29,3.037,0.893,4.414c0.289-0.008,0.579-0.008,0.872-0.002
		c8.381,0.162,15.068,5.866,14.937,12.742c-0.014,0.623-0.081,1.232-0.198,1.825l10.362-10.363L50.203,41.189
		C46.301,44.271,43.284,47.92,43.195,52.488z"/>
	<path fill="#002E6D" d="M49.996,80.812c4.105-3.902,6.572-6.67,6.659-11.229c0.031-1.553-0.289-3.038-0.891-4.418
		c-0.289,0.009-0.581,0.011-0.876,0.003c-8.381-0.161-15.066-5.868-14.934-12.743c0.009-0.497,0.061-0.99,0.14-1.473L29.939,61.104
		L49.996,80.812z"/>
</g>
<path fill="#999999" d="M65.396,5.775C63.383,3.764,59.128,2,56.29,2H14.358c-2.19,0-3.973,1.781-3.973,3.971v88.059
	c0,2.189,1.782,3.971,3.973,3.971h71.285c2.189,0,3.971-1.781,3.971-3.971V35.324c0-2.84-1.764-7.094-3.776-9.105L65.396,5.775z
	 M85.863,94.25H14.136V5.75h38.182v29.574c0,2.189,1.781,3.972,3.972,3.972h29.574V94.25z M56.067,35.545V5.316l3.09,1.09
	c0.568,0.201,2.503,0.937,3.554,1.986L83.218,28.9c1.051,1.051,1.787,2.986,1.988,3.555l1.09,3.09H56.067z"/>
</svg>
