<?xml version="1.0" encoding="utf-8"?>
<!-- Generator: Adobe Illustrator 16.0.4, SVG Export Plug-In . SVG Version: 6.00 Build 0)  -->
<!DOCTYPE svg PUBLIC "-//W3C//DTD SVG 1.1//EN" "http://www.w3.org/Graphics/SVG/1.1/DTD/svg11.dtd">
<svg version="1.1" id="Layer_1" xmlns="http://www.w3.org/2000/svg" xmlns:xlink="http://www.w3.org/1999/xlink" x="0px" y="0px"
	 width="32px" height="25.833px" viewBox="0 0 32 25.833" enable-background="new 0 0 32 25.833" xml:space="preserve">
<g>
	<path fill="#002F6C" d="M24.183,8.691c-1.606,1.114-3.226,2.226-4.823,3.351c-0.671,0.464-1.803,1.412-2.64,1.412h-0.01H16.7
		c-0.835,0-1.969-0.948-2.639-1.412c-1.598-1.124-3.216-2.237-4.814-3.351c-0.732-0.495-1.773-1.66-1.773-2.597
		c0-1.01,0.546-1.876,1.649-1.876h15.173c0.896,0,1.649,0.742,1.649,1.649C25.945,7.021,25.09,8.062,24.183,8.691z M25.945,17.083
		c0,0.907-0.741,1.648-1.648,1.648H9.124c-0.907,0-1.649-0.742-1.649-1.648V8.897c0.31,0.34,0.659,0.64,1.042,0.897
		c1.711,1.165,3.443,2.33,5.123,3.557c0.866,0.639,1.938,1.421,3.062,1.421h0.009h0.01c1.124,0,2.197-0.782,3.063-1.421
		c1.679-1.217,3.41-2.392,5.132-3.557c0.372-0.257,0.723-0.557,1.03-0.897V17.083z"/>
</g>
</svg>
