<?xml version="1.0" encoding="utf-8"?>
<!-- Generator: Adobe Illustrator 16.0.4, SVG Export Plug-In . SVG Version: 6.00 Build 0)  -->
<!DOCTYPE svg PUBLIC "-//W3C//DTD SVG 1.1//EN" "http://www.w3.org/Graphics/SVG/1.1/DTD/svg11.dtd">
<svg version="1.1" id="Layer_1" xmlns="http://www.w3.org/2000/svg" xmlns:xlink="http://www.w3.org/1999/xlink" x="0px" y="0px"
	 width="54px" height="64px" viewBox="0 0 54 64" enable-background="new 0 0 54 64" xml:space="preserve">
<path fill="#FFFFFF" d="M50.619,14.523L38.477,2.38C37.186,1.09,34.557,0,32.735,0H7.83C6.27,0,5,1.27,5,2.829v52.303
	c0,1.56,1.27,2.829,2.83,2.829h42.341c1.559,0,2.829-1.27,2.829-2.829V20.263C53,18.442,51.91,15.813,50.619,14.523z M32.735,23.094
	h17.096v31.699H8.168V3.168h21.738v17.095C29.906,21.824,31.177,23.094,32.735,23.094z M33.074,19.924V3.104l1.207,0.426
	c0.648,0.229,1.496,0.63,1.936,1.069L48.397,16.78c0.438,0.439,0.841,1.287,1.069,1.935l0.427,1.208L33.074,19.924L33.074,19.924z"
	/>
</svg>
