<?xml version="1.0" encoding="utf-8"?>
<!-- Generator: Adobe Illustrator 16.0.4, SVG Export Plug-In . SVG Version: 6.00 Build 0)  -->
<!DOCTYPE svg PUBLIC "-//W3C//DTD SVG 1.1//EN" "http://www.w3.org/Graphics/SVG/1.1/DTD/svg11.dtd">
<svg version="1.1" id="Layer_1" xmlns="http://www.w3.org/2000/svg" xmlns:xlink="http://www.w3.org/1999/xlink" x="0px" y="0px"
	 width="40px" height="40px" viewBox="0 0 40 40" enable-background="new 0 0 40 40" xml:space="preserve">
<g>
	<path fill="#FE5000" d="M37.859,9.582c0,0.814-0.674,1.488-1.488,1.488H3.629c-0.813,0-1.488-0.674-1.488-1.488V6.605
		c0-0.814,0.675-1.488,1.488-1.488h32.742c0.814,0,1.488,0.674,1.488,1.488V9.582z M37.859,21.488c0,0.813-0.674,1.488-1.488,1.488
		H3.629c-0.813,0-1.488-0.675-1.488-1.488v-2.977c0-0.813,0.675-1.488,1.488-1.488h32.742c0.814,0,1.488,0.675,1.488,1.488V21.488z
		 M37.859,33.395c0,0.813-0.674,1.488-1.488,1.488H3.629c-0.813,0-1.488-0.675-1.488-1.488v-2.977c0-0.813,0.675-1.488,1.488-1.488
		h32.742c0.814,0,1.488,0.675,1.488,1.488V33.395z"/>
</g>
</svg>
