<?xml version="1.0" encoding="utf-8"?>
<!-- Generator: Adobe Illustrator 16.0.4, SVG Export Plug-In . SVG Version: 6.00 Build 0)  -->
<!DOCTYPE svg PUBLIC "-//W3C//DTD SVG 1.1//EN" "http://www.w3.org/Graphics/SVG/1.1/DTD/svg11.dtd">
<svg version="1.1" id="Layer_1" xmlns="http://www.w3.org/2000/svg" xmlns:xlink="http://www.w3.org/1999/xlink" x="0px" y="0px"
	 width="65px" height="50px" viewBox="0 0 65 50" enable-background="new 0 0 65 50" xml:space="preserve">
<g>
	<g>
		<path fill="#FFFFFF" d="M63.617,50.309H1.383C0.553,50.309,0,49.755,0,48.924V9.925c0-0.83,0.553-1.384,1.383-1.384h62.234
			C64.446,8.541,65,9.095,65,9.925v38.999C65,49.616,64.446,50.309,63.617,50.309z M2.766,47.542h59.468V11.308H2.766V47.542z"/>
	</g>
	<g>
		<path fill="#FFFFFF" d="M42.733,11.308H22.266c-0.83,0-1.383-0.553-1.383-1.383V1.074c0-0.83,0.553-1.382,1.383-1.382h20.607
			c0.83,0,1.383,0.553,1.383,1.382v8.852C44.117,10.755,43.564,11.308,42.733,11.308z M23.648,8.542h17.84V2.457h-17.84V8.542z"/>
	</g>
	<g>
		<g>
			<path fill="#FFFFFF" d="M31.117,35.233V23.617h2.766v11.754L31.117,35.233z"/>
		</g>
		<g>
			<path fill="#FFFFFF" d="M38.309,30.809H26.553v-2.767h11.755V30.809z"/>
		</g>
	</g>
	<g>
		<path fill="#FFFFFF" d="M32.5,41.042c-6.5,0-11.617-5.256-11.617-11.617S26.138,17.808,32.5,17.808
			c6.361,0,11.617,5.255,11.617,11.617S39,41.042,32.5,41.042z M32.5,20.574c-4.84,0-8.852,4.012-8.852,8.851
			c0,4.842,4.011,8.851,8.852,8.851c4.841,0,8.851-4.009,8.851-8.851C41.351,24.585,37.341,20.574,32.5,20.574z"/>
	</g>
</g>
</svg>
