<?xml version="1.0" encoding="utf-8"?>
<!-- Generator: Adobe Illustrator 16.0.0, SVG Export Plug-In . SVG Version: 6.00 Build 0)  -->
<!DOCTYPE svg PUBLIC "-//W3C//DTD SVG 1.1//EN" "http://www.w3.org/Graphics/SVG/1.1/DTD/svg11.dtd">
<svg version="1.1" xmlns="http://www.w3.org/2000/svg" xmlns:xlink="http://www.w3.org/1999/xlink" x="0px" y="0px" width="100px"
	 height="100px" viewBox="0 0 100 100" enable-background="new 0 0 100 100" xml:space="preserve">
<g id="BG" display="none">
	<g id="jobs" display="inline">
		<rect width="100" height="100"/>
		<g>
			<path fill="#00FA5C" d="M71,28v43H28V28H71 M72,27H27v45h45V27L72,27z"/>
		</g>
	</g>
</g>
<g id="Symbols">
	<path id="Jobs" fill="#FFFFFF" d="M30.324,23.551c-1.475-1.803-0.011-5.442,3.269-8.131c3.281-2.688,7.138-3.404,8.613-1.602
		c0.662,0.808,0.729,1.986,0.309,3.282c-0.209,2.488,0.461,3.379,1.789,4.04c2.495-0.428,4.793,0.153,6.147,1.807
		c2.386,2.912,0.941,8.037-3.224,11.449s-9.474,3.818-11.859,0.905c-1.721-2.101-1.44-5.354,0.409-8.285
		c-0.283-0.538-0.493-0.867-0.493-0.867s-0.812-1.414-1.361-1.713C32.378,24.717,31.058,24.445,30.324,23.551z M46.206,38.625
		l2.347,3.654c0.718,1.119,2.206,1.443,3.324,0.725l0.158-0.102c1.119-0.717,1.443-2.206,0.725-3.324l-2.424-3.964
		c-0.384,0.382-0.781,0.754-1.207,1.103C48.212,37.468,47.225,38.101,46.206,38.625z M54.301,28.779
		c-0.04,0.173-0.068,0.345-0.117,0.519c-0.313,1.113-0.803,2.206-1.43,3.25l18.391,3.575c-1.39,20.193-6.614,33.366-8.486,37.523
		l-37.025-9.708c4.188-8.929,6.182-19.75,7.106-27.179c-1.77-2.5-1.975-5.915-0.592-9.246c-1.057-0.091-1.998-0.425-2.809-0.931
		l0.161,1.444c0.003,0.176-0.846,21.662-8.521,36.294l-1.167,2.226l44.96,11.788l0.743-1.394c0.335-0.629,8.225-15.695,9.732-42.328
		l0.098-1.738L54.301,28.779z M33.876,59.307c-0.172,0.576-0.397,1.074-0.678,1.494c-0.278,0.421-0.607,0.752-0.985,0.994
		s-0.804,0.388-1.275,0.438c-0.472,0.049-0.987-0.01-1.544-0.176c-0.255-0.076-0.501-0.166-0.737-0.27s-0.479-0.229-0.728-0.375
		l0.436-1.104c0.042-0.102,0.105-0.174,0.192-0.217c0.088-0.043,0.197-0.045,0.33-0.006c0.08,0.024,0.18,0.072,0.3,0.144
		s0.279,0.138,0.478,0.196c0.27,0.08,0.52,0.112,0.751,0.097c0.229-0.017,0.44-0.089,0.631-0.217
		c0.189-0.128,0.36-0.317,0.512-0.568c0.151-0.25,0.286-0.568,0.401-0.956l1.98-6.642l1.904,0.567L33.876,59.307z M46.206,61.371
		c-0.224,0.751-0.556,1.409-0.997,1.975c-0.44,0.564-0.957,1.013-1.55,1.346c-0.593,0.332-1.247,0.533-1.962,0.605
		c-0.716,0.072-1.46-0.007-2.234-0.237c-0.774-0.231-1.442-0.573-2.003-1.025c-0.562-0.453-1.001-0.981-1.317-1.585
		c-0.316-0.603-0.504-1.262-0.563-1.976s0.022-1.446,0.247-2.197c0.224-0.75,0.556-1.408,0.996-1.974
		c0.441-0.564,0.959-1.014,1.554-1.344c0.596-0.332,1.251-0.534,1.97-0.605c0.717-0.07,1.463,0.009,2.237,0.24
		c0.774,0.23,1.44,0.572,1.999,1.027c0.559,0.454,0.995,0.982,1.31,1.582s0.502,1.257,0.561,1.971
		C46.513,59.889,46.43,60.621,46.206,61.371z M44.252,60.789c0.167-0.562,0.244-1.088,0.228-1.578
		c-0.016-0.49-0.116-0.934-0.302-1.328c-0.187-0.395-0.454-0.734-0.803-1.018c-0.35-0.284-0.775-0.501-1.275-0.65
		c-0.501-0.149-0.976-0.201-1.426-0.155c-0.451,0.046-0.863,0.183-1.237,0.41c-0.373,0.228-0.703,0.542-0.986,0.943
		c-0.284,0.4-0.51,0.882-0.677,1.444c-0.168,0.562-0.243,1.088-0.225,1.579c0.018,0.491,0.122,0.933,0.31,1.326
		c0.189,0.394,0.459,0.732,0.812,1.017c0.352,0.285,0.777,0.502,1.278,0.651c0.5,0.149,0.976,0.2,1.423,0.154
		s0.857-0.183,1.229-0.409c0.371-0.226,0.697-0.539,0.979-0.941C43.86,61.832,44.084,61.352,44.252,60.789z M46.182,66.939
		l3.053-10.24l3.533,1.054c0.671,0.2,1.224,0.435,1.66,0.703c0.436,0.27,0.771,0.567,1.006,0.895
		c0.234,0.326,0.372,0.678,0.414,1.056c0.041,0.377,0,0.776-0.126,1.196c-0.071,0.241-0.175,0.46-0.312,0.659
		c-0.136,0.197-0.308,0.37-0.514,0.518c-0.205,0.147-0.445,0.264-0.721,0.352c-0.276,0.088-0.588,0.139-0.938,0.152
		c1.313,0.736,1.79,1.705,1.432,2.909c-0.13,0.435-0.332,0.812-0.607,1.13c-0.273,0.319-0.611,0.565-1.007,0.737
		c-0.395,0.173-0.847,0.266-1.354,0.278c-0.509,0.014-1.059-0.068-1.654-0.246L46.182,66.939z M49.425,63.018L48.53,66.02
		l1.933,0.576c0.354,0.105,0.663,0.152,0.926,0.139c0.264-0.015,0.489-0.071,0.675-0.17c0.187-0.098,0.34-0.232,0.46-0.402
		s0.211-0.361,0.274-0.573c0.066-0.222,0.091-0.433,0.073-0.63c-0.019-0.198-0.084-0.383-0.197-0.553
		c-0.114-0.17-0.279-0.323-0.495-0.46c-0.218-0.137-0.493-0.255-0.828-0.354L49.425,63.018z M49.817,61.7l1.522,0.454
		c0.646,0.192,1.172,0.221,1.578,0.085s0.686-0.462,0.839-0.976c0.159-0.533,0.12-0.959-0.113-1.275
		c-0.235-0.316-0.674-0.571-1.315-0.763L50.7,58.74L49.817,61.7z M63.394,62.949c-0.084,0.088-0.165,0.144-0.246,0.166
		c-0.081,0.021-0.168,0.019-0.263-0.01c-0.095-0.027-0.19-0.096-0.287-0.205c-0.096-0.107-0.211-0.23-0.344-0.368
		c-0.135-0.138-0.298-0.274-0.491-0.413c-0.192-0.137-0.435-0.248-0.728-0.336c-0.266-0.079-0.505-0.115-0.72-0.11
		s-0.406,0.044-0.574,0.118c-0.169,0.073-0.31,0.18-0.423,0.317c-0.113,0.139-0.198,0.302-0.255,0.49
		c-0.071,0.241-0.063,0.462,0.023,0.663c0.086,0.199,0.224,0.391,0.411,0.569c0.189,0.18,0.411,0.356,0.668,0.531
		c0.256,0.173,0.517,0.355,0.781,0.545c0.266,0.189,0.52,0.394,0.762,0.612c0.244,0.22,0.446,0.465,0.606,0.736
		s0.263,0.576,0.31,0.913c0.046,0.338,0.006,0.72-0.121,1.144c-0.138,0.463-0.348,0.872-0.626,1.229
		c-0.277,0.356-0.613,0.64-1.008,0.848c-0.393,0.21-0.835,0.335-1.326,0.377c-0.49,0.041-1.019-0.023-1.586-0.191
		c-0.325-0.098-0.637-0.225-0.935-0.383c-0.297-0.158-0.573-0.34-0.828-0.544c-0.254-0.205-0.483-0.428-0.688-0.668
		c-0.203-0.241-0.374-0.491-0.512-0.754l0.825-0.749c0.071-0.051,0.15-0.087,0.237-0.11c0.086-0.023,0.174-0.021,0.264,0.006
		c0.118,0.035,0.23,0.122,0.34,0.259c0.107,0.138,0.237,0.294,0.389,0.467c0.15,0.174,0.34,0.347,0.562,0.52
		c0.224,0.172,0.513,0.311,0.867,0.416c0.543,0.162,1.001,0.158,1.375-0.011s0.634-0.493,0.777-0.975
		c0.08-0.269,0.078-0.509-0.006-0.72c-0.084-0.209-0.22-0.405-0.406-0.587c-0.189-0.182-0.411-0.354-0.672-0.52
		c-0.259-0.165-0.52-0.338-0.785-0.521c-0.265-0.182-0.519-0.381-0.763-0.597c-0.243-0.217-0.445-0.464-0.604-0.743
		c-0.158-0.278-0.257-0.598-0.297-0.956s0.01-0.771,0.149-1.239c0.111-0.373,0.294-0.714,0.549-1.023
		c0.253-0.311,0.564-0.56,0.932-0.748s0.783-0.304,1.248-0.346c0.465-0.041,0.963,0.019,1.497,0.178
		c0.604,0.18,1.133,0.44,1.587,0.781c0.453,0.341,0.809,0.734,1.066,1.182L63.394,62.949z"/>
</g>
</svg>
