<?xml version="1.0" encoding="utf-8"?>
<!-- Generator: Adobe Illustrator 16.0.0, SVG Export Plug-In . SVG Version: 6.00 Build 0)  -->
<!DOCTYPE svg PUBLIC "-//W3C//DTD SVG 1.1//EN" "http://www.w3.org/Graphics/SVG/1.1/DTD/svg11.dtd">
<svg version="1.1" xmlns="http://www.w3.org/2000/svg" xmlns:xlink="http://www.w3.org/1999/xlink" x="0px" y="0px" width="200px"
	 height="200px" viewBox="0 0 200 200" enable-background="new 0 0 200 200" xml:space="preserve">
<g id="BG" display="none">
	<rect id="ourstory_3_" display="inline" width="200" height="200"/>
</g>
<g id="Symbols">
	<g id="Seal_4_">
		<g>
			<path fill="#FFFFFF" d="M99,7.334c50.893,0,92.157,41.19,92.157,92s-41.265,92-92.157,92s-92.155-41.19-92.155-92
				S48.107,7.334,99,7.334 M99,2.334c-53.571,0-97.155,43.514-97.155,97s43.584,97,97.155,97c53.572,0,97.157-43.514,97.157-97
				S152.572,2.334,99,2.334L99,2.334z"/>
		</g>
		<g>
			<path fill="#FFFFFF" d="M85.406,44.231c3.059,0,5.016,1.113,6.167,1.982c1.161,0.352,2.205,0.979,3.051,1.832
				c1.429-0.894,3.116-1.423,4.927-1.423c1.95,0,3.759,0.605,5.254,1.635c0.018-0.017,0.029-0.034,0.046-0.054
				c0.874-0.938,1.979-1.619,3.215-1.989c1.151-0.871,3.109-1.983,6.168-1.983c2.297,0,6.347,0.624,9.642,1.962
				c1.654,0.673,4.125,1.52,7.125,2.449V40H76v6.537c1-0.118,0.748-0.232,1.018-0.344C80.318,44.855,83.115,44.231,85.406,44.231z"
				/>
			<path fill="#FFFFFF" d="M111.498,74.079c1.032-0.721,2.369-1.016,3.688-0.76c0.238,0.044,0.856,0.104,1.641,0.173
				c0.664-1.108,1.793-1.896,3.052-2.153c0.812-1.442,2.371-2.368,4.091-2.368c0.427,0,2.271,0.057,2.654,0.145
				c0.725-0.964,3.377-1.566,4.377-1.746v-6.75c-4-1.663-8.578-3.257-11.234-4.336c-2.285-0.931-4.164-1.122-4.656-1.155
				c-0.139,0.121-0.666,0.271-0.876,0.423c0.037,0.538-0.119,1.141-0.119,1.8c0,7.809-5.4,8.653-7.685,8.653
				c-1.968,0-3.527-0.319-4.377-0.556c-0.623,0.044-1.287-0.044-1.891-0.265c-0.928,0.46-1.977,0.575-2.943,0.375
				c-0.889,0.214-2.244,0.445-3.913,0.445c-2.285,0-7.599-0.845-7.599-8.653c0-0.658,0.029-1.261,0.064-1.797
				c-0.206-0.152-0.375-0.3-0.511-0.419c-0.57,0.038-1.911,0.247-4.132,1.148C79.699,56.865,78,57.598,76,58.408v10.62
				c2,0.217,2.871,1.07,3.574,2.309c1.268,0.25,2.473,1.026,3.146,2.154c0.797-0.073,1.493-0.138,1.771-0.188
				c0.283-0.051,0.603-0.076,0.905-0.076c1.003,0,1.972,0.312,2.753,0.864c1.81-0.618,3.92-0.082,5.196,1.361
				c0.015,0.019,0.032,0.035,0.048,0.054c0.778-0.437,1.737-0.829,2.912-0.829c1.525,0,2.636,0.541,3.445,1.346
				c0.82-0.881,1.963-1.492,3.58-1.492c1.228,0,2.198,0.423,2.976,0.886c0.914-1.025,2.218-1.61,3.583-1.61
				C110.341,73.806,110.896,73.869,111.498,74.079z"/>
			<ellipse fill="#FFFFFF" cx="99.551" cy="55.888" rx="2.922" ry="2.909"/>
			<path fill="#FFFFFF" d="M145.557,63.938c0,0-17.017-8.398-25.521-11.859c-8.509-3.456-7.979,0.168-9.706,0.168
				c-1.726,0-0.932,1.974-0.932,5.104c0,3.128-0.928,4.117-3.059,4.117c-2.127,0-3.455-0.496-3.455-0.496
				c-0.473-0.352-0.864-0.339-1.188-0.052c-0.944-0.548-2.668-0.394-3.566,0.197c-0.356-0.471-0.806-0.566-1.373-0.146
				c0,0-1.327,0.496-3.454,0.496c-2.13,0-3.055-0.989-3.055-4.117c0-3.131,0.792-5.104-0.936-5.104
				c-1.727,0-1.195-3.624-9.702-0.168c-8.51,3.461-25.522,11.859-25.522,11.859s-0.8,2.142,2.257,2.142
				c3.059,0-3.994,3.457,6.912,3.457c0.534,0-1.599,1.482-1.599,1.482s3.328,3.129,9.178,0.823l-1.86,1.648
				c0,0,2.66,1.648,5.716,0.329c3.058-1.317-1.062,1.976-1.062,1.976s0.24,1.53,5.18,0c0.534-0.163-0.928,1.979-0.928,1.979
				l1.994,0.493c0,0,4.209-0.275,5.447-0.493c0.933-0.167-0.795,1.811-0.795,1.811s2.431,1.341,4.784-0.988
				c1.331-1.317,0.799,2.959,0.799,2.959s2.392-0.326,3.59-0.984c2.598-1.434,3.056-3.131,3.856,1.65
				c0.134,0.805,0.264,1.287,0.388,1.538c0.241,12.957,0.55,29.347,0.793,42.354c0.227,0.484,0.532,0.863,0.942,1.274
				c-0.41-0.411-0.716,4.129-0.942,3.646C98.974,143.621,99.149,158,99.149,158h1.594c0,0,0.201-15.467,0.456-29.092
				c0-0.062,0.001-2.662,0.003-2.738c0.023-1.361,0.05-4.016,0.076-5.437c0,0.02,0.002-0.564,0.004-0.562
				c0.221-11.938,0.478-25.951,0.68-36.998c0.042-0.188,0.082-0.557,0.125-0.81c0.797-4.773,1.254-3.138,3.855-1.703
				c1.197,0.656,3.59,0.937,3.59,0.937s-0.536-4.297,0.797-2.979c2.351,2.329,4.785,0.969,4.785,0.969s-1.728-1.979-0.797-1.812
				c1.241,0.218,5.448,0.493,5.448,0.493l1.995-0.493c0,0-1.462-2.143-0.93-1.979c4.94,1.53,5.184,0,5.184,0
				s-4.121-3.293-1.063-1.976c3.06,1.319,5.716-0.329,5.716-0.329l-1.861-1.648c5.849,2.306,9.174-0.823,9.174-0.823
				s-2.128-1.482-1.596-1.482c10.906,0,3.855-3.457,6.912-3.457C146.354,66.079,145.557,63.938,145.557,63.938z"/>
			<path fill="#FFFFFF" d="M87.734,159c0.141-1,0.537-3.961,1.228-4.998c-0.143-1.898-0.412-6.477-0.675-10.978
				c-0.831-1.119-1.393-2.912-1.393-4.547c0-1.51,0.385-2.973,0.992-4.014c-0.025-0.626-0.05-1.361-0.074-1.991
				c-0.668-1.062-1.069-2.368-1.069-3.818c0-1.222,0.116-2.207,0.569-3.134l-0.551-2.185c-0.843-1.185-1.381-2.637-1.381-4.412
				c0-0.484,0.026-0.954,0.075-1.399c0.001-1.402,0.028-2.83,0.072-4.263c-3.609-2.482-4.04-5.353-4.04-6.521
				c0-0.961,0.005-2.417,0.445-3.434c-0.001,0.001-0.002,0.002-0.002,0.003c-2.201-0.715-4.179-1.699-5.559-3.057
				c-1.507-1.487-2.308-3.324-2.308-5.311c0-2.602,1.085-4.8,3.05-6.192c1.421-1.009,3.006-1.793,4.546-2.378
				c-0.063-0.089-0.144-0.161-0.202-0.249c-1.329-0.269-2.29-0.729-2.728-0.971l-0.88-0.479c-0.035,0.008-0.071,0.014-0.106,0.02
				l-0.277,0.044c-0.438,0.077-0.891,0.086-1.334,0.029l-2.08-0.123C73.604,84.795,73.118,85,72.614,85c-0.003,0-0.011,0-0.019,0
				c-2.967,0-5.438-1.582-6.854-4.008c-0.98-0.436-1.929-1.117-2.844-1.921c-4.85-0.329-7.758-2.861-8.321-3.394l-0.354-0.35
				c-1.535-0.389-3.691-1.252-5.135-3.308c-0.207-0.296-0.389-1.265-0.55-1.58c-0.756-0.475-1.415-2.44-1.97-2.44H38v55h35v36
				H87.734z"/>
			<g>
				<path fill="#FFFFFF" d="M94.914,124.872c2.593,1.159,5.306,1.469,5.822,1.516c0.978,0.108,2.98,0.701,3.518,1.638l0.295,0.509
					l-0.276,0.519c-0.193,0.383-0.428,0.739-0.885,1.044c-0.001,0.03-0.005,0.059-0.007,0.089c-0.006-0.004-0.012-0.007-0.019-0.009
					c0.986,0.564,2.118,1.341,3.116,2.334c1.066-0.919,1.854-2.178,1.854-3.908c0-4.273-4.67-5.934-7.429-6.243
					c-1.281-0.13-2.799-0.495-4.051-1.029l5.484,0.264l-5.575-0.269l1.626-0.553v-0.001l-1.581,0.539
					c-1.413-0.611-2.487-1.438-2.487-2.396c0-0.051,0.03-0.104,0.025-0.162c-0.167-1.268,0.017-2.009,1.208-2.498
					c0.006,0,0.013,0.001,0.02,0.003c-1.641-0.386-3.042-0.843-4.245-1.345c-0.698,1.078-1.061,2.399-1.061,4.002
					C90.268,121.475,91.812,123.476,94.914,124.872z"/>
				<path fill="#FFFFFF" d="M97.32,147.726c0.629-0.406,0.781-0.714,1.057-0.923c-0.152-0.104-0.462-0.219-0.625-0.315
					c-0.291-0.095-0.194-0.232-0.623-0.406c-0.358,0.637-0.129,1.356-0.129,2.176c0,0.015,0,0.026,0,0.043
					C97,148.107,97.016,147.917,97.32,147.726z"/>
				<path fill="#FFFFFF" d="M104.87,151.785c-0.828,0.944-1.986,1.87-3.601,2.908c-0.045,0.027-0.078,0.052-0.12,0.08
					c1.455,1.214,1.479,1.843,1.479,2.165c0,0.032,0.01,0.062,0.012,0.095c0.032,0.066,0.054,0.128,0.054,0.172
					c0,0.118,0.018,0.229,0.034,0.343c0.296,1,1.289,1.742,2.478,1.742c1.423,0,2.577-1.053,2.577-2.352
					c0-1.075-0.276-2.072-0.856-3.048C106.431,153.185,105.751,152.492,104.87,151.785z"/>
				<path fill="#FFFFFF" d="M100.12,152.913c3.788-2.435,4.401-3.705,4.337-6.28l-0.002-0.126c-0.004-0.123-0.007-0.253-0.007-0.393
					c0-3.133-3.816-5.032-4.396-5.301l-0.362-0.138c-0.904-0.276-2.105-0.84-2.924-1.433l2.321,0.935l-2.501-1.007l0.056-0.022
					c-0.196-0.154-0.375-0.307-0.507-0.457c-0.318-0.361-0.35-0.893-0.083-1.29c0.186-0.271,0.344-0.464,0.643-0.714
					c0.007-0.041,0.015-0.088,0.022-0.133c-1.369-0.399-2.717-1.002-3.879-1.828c-0.664,0.876-1.1,1.956-1.1,3.315
					c0,4.018,5.066,5.963,6.616,6.469c0.061,0.017,0.114,0.037,0.167,0.062c0.521,0.272,1.235,0.757,1.599,1.169
					c0.168,0.187,0.262,0.424,0.271,0.672l0.007,0.335c0.005,0.11,0.009,0.262,0.009,0.389c0,0.275-0.106,0.542-0.297,0.737
					c-0.385,0.397-1.128,0.948-2.186,1.633c-3.846,2.47-5.414,4.513-5.414,7.042c0,1.119,0.913,2.026,2.03,2.026
					c1.119,0,2.028-0.907,2.028-2.026C96.568,156.146,96.568,155.198,100.12,152.913z"/>
				<path fill="#FFFFFF" d="M113.617,106.741c0-5.957-11.602-7.088-13.947-7.336c0,0-0.578-0.004-0.794-0.004
					c-5.775,0-14.767-1.357-15.839-3.845L83,95.154v-0.211c0-0.217,0.008-0.412,0.053-0.592l0.096-0.392l0.34-0.224
					c0.27-0.178,0.778-0.414,2.039-0.414c1.671,0,3.849,0.398,5.712,1.046c1.047,0.37,2.229-0.215,2.592-1.239
					c0.31-1.043-2.229-5.362-3.402-5.769c-0.029-0.01-0.204-0.065-0.63-0.065c-1.639,0-5.443,0.863-8.723,3.186
					c-1.385,0.98-2.158,2.567-2.158,4.463c0,1.407,0.577,2.724,1.668,3.803c3.228,3.182,11.619,4.31,18.382,4.31l0.571-0.002
					l0.072,0.006c3.61,0.406,8.356,1.651,9.72,2.959l0.741,0.714l-0.912,0.761c-0.789,0.87-2.673,1.796-4.426,2.483
					c-0.008-0.001-0.014-0.003-0.021-0.007c1.394,0.559,2.919,1.332,4.229,2.396c0-0.001-0.001-0.002-0.002-0.003
					C111.349,111.104,113.617,109.295,113.617,106.741z"/>
				<path fill="#FFFFFF" d="M98.964,134.901l0.139,0.022l0.129,0.058c1.213,0.548,2.804,1.578,3.374,2.42l0.457,0.677l-0.536,0.613
					c-0.167,0.19-0.36,0.356-0.587,0.514c1.251,0.722,2.285,1.58,3.171,2.633c1.204-1.131,1.812-2.403,1.812-3.796
					c0-4.137-5.438-6.533-6.528-6.972l-0.243-0.099l-0.263-0.031c-0.889-0.111-3.514-0.753-4.116-1.845l-0.271-0.487l0.252-0.502
					c0.01-0.016,0.018-0.034,0.026-0.049c-1.327-0.461-2.644-0.974-3.803-1.719c-0.295,0.56-0.392,1.205-0.392,2.264
					C91.586,133.572,98.209,134.78,98.964,134.901z"/>
				<path fill="#FFFFFF" d="M118.79,90.48c-3.208-2.27-7.214-3.114-8.991-3.114c-0.502,0-0.678,0.063-0.697,0.07
					c-0.337,0.119-1.237,1.032-2.082,2.625c-0.923,1.732-1.04,2.829-0.953,3.067c0.361,1.026,1.543,1.609,2.581,1.239
					c1.826-0.642,4.079-1.055,5.73-1.055c0.95,0,1.602,0.135,2.042,0.429l0.337,0.225l0.103,0.393
					c0.036,0.155,0.018,0.915-0.891,1.298c-0.97,1.41-4.385,2.305-8.151,2.812c-0.004-0.001-0.007-0.002-0.009-0.004
					c2.547,0.843,4.312,1.887,5.529,2.968c2.371-0.699,4.177-1.604,5.277-2.689c1.483-1.457,2.276-2.704,2.276-3.801
					C120.892,93.048,120.176,91.461,118.79,90.48z"/>
				<path fill="#FFFFFF" d="M100.148,110.831l-0.084-0.013c-3.444-0.483-7.978-1.898-9.279-3.33l-0.686-0.755l0.731-0.71
					c0.417-0.403,1.1-0.787,1.924-1.142c-0.577-0.027-1.146-0.062-1.674-0.096c-1.891-0.104-3.561-0.196-4.562-0.43
					c-0.095,0.326-0.185,0.993-0.185,2.385c0,5.901,10.919,7.771,13.113,8.083c1.438,0.269,6.658,1.73,6.658,4.091
					c0,0.214,0,0.682-0.675,1.262c1.248,0.549,2.366,1.389,3.255,2.466c0.993-1.065,1.477-2.294,1.477-3.728
					C110.162,112.8,101.178,111.019,100.148,110.831z"/>
			</g>
			<path fill="#FFFFFF" d="M153.077,68c-0.553,0-1.208,1.961-1.968,2.436c-0.158,0.318-0.341,0.954-0.549,1.251
				c-1.444,2.062-3.579,3.091-5.112,3.483l-0.338,0.403c-0.821,0.778-3.545,3.063-7.973,3.483c-0.043,0.03-0.085,0.079-0.125,0.11
				c-1.032,0.792-2.094,1.404-3.185,1.813c-1.426,2.354-3.852,3.766-6.732,3.766c-0.771,0-1.51-0.191-2.165-0.541l-1.22,0.303
				c-0.445,0.107-0.906,0.146-1.363,0.114l-0.372-0.025c-0.02-0.002-0.04-0.003-0.064-0.004l-0.988,0.551
				c-0.459,0.248-1.41,0.699-2.71,0.967c-0.053,0.081-0.116,0.158-0.174,0.238c1.571,0.551,3.227,1.335,4.734,2.402
				c1.967,1.393,3.047,3.59,3.047,6.192c0,1.691-0.922,3.434-2.827,5.308c-1.324,1.309-3.209,2.273-5.373,2.991
				c0.864,1.361,1.058,2.64,1.058,3.499c0,3.492-2.504,5.836-5.286,7.384c0.976,1.29,1.615,2.868,1.615,4.79
				c0,2.334-0.966,4.325-2.855,5.928c0.631,1.037,1.019,2.28,1.019,3.76c0,2.183-0.935,4.076-2.63,5.529
				c-0.001-0.002-0.002-0.002-0.003-0.002c0.731,1.117,1.226,2.416,1.226,3.912c0,1.66-0.609,3.207-1.764,4.57
				c-0.049,3.04-0.091,7.37-0.121,9.247c1.862,1.723,2.876,5.141,3.196,7.141H134v-36h28V68H153.077z"/>
		</g>
		<g>
			<path fill="#FFFFFF" d="M32.66,150.637l-2.852,2.282l-1.584-1.979l8.53-6.828l2.409,3.01c0.48,0.601,0.822,1.174,1.025,1.72
				c0.203,0.545,0.291,1.058,0.266,1.536c-0.027,0.479-0.156,0.921-0.391,1.325c-0.232,0.405-0.547,0.765-0.941,1.081
				c-0.426,0.34-0.87,0.584-1.334,0.732c-0.465,0.147-0.938,0.183-1.416,0.104s-0.961-0.275-1.449-0.593s-0.967-0.771-1.439-1.36
				L32.66,150.637z M34.152,149.441l0.825,1.03c0.413,0.516,0.833,0.788,1.259,0.817c0.428,0.029,0.861-0.132,1.303-0.485
				c0.195-0.156,0.35-0.327,0.463-0.515c0.113-0.187,0.18-0.386,0.199-0.597s-0.012-0.433-0.094-0.664
				c-0.084-0.231-0.225-0.472-0.425-0.722l-0.825-1.03L34.152,149.441z"/>
			<path fill="#FFFFFF" d="M40.553,158.929l-2.777,2.938l-1.843-1.741l7.507-7.941l2.584,2.442c0.574,0.543,1.008,1.064,1.301,1.565
				s0.469,0.979,0.525,1.431c0.057,0.453,0.008,0.878-0.146,1.275c-0.156,0.396-0.393,0.765-0.713,1.103
				c-0.242,0.258-0.508,0.469-0.793,0.632c-0.285,0.164-0.588,0.278-0.908,0.344c-0.32,0.066-0.65,0.081-0.994,0.047
				c-0.342-0.034-0.688-0.125-1.039-0.271c0.064,0.179,0.109,0.364,0.131,0.556c0.02,0.192,0.01,0.392-0.035,0.599l-0.922,4.36
				l-1.668-1.577c-0.309-0.292-0.42-0.617-0.336-0.977l0.861-3.553c0.037-0.156,0.039-0.294,0.002-0.411s-0.127-0.243-0.268-0.377
				L40.553,158.929z M41.752,157.659l0.742,0.7c0.25,0.237,0.494,0.407,0.73,0.51c0.236,0.104,0.463,0.151,0.684,0.146
				c0.219-0.006,0.424-0.061,0.617-0.163s0.373-0.241,0.539-0.416c0.328-0.349,0.473-0.729,0.432-1.14s-0.301-0.841-0.777-1.291
				l-0.74-0.7L41.752,157.659z"/>
			<path fill="#FFFFFF" d="M53.509,174.301l-1.611-1.125c-0.18-0.126-0.299-0.272-0.357-0.438c-0.059-0.166-0.064-0.33-0.018-0.493
				l0.562-1.931l-3.406-2.379l-1.619,1.192c-0.122,0.087-0.273,0.135-0.457,0.144s-0.361-0.046-0.533-0.166l-1.623-1.134
				l9.724-6.538l2.128,1.485L53.509,174.301z M50.145,166.856l2.447,1.709l0.89-3.029c0.056-0.193,0.121-0.42,0.196-0.682
				c0.076-0.261,0.165-0.539,0.267-0.833c-0.24,0.204-0.469,0.389-0.688,0.553c-0.219,0.165-0.413,0.304-0.583,0.416L50.145,166.856
				z"/>
			<path fill="#FFFFFF" d="M63.871,176.471c0.054,0.027,0.102,0.064,0.146,0.111c0.043,0.047,0.077,0.107,0.102,0.182l0.421,1.396
				c-0.652,0.315-1.34,0.454-2.062,0.417c-0.724-0.037-1.489-0.26-2.297-0.667c-0.741-0.374-1.342-0.836-1.802-1.384
				c-0.46-0.549-0.781-1.147-0.966-1.798s-0.232-1.336-0.144-2.055c0.089-0.72,0.313-1.438,0.674-2.151
				c0.367-0.728,0.829-1.333,1.387-1.816s1.172-0.832,1.844-1.048c0.671-0.216,1.382-0.289,2.131-0.219
				c0.748,0.069,1.5,0.295,2.255,0.676c0.365,0.185,0.694,0.391,0.985,0.619c0.291,0.228,0.548,0.47,0.771,0.726
				c0.225,0.256,0.414,0.522,0.571,0.8c0.156,0.278,0.277,0.56,0.364,0.844l-1.28,0.639c-0.081,0.038-0.168,0.065-0.261,0.083
				s-0.199-0.004-0.32-0.064c-0.08-0.041-0.146-0.097-0.2-0.169c-0.054-0.071-0.107-0.153-0.162-0.245
				c-0.054-0.092-0.114-0.192-0.18-0.301s-0.151-0.222-0.257-0.34c-0.106-0.117-0.238-0.239-0.396-0.363
				c-0.158-0.125-0.355-0.247-0.592-0.366c-0.411-0.207-0.823-0.324-1.235-0.35c-0.412-0.026-0.809,0.034-1.188,0.182
				c-0.38,0.147-0.734,0.378-1.064,0.693s-0.615,0.712-0.856,1.189c-0.252,0.5-0.408,0.979-0.468,1.436s-0.04,0.878,0.061,1.262
				s0.272,0.724,0.515,1.02s0.543,0.534,0.899,0.714c0.206,0.104,0.398,0.188,0.578,0.254s0.354,0.11,0.524,0.135
				c0.17,0.023,0.34,0.03,0.512,0.019c0.171-0.012,0.353-0.042,0.545-0.091c0.076-0.017,0.152-0.024,0.229-0.022
				C63.731,176.419,63.804,176.437,63.871,176.471z"/>
			<path fill="#FFFFFF" d="M78.185,173.177l-0.654,1.9l-2.907-1l-2.901,8.433l-2.396-0.825l2.9-8.433l-2.907-1l0.653-1.9
				L78.185,173.177z"/>
			<path fill="#FFFFFF" d="M80.481,184.881l-2.485-0.573l2.458-10.647l2.485,0.573L80.481,184.881z"/>
			<path fill="#FFFFFF" d="M92.267,183.808c0.06,0.007,0.118,0.025,0.175,0.055c0.058,0.029,0.109,0.074,0.158,0.136l0.874,1.168
				c-0.504,0.52-1.103,0.886-1.795,1.099s-1.487,0.266-2.387,0.16c-0.824-0.098-1.546-0.324-2.166-0.683
				c-0.62-0.357-1.128-0.81-1.523-1.357c-0.396-0.548-0.676-1.175-0.84-1.881c-0.163-0.707-0.198-1.457-0.104-2.252
				c0.096-0.81,0.322-1.536,0.681-2.182c0.357-0.645,0.815-1.184,1.372-1.616c0.558-0.433,1.199-0.745,1.927-0.937
				c0.728-0.19,1.511-0.236,2.35-0.138c0.407,0.048,0.787,0.129,1.139,0.243c0.352,0.115,0.676,0.254,0.974,0.417
				c0.298,0.164,0.568,0.35,0.811,0.557s0.453,0.43,0.631,0.667l-0.983,1.04c-0.062,0.062-0.135,0.118-0.216,0.167
				c-0.081,0.048-0.188,0.064-0.323,0.049c-0.089-0.011-0.171-0.041-0.246-0.09c-0.074-0.049-0.153-0.107-0.236-0.175
				c-0.082-0.067-0.173-0.142-0.271-0.221c-0.1-0.08-0.219-0.157-0.358-0.231s-0.306-0.143-0.497-0.206
				c-0.191-0.062-0.418-0.109-0.682-0.141c-0.457-0.054-0.884-0.022-1.28,0.095s-0.747,0.31-1.054,0.578
				c-0.306,0.269-0.56,0.607-0.762,1.017c-0.201,0.409-0.334,0.879-0.396,1.41c-0.065,0.557-0.048,1.06,0.053,1.51
				c0.101,0.449,0.264,0.838,0.489,1.164s0.504,0.587,0.833,0.781c0.329,0.195,0.692,0.315,1.09,0.362
				c0.229,0.027,0.438,0.041,0.63,0.041s0.371-0.019,0.539-0.054c0.167-0.036,0.33-0.088,0.486-0.158
				c0.157-0.069,0.317-0.16,0.481-0.271c0.065-0.043,0.135-0.076,0.208-0.101C92.118,183.807,92.192,183.799,92.267,183.808z"/>
			<path fill="#FFFFFF" d="M107.08,186.64l-1.964,0.056c-0.221,0.007-0.402-0.039-0.548-0.138s-0.248-0.227-0.308-0.386
				l-0.699-1.886l-4.153,0.119l-0.59,1.922c-0.047,0.142-0.141,0.271-0.282,0.388c-0.142,0.116-0.317,0.178-0.527,0.184
				l-1.979,0.057l3.917-11.044l2.594-0.074L107.08,186.64z M99.944,182.664l2.983-0.085l-1.09-2.963
				c-0.07-0.188-0.153-0.409-0.248-0.664s-0.188-0.531-0.282-0.829c-0.071,0.308-0.146,0.592-0.224,0.854
				c-0.077,0.262-0.15,0.489-0.221,0.682L99.944,182.664z"/>
			<path fill="#FFFFFF" d="M112.495,183.752l3.997-0.655l0.328,1.998l-6.499,1.066l-1.769-10.783l2.501-0.411L112.495,183.752z"/>
			<path fill="#FFFFFF" d="M122.675,172.264c0.073-0.017,0.144-0.022,0.209-0.018c0.066,0.005,0.134,0.021,0.202,0.049
				c0.069,0.028,0.151,0.069,0.246,0.125l7.148,4.348c-0.092-0.189-0.177-0.375-0.254-0.558c-0.078-0.182-0.148-0.354-0.209-0.519
				l-2.011-5.421l2.096-0.777l3.8,10.245l-1.237,0.459c-0.183,0.068-0.348,0.097-0.495,0.088c-0.147-0.01-0.308-0.067-0.48-0.174
				l-7.096-4.312c0.081,0.173,0.157,0.343,0.229,0.511c0.073,0.168,0.138,0.326,0.193,0.477l2.037,5.492l-2.096,0.776l-3.801-10.245
				l1.252-0.464C122.513,172.309,122.601,172.281,122.675,172.264z"/>
			<path fill="#FFFFFF" d="M140.826,173.921c0.297-0.167,0.534-0.364,0.712-0.594s0.296-0.48,0.354-0.754
				c0.059-0.274,0.057-0.566-0.007-0.878s-0.189-0.635-0.378-0.971l-3.171-5.643l2.21-1.242l3.171,5.643
				c0.328,0.584,0.535,1.174,0.619,1.769c0.085,0.595,0.05,1.168-0.104,1.719c-0.154,0.552-0.43,1.067-0.825,1.548
				s-0.909,0.898-1.541,1.254c-0.637,0.357-1.263,0.58-1.879,0.668c-0.615,0.088-1.199,0.055-1.751-0.1
				c-0.551-0.155-1.058-0.424-1.52-0.807s-0.856-0.866-1.185-1.45l-3.172-5.643l2.21-1.242l3.168,5.636
				c0.188,0.336,0.399,0.611,0.633,0.828c0.233,0.216,0.482,0.371,0.748,0.466c0.265,0.095,0.542,0.125,0.83,0.092
				C140.237,174.188,140.53,174.087,140.826,173.921z"/>
			<path fill="#FFFFFF" d="M148.827,166.31l2.476,3.196l-2.004,1.553l-6.691-8.64l2.812-2.177c0.624-0.484,1.207-0.832,1.747-1.045
				s1.038-0.312,1.495-0.299c0.456,0.013,0.868,0.127,1.236,0.341c0.368,0.215,0.695,0.506,0.979,0.873
				c0.218,0.281,0.385,0.575,0.503,0.882c0.118,0.308,0.185,0.624,0.2,0.95c0.016,0.327-0.021,0.656-0.107,0.989
				s-0.229,0.661-0.427,0.985c0.186-0.037,0.376-0.051,0.569-0.043c0.192,0.009,0.388,0.051,0.585,0.126l4.167,1.583l-1.814,1.404
				c-0.337,0.261-0.676,0.321-1.018,0.182l-3.378-1.397c-0.148-0.062-0.284-0.083-0.406-0.065c-0.121,0.019-0.259,0.088-0.413,0.207
				L148.827,166.31z M147.758,164.929l0.807-0.625c0.272-0.211,0.478-0.426,0.616-0.644c0.138-0.217,0.221-0.435,0.248-0.652
				c0.028-0.218,0.006-0.43-0.065-0.637c-0.072-0.207-0.182-0.405-0.328-0.595c-0.294-0.38-0.647-0.58-1.06-0.603
				s-0.877,0.167-1.396,0.568l-0.807,0.625L147.758,164.929z"/>
			<path fill="#FFFFFF" d="M156.965,152.785c0.032,0.138,0.041,0.257,0.025,0.358c-0.016,0.101-0.069,0.197-0.161,0.289
				c-0.081,0.082-0.193,0.144-0.339,0.187c-0.145,0.043-0.308,0.093-0.49,0.147c-0.182,0.056-0.374,0.134-0.577,0.235
				c-0.202,0.102-0.401,0.25-0.595,0.445c-0.335,0.337-0.513,0.659-0.532,0.967c-0.021,0.308,0.092,0.583,0.337,0.826
				c0.156,0.155,0.335,0.234,0.536,0.236c0.201,0.004,0.42-0.039,0.654-0.126c0.235-0.088,0.486-0.204,0.755-0.351
				c0.269-0.146,0.548-0.289,0.839-0.43s0.592-0.264,0.9-0.369c0.31-0.104,0.624-0.159,0.943-0.162
				c0.32-0.003,0.644,0.06,0.972,0.188c0.327,0.129,0.652,0.353,0.976,0.673c0.357,0.356,0.632,0.752,0.82,1.186
				c0.188,0.435,0.282,0.885,0.28,1.352s-0.108,0.939-0.318,1.417c-0.211,0.479-0.535,0.938-0.972,1.377
				c-0.239,0.241-0.509,0.462-0.807,0.663c-0.298,0.2-0.608,0.373-0.932,0.518s-0.648,0.258-0.978,0.34
				c-0.328,0.082-0.645,0.124-0.948,0.125l-0.312-1.367c-0.025-0.103-0.021-0.208,0.01-0.318c0.031-0.109,0.088-0.205,0.169-0.287
				c0.105-0.106,0.246-0.18,0.421-0.221c0.175-0.042,0.37-0.09,0.588-0.146c0.217-0.056,0.447-0.139,0.691-0.249
				c0.243-0.11,0.485-0.286,0.725-0.527c0.324-0.326,0.504-0.651,0.54-0.975c0.036-0.324-0.102-0.641-0.414-0.951
				c-0.181-0.18-0.377-0.276-0.59-0.289c-0.212-0.014-0.436,0.023-0.67,0.11c-0.235,0.088-0.483,0.206-0.744,0.355
				s-0.534,0.298-0.818,0.445s-0.578,0.274-0.884,0.38s-0.621,0.156-0.946,0.154c-0.325-0.003-0.66-0.076-1.006-0.223
				c-0.345-0.146-0.698-0.397-1.061-0.757c-0.291-0.289-0.517-0.63-0.677-1.021s-0.236-0.809-0.227-1.251
				c0.009-0.441,0.112-0.892,0.311-1.351c0.198-0.458,0.509-0.9,0.932-1.326c0.236-0.237,0.484-0.451,0.745-0.639
				c0.262-0.188,0.528-0.348,0.803-0.478c0.273-0.13,0.548-0.232,0.823-0.308s0.546-0.119,0.811-0.13L156.965,152.785z"/>
			<path fill="#FFFFFF" d="M161.729,143.414l1.538,1.198l-2.755,3.539l2.012,1.566l2.11-2.71l1.479,1.151l-2.11,2.711l2.054,1.599
				l2.755-3.539l1.539,1.198l-4.322,5.551l-8.622-6.714L161.729,143.414z"/>
		</g>
		<g>
			<g>
				<path fill="#FFFFFF" d="M64.09,28.622l3.651-1.753l0.876,1.826l-5.937,2.849l-4.728-9.852l2.285-1.097L64.09,28.622z"/>
				<path fill="#FFFFFF" d="M73.506,26.892l-2.396,0.874L67.364,17.5l2.396-0.874L73.506,26.892z"/>
				<path fill="#FFFFFF" d="M83.044,21.315c0.058-0.014,0.119-0.018,0.183-0.01s0.129,0.032,0.195,0.072l1.227,0.79
					c-0.291,0.662-0.725,1.214-1.299,1.655s-1.301,0.769-2.181,0.983c-0.806,0.196-1.562,0.235-2.268,0.116
					c-0.706-0.118-1.34-0.365-1.902-0.74s-1.043-0.865-1.442-1.471c-0.4-0.604-0.694-1.296-0.884-2.073
					c-0.193-0.792-0.234-1.553-0.124-2.282c0.11-0.729,0.352-1.394,0.723-1.993c0.37-0.601,0.863-1.116,1.479-1.55
					c0.615-0.433,1.333-0.749,2.154-0.949c0.397-0.098,0.781-0.153,1.151-0.169c0.369-0.016,0.722,0.002,1.059,0.051
					c0.336,0.05,0.653,0.129,0.953,0.238c0.3,0.11,0.574,0.245,0.824,0.405l-0.559,1.317c-0.037,0.081-0.085,0.158-0.145,0.232
					c-0.059,0.073-0.154,0.126-0.285,0.158c-0.088,0.021-0.175,0.021-0.263,0.002c-0.087-0.02-0.181-0.047-0.282-0.082
					c-0.101-0.034-0.212-0.071-0.332-0.111s-0.259-0.071-0.416-0.092c-0.157-0.021-0.336-0.027-0.537-0.02s-0.431,0.043-0.688,0.105
					c-0.447,0.109-0.836,0.288-1.166,0.535c-0.331,0.248-0.593,0.552-0.786,0.91s-0.312,0.765-0.359,1.218
					c-0.046,0.454-0.006,0.941,0.121,1.461c0.132,0.544,0.324,1.009,0.575,1.396s0.54,0.693,0.865,0.92
					c0.325,0.228,0.677,0.375,1.053,0.442c0.377,0.067,0.76,0.054,1.148-0.041c0.224-0.054,0.425-0.114,0.604-0.182
					c0.179-0.066,0.341-0.146,0.485-0.238c0.146-0.092,0.279-0.197,0.401-0.317c0.123-0.12,0.241-0.261,0.356-0.423
					c0.047-0.062,0.1-0.118,0.16-0.166C82.904,21.366,82.971,21.334,83.044,21.315z"/>
				<path fill="#FFFFFF" d="M93.157,11.821l0.207,1.938l-4.46,0.476l0.271,2.536l3.415-0.364l0.199,1.864l-3.416,0.364l0.276,2.588
					l4.46-0.476l0.207,1.938l-6.996,0.746l-1.158-10.865L93.157,11.821z"/>
				<path fill="#FFFFFF" d="M98.891,11.668c0.074,0.013,0.141,0.033,0.2,0.062c0.059,0.03,0.115,0.07,0.168,0.122
					c0.054,0.052,0.114,0.122,0.181,0.209l4.966,6.734c-0.013-0.211-0.021-0.415-0.024-0.612c-0.003-0.198-0.002-0.385,0.004-0.56
					l0.195-5.779l2.233,0.076l-0.369,10.921l-1.318-0.045c-0.195-0.006-0.359-0.042-0.492-0.106s-0.259-0.179-0.379-0.343
					l-4.93-6.681c0.009,0.19,0.015,0.377,0.019,0.56c0.004,0.184,0.003,0.354-0.002,0.515l-0.198,5.854L96.91,22.52l0.369-10.921
					l1.334,0.045C98.724,11.647,98.815,11.655,98.891,11.668z"/>
				<path fill="#FFFFFF" d="M116.854,15.722c-0.095,0.104-0.188,0.18-0.279,0.225s-0.201,0.057-0.329,0.034
					c-0.113-0.02-0.229-0.076-0.348-0.171c-0.118-0.094-0.252-0.2-0.401-0.317s-0.324-0.23-0.523-0.339s-0.435-0.186-0.705-0.233
					c-0.468-0.081-0.834-0.042-1.098,0.117s-0.425,0.409-0.484,0.749c-0.038,0.217,0,0.409,0.112,0.575
					c0.113,0.167,0.272,0.322,0.479,0.465c0.205,0.143,0.445,0.281,0.719,0.418c0.272,0.137,0.55,0.284,0.832,0.442
					s0.555,0.334,0.818,0.527c0.263,0.192,0.487,0.42,0.673,0.681s0.319,0.562,0.402,0.903c0.082,0.342,0.084,0.737,0.006,1.185
					c-0.087,0.498-0.254,0.948-0.502,1.352s-0.563,0.738-0.947,1.004s-0.832,0.448-1.345,0.55c-0.513,0.101-1.074,0.098-1.685-0.009
					c-0.335-0.059-0.67-0.152-1.006-0.281c-0.335-0.13-0.654-0.286-0.957-0.468c-0.304-0.183-0.583-0.385-0.839-0.607
					c-0.255-0.222-0.471-0.457-0.646-0.706l0.942-1.039c0.069-0.079,0.158-0.137,0.267-0.174c0.107-0.037,0.219-0.046,0.332-0.026
					c0.147,0.026,0.288,0.099,0.422,0.219c0.135,0.12,0.286,0.253,0.456,0.399s0.37,0.288,0.6,0.424
					c0.23,0.137,0.513,0.234,0.848,0.293c0.453,0.079,0.822,0.04,1.108-0.115c0.286-0.156,0.467-0.45,0.543-0.884
					c0.044-0.251,0.01-0.468-0.101-0.649s-0.269-0.344-0.475-0.486s-0.445-0.278-0.717-0.406c-0.272-0.129-0.55-0.268-0.834-0.416
					c-0.283-0.148-0.556-0.317-0.817-0.508c-0.261-0.19-0.483-0.42-0.668-0.688c-0.184-0.269-0.315-0.585-0.394-0.952
					c-0.078-0.366-0.073-0.801,0.015-1.303c0.07-0.404,0.22-0.784,0.449-1.14c0.229-0.356,0.528-0.656,0.896-0.902
					c0.367-0.245,0.796-0.418,1.285-0.518c0.489-0.101,1.029-0.099,1.621,0.004c0.33,0.058,0.646,0.14,0.95,0.246
					s0.588,0.234,0.851,0.385c0.264,0.149,0.505,0.316,0.724,0.499c0.22,0.183,0.41,0.38,0.571,0.591L116.854,15.722z"/>
				<path fill="#FFFFFF" d="M128.425,16.619l-0.567,1.865l-4.291-1.306l-0.742,2.439l3.286,1l-0.546,1.794l-3.286-1l-0.758,2.489
					l4.291,1.306l-0.568,1.866l-6.729-2.049l3.181-10.454L128.425,16.619z"/>
				<path fill="#FFFFFF" d="M138.981,27.18c-0.334,0.716-0.766,1.318-1.296,1.808c-0.529,0.489-1.121,0.85-1.776,1.082
					c-0.654,0.231-1.355,0.323-2.103,0.275c-0.748-0.049-1.507-0.253-2.276-0.612l-3.846-1.798l4.627-9.899l3.846,1.797
					c0.77,0.36,1.412,0.812,1.928,1.356c0.516,0.545,0.895,1.142,1.138,1.79c0.243,0.649,0.347,1.334,0.312,2.054
					C139.498,25.753,139.314,26.469,138.981,27.18z M136.631,26.081c0.229-0.489,0.372-0.961,0.429-1.414
					c0.058-0.453,0.031-0.873-0.078-1.258c-0.11-0.386-0.303-0.732-0.578-1.04c-0.275-0.309-0.633-0.565-1.072-0.771l-1.535-0.718
					l-2.976,6.367l1.535,0.718c0.439,0.205,0.866,0.314,1.279,0.328s0.803-0.061,1.168-0.224c0.366-0.163,0.704-0.412,1.016-0.747
					C136.129,26.988,136.4,26.574,136.631,26.081z"/>
			</g>
		</g>
	</g>
</g>
</svg>
