<?xml version="1.0" encoding="utf-8"?>
<!-- Generator: Adobe Illustrator 16.0.0, SVG Export Plug-In . SVG Version: 6.00 Build 0)  -->
<!DOCTYPE svg PUBLIC "-//W3C//DTD SVG 1.1//EN" "http://www.w3.org/Graphics/SVG/1.1/DTD/svg11.dtd">
<svg version="1.1" xmlns="http://www.w3.org/2000/svg" xmlns:xlink="http://www.w3.org/1999/xlink" x="0px" y="0px" width="100px"
	 height="100px" viewBox="0 0 100 100" enable-background="new 0 0 100 100" xml:space="preserve">
<g id="BG" display="none">
	<g id="locations" display="inline">
		<rect width="100" height="100"/>
		<g>
			<path fill="#00FA5C" d="M71,28v43H28V28H71 M72,27H27v45h45V27L72,27z"/>
		</g>
	</g>
</g>
<g id="Symbols">
	<path id="locations_1_" fill="#FFFFFF" d="M50,20.5c-11.391,0-20.625,9.234-20.625,20.625S50,75.5,50,75.5
		s20.625-22.984,20.625-34.375S61.391,20.5,50,20.5z M50,54.875c-7.594,0-13.75-6.157-13.75-13.75c0-7.594,6.156-13.75,13.75-13.75
		s13.75,6.156,13.75,13.75C63.75,48.718,57.594,54.875,50,54.875z M50,34.25c-3.797,0-6.875,3.078-6.875,6.875S46.203,48,50,48
		s6.875-3.078,6.875-6.875S53.797,34.25,50,34.25z"/>
</g>
</svg>
