<?xml version="1.0" encoding="utf-8"?>
<!-- Generator: Adobe Illustrator 16.0.0, SVG Export Plug-In . SVG Version: 6.00 Build 0)  -->
<!DOCTYPE svg PUBLIC "-//W3C//DTD SVG 1.1//EN" "http://www.w3.org/Graphics/SVG/1.1/DTD/svg11.dtd">
<svg version="1.1" xmlns="http://www.w3.org/2000/svg" xmlns:xlink="http://www.w3.org/1999/xlink" x="0px" y="0px" width="200px"
	 height="200px" viewBox="0 0 200 200" enable-background="new 0 0 200 200" xml:space="preserve">
<g id="BG" display="none">
	<rect id="ourstory_1_" display="inline" width="200" height="200"/>
</g>
<g id="Symbols">
	<g id="Seal_2_">
		<g>
			<path fill="#FFFFFF" d="M99.667,8c50.893,0,92.157,41.19,92.157,92s-41.265,92-92.157,92S7.512,150.81,7.512,100
				S48.774,8,99.667,8 M99.667,3C46.096,3,2.512,46.514,2.512,100s43.584,97,97.155,97c53.572,0,97.157-43.514,97.157-97
				S153.239,3,99.667,3L99.667,3z"/>
		</g>
		<g>
			<path fill="#FFFFFF" d="M86.073,44.897c3.059,0,5.016,1.113,6.167,1.982c1.161,0.352,2.205,0.979,3.051,1.832
				c1.429-0.894,3.116-1.423,4.927-1.423c1.95,0,3.759,0.605,5.254,1.635c0.018-0.017,0.029-0.034,0.046-0.054
				c0.874-0.938,1.979-1.619,3.215-1.989c1.151-0.871,3.109-1.983,6.168-1.983c2.297,0,6.014,0.624,9.309,1.962
				c1.654,0.673,3.791,1.52,6.791,2.449V40H76v7.203c1-0.118,1.082-0.232,1.352-0.344C80.652,45.521,83.782,44.897,86.073,44.897z"
				/>
			<path fill="#FFFFFF" d="M112.165,74.745c1.032-0.721,2.369-1.016,3.688-0.76c0.238,0.044,0.856,0.104,1.641,0.173
				c0.664-1.108,1.793-1.896,3.052-2.153c0.812-1.442,2.371-2.368,4.091-2.368c0.427,0,1.938,0.057,2.321,0.145
				c0.725-0.964,3.043-1.566,4.043-1.746v-6.75c-4-1.663-8.244-3.257-10.9-4.336c-2.285-0.931-3.998-1.122-4.489-1.155
				c-0.139,0.121-0.584,0.271-0.794,0.423c0.037,0.538-0.076,1.141-0.076,1.8c0,7.809-5.381,8.653-7.665,8.653
				c-1.968,0-3.516-0.319-4.365-0.556c-0.623,0.044-1.283-0.044-1.887-0.265c-0.928,0.46-1.973,0.575-2.939,0.375
				c-0.889,0.214-2.244,0.445-3.913,0.445c-2.285,0-7.597-0.845-7.597-8.653c0-0.658,0.029-1.261,0.064-1.797
				c-0.206-0.152-0.375-0.3-0.511-0.419c-0.57,0.038-2.245,0.247-4.465,1.148C80.032,57.531,78,58.264,76,59.074v10.62
				c2,0.217,3.205,1.07,3.908,2.309c1.268,0.25,2.64,1.026,3.312,2.154c0.798-0.073,1.576-0.138,1.854-0.188
				c0.283-0.051,0.646-0.076,0.948-0.076c1.003,0,1.991,0.312,2.772,0.864c1.81-0.618,3.932-0.082,5.208,1.361
				c0.015,0.019,0.036,0.035,0.052,0.054c0.778-0.437,1.741-0.829,2.916-0.829c1.525,0,2.636,0.541,3.445,1.346
				c0.82-0.881,1.965-1.492,3.582-1.492c1.228,0,2.198,0.423,2.976,0.886c0.914-1.025,2.218-1.61,3.583-1.61
				C111.008,74.472,111.563,74.535,112.165,74.745z"/>
			<ellipse fill="#FFFFFF" cx="100.218" cy="56.554" rx="2.922" ry="2.909"/>
			<path fill="#FFFFFF" d="M146.224,64.604c0,0-17.017-8.398-25.521-11.859c-8.509-3.456-7.979,0.168-9.706,0.168
				c-1.726,0-0.932,1.974-0.932,5.104c0,3.128-0.928,4.117-3.059,4.117c-2.127,0-3.455-0.496-3.455-0.496
				c-0.473-0.352-0.864-0.339-1.188-0.052c-0.944-0.548-2.668-0.394-3.566,0.197c-0.356-0.471-0.806-0.566-1.373-0.146
				c0,0-1.327,0.496-3.454,0.496c-2.13,0-3.055-0.989-3.055-4.117c0-3.131,0.792-5.104-0.936-5.104
				c-1.727,0-1.195-3.624-9.702-0.168c-8.51,3.461-25.522,11.859-25.522,11.859s-0.8,2.142,2.257,2.142
				c3.059,0-3.994,3.457,6.912,3.457c0.534,0-1.599,1.482-1.599,1.482s3.328,3.129,9.178,0.823l-1.86,1.648
				c0,0,2.66,1.648,5.716,0.329c3.058-1.317-1.062,1.976-1.062,1.976s0.24,1.53,5.18,0c0.534-0.163-0.928,1.979-0.928,1.979
				l1.994,0.493c0,0,4.209-0.275,5.447-0.493c0.933-0.167-0.795,1.811-0.795,1.811s2.431,1.341,4.784-0.988
				c1.331-1.317,0.799,2.959,0.799,2.959s2.392-0.326,3.59-0.984c2.598-1.434,3.056-3.131,3.856,1.65
				c0.134,0.805,0.264,1.287,0.388,1.538c0.241,12.957,0.55,29.347,0.793,42.354c0.227,0.484,0.532,0.863,0.942,1.274
				c-0.41-0.411-0.716,3.795-0.942,3.312C99.641,143.953,99.816,158,99.816,158h1.594c0,0,0.201-15.135,0.456-28.76
				c0-0.062,0.001-2.494,0.003-2.57c0.023-1.361,0.05-3.934,0.076-5.354c0,0.02,0.002-0.521,0.004-0.52
				c0.221-11.938,0.478-25.932,0.68-36.979c0.042-0.188,0.082-0.545,0.125-0.798c0.797-4.773,1.254-3.134,3.855-1.699
				c1.197,0.656,3.59,0.94,3.59,0.94s-0.536-4.297,0.797-2.979c2.351,2.329,4.785,0.971,4.785,0.971s-1.728-1.979-0.797-1.812
				c1.241,0.218,5.448,0.493,5.448,0.493l1.995-0.493c0,0-1.462-2.143-0.93-1.979c4.94,1.53,5.184,0,5.184,0
				s-4.121-3.293-1.063-1.976c3.06,1.319,5.716-0.329,5.716-0.329l-1.861-1.648c5.849,2.306,9.174-0.823,9.174-0.823
				s-2.128-1.482-1.596-1.482c10.906,0,3.855-3.457,6.912-3.457C147.021,66.745,146.224,64.604,146.224,64.604z"/>
			<path fill="#FFFFFF" d="M88.401,159c0.141-1,0.537-3.629,1.228-4.666c-0.143-1.898-0.412-6.309-0.675-10.81
				c-0.831-1.119-1.393-2.83-1.393-4.465c0-1.51,0.385-2.93,0.992-3.971c-0.025-0.626-0.05-1.342-0.074-1.972
				c-0.668-1.062-1.069-2.356-1.069-3.807c0-1.222,0.116-2.203,0.569-3.13L87.429,124c-0.843-1.185-1.381-2.637-1.381-4.412
				c0-0.484,0.026-0.952,0.075-1.397c0.001-1.402,0.028-2.83,0.072-4.263c-3.609-2.482-4.04-5.353-4.04-6.521
				c0-0.961,0.005-2.417,0.445-3.434c-0.001,0.001-0.002,0.002-0.002,0.003c-2.201-0.715-4.179-1.699-5.559-3.057
				c-1.507-1.487-2.308-3.324-2.308-5.311c0-2.602,1.085-4.8,3.05-6.192c1.421-1.009,3.006-1.793,4.546-2.378
				c-0.063-0.089-0.144-0.161-0.202-0.249c-1.329-0.269-2.29-0.729-2.728-0.971l-0.88-0.479c-0.035,0.008-0.071,0.014-0.106,0.02
				l-0.277,0.044c-0.438,0.077-0.891,0.086-1.334,0.029l-2.08-0.457C74.271,85.127,73.785,85,73.281,85c-0.003,0-0.011,0-0.019,0
				c-2.967,0-5.438-1.25-6.854-3.676c-0.98-0.436-1.929-0.949-2.844-1.753c-4.85-0.329-7.758-2.779-8.321-3.312l-0.354-0.307
				c-1.535-0.389-3.691-1.232-5.135-3.288c-0.207-0.296-0.389-1.587-0.55-1.902C48.45,70.288,47.791,68,47.236,68H38v55h35v36
				H88.401z"/>
			<g>
				<path fill="#FFFFFF" d="M95.581,125.538c2.593,1.159,5.306,1.469,5.822,1.516c0.978,0.108,2.98,0.701,3.518,1.638l0.295,0.509
					l-0.276,0.519c-0.193,0.383-0.428,0.739-0.885,1.044c-0.001,0.03-0.005,0.059-0.007,0.089c-0.006-0.004-0.012-0.007-0.019-0.009
					c0.986,0.564,2.118,1.341,3.116,2.334c1.066-0.919,1.854-2.178,1.854-3.908c0-4.273-4.67-5.934-7.429-6.243
					c-1.281-0.13-2.799-0.495-4.051-1.029l5.484,0.264l-5.575-0.269l1.626-0.553v-0.001l-1.581,0.539
					c-1.413-0.611-2.487-1.438-2.487-2.396c0-0.051,0.03-0.104,0.025-0.162c-0.167-1.268,0.017-2.009,1.208-2.498
					c0.006,0,0.013,0.001,0.02,0.003c-1.641-0.386-3.042-0.843-4.245-1.345c-0.698,1.078-1.061,2.399-1.061,4.002
					C90.935,122.141,92.479,124.142,95.581,125.538z"/>
				<path fill="#FFFFFF" d="M97.654,148.392c0.629-0.406,0.948-0.714,1.224-0.923c-0.153-0.104-0.38-0.219-0.543-0.315
					c-0.291-0.095-0.485-0.232-0.914-0.406c-0.358,0.637-0.421,1.356-0.421,2.176c0,0.015,0,0.026,0,0.043
					C97,148.773,97.35,148.583,97.654,148.392z"/>
				<path fill="#FFFFFF" d="M105.537,152.451c-0.828,0.944-1.986,1.87-3.601,2.908c-0.045,0.027-0.078,0.052-0.12,0.08
					c1.455,1.214,1.479,1.843,1.479,2.165c0,0.032,0.01,0.062,0.012,0.095c0.032,0.066,0.054,0.128,0.054,0.172
					c0,0.118,0.018,0.229,0.034,0.343c0.296,1,1.289,1.742,2.478,1.742c1.423,0,2.577-1.053,2.577-2.352
					c0-1.075-0.276-2.072-0.856-3.048C107.098,153.851,106.418,153.158,105.537,152.451z"/>
				<path fill="#FFFFFF" d="M100.787,153.579c3.788-2.435,4.401-3.705,4.337-6.28l-0.002-0.126
					c-0.004-0.123-0.007-0.253-0.007-0.393c0-3.133-3.816-5.032-4.396-5.301l-0.362-0.138c-0.904-0.276-2.105-0.84-2.924-1.433
					l2.321,0.935l-2.501-1.007l0.056-0.022c-0.196-0.154-0.375-0.307-0.507-0.457c-0.318-0.361-0.35-0.893-0.083-1.29
					c0.186-0.271,0.344-0.464,0.643-0.714c0.007-0.041,0.015-0.088,0.022-0.133c-1.369-0.399-2.717-1.002-3.879-1.828
					c-0.664,0.876-1.1,1.956-1.1,3.315c0,4.018,5.066,5.963,6.616,6.469c0.061,0.017,0.114,0.037,0.167,0.062
					c0.521,0.272,1.235,0.757,1.599,1.169c0.168,0.187,0.262,0.424,0.271,0.672l0.007,0.335c0.005,0.11,0.009,0.262,0.009,0.389
					c0,0.275-0.106,0.542-0.297,0.737c-0.385,0.397-1.128,0.948-2.186,1.633c-3.846,2.47-5.414,4.513-5.414,7.042
					c0,1.119,0.913,2.026,2.03,2.026c1.119,0,2.028-0.907,2.028-2.026C97.235,156.812,97.235,155.864,100.787,153.579z"/>
				<path fill="#FFFFFF" d="M114.284,107.407c0-5.957-11.602-7.088-13.947-7.336c0,0-0.578-0.004-0.794-0.004
					c-5.775,0-15.1-1.357-16.172-3.845L83,95.82v-0.211c0-0.217,0.342-0.412,0.387-0.592l0.262-0.392l0.423-0.224
					c0.27-0.178,0.821-0.414,2.082-0.414c1.671,0,3.868,0.398,5.731,1.046c1.047,0.37,2.241-0.215,2.604-1.239
					c0.31-1.043-2.225-5.362-3.398-5.769c-0.029-0.01-0.2-0.065-0.626-0.065c-1.639,0-5.443,0.863-8.723,3.186
					c-1.385,0.98-2.156,2.567-2.156,4.463c0,1.407,0.577,2.724,1.668,3.803c3.228,3.182,11.619,4.31,18.382,4.31l0.571-0.002
					l0.072,0.006c3.61,0.406,8.356,1.651,9.72,2.959l0.741,0.714l-0.912,0.761c-0.789,0.87-2.673,1.796-4.426,2.483
					c-0.008-0.001-0.014-0.003-0.021-0.007c1.394,0.559,2.919,1.332,4.229,2.396c0-0.001-0.001-0.002-0.002-0.003
					C112.016,111.771,114.284,109.961,114.284,107.407z"/>
				<path fill="#FFFFFF" d="M99.631,135.567l0.139,0.022l0.129,0.058c1.213,0.548,2.804,1.578,3.374,2.42l0.457,0.677l-0.536,0.613
					c-0.167,0.19-0.36,0.356-0.587,0.514c1.251,0.722,2.285,1.58,3.171,2.633c1.204-1.131,1.812-2.403,1.812-3.796
					c0-4.137-5.438-6.533-6.528-6.972l-0.243-0.099l-0.263-0.031c-0.889-0.111-3.514-0.753-4.116-1.845l-0.271-0.487l0.252-0.502
					c0.01-0.016,0.018-0.034,0.026-0.049c-1.327-0.461-2.644-0.974-3.803-1.719c-0.295,0.56-0.392,1.205-0.392,2.264
					C92.253,134.238,98.876,135.446,99.631,135.567z"/>
				<path fill="#FFFFFF" d="M119.457,91.146c-3.208-2.27-7.214-3.114-8.991-3.114c-0.502,0-0.678,0.063-0.697,0.07
					c-0.337,0.119-1.237,1.032-2.082,2.625c-0.923,1.732-1.04,2.829-0.953,3.067c0.361,1.026,1.543,1.609,2.581,1.239
					c1.826-0.642,4.079-1.055,5.73-1.055c0.95,0,1.602,0.135,2.042,0.429l0.337,0.225l0.103,0.393
					c0.036,0.155,0.018,0.915-0.891,1.298c-0.97,1.41-4.385,2.305-8.151,2.812c-0.004-0.001-0.007-0.002-0.009-0.004
					c2.547,0.843,4.312,1.887,5.529,2.968c2.371-0.699,4.177-1.604,5.277-2.689c1.483-1.457,2.276-2.704,2.276-3.801
					C121.559,93.714,120.843,92.127,119.457,91.146z"/>
				<path fill="#FFFFFF" d="M100.815,111.497l-0.084-0.013c-3.444-0.483-7.978-1.898-9.279-3.33l-0.686-0.755l0.731-0.71
					c0.417-0.403,1.1-0.787,1.924-1.142c-0.577-0.027-1.146-0.062-1.674-0.096c-1.891-0.104-3.561-0.196-4.562-0.43
					c-0.095,0.326-0.185,0.993-0.185,2.385c0,5.901,10.919,7.771,13.113,8.083c1.438,0.269,6.658,1.73,6.658,4.091
					c0,0.214,0,0.682-0.675,1.262c1.248,0.549,2.366,1.389,3.255,2.466c0.993-1.065,1.477-2.294,1.477-3.728
					C110.829,113.466,101.845,111.685,100.815,111.497z"/>
			</g>
			<path fill="#FFFFFF" d="M153.744,68c-0.553,0-1.208,2.293-1.968,2.768c-0.158,0.318-0.341,1.122-0.549,1.419
				c-1.444,2.062-3.579,3.173-5.112,3.565l-0.338,0.446c-0.821,0.778-3.545,3.083-7.973,3.503c-0.043,0.03-0.085,0.091-0.125,0.122
				c-1.032,0.792-2.094,1.408-3.185,1.817c-1.426,2.354-3.852,3.77-6.732,3.77c-0.771,0-1.51-0.191-2.165-0.541l-1.22,0.305
				c-0.445,0.107-0.906,0.146-1.363,0.114l-0.372-0.025c-0.02-0.002-0.04-0.003-0.064-0.004l-0.988,0.551
				c-0.459,0.248-1.41,0.699-2.71,0.967c-0.053,0.081-0.116,0.158-0.174,0.238c1.571,0.551,3.227,1.335,4.734,2.402
				c1.967,1.393,3.047,3.59,3.047,6.192c0,1.691-0.922,3.434-2.827,5.308c-1.324,1.309-3.209,2.273-5.373,2.991
				c0.864,1.361,1.058,2.64,1.058,3.499c0,3.492-2.504,5.836-5.286,7.384c0.976,1.29,1.615,2.868,1.615,4.79
				c0,2.334-0.966,4.325-2.855,5.928c0.631,1.037,1.019,2.28,1.019,3.76c0,2.183-0.935,4.076-2.63,5.529
				c-0.001-0.002-0.002-0.002-0.003-0.002c0.731,1.117,1.226,2.416,1.226,3.912c0,1.66-0.609,3.207-1.764,4.57
				c-0.049,3.04-0.091,7.036-0.121,8.913c1.862,1.723,2.876,4.809,3.196,6.809H134v-36h28V68H153.744z"/>
		</g>
		<g>
			<path fill="#FFFFFF" d="M33.565,138.839c0.032,0.068,0.053,0.135,0.062,0.2c0.01,0.065,0.008,0.135-0.004,0.208
				s-0.035,0.162-0.068,0.268l-2.697,7.92c0.166-0.131,0.329-0.254,0.489-0.369c0.16-0.116,0.314-0.221,0.461-0.316l4.857-3.137
				l1.213,1.877l-9.18,5.929l-0.716-1.108c-0.106-0.164-0.17-0.318-0.193-0.465c-0.022-0.146-0.001-0.314,0.066-0.507l2.673-7.86
				c-0.151,0.116-0.301,0.228-0.449,0.335c-0.148,0.107-0.289,0.205-0.424,0.291l-4.92,3.179l-1.212-1.878l9.179-5.929l0.725,1.121
				C33.487,138.689,33.533,138.77,33.565,138.839z"/>
			<path fill="#FFFFFF" d="M35.865,156.914c0.226,0.254,0.471,0.442,0.732,0.567c0.262,0.124,0.533,0.186,0.813,0.184
				c0.28-0.001,0.565-0.066,0.856-0.195c0.291-0.129,0.579-0.321,0.866-0.578l4.83-4.31l1.688,1.891l-4.828,4.311
				c-0.5,0.446-1.031,0.774-1.594,0.985c-0.563,0.211-1.13,0.3-1.702,0.268c-0.572-0.033-1.135-0.19-1.689-0.474
				c-0.554-0.282-1.072-0.694-1.555-1.235c-0.486-0.544-0.838-1.107-1.057-1.69c-0.219-0.583-0.312-1.159-0.279-1.731
				c0.033-0.572,0.186-1.124,0.46-1.658c0.274-0.533,0.662-1.022,1.162-1.469l4.828-4.311l1.689,1.892l-4.824,4.305
				c-0.287,0.257-0.511,0.522-0.672,0.796c-0.161,0.274-0.259,0.552-0.294,0.831c-0.036,0.279-0.006,0.557,0.088,0.831
				S35.638,156.66,35.865,156.914z"/>
			<path fill="#FFFFFF" d="M45.027,163.106l-2.591,3.104l-1.945-1.624l7.002-8.39l2.729,2.278c0.606,0.507,1.071,1.001,1.396,1.482
				c0.323,0.482,0.528,0.947,0.612,1.396c0.085,0.449,0.062,0.876-0.068,1.282c-0.13,0.405-0.344,0.787-0.642,1.144
				c-0.228,0.272-0.479,0.499-0.754,0.681c-0.274,0.181-0.569,0.313-0.885,0.398c-0.315,0.086-0.646,0.121-0.989,0.108
				c-0.344-0.014-0.695-0.082-1.054-0.206c0.075,0.174,0.13,0.356,0.163,0.547s0.034,0.39,0.004,0.599l-0.652,4.409l-1.762-1.471
				c-0.326-0.272-0.458-0.591-0.395-0.955l0.64-3.599c0.028-0.158,0.021-0.295-0.023-0.41c-0.045-0.115-0.142-0.235-0.291-0.36
				L45.027,163.106z M46.147,161.765l0.783,0.654c0.265,0.221,0.518,0.376,0.76,0.464s0.473,0.122,0.691,0.103
				c0.218-0.02,0.421-0.087,0.607-0.201s0.357-0.264,0.511-0.448c0.308-0.368,0.428-0.756,0.361-1.164
				c-0.067-0.407-0.352-0.82-0.854-1.24l-0.783-0.654L46.147,161.765z"/>
			<path fill="#FFFFFF" d="M59.974,168.146c-0.128,0.061-0.243,0.095-0.345,0.102c-0.102,0.006-0.208-0.025-0.317-0.096
				c-0.097-0.062-0.182-0.158-0.255-0.29c-0.073-0.133-0.156-0.281-0.249-0.447c-0.094-0.166-0.212-0.337-0.354-0.514
				c-0.143-0.176-0.33-0.338-0.562-0.485c-0.401-0.255-0.755-0.358-1.06-0.312c-0.305,0.047-0.55,0.216-0.734,0.507
				c-0.118,0.186-0.156,0.377-0.116,0.575c0.041,0.197,0.129,0.401,0.265,0.611c0.136,0.211,0.304,0.432,0.504,0.662
				s0.4,0.473,0.6,0.728c0.2,0.254,0.385,0.521,0.554,0.8c0.17,0.279,0.29,0.574,0.361,0.887c0.071,0.312,0.08,0.642,0.025,0.988
				c-0.055,0.348-0.204,0.713-0.447,1.098c-0.271,0.426-0.599,0.778-0.981,1.056c-0.384,0.278-0.804,0.466-1.26,0.564
				c-0.456,0.098-0.94,0.096-1.452-0.007c-0.513-0.104-1.03-0.321-1.554-0.653c-0.287-0.182-0.561-0.397-0.82-0.646
				c-0.261-0.248-0.496-0.514-0.706-0.799c-0.21-0.284-0.391-0.578-0.542-0.881c-0.151-0.304-0.26-0.604-0.326-0.9l1.269-0.598
				c0.095-0.047,0.198-0.066,0.312-0.06s0.22,0.042,0.316,0.104c0.127,0.08,0.229,0.201,0.307,0.363
				c0.078,0.162,0.168,0.343,0.269,0.543s0.231,0.407,0.392,0.622c0.16,0.214,0.384,0.412,0.671,0.595
				c0.388,0.246,0.744,0.353,1.068,0.318c0.323-0.035,0.604-0.237,0.839-0.609c0.137-0.215,0.188-0.428,0.156-0.638
				s-0.116-0.421-0.252-0.631c-0.136-0.211-0.305-0.428-0.507-0.65s-0.405-0.458-0.61-0.703c-0.206-0.246-0.393-0.507-0.561-0.782
				c-0.169-0.276-0.287-0.573-0.354-0.891c-0.067-0.318-0.067-0.662,0.001-1.03s0.238-0.768,0.512-1.198
				c0.22-0.347,0.504-0.64,0.853-0.881c0.348-0.241,0.739-0.404,1.173-0.49s0.896-0.081,1.386,0.014s0.989,0.304,1.495,0.625
				c0.283,0.18,0.545,0.376,0.784,0.591c0.24,0.215,0.453,0.441,0.639,0.681s0.345,0.485,0.478,0.738s0.233,0.508,0.301,0.765
				L59.974,168.146z"/>
			<path fill="#FFFFFF" d="M61.473,178.757l-2.276-1.147l4.919-9.758l2.276,1.147L61.473,178.757z"/>
			<path fill="#FFFFFF" d="M70.585,170.947c0.067,0.035,0.124,0.076,0.172,0.122c0.047,0.047,0.088,0.103,0.122,0.168
				c0.035,0.066,0.07,0.15,0.107,0.255l2.642,7.938c0.053-0.204,0.108-0.401,0.166-0.59c0.058-0.189,0.117-0.366,0.177-0.53
				l1.971-5.437l2.102,0.762l-3.726,10.273l-1.241-0.45c-0.183-0.066-0.328-0.151-0.435-0.254c-0.106-0.102-0.191-0.25-0.254-0.442
				l-2.624-7.877c-0.051,0.184-0.103,0.363-0.155,0.538s-0.106,0.338-0.161,0.488l-1.997,5.506l-2.102-0.762l3.726-10.272
				l1.255,0.455C70.433,170.876,70.519,170.912,70.585,170.947z"/>
			<path fill="#FFFFFF" d="M83.909,184.228c0.344,0.066,0.653,0.097,0.93,0.089c0.276-0.007,0.542-0.037,0.797-0.089l0.316-1.628
				l-1.06-0.206c-0.157-0.03-0.272-0.096-0.344-0.196c-0.072-0.101-0.097-0.215-0.071-0.343l0.267-1.369l3.813,0.741l-0.881,4.528
				c-0.313,0.147-0.634,0.266-0.958,0.353c-0.325,0.087-0.665,0.145-1.02,0.172c-0.354,0.028-0.727,0.027-1.115-0.003
				c-0.389-0.029-0.802-0.087-1.238-0.172c-0.785-0.152-1.485-0.433-2.099-0.84s-1.117-0.902-1.511-1.485
				c-0.393-0.583-0.663-1.237-0.811-1.961c-0.146-0.724-0.144-1.479,0.009-2.264c0.155-0.8,0.431-1.509,0.826-2.128
				c0.396-0.618,0.887-1.122,1.475-1.513c0.588-0.39,1.258-0.651,2.01-0.785c0.752-0.135,1.56-0.117,2.423,0.051
				c0.447,0.087,0.859,0.205,1.238,0.355c0.378,0.149,0.721,0.32,1.026,0.513c0.307,0.192,0.58,0.403,0.821,0.633
				c0.24,0.23,0.448,0.47,0.624,0.718l-0.935,0.957c-0.089,0.089-0.187,0.154-0.294,0.194s-0.217,0.05-0.33,0.027
				c-0.147-0.028-0.29-0.106-0.428-0.235c-0.174-0.156-0.339-0.294-0.496-0.414c-0.158-0.119-0.322-0.224-0.493-0.313
				c-0.171-0.089-0.355-0.166-0.552-0.229s-0.42-0.12-0.67-0.168c-0.467-0.091-0.902-0.091-1.307,0.001
				c-0.405,0.093-0.769,0.263-1.089,0.511c-0.321,0.248-0.593,0.568-0.817,0.961c-0.224,0.392-0.386,0.845-0.486,1.36
				c-0.11,0.569-0.13,1.09-0.059,1.562s0.216,0.888,0.434,1.246s0.502,0.654,0.852,0.888
				C83.057,183.979,83.457,184.14,83.909,184.228z"/>
			<path fill="#FFFFFF" d="M106.445,187.401l-1.965,0.032c-0.22,0.004-0.401-0.045-0.546-0.145c-0.145-0.101-0.245-0.23-0.303-0.39
				l-0.676-1.894l-4.154,0.066l-0.614,1.916c-0.048,0.141-0.143,0.269-0.286,0.383c-0.144,0.115-0.319,0.174-0.529,0.178
				l-1.98,0.032l4.053-10.995l2.595-0.042L106.445,187.401z M99.358,183.339l2.985-0.049l-1.054-2.976
				c-0.068-0.189-0.148-0.411-0.239-0.668c-0.092-0.256-0.183-0.533-0.272-0.832c-0.075,0.307-0.153,0.591-0.234,0.852
				c-0.08,0.262-0.156,0.488-0.229,0.679L99.358,183.339z"/>
			<path fill="#FFFFFF" d="M114.417,177.472c-0.056,0.13-0.12,0.23-0.193,0.302c-0.072,0.072-0.173,0.117-0.302,0.137
				c-0.113,0.018-0.241,0-0.383-0.052c-0.143-0.052-0.303-0.11-0.481-0.174c-0.18-0.064-0.381-0.116-0.604-0.156
				c-0.224-0.039-0.472-0.038-0.743,0.003c-0.47,0.07-0.805,0.224-1.004,0.458c-0.2,0.235-0.274,0.523-0.223,0.864
				c0.033,0.218,0.129,0.388,0.289,0.51c0.16,0.123,0.36,0.219,0.602,0.289c0.24,0.069,0.512,0.126,0.813,0.169
				c0.303,0.043,0.612,0.095,0.931,0.155c0.317,0.062,0.632,0.142,0.942,0.241s0.596,0.244,0.854,0.433
				c0.259,0.188,0.481,0.432,0.668,0.729c0.187,0.299,0.313,0.673,0.382,1.122c0.075,0.5,0.059,0.979-0.049,1.441
				c-0.107,0.461-0.301,0.878-0.581,1.251c-0.279,0.374-0.646,0.689-1.101,0.947c-0.454,0.259-0.988,0.434-1.601,0.526
				c-0.337,0.051-0.685,0.067-1.043,0.051c-0.359-0.017-0.711-0.063-1.057-0.14c-0.346-0.077-0.675-0.181-0.987-0.311
				s-0.592-0.285-0.836-0.466l0.564-1.283c0.041-0.098,0.107-0.181,0.197-0.25c0.091-0.069,0.193-0.112,0.307-0.13
				c0.148-0.021,0.306,0.003,0.471,0.074c0.164,0.07,0.351,0.148,0.559,0.233c0.207,0.086,0.441,0.156,0.703,0.213
				c0.261,0.057,0.56,0.06,0.896,0.009c0.454-0.068,0.793-0.222,1.015-0.46c0.223-0.238,0.301-0.575,0.234-1.01
				c-0.037-0.253-0.138-0.447-0.3-0.585c-0.162-0.137-0.364-0.24-0.604-0.311c-0.241-0.07-0.511-0.123-0.809-0.158
				c-0.299-0.036-0.606-0.08-0.923-0.131s-0.628-0.125-0.936-0.223c-0.309-0.098-0.593-0.244-0.852-0.44
				c-0.26-0.196-0.485-0.455-0.675-0.778c-0.19-0.322-0.324-0.736-0.399-1.24c-0.062-0.405-0.04-0.813,0.065-1.224
				s0.293-0.79,0.563-1.14c0.271-0.349,0.623-0.648,1.056-0.898s0.945-0.419,1.539-0.509c0.331-0.05,0.657-0.072,0.979-0.068
				c0.321,0.005,0.631,0.037,0.928,0.096c0.298,0.059,0.579,0.14,0.845,0.244c0.267,0.104,0.509,0.23,0.729,0.379L114.417,177.472z"
				/>
			<path fill="#FFFFFF" d="M123.507,175.182c-0.04,0.136-0.092,0.244-0.156,0.323c-0.063,0.08-0.157,0.138-0.283,0.172
				c-0.11,0.03-0.239,0.028-0.387-0.006c-0.146-0.035-0.313-0.073-0.498-0.115c-0.186-0.042-0.392-0.069-0.618-0.083
				c-0.227-0.012-0.473,0.018-0.737,0.091c-0.458,0.127-0.772,0.318-0.942,0.575c-0.17,0.258-0.21,0.553-0.118,0.885
				c0.059,0.212,0.175,0.369,0.349,0.472s0.384,0.175,0.631,0.215c0.247,0.041,0.523,0.064,0.829,0.071
				c0.305,0.006,0.619,0.021,0.941,0.043c0.323,0.022,0.645,0.064,0.965,0.127c0.32,0.062,0.62,0.171,0.899,0.327
				s0.529,0.371,0.75,0.646c0.221,0.273,0.392,0.63,0.513,1.068c0.135,0.486,0.176,0.965,0.124,1.436s-0.193,0.908-0.427,1.312
				s-0.561,0.762-0.98,1.072s-0.929,0.548-1.526,0.713c-0.328,0.091-0.671,0.148-1.029,0.175s-0.714,0.022-1.065-0.013
				c-0.353-0.035-0.691-0.099-1.018-0.19c-0.326-0.091-0.621-0.212-0.886-0.362l0.407-1.342c0.029-0.101,0.085-0.191,0.167-0.271
				c0.081-0.079,0.178-0.135,0.288-0.165c0.146-0.04,0.304-0.034,0.476,0.017c0.173,0.051,0.366,0.106,0.583,0.166
				c0.216,0.06,0.457,0.102,0.724,0.127c0.266,0.025,0.563-0.008,0.891-0.098c0.443-0.123,0.762-0.315,0.953-0.579
				c0.192-0.263,0.229-0.606,0.112-1.03c-0.067-0.246-0.19-0.427-0.368-0.544s-0.39-0.196-0.637-0.236
				c-0.248-0.041-0.521-0.062-0.822-0.062s-0.611-0.006-0.932-0.019c-0.319-0.014-0.639-0.05-0.956-0.11
				c-0.317-0.06-0.616-0.172-0.897-0.335c-0.281-0.164-0.536-0.395-0.763-0.692c-0.228-0.298-0.409-0.692-0.545-1.184
				c-0.109-0.396-0.136-0.803-0.081-1.223c0.056-0.42,0.196-0.819,0.424-1.198c0.228-0.38,0.541-0.719,0.94-1.019
				c0.4-0.3,0.889-0.529,1.468-0.689c0.322-0.089,0.644-0.15,0.964-0.185c0.32-0.033,0.631-0.039,0.934-0.016
				c0.302,0.022,0.591,0.07,0.867,0.142s0.533,0.168,0.769,0.289L123.507,175.182z"/>
			<path fill="#FFFFFF" d="M132.38,181.189l-2.378,0.919l-3.938-10.193l2.379-0.919L132.38,181.189z"/>
			<path fill="#FFFFFF" d="M137.745,169.061c-0.013,0.142-0.043,0.257-0.09,0.348c-0.046,0.091-0.128,0.165-0.243,0.224
				c-0.104,0.053-0.229,0.076-0.381,0.07c-0.151-0.005-0.321-0.01-0.512-0.015c-0.189-0.005-0.397,0.01-0.622,0.041
				c-0.225,0.032-0.459,0.11-0.705,0.234c-0.424,0.215-0.694,0.464-0.811,0.75c-0.116,0.285-0.097,0.582,0.06,0.89
				c0.099,0.197,0.244,0.328,0.434,0.395c0.19,0.066,0.411,0.095,0.661,0.086c0.251-0.009,0.526-0.04,0.827-0.094
				c0.3-0.054,0.61-0.102,0.932-0.143c0.32-0.042,0.645-0.063,0.971-0.066c0.326-0.002,0.642,0.046,0.946,0.145
				c0.305,0.098,0.592,0.26,0.862,0.484s0.508,0.54,0.713,0.946c0.229,0.45,0.363,0.912,0.405,1.384s-0.012,0.929-0.161,1.37
				c-0.148,0.442-0.398,0.857-0.749,1.244c-0.351,0.388-0.803,0.721-1.356,1c-0.304,0.153-0.628,0.278-0.975,0.375
				c-0.346,0.096-0.695,0.162-1.047,0.196c-0.353,0.035-0.697,0.04-1.035,0.015s-0.651-0.086-0.939-0.181l0.135-1.396
				c0.009-0.105,0.045-0.205,0.109-0.3c0.064-0.094,0.148-0.167,0.251-0.219c0.134-0.067,0.29-0.093,0.47-0.077
				c0.179,0.017,0.38,0.032,0.604,0.048s0.469,0.01,0.734-0.018c0.266-0.028,0.551-0.119,0.854-0.272
				c0.41-0.207,0.684-0.459,0.82-0.754c0.136-0.296,0.105-0.641-0.093-1.033c-0.115-0.228-0.271-0.381-0.469-0.461
				s-0.421-0.115-0.671-0.106c-0.251,0.009-0.523,0.043-0.818,0.103s-0.601,0.114-0.916,0.164c-0.316,0.051-0.637,0.078-0.959,0.081
				c-0.323,0.004-0.639-0.047-0.947-0.151c-0.308-0.105-0.603-0.281-0.884-0.528s-0.537-0.599-0.768-1.054
				c-0.185-0.366-0.291-0.76-0.319-1.183c-0.029-0.423,0.031-0.842,0.179-1.259c0.148-0.416,0.389-0.811,0.722-1.184
				c0.333-0.372,0.767-0.693,1.303-0.964c0.299-0.151,0.602-0.275,0.909-0.371c0.307-0.097,0.61-0.163,0.911-0.2
				s0.594-0.048,0.879-0.032s0.556,0.061,0.811,0.133L137.745,169.061z"/>
			<path fill="#FFFFFF" d="M145.934,161.175l1.121,1.668l-2.552,1.716l4.976,7.4l-2.104,1.414l-4.976-7.4l-2.552,1.716l-1.122-1.668
				L145.934,161.175z"/>
			<path fill="#FFFFFF" d="M161.446,162.211l-1.479,1.294c-0.165,0.145-0.335,0.226-0.51,0.242s-0.336-0.017-0.482-0.101
				l-1.74-1.009l-3.126,2.736l0.77,1.858c0.054,0.139,0.063,0.298,0.029,0.478c-0.035,0.181-0.132,0.34-0.29,0.478l-1.489,1.305
				l-4.016-11.009l1.953-1.709L161.446,162.211z M153.413,163.691l2.246-1.967l-2.728-1.59c-0.174-0.1-0.379-0.218-0.614-0.354
				c-0.235-0.137-0.484-0.289-0.745-0.459c0.141,0.282,0.265,0.549,0.372,0.801c0.106,0.251,0.195,0.474,0.264,0.666
				L153.413,163.691z"/>
			<path fill="#FFFFFF" d="M156.451,151.491c0.057-0.052,0.114-0.091,0.174-0.12c0.06-0.028,0.126-0.047,0.199-0.058
				c0.074-0.01,0.166-0.015,0.275-0.014l8.364,0.224c-0.174-0.119-0.34-0.238-0.498-0.357c-0.158-0.118-0.304-0.234-0.438-0.347
				l-4.438-3.707l1.433-1.715l8.387,7.005l-0.847,1.014c-0.125,0.149-0.254,0.257-0.387,0.322c-0.132,0.064-0.3,0.094-0.503,0.088
				l-8.3-0.22c0.156,0.11,0.307,0.221,0.453,0.329c0.146,0.109,0.281,0.216,0.404,0.318l4.495,3.755l-1.433,1.716l-8.387-7.006
				l0.855-1.024C156.333,151.61,156.396,151.542,156.451,151.491z"/>
			<path fill="#FFFFFF" d="M167.197,136.395l1.711,1.054l-1.612,2.618l7.593,4.677l-1.329,2.158l-7.593-4.677l-1.613,2.618
				l-1.711-1.054L167.197,136.395z"/>
		</g>
		<g>
			<g>
				<path fill="#FFFFFF" d="M66.036,27.721c0.054-0.027,0.112-0.045,0.176-0.052c0.063-0.008,0.133,0.001,0.207,0.025l1.375,0.485
					c-0.13,0.712-0.425,1.349-0.882,1.91s-1.089,1.048-1.895,1.459c-0.74,0.377-1.467,0.59-2.181,0.637s-1.388-0.047-2.021-0.282
					s-1.215-0.602-1.743-1.099c-0.528-0.496-0.974-1.101-1.338-1.813c-0.37-0.726-0.585-1.457-0.646-2.192
					c-0.061-0.734,0.021-1.437,0.243-2.106c0.223-0.669,0.584-1.285,1.082-1.849c0.499-0.562,1.125-1.036,1.878-1.42
					c0.364-0.187,0.726-0.329,1.081-0.43s0.703-0.165,1.042-0.194c0.338-0.029,0.666-0.025,0.982,0.012
					c0.316,0.038,0.615,0.106,0.896,0.204l-0.24,1.411c-0.017,0.087-0.046,0.174-0.087,0.259c-0.04,0.086-0.121,0.159-0.241,0.22
					c-0.08,0.041-0.165,0.062-0.254,0.062c-0.09,0.001-0.188-0.004-0.294-0.014c-0.106-0.011-0.223-0.021-0.35-0.033
					c-0.126-0.011-0.269-0.009-0.426,0.007s-0.333,0.051-0.527,0.105c-0.194,0.054-0.409,0.141-0.646,0.262
					c-0.409,0.209-0.747,0.472-1.012,0.789s-0.449,0.673-0.555,1.066s-0.128,0.816-0.068,1.269s0.211,0.917,0.454,1.394
					c0.254,0.498,0.548,0.907,0.882,1.226c0.333,0.317,0.685,0.55,1.054,0.695c0.369,0.146,0.744,0.208,1.127,0.188
					c0.382-0.021,0.751-0.122,1.107-0.304c0.205-0.104,0.387-0.21,0.546-0.316s0.299-0.221,0.418-0.344
					c0.12-0.123,0.226-0.257,0.317-0.402c0.092-0.145,0.175-0.309,0.249-0.493c0.031-0.071,0.07-0.138,0.118-0.199
					C65.912,27.802,65.97,27.755,66.036,27.721z"/>
				<path fill="#FFFFFF" d="M73.733,16.142l0.646,1.84l-4.232,1.486l0.846,2.406l3.24-1.139l0.622,1.77l-3.241,1.138l0.862,2.456
					l4.231-1.486l0.646,1.84l-6.638,2.331l-3.621-10.311L73.733,16.142z"/>
				<path fill="#FFFFFF" d="M81.515,21.262l0.816,3.96l-2.482,0.512l-2.208-10.702l3.482-0.719c0.773-0.159,1.449-0.216,2.028-0.169
					s1.07,0.176,1.475,0.389c0.403,0.213,0.724,0.497,0.96,0.852s0.401,0.759,0.496,1.215c0.071,0.348,0.093,0.686,0.063,1.013
					c-0.03,0.328-0.109,0.642-0.239,0.941c-0.129,0.3-0.307,0.58-0.531,0.841s-0.496,0.493-0.817,0.697
					c0.185,0.049,0.36,0.119,0.53,0.212s0.327,0.216,0.471,0.37l3.045,3.255l-2.247,0.463c-0.416,0.086-0.747-0.009-0.993-0.285
					l-2.419-2.74c-0.106-0.121-0.218-0.2-0.336-0.237c-0.117-0.037-0.271-0.035-0.462,0.004L81.515,21.262z M81.161,19.551
					l0.999-0.206c0.338-0.07,0.617-0.172,0.837-0.307s0.39-0.294,0.511-0.477c0.12-0.184,0.193-0.384,0.221-0.601
					c0.026-0.218,0.016-0.444-0.033-0.679c-0.097-0.471-0.325-0.806-0.687-1.008c-0.36-0.201-0.861-0.235-1.503-0.104l-0.999,0.206
					L81.161,19.551z"/>
				<path fill="#FFFFFF" d="M97.473,12.297l0.146,2.004l-3.067,0.224l0.647,8.894l-2.528,0.184l-0.647-8.894l-3.066,0.223
					l-0.146-2.004L97.473,12.297z"/>
				<path fill="#FFFFFF" d="M103.31,23.375l-2.55-0.076l0.326-10.922l2.549,0.075L103.31,23.375z"/>
				<path fill="#FFFFFF" d="M114.985,13.611l-0.253,1.934l-4.447-0.58l-0.357,2.744l3.703,0.483l-0.253,1.941l-3.704-0.483
					l-0.55,4.217l-2.528-0.33l1.413-10.836L114.985,13.611z"/>
				<path fill="#FFFFFF" d="M118.777,25.65l-2.482-0.583l2.496-10.638l2.482,0.582L118.777,25.65z"/>
				<path fill="#FFFFFF" d="M132.139,18.417l-0.636,1.844l-4.239-1.463l-0.832,2.41l3.247,1.12l-0.612,1.772l-3.247-1.12
					l-0.849,2.46l4.239,1.463l-0.636,1.844l-6.65-2.295l3.565-10.33L132.139,18.417z"/>
				<path fill="#FFFFFF" d="M142.29,29.354c-0.36,0.703-0.814,1.289-1.361,1.759s-1.152,0.809-1.814,1.017
					c-0.663,0.208-1.367,0.273-2.112,0.197c-0.745-0.075-1.496-0.308-2.252-0.695l-3.777-1.937l4.986-9.724l3.777,1.938
					c0.757,0.388,1.382,0.863,1.878,1.426c0.495,0.563,0.852,1.173,1.071,1.831c0.219,0.657,0.297,1.345,0.235,2.063
					C142.858,27.947,142.648,28.656,142.29,29.354z M139.981,28.17c0.246-0.48,0.406-0.946,0.48-1.396
					c0.073-0.451,0.062-0.871-0.032-1.26c-0.096-0.39-0.275-0.743-0.54-1.061c-0.264-0.318-0.611-0.588-1.043-0.81l-1.508-0.773
					l-3.207,6.253l1.508,0.773c0.432,0.222,0.854,0.347,1.266,0.376c0.412,0.028,0.805-0.031,1.176-0.182
					c0.372-0.148,0.72-0.385,1.042-0.708C139.446,29.06,139.732,28.655,139.981,28.17z"/>
			</g>
		</g>
	</g>
</g>
</svg>
