<?xml version="1.0" encoding="utf-8"?>
<!-- Generator: Adobe Illustrator 16.0.0, SVG Export Plug-In . SVG Version: 6.00 Build 0)  -->
<!DOCTYPE svg PUBLIC "-//W3C//DTD SVG 1.1//EN" "http://www.w3.org/Graphics/SVG/1.1/DTD/svg11.dtd">
<svg version="1.1" xmlns="http://www.w3.org/2000/svg" xmlns:xlink="http://www.w3.org/1999/xlink" x="0px" y="0px" width="100px"
	 height="100px" viewBox="0 0 100 100" enable-background="new 0 0 100 100" xml:space="preserve">
<g id="BG" display="none">
	<g id="ourhistory" display="inline">
		<rect width="100" height="100"/>
		<g>
			<path fill="#00FA5C" d="M71,28v43H28V28H71 M72,27H27v45h45V27L72,27z"/>
		</g>
	</g>
</g>
<g id="Symbols">
	<path id="Our_History_1_" fill="#FFFFFF" d="M79.985,41.17l-9.804-15.482L59,32.519V21H41v11.817l-11.404-7.13L20.014,41.17
		l12.716,7.889L20.04,56.946l9.55,15.482L41,65.299V80h18V65.598l11.182,6.831l9.711-15.482l-12.65-7.888L79.985,41.17z M46,60.71
		c0,0.062-0.221,0.142-0.331,0.252c-0.133,0.133-0.147,0.473-0.147,0.932c0,1.006-0.726,1.822-1.733,1.822
		c-1.006,0-1.763-0.816-1.763-1.822c0-1.485,0.196-2.668,1.051-3.518C43.907,57.55,45,57.18,46,57.012V60.71z M46,47.774
		c-1,0.421-2.125,1.004-2.125,1.208c0,0.413,0.125,1.211,2.125,1.655v3.693c-4-0.613-5.771-2.304-5.771-5.349
		c0-1.574,0.771-3.988,5.771-4.922V47.774z M52,41.636V66h-4V41.636c-2-0.722-2.915-2.461-2.915-4.5c0-2.685,2.237-4.86,4.922-4.86
		c2.684,0,4.946,2.176,4.946,4.86C54.953,39.175,54,40.914,52,41.636z M54,60.343v-3.68c1-0.231,2.038-0.586,2.147-0.748
		C56.137,55.441,55,55.059,54,54.83v-3.671c3,0.535,5.772,2.146,5.772,4.811C59.772,58.393,57,59.856,54,60.343z M59.844,44.221
		C58.545,45.798,56,46.771,54,47.14V43.45c1-0.265,2.371-0.772,3.002-1.513c0.885-1.04,0.57-2.299,0.562-2.353
		c-0.16-0.982,0.483-1.927,1.465-2.102c0.977-0.181,1.934,0.453,2.124,1.43C61.21,39.21,61.775,41.877,59.844,44.221z"/>
</g>
</svg>
