<?xml version="1.0" encoding="utf-8"?>
<!-- Generator: Adobe Illustrator 16.0.0, SVG Export Plug-In . SVG Version: 6.00 Build 0)  -->
<!DOCTYPE svg PUBLIC "-//W3C//DTD SVG 1.1//EN" "http://www.w3.org/Graphics/SVG/1.1/DTD/svg11.dtd">
<svg version="1.1" xmlns="http://www.w3.org/2000/svg" xmlns:xlink="http://www.w3.org/1999/xlink" x="0px" y="0px" width="100px"
	 height="100px" viewBox="0 0 100 100" enable-background="new 0 0 100 100" xml:space="preserve">
<g id="BG" display="none">
	<rect id="ourstory" display="inline" width="100" height="100"/>
</g>
<g id="Symbols">
	<path id="our_story_1_" fill="#FFFFFF" d="M30.274,35.723C30.274,24.824,39.103,16,50,16c10.891,0,19.723,8.824,19.723,19.723
		c0,10.891-8.832,19.723-19.723,19.723C39.103,55.445,30.274,46.613,30.274,35.723z M81,86.499V100c-11,0-52,0-62,0V86.499
		C19,69.283,32.784,61.2,50,61.2C67.212,61.2,81,69.283,81,86.499z M66.397,77.434C66.397,64.781,50,62.911,50,76.997
		c0-14.043-16.398-12.216-16.398,0.437C33.602,84.789,50,93.025,50,93.025S66.397,84.789,66.397,77.434z"/>
</g>
</svg>
