<?xml version="1.0" encoding="utf-8"?>
<!-- Generator: Adobe Illustrator 16.0.0, SVG Export Plug-In . SVG Version: 6.00 Build 0)  -->
<!DOCTYPE svg PUBLIC "-//W3C//DTD SVG 1.1//EN" "http://www.w3.org/Graphics/SVG/1.1/DTD/svg11.dtd">
<svg version="1.1" xmlns="http://www.w3.org/2000/svg" xmlns:xlink="http://www.w3.org/1999/xlink" x="0px" y="0px" width="200px"
	 height="200px" viewBox="0 0 200 200" enable-background="new 0 0 200 200" xml:space="preserve">
<g id="BG" display="none">
	<rect id="ourstory_2_" display="inline" width="200" height="200"/>
</g>
<g id="Symbols">
	<g id="Seal_1_">
		<g>
			<path fill="#FFFFFF" d="M99.333,7.667c50.893,0,92.157,41.19,92.157,92s-41.265,92-92.157,92s-92.155-41.19-92.155-92
				S48.44,7.667,99.333,7.667 M99.333,2.667c-53.571,0-97.155,43.514-97.155,97s43.584,97,97.155,97
				c53.572,0,97.157-43.514,97.157-97S152.905,2.667,99.333,2.667L99.333,2.667z"/>
		</g>
		<g>
			<path fill="#FFFFFF" d="M85.739,44.564c3.059,0,5.016,1.113,6.167,1.982c1.161,0.352,2.205,0.979,3.051,1.832
				c1.429-0.894,3.116-1.423,4.927-1.423c1.95,0,3.759,0.605,5.254,1.635c0.018-0.017,0.029-0.034,0.046-0.054
				c0.874-0.938,1.979-1.619,3.215-1.989c1.151-0.871,3.109-1.983,6.168-1.983c2.297,0,6.181,0.624,9.476,1.962
				c1.654,0.673,3.958,1.52,6.958,2.449V40H76v6.87c1-0.118,0.915-0.232,1.185-0.344C80.485,45.188,83.448,44.564,85.739,44.564z"/>
			<path fill="#FFFFFF" d="M111.831,74.412c1.032-0.721,2.369-1.016,3.688-0.76c0.238,0.044,0.856,0.104,1.641,0.173
				c0.664-1.108,1.793-1.896,3.052-2.153c0.812-1.442,2.371-2.368,4.091-2.368c0.427,0,2.105,0.057,2.488,0.145
				c0.725-0.964,3.21-1.566,4.21-1.746v-6.75c-4-1.663-8.411-3.257-11.067-4.336c-2.285-0.931-4.081-1.122-4.573-1.155
				c-0.139,0.121-0.625,0.271-0.835,0.423c0.037,0.538-0.098,1.141-0.098,1.8c0,7.809-5.391,8.653-7.675,8.653
				c-1.968,0-3.521-0.319-4.371-0.556c-0.623,0.044-1.285-0.044-1.889-0.265c-0.928,0.46-1.975,0.575-2.941,0.375
				c-0.889,0.214-2.244,0.445-3.913,0.445c-2.285,0-7.598-0.845-7.598-8.653c0-0.658,0.029-1.261,0.064-1.797
				c-0.206-0.152-0.375-0.3-0.511-0.419c-0.57,0.038-2.078,0.247-4.298,1.148C79.865,57.198,78,57.931,76,58.741v10.62
				c2,0.217,3.038,1.07,3.741,2.309c1.268,0.25,2.556,1.026,3.229,2.154c0.797-0.073,1.534-0.138,1.812-0.188
				c0.283-0.051,0.624-0.076,0.927-0.076c1.003,0,1.981,0.312,2.763,0.864c1.81-0.618,3.926-0.082,5.202,1.361
				c0.015,0.019,0.034,0.035,0.05,0.054c0.778-0.437,1.739-0.829,2.914-0.829c1.525,0,2.636,0.541,3.445,1.346
				c0.82-0.881,1.964-1.492,3.581-1.492c1.228,0,2.198,0.423,2.976,0.886c0.914-1.025,2.218-1.61,3.583-1.61
				C110.674,74.139,111.229,74.202,111.831,74.412z"/>
			<ellipse fill="#FFFFFF" cx="99.884" cy="56.221" rx="2.922" ry="2.909"/>
			<path fill="#FFFFFF" d="M145.89,64.271c0,0-17.017-8.398-25.521-11.859c-8.509-3.456-7.979,0.168-9.706,0.168
				c-1.726,0-0.932,1.974-0.932,5.104c0,3.128-0.928,4.117-3.059,4.117c-2.127,0-3.455-0.496-3.455-0.496
				c-0.473-0.352-0.864-0.339-1.188-0.052c-0.944-0.548-2.668-0.394-3.566,0.197c-0.356-0.471-0.806-0.566-1.373-0.146
				c0,0-1.327,0.496-3.454,0.496c-2.13,0-3.055-0.989-3.055-4.117c0-3.131,0.792-5.104-0.936-5.104
				c-1.727,0-1.195-3.624-9.702-0.168c-8.51,3.461-25.522,11.859-25.522,11.859s-0.8,2.142,2.257,2.142
				c3.059,0-3.994,3.457,6.912,3.457c0.534,0-1.599,1.482-1.599,1.482s3.328,3.129,9.178,0.823l-1.86,1.648
				c0,0,2.66,1.648,5.716,0.329c3.058-1.317-1.062,1.976-1.062,1.976s0.24,1.53,5.18,0c0.534-0.163-0.928,1.979-0.928,1.979
				l1.994,0.493c0,0,4.209-0.275,5.447-0.493c0.933-0.167-0.795,1.811-0.795,1.811s2.431,1.341,4.784-0.988
				c1.331-1.317,0.799,2.959,0.799,2.959s2.392-0.326,3.59-0.984c2.598-1.434,3.056-3.131,3.856,1.65
				c0.134,0.805,0.264,1.287,0.388,1.538c0.241,12.957,0.55,29.347,0.793,42.354c0.227,0.484,0.532,0.863,0.942,1.274
				c-0.41-0.411-0.716,3.962-0.942,3.479C99.307,143.787,99.482,158,99.482,158h1.594c0,0,0.201-15.301,0.456-28.926
				c0-0.062,0.001-2.578,0.003-2.654c0.023-1.361,0.05-3.975,0.076-5.396c0,0.02,0.002-0.543,0.004-0.541
				c0.221-11.938,0.478-25.941,0.68-36.988c0.042-0.188,0.082-0.551,0.125-0.804c0.797-4.773,1.254-3.136,3.855-1.701
				c1.197,0.656,3.59,0.938,3.59,0.938s-0.536-4.297,0.797-2.979c2.351,2.329,4.785,0.97,4.785,0.97s-1.728-1.979-0.797-1.812
				c1.241,0.218,5.448,0.493,5.448,0.493l1.995-0.493c0,0-1.462-2.143-0.93-1.979c4.94,1.53,5.184,0,5.184,0
				s-4.121-3.293-1.063-1.976c3.06,1.319,5.716-0.329,5.716-0.329l-1.861-1.648c5.849,2.306,9.174-0.823,9.174-0.823
				s-2.128-1.482-1.596-1.482c10.906,0,3.855-3.457,6.912-3.457C146.687,66.412,145.89,64.271,145.89,64.271z"/>
			<path fill="#FFFFFF" d="M88.067,159c0.141-1,0.537-3.795,1.228-4.832c-0.143-1.898-0.412-6.393-0.675-10.894
				c-0.831-1.119-1.393-2.871-1.393-4.506c0-1.51,0.385-2.951,0.992-3.992c-0.025-0.626-0.05-1.352-0.074-1.981
				c-0.668-1.062-1.069-2.362-1.069-3.812c0-1.222,0.116-2.205,0.569-3.132l-0.551-2.183c-0.843-1.185-1.381-2.637-1.381-4.412
				c0-0.484,0.026-0.953,0.075-1.398c0.001-1.402,0.028-2.83,0.072-4.263c-3.609-2.482-4.04-5.353-4.04-6.521
				c0-0.961,0.005-2.417,0.445-3.434c-0.001,0.001-0.002,0.002-0.002,0.003c-2.201-0.715-4.179-1.699-5.559-3.057
				c-1.507-1.487-2.308-3.324-2.308-5.311c0-2.602,1.085-4.8,3.05-6.192c1.421-1.009,3.006-1.793,4.546-2.378
				c-0.063-0.089-0.144-0.161-0.202-0.249c-1.329-0.269-2.29-0.729-2.728-0.971l-0.88-0.479c-0.035,0.008-0.071,0.014-0.106,0.02
				l-0.277,0.044c-0.438,0.077-0.891,0.086-1.334,0.029l-2.08-0.29C73.937,84.961,73.451,85,72.947,85c-0.003,0-0.011,0-0.019,0
				c-2.967,0-5.438-1.416-6.854-3.842c-0.98-0.436-1.929-1.033-2.844-1.837c-4.85-0.329-7.758-2.82-8.321-3.353l-0.354-0.328
				c-1.535-0.389-3.691-1.242-5.135-3.298c-0.207-0.296-0.389-1.426-0.55-1.741C48.116,70.127,47.457,68,46.902,68H38v55h35v36
				H88.067z"/>
			<g>
				<path fill="#FFFFFF" d="M95.247,125.205c2.593,1.159,5.306,1.469,5.822,1.516c0.978,0.108,2.98,0.701,3.518,1.638l0.295,0.509
					l-0.276,0.519c-0.193,0.383-0.428,0.739-0.885,1.044c-0.001,0.03-0.005,0.059-0.007,0.089c-0.006-0.004-0.012-0.007-0.019-0.009
					c0.986,0.564,2.118,1.341,3.116,2.334c1.066-0.919,1.854-2.178,1.854-3.908c0-4.273-4.67-5.934-7.429-6.243
					c-1.281-0.13-2.799-0.495-4.051-1.029l5.484,0.264l-5.575-0.269l1.626-0.553v-0.001l-1.581,0.539
					c-1.413-0.611-2.487-1.438-2.487-2.396c0-0.051,0.03-0.104,0.025-0.162c-0.167-1.268,0.017-2.009,1.208-2.498
					c0.006,0,0.013,0.001,0.02,0.003c-1.641-0.386-3.042-0.843-4.245-1.345c-0.698,1.078-1.061,2.399-1.061,4.002
					C90.601,121.808,92.146,123.809,95.247,125.205z"/>
				<path fill="#FFFFFF" d="M97.487,148.059c0.629-0.406,0.864-0.714,1.14-0.923c-0.152-0.104-0.421-0.219-0.584-0.315
					c-0.291-0.095-0.34-0.232-0.769-0.406C96.916,147.051,97,147.771,97,148.59c0,0.015,0,0.026,0,0.043
					C97,148.44,97.183,148.25,97.487,148.059z"/>
				<path fill="#FFFFFF" d="M105.203,152.118c-0.828,0.944-1.986,1.87-3.601,2.908c-0.045,0.027-0.078,0.052-0.12,0.08
					c1.455,1.214,1.479,1.843,1.479,2.165c0,0.032,0.01,0.062,0.012,0.095c0.032,0.066,0.054,0.128,0.054,0.172
					c0,0.118,0.018,0.229,0.034,0.343c0.296,1,1.289,1.742,2.478,1.742c1.423,0,2.577-1.053,2.577-2.352
					c0-1.075-0.276-2.072-0.856-3.048C106.764,153.518,106.084,152.825,105.203,152.118z"/>
				<path fill="#FFFFFF" d="M100.453,153.246c3.788-2.435,4.401-3.705,4.337-6.28l-0.002-0.126
					c-0.004-0.123-0.007-0.253-0.007-0.393c0-3.133-3.816-5.032-4.396-5.301l-0.362-0.138c-0.904-0.276-2.105-0.84-2.924-1.433
					l2.321,0.935l-2.501-1.007l0.056-0.022c-0.196-0.154-0.375-0.307-0.507-0.457c-0.318-0.361-0.35-0.893-0.083-1.29
					c0.186-0.271,0.344-0.464,0.643-0.714c0.007-0.041,0.015-0.088,0.022-0.133c-1.369-0.399-2.717-1.002-3.879-1.828
					c-0.664,0.876-1.1,1.956-1.1,3.315c0,4.018,5.066,5.963,6.616,6.469c0.061,0.017,0.114,0.037,0.167,0.062
					c0.521,0.272,1.235,0.757,1.599,1.169c0.168,0.187,0.262,0.424,0.271,0.672l0.007,0.335c0.005,0.11,0.009,0.262,0.009,0.389
					c0,0.275-0.106,0.542-0.297,0.737c-0.385,0.397-1.128,0.948-2.186,1.633c-3.846,2.47-5.414,4.513-5.414,7.042
					c0,1.119,0.913,2.026,2.03,2.026c1.119,0,2.028-0.907,2.028-2.026C96.901,156.479,96.901,155.531,100.453,153.246z"/>
				<path fill="#FFFFFF" d="M113.95,107.074c0-5.957-11.602-7.088-13.947-7.336c0,0-0.578-0.004-0.794-0.004
					c-5.775,0-14.933-1.357-16.005-3.845L83,95.487v-0.211c0-0.217,0.175-0.412,0.22-0.592l0.179-0.392l0.381-0.224
					c0.27-0.178,0.8-0.414,2.061-0.414c1.671,0,3.858,0.398,5.722,1.046c1.047,0.37,2.235-0.215,2.598-1.239
					c0.31-1.043-2.227-5.362-3.4-5.769c-0.029-0.01-0.202-0.065-0.628-0.065c-1.639,0-5.443,0.863-8.723,3.186
					c-1.385,0.98-2.157,2.567-2.157,4.463c0,1.407,0.577,2.724,1.668,3.803c3.228,3.182,11.619,4.31,18.382,4.31l0.571-0.002
					l0.072,0.006c3.61,0.406,8.356,1.651,9.72,2.959l0.741,0.714l-0.912,0.761c-0.789,0.87-2.673,1.796-4.426,2.483
					c-0.008-0.001-0.014-0.003-0.021-0.007c1.394,0.559,2.919,1.332,4.229,2.396c0-0.001-0.001-0.002-0.002-0.003
					C111.682,111.438,113.95,109.628,113.95,107.074z"/>
				<path fill="#FFFFFF" d="M99.297,135.234l0.139,0.022l0.129,0.058c1.213,0.548,2.804,1.578,3.374,2.42l0.457,0.677l-0.536,0.613
					c-0.167,0.19-0.36,0.356-0.587,0.514c1.251,0.722,2.285,1.58,3.171,2.633c1.204-1.131,1.812-2.403,1.812-3.796
					c0-4.137-5.438-6.533-6.528-6.972l-0.243-0.099l-0.263-0.031c-0.889-0.111-3.514-0.753-4.116-1.845l-0.271-0.487l0.252-0.502
					c0.01-0.016,0.018-0.034,0.026-0.049c-1.327-0.461-2.644-0.974-3.803-1.719c-0.295,0.56-0.392,1.205-0.392,2.264
					C91.919,133.905,98.542,135.113,99.297,135.234z"/>
				<path fill="#FFFFFF" d="M119.123,90.813c-3.208-2.27-7.214-3.114-8.991-3.114c-0.502,0-0.678,0.063-0.697,0.07
					c-0.337,0.119-1.237,1.032-2.082,2.625c-0.923,1.732-1.04,2.829-0.953,3.067c0.361,1.026,1.543,1.609,2.581,1.239
					c1.826-0.642,4.079-1.055,5.73-1.055c0.95,0,1.602,0.135,2.042,0.429l0.337,0.225l0.103,0.393
					c0.036,0.155,0.018,0.915-0.891,1.298c-0.97,1.41-4.385,2.305-8.151,2.812c-0.004-0.001-0.007-0.002-0.009-0.004
					c2.547,0.843,4.312,1.887,5.529,2.968c2.371-0.699,4.177-1.604,5.277-2.689c1.483-1.457,2.276-2.704,2.276-3.801
					C121.225,93.381,120.509,91.794,119.123,90.813z"/>
				<path fill="#FFFFFF" d="M100.481,111.164l-0.084-0.013c-3.444-0.483-7.978-1.898-9.279-3.33l-0.686-0.755l0.731-0.71
					c0.417-0.403,1.1-0.787,1.924-1.142c-0.577-0.027-1.146-0.062-1.674-0.096c-1.891-0.104-3.561-0.196-4.562-0.43
					c-0.095,0.326-0.185,0.993-0.185,2.385c0,5.901,10.919,7.771,13.113,8.083c1.438,0.269,6.658,1.73,6.658,4.091
					c0,0.214,0,0.682-0.675,1.262c1.248,0.549,2.366,1.389,3.255,2.466c0.993-1.065,1.477-2.294,1.477-3.728
					C110.495,113.133,101.511,111.352,100.481,111.164z"/>
			</g>
			<path fill="#FFFFFF" d="M153.41,68c-0.553,0-1.208,2.127-1.968,2.602c-0.158,0.318-0.341,1.038-0.549,1.335
				c-1.444,2.062-3.579,3.132-5.112,3.524l-0.338,0.425c-0.821,0.778-3.545,3.073-7.973,3.493c-0.043,0.03-0.085,0.085-0.125,0.116
				c-1.032,0.792-2.094,1.406-3.185,1.815c-1.426,2.354-3.852,3.768-6.732,3.768c-0.771,0-1.51-0.191-2.165-0.541l-1.22,0.304
				c-0.445,0.107-0.906,0.146-1.363,0.114l-0.372-0.025c-0.02-0.002-0.04-0.003-0.064-0.004l-0.988,0.551
				c-0.459,0.248-1.41,0.699-2.71,0.967c-0.053,0.081-0.116,0.158-0.174,0.238c1.571,0.551,3.227,1.335,4.734,2.402
				c1.967,1.393,3.047,3.59,3.047,6.192c0,1.691-0.922,3.434-2.827,5.308c-1.324,1.309-3.209,2.273-5.373,2.991
				c0.864,1.361,1.058,2.64,1.058,3.499c0,3.492-2.504,5.836-5.286,7.384c0.976,1.29,1.615,2.868,1.615,4.79
				c0,2.334-0.966,4.325-2.855,5.928c0.631,1.037,1.019,2.28,1.019,3.76c0,2.183-0.935,4.076-2.63,5.529
				c-0.001-0.002-0.002-0.002-0.003-0.002c0.731,1.117,1.226,2.416,1.226,3.912c0,1.66-0.609,3.207-1.764,4.57
				c-0.049,3.04-0.091,7.203-0.121,9.08c1.862,1.723,2.876,4.975,3.196,6.975H134v-36h28V68H153.41z"/>
		</g>
		<g>
			<path fill="#FFFFFF" d="M76.193,172.769c0.07,0.029,0.13,0.064,0.181,0.107c0.051,0.042,0.097,0.095,0.137,0.157
				s0.082,0.144,0.128,0.244l3.292,7.691c0.036-0.208,0.075-0.408,0.117-0.602s0.086-0.374,0.132-0.543l1.512-5.581l2.157,0.584
				l-2.858,10.547l-1.273-0.345c-0.188-0.051-0.34-0.123-0.454-0.217c-0.115-0.093-0.212-0.233-0.29-0.42l-3.271-7.632
				c-0.035,0.188-0.072,0.371-0.11,0.55s-0.078,0.345-0.12,0.5l-1.532,5.653l-2.156-0.585l2.858-10.547l1.288,0.35
				C76.036,172.71,76.124,172.739,76.193,172.769z"/>
			<path fill="#FFFFFF" d="M90.017,184.663c0.338,0.036,0.646,0.014,0.924-0.069c0.278-0.083,0.521-0.22,0.728-0.408
				c0.206-0.188,0.374-0.429,0.504-0.719s0.215-0.627,0.257-1.01l0.696-6.435l2.521,0.273l-0.697,6.435
				c-0.072,0.666-0.246,1.266-0.522,1.799c-0.277,0.533-0.639,0.979-1.085,1.339s-0.97,0.619-1.57,0.78s-1.262,0.203-1.982,0.125
				c-0.726-0.079-1.365-0.262-1.917-0.548c-0.553-0.286-1.009-0.652-1.367-1.099c-0.359-0.446-0.615-0.959-0.769-1.539
				s-0.194-1.202-0.122-1.869l0.697-6.435l2.52,0.273l-0.696,6.427c-0.041,0.383-0.029,0.73,0.035,1.041
				c0.063,0.312,0.177,0.583,0.338,0.813c0.161,0.231,0.368,0.418,0.622,0.559S89.679,184.626,90.017,184.663z"/>
			<path fill="#FFFFFF" d="M100.943,183.123l0.15,4.04l-2.533,0.095l-0.406-10.92l3.552-0.133c0.79-0.029,1.466,0.027,2.029,0.169
				s1.026,0.351,1.39,0.627c0.362,0.277,0.632,0.609,0.806,0.998c0.175,0.389,0.271,0.815,0.288,1.28
				c0.014,0.355-0.021,0.691-0.104,1.01c-0.084,0.318-0.214,0.615-0.392,0.889c-0.177,0.274-0.398,0.521-0.662,0.742
				c-0.265,0.22-0.572,0.403-0.922,0.552c0.173,0.079,0.336,0.178,0.487,0.297c0.152,0.119,0.287,0.268,0.403,0.443l2.465,3.713
				l-2.293,0.086c-0.425,0.016-0.735-0.133-0.933-0.446l-1.932-3.103c-0.085-0.137-0.183-0.233-0.292-0.289
				c-0.11-0.057-0.262-0.081-0.457-0.073L100.943,183.123z M100.878,181.377l1.02-0.038c0.345-0.013,0.637-0.067,0.876-0.163
				c0.239-0.097,0.433-0.226,0.582-0.386c0.149-0.161,0.255-0.347,0.317-0.557s0.089-0.435,0.08-0.675
				c-0.019-0.479-0.188-0.849-0.511-1.106s-0.811-0.375-1.465-0.351l-1.02,0.038L100.878,181.377z"/>
			<path fill="#FFFFFF" d="M115.447,176.868c-0.054,0.131-0.117,0.232-0.188,0.306s-0.171,0.12-0.299,0.142
				c-0.113,0.02-0.242,0.004-0.385-0.045c-0.143-0.05-0.304-0.104-0.484-0.166c-0.18-0.061-0.382-0.108-0.605-0.145
				c-0.225-0.035-0.472-0.03-0.743,0.016c-0.469,0.079-0.801,0.237-0.996,0.476s-0.265,0.528-0.207,0.868
				c0.037,0.217,0.136,0.385,0.299,0.505c0.162,0.12,0.363,0.212,0.605,0.278c0.242,0.065,0.515,0.117,0.817,0.154
				c0.303,0.038,0.613,0.084,0.933,0.14c0.318,0.055,0.634,0.13,0.946,0.224c0.312,0.095,0.6,0.233,0.861,0.417
				c0.262,0.185,0.489,0.424,0.681,0.719c0.191,0.294,0.325,0.666,0.401,1.114c0.084,0.498,0.076,0.979-0.022,1.441
				c-0.1,0.464-0.286,0.884-0.56,1.263c-0.273,0.378-0.634,0.7-1.084,0.966c-0.449,0.267-0.979,0.451-1.591,0.555
				c-0.336,0.057-0.683,0.079-1.042,0.069c-0.359-0.011-0.712-0.051-1.059-0.122c-0.347-0.07-0.678-0.168-0.992-0.292
				c-0.315-0.124-0.597-0.274-0.845-0.451l0.542-1.293c0.039-0.098,0.104-0.183,0.193-0.253c0.089-0.071,0.19-0.116,0.304-0.136
				c0.148-0.024,0.306-0.003,0.472,0.065s0.354,0.143,0.562,0.225c0.209,0.081,0.444,0.147,0.707,0.199
				c0.262,0.053,0.561,0.05,0.896-0.007c0.453-0.076,0.789-0.235,1.007-0.478s0.29-0.58,0.217-1.014
				c-0.043-0.252-0.146-0.444-0.311-0.579c-0.165-0.135-0.368-0.234-0.61-0.301c-0.242-0.065-0.513-0.113-0.812-0.144
				c-0.299-0.031-0.607-0.069-0.925-0.114c-0.316-0.045-0.63-0.114-0.939-0.206c-0.31-0.093-0.596-0.234-0.859-0.426
				c-0.263-0.191-0.492-0.446-0.688-0.766c-0.195-0.319-0.336-0.73-0.421-1.233c-0.068-0.404-0.054-0.812,0.044-1.225
				s0.279-0.795,0.544-1.149c0.265-0.354,0.611-0.659,1.039-0.917c0.428-0.257,0.938-0.436,1.529-0.536
				c0.331-0.056,0.656-0.084,0.979-0.085s0.632,0.025,0.93,0.079c0.298,0.053,0.581,0.13,0.849,0.229
				c0.269,0.1,0.513,0.222,0.735,0.367L115.447,176.868z"/>
			<path fill="#FFFFFF" d="M124.752,172.019l0.556,1.869l-4.299,1.278l0.727,2.444l3.293-0.979l0.534,1.798l-3.292,0.979
				l0.742,2.495l4.299-1.279l0.556,1.869l-6.743,2.006l-3.115-10.474L124.752,172.019z"/>
		</g>
		<g>
			<g>
				<path fill="#FFFFFF" d="M53.805,32.728l2.188,3.399l-2.131,1.372l-5.916-9.188l2.988-1.925c0.664-0.428,1.274-0.724,1.832-0.889
					c0.557-0.166,1.062-0.222,1.515-0.169s0.854,0.202,1.203,0.448c0.348,0.245,0.648,0.563,0.899,0.954
					c0.192,0.299,0.334,0.606,0.425,0.922c0.091,0.316,0.13,0.638,0.116,0.965c-0.013,0.326-0.076,0.651-0.192,0.976
					c-0.115,0.324-0.285,0.639-0.511,0.944c0.188-0.021,0.379-0.019,0.571,0.007c0.191,0.025,0.382,0.084,0.572,0.176l4.014,1.938
					l-1.93,1.242c-0.357,0.23-0.7,0.261-1.029,0.092l-3.244-1.685c-0.143-0.074-0.275-0.107-0.398-0.1s-0.267,0.064-0.431,0.17
					L53.805,32.728z M52.858,31.259l0.857-0.553c0.291-0.187,0.514-0.382,0.67-0.587c0.157-0.205,0.259-0.415,0.305-0.629
					c0.047-0.214,0.043-0.428-0.011-0.64c-0.054-0.213-0.145-0.42-0.275-0.621c-0.26-0.404-0.594-0.635-1.003-0.692
					s-0.889,0.091-1.439,0.445l-0.857,0.552L52.858,31.259z"/>
				<path fill="#FFFFFF" d="M65.087,18.804l0.827,1.767l-4.062,1.901l1.081,2.31l3.111-1.456l0.795,1.697l-3.11,1.457l1.104,2.356
					l4.062-1.901l0.827,1.766l-6.371,2.983l-4.635-9.896L65.087,18.804z"/>
				<path fill="#FFFFFF" d="M76.507,24.451c0.334-0.103,0.622-0.223,0.862-0.359s0.46-0.288,0.66-0.455l-0.488-1.584l-1.032,0.318
					c-0.152,0.047-0.284,0.043-0.396-0.012s-0.186-0.144-0.224-0.269l-0.411-1.333l3.713-1.144l1.358,4.407
					c-0.208,0.279-0.434,0.533-0.68,0.763c-0.246,0.23-0.519,0.441-0.817,0.633c-0.3,0.191-0.628,0.366-0.984,0.523
					c-0.357,0.157-0.749,0.301-1.174,0.432c-0.765,0.236-1.514,0.319-2.246,0.249c-0.733-0.069-1.411-0.269-2.033-0.598
					c-0.621-0.329-1.168-0.778-1.639-1.348c-0.472-0.568-0.824-1.235-1.06-2c-0.24-0.778-0.332-1.534-0.274-2.266
					c0.057-0.731,0.252-1.408,0.587-2.029c0.334-0.621,0.802-1.168,1.401-1.641s1.32-0.838,2.161-1.098
					c0.435-0.134,0.854-0.224,1.259-0.27c0.404-0.047,0.787-0.058,1.148-0.032c0.36,0.024,0.701,0.082,1.021,0.172
					c0.32,0.089,0.617,0.202,0.89,0.338l-0.374,1.284c-0.036,0.121-0.092,0.225-0.167,0.311s-0.168,0.146-0.278,0.18
					c-0.144,0.045-0.306,0.042-0.488-0.006c-0.227-0.056-0.438-0.1-0.633-0.131s-0.39-0.046-0.583-0.044
					c-0.192,0.002-0.391,0.021-0.594,0.058c-0.203,0.036-0.427,0.092-0.671,0.167c-0.454,0.14-0.838,0.346-1.151,0.618
					c-0.313,0.271-0.554,0.593-0.72,0.963s-0.255,0.781-0.268,1.232s0.059,0.928,0.213,1.43c0.171,0.554,0.398,1.022,0.685,1.405
					c0.285,0.383,0.608,0.681,0.97,0.895c0.361,0.213,0.751,0.34,1.169,0.381S76.067,24.587,76.507,24.451z"/>
				<path fill="#FFFFFF" d="M86.309,24.042l-2.507,0.464l-1.99-10.744l2.507-0.465L86.309,24.042z"/>
				<path fill="#FFFFFF" d="M94.861,14.326c-0.064,0.126-0.136,0.223-0.213,0.289s-0.181,0.105-0.31,0.116
					c-0.115,0.01-0.241-0.016-0.379-0.077c-0.139-0.061-0.295-0.129-0.47-0.204c-0.174-0.076-0.371-0.141-0.592-0.195
					c-0.221-0.054-0.468-0.069-0.741-0.046c-0.474,0.04-0.817,0.171-1.032,0.392c-0.215,0.222-0.308,0.504-0.278,0.848
					c0.019,0.22,0.104,0.396,0.255,0.528c0.152,0.133,0.346,0.241,0.581,0.327c0.235,0.085,0.503,0.159,0.802,0.222
					s0.604,0.135,0.918,0.216c0.312,0.082,0.621,0.183,0.925,0.303c0.304,0.119,0.578,0.282,0.824,0.487
					c0.245,0.204,0.451,0.462,0.618,0.771s0.27,0.691,0.308,1.145c0.043,0.503-0.005,0.981-0.143,1.435
					c-0.137,0.453-0.357,0.856-0.661,1.211s-0.69,0.646-1.16,0.874c-0.471,0.228-1.015,0.367-1.632,0.42
					c-0.339,0.028-0.687,0.022-1.044-0.018s-0.706-0.109-1.045-0.209c-0.34-0.099-0.661-0.224-0.965-0.373
					c-0.304-0.15-0.572-0.323-0.805-0.52l0.647-1.244c0.048-0.094,0.118-0.173,0.214-0.236c0.095-0.062,0.199-0.1,0.314-0.109
					c0.149-0.013,0.304,0.022,0.464,0.104c0.16,0.082,0.341,0.173,0.542,0.271c0.201,0.099,0.431,0.185,0.688,0.258
					c0.257,0.074,0.555,0.097,0.894,0.067c0.458-0.038,0.806-0.169,1.043-0.393s0.337-0.554,0.3-0.992
					c-0.021-0.255-0.108-0.455-0.262-0.603c-0.152-0.148-0.347-0.265-0.583-0.35c-0.235-0.086-0.501-0.156-0.797-0.212
					c-0.295-0.055-0.6-0.118-0.911-0.189c-0.312-0.071-0.619-0.166-0.92-0.284c-0.301-0.117-0.574-0.282-0.82-0.495
					c-0.247-0.212-0.454-0.485-0.623-0.82c-0.169-0.334-0.274-0.756-0.317-1.264c-0.035-0.408,0.014-0.814,0.146-1.217
					c0.131-0.402,0.344-0.77,0.637-1.1c0.293-0.331,0.664-0.607,1.111-0.828c0.448-0.221,0.972-0.356,1.569-0.407
					c0.334-0.028,0.661-0.03,0.981-0.004c0.321,0.025,0.628,0.077,0.921,0.155c0.292,0.078,0.567,0.178,0.826,0.299
					s0.493,0.263,0.702,0.426L94.861,14.326z"/>
				<path fill="#FFFFFF" d="M107.179,12.279l-0.078,2.009l-3.072-0.119l-0.347,8.91l-2.533-0.099l0.347-8.91l-3.073-0.12
					l0.078-2.008L107.179,12.279z"/>
				<path fill="#FFFFFF" d="M117.688,13.862l-0.32,1.924l-4.424-0.738l-0.42,2.516l3.389,0.565l-0.309,1.85l-3.388-0.565
					l-0.429,2.567l4.424,0.737l-0.32,1.924l-6.939-1.157l1.798-10.779L117.688,13.862z"/>
				<path fill="#FFFFFF" d="M122.031,22.095l-1.191,3.863l-2.422-0.747l3.221-10.442l3.397,1.048
					c0.755,0.233,1.375,0.51,1.859,0.829c0.485,0.319,0.854,0.67,1.104,1.051c0.251,0.382,0.396,0.784,0.432,1.209
					s-0.014,0.858-0.151,1.303c-0.104,0.34-0.249,0.646-0.432,0.919c-0.185,0.272-0.405,0.51-0.663,0.71s-0.548,0.36-0.87,0.48
					c-0.322,0.121-0.673,0.193-1.052,0.218c0.137,0.131,0.258,0.278,0.361,0.441c0.104,0.163,0.183,0.347,0.234,0.551l1.101,4.319
					l-2.192-0.677c-0.406-0.126-0.65-0.368-0.733-0.729l-0.799-3.566c-0.035-0.157-0.096-0.281-0.181-0.37s-0.221-0.162-0.406-0.22
					L122.031,22.095z M122.547,20.425l0.975,0.301c0.33,0.103,0.623,0.146,0.881,0.135s0.483-0.069,0.677-0.172
					c0.194-0.103,0.354-0.242,0.483-0.42c0.128-0.178,0.228-0.381,0.298-0.61c0.142-0.459,0.103-0.863-0.116-1.213
					c-0.219-0.351-0.642-0.622-1.268-0.815l-0.975-0.301L122.547,20.425z"/>
				<path fill="#FFFFFF" d="M139.951,21.771l-0.819,1.77l-4.07-1.885l-1.071,2.313l3.116,1.444l-0.787,1.701l-3.117-1.443
					l-1.094,2.361l4.069,1.885l-0.819,1.77l-6.384-2.957l4.593-9.915L139.951,21.771z"/>
				<path fill="#FFFFFF" d="M148.97,33.698c-0.43,0.663-0.941,1.2-1.533,1.611c-0.592,0.412-1.228,0.688-1.908,0.827
					s-1.388,0.134-2.121-0.017c-0.733-0.151-1.457-0.458-2.17-0.921l-3.562-2.31l5.947-9.168l3.562,2.311
					c0.713,0.462,1.287,0.999,1.723,1.609s0.729,1.253,0.88,1.93c0.151,0.676,0.16,1.368,0.025,2.077
					C149.678,32.356,149.396,33.04,148.97,33.698z M146.793,32.286c0.293-0.453,0.5-0.9,0.619-1.342
					c0.119-0.44,0.151-0.859,0.096-1.256s-0.198-0.767-0.429-1.11c-0.23-0.343-0.549-0.646-0.956-0.91l-1.422-0.923l-3.824,5.896
					l1.422,0.923c0.406,0.264,0.813,0.432,1.221,0.502s0.804,0.05,1.188-0.061c0.385-0.111,0.754-0.312,1.108-0.6
					C146.171,33.116,146.496,32.743,146.793,32.286z"/>
			</g>
		</g>
	</g>
</g>
</svg>
