<?xml version="1.0" encoding="utf-8"?>
<!-- Generator: Adobe Illustrator 16.0.0, SVG Export Plug-In . SVG Version: 6.00 Build 0)  -->
<!DOCTYPE svg PUBLIC "-//W3C//DTD SVG 1.1//EN" "http://www.w3.org/Graphics/SVG/1.1/DTD/svg11.dtd">
<svg version="1.1" xmlns="http://www.w3.org/2000/svg" xmlns:xlink="http://www.w3.org/1999/xlink" x="0px" y="0px" width="100px"
	 height="100px" viewBox="0 0 100 100" enable-background="new 0 0 100 100" xml:space="preserve">
<g id="BG" display="none">
	<g id="skilled_nursing_1_" display="inline">
		<rect width="100" height="100"/>
		<g>
			<path fill="#00FA5C" d="M71,29v43H28V29H71 M72,28H27v45h45V28L72,28z"/>
		</g>
	</g>
</g>
<g id="Symbols">
	<path id="skilled_nursing_2_" fill="#FFFFFF" d="M71.441,78c5.077,0,9.249-4.13,9.249-9.21c0-5.544-4.111-7.847-5.42-8.447
		l-0.016,3.74c0.466,0.423,2.217,1.787,2.217,4.695c0,3.311-2.72,6.006-6.03,6.006c-4.565,0-6.035-4.24-6.035-6.058
		c0-2.613,1.702-4.837,4.055-5.661v1.912c-1.358,0.711-2.298,2.117-2.307,3.757c-0.009,2.364,1.902,4.29,4.267,4.299
		c2.365,0.012,4.292-1.898,4.3-4.263c0.009-1.626-0.905-3.028-2.236-3.758V54.012c0-5.136-4.182-9.314-9.318-9.314
		c-4.941,0-8.983,3.865-9.291,8.727h-0.028v9.461c0,4.458-3.628,8.085-8.089,8.085c-4.46,0-8.09-3.627-8.09-8.085v-3.632
		c8.624-1.21,15.338-10.095,15.338-20.843c0-7.317-3.058-12.038-9.092-14.078C44.454,22.979,43.186,22,41.676,22
		c-1.897,0-3.437,1.537-3.437,3.433c0,1.898,1.539,3.436,3.437,3.436c0.771,0,1.473-0.262,2.047-0.69
		c4.304,1.497,6.259,4.735,6.259,10.231c0,9.357-5.976,16.969-13.323,16.969c-7.349,0-13.327-7.612-13.327-16.969
		c0-5.496,1.959-8.734,6.264-10.231c0.572,0.428,1.277,0.69,2.047,0.69c1.896,0,3.435-1.538,3.435-3.436
		c0-1.896-1.538-3.433-3.435-3.433c-1.512,0-2.78,0.979-3.239,2.332c-6.035,2.039-9.093,6.761-9.093,14.078
		c0,10.749,6.718,19.633,15.339,20.843v3.632c0,6.677,5.432,12.105,12.109,12.105s12.11-5.429,12.11-12.105v-8.873
		c0-2.921,2.378-5.294,5.298-5.294c2.922,0,5.295,2.373,5.295,5.294v5.713c-4.134,0.906-7.274,4.59-7.274,8.99
		C62.187,73.333,65.77,78,71.441,78z"/>
</g>
</svg>
