<?xml version="1.0" encoding="utf-8"?>
<!-- Generator: Adobe Illustrator 16.0.0, SVG Export Plug-In . SVG Version: 6.00 Build 0)  -->
<!DOCTYPE svg PUBLIC "-//W3C//DTD SVG 1.1//EN" "http://www.w3.org/Graphics/SVG/1.1/DTD/svg11.dtd">
<svg version="1.1" id="Layer_1" xmlns="http://www.w3.org/2000/svg" xmlns:xlink="http://www.w3.org/1999/xlink" x="0px" y="0px"
	 width="512px" height="512px" viewBox="0 0 512 512" enable-background="new 0 0 512 512" xml:space="preserve">
<path fill="#FFFFFF" d="M381.844,245.406C383.031,238.438,384,231.344,384,224v-96C384,57.312,326.688,0,256,0
	c-70.688,0-128,57.312-128,128v96c0,7.344,0.969,14.438,2.156,21.406C52.719,272.906,0,324.375,0,384v96c0,17.688,14.312,32,32,32
	h448c17.688,0,32-14.312,32-32v-96C512,324.375,459.281,272.906,381.844,245.406z M192,128c0-35.344,28.656-64,64-64
	s64,28.656,64,64v96c0,35.344-28.656,64-64,64s-64-28.656-64-64V128z M448,448H64v-64c0-34.562,36.812-64.594,91.594-81.5
	C179.031,332.438,215.062,352,256,352c40.938,0,76.969-19.562,100.406-49.5C411.188,319.406,448,349.438,448,384V448z"/>
</svg>
