<?xml version="1.0" encoding="utf-8"?>
<!-- Generator: Adobe Illustrator 16.0.0, SVG Export Plug-In . SVG Version: 6.00 Build 0)  -->
<!DOCTYPE svg PUBLIC "-//W3C//DTD SVG 1.1//EN" "http://www.w3.org/Graphics/SVG/1.1/DTD/svg11.dtd">
<svg version="1.1" xmlns="http://www.w3.org/2000/svg" xmlns:xlink="http://www.w3.org/1999/xlink" x="0px" y="0px" width="100px"
	 height="100px" viewBox="0 0 100 100" enable-background="new 0 0 100 100" xml:space="preserve">
<g id="BG" display="none">
	<rect id="whoweare" display="inline" width="100" height="100"/>
</g>
<g id="Symbols">
	<g id="who_we_are_2_">
		<defs>
			<rect id="SVGID_1_" width="100" height="100"/>
		</defs>
		<clipPath id="SVGID_2_">
			<use xlink:href="#SVGID_1_"  overflow="visible"/>
		</clipPath>
		<g clip-path="url(#SVGID_2_)">
			<path fill="#FFFFFF" d="M17.013,44.167c3.544,2.169,9.891,4.392,19.515,1.987c0,0-3.717-1.249-5.286-4.208
				c0,0,3.263-0.841,6.835,1.443c1.685,5.004,2.665,12.276-2.817,20.61c-0.284,2.367-0.336,4.131-0.162,6.261
				c1.32,0.498,2.235,1.128,2.571,1.828c-0.468,1.24-1.709,4.366-3.907,8.861c-2.154,4.744-5.415,11.47-9.508,18.55h39.323
				c-0.773-8.396-1.944-18.027-5.151-24.057c-0.6-1.127-5.933-2.732-11.468-4.129c-4.993-6.002,0.155-13.326-0.097-24.553
				c0-10.578-8.584-19.163-19.163-19.163c-10.585,0-19.165,8.585-19.165,19.163C8.255,58,13.16,65.303,8.349,71.321
				c-5.525,1.396-10.841,2.997-11.439,4.122C-6.293,81.468-7.465,91.138-8.239,99.5h27.943c2.222-3.73,4.219-7.401,5.948-10.775
				c-4.776-8.549-7.232-14.647-7.966-16.58c0.314-0.724,1.244-1.374,2.603-1.886c0.176-2.163,0.117-3.956-0.178-6.384
				C15.408,57.709,15,48.966,17.013,44.167z M42.3,91.857h10.839v3.433H42.3V91.857z"/>
		</g>
		<g clip-path="url(#SVGID_2_)">
			<path fill="#FFFFFF" d="M86.558,62.701c-0.74-1.87-1.216-3.508-4.231-4.656v4.763c1.706,1.46,0.663,3.019,0.402,4.047
				c-0.579,2.347-2.23,8.563-5.217,16.5c-1.548,4.849-3.508,10.487-5.82,16.146h10.437l2.62-15.615l7.114,0.348L88.399,69.23
				c6.48,1.753,12.605,3.68,14.872,4.842c2.956,6.326,4.247,16.552,5.089,25.428h5.879c-0.949-10.212-2.396-21.838-6.285-29.148
				C106.786,68.153,93.437,64.471,86.558,62.701z"/>
			<path fill="#FFFFFF" d="M55.942,39.868c1.232-2.311,3.842-4.879,9.169-3.103c4.394,1.468,11.427,4.771,18.2,0.321
				c2.809,4.675,2.373,8.563,1.996,12.828c2.719-3.15,4.356-7.166,4.356-11.544c0-10.105-8.697-19.377-19.418-19.377
				S50.83,28.266,50.83,38.371c0,4.462,1.697,8.547,4.512,11.723C54.816,46.799,54.602,43.346,55.942,39.868z"/>
			<path fill="#FFFFFF" d="M44.679,71.48c3.092-1.063,3.806-1.282,8.129-2.439l-3.507,15.191l7.112-0.348L59.034,99.5h8.034
				l6.719-18.549l-0.432-4.142l2.37-3.066c0.549-0.553,0.549-1.455,0-2.016l-4.472-3.515c-0.556-0.558-1.456-0.558-2.008,0
				l-4.471,3.515c-0.558,0.561-0.558,1.463,0,2.016l2.367,3.064L65.747,90.22c-4.696-10.937-7.172-20.111-7.948-23.239
				c-0.129-1.11-1.143-3.089,0.555-4.117V58.05c-3.006,1.147-3.664,2.781-4.404,4.646c-3.902,1.005-6.387,1.598-11.054,3.214
				c-3.555,1.232-9.805,23.417-10.755,33.59h5.88C38.863,90.638,42.95,72.074,44.679,71.48z"/>
			<rect x="89.325" y="94.135" fill="#FFFFFF" width="13.29" height="3.725"/>
		</g>
	</g>
	<g id="gears_2_">
		<defs>
			<rect id="SVGID_3_" y="-120" width="100" height="100"/>
		</defs>
		<clipPath id="SVGID_4_">
			<use xlink:href="#SVGID_3_"  overflow="visible"/>
		</clipPath>
		<path clip-path="url(#SVGID_4_)" fill="#FFFFFF" d="M124.136-33.615l-3.455-18.683l-9.266,1.713
			c-0.598-0.905-1.359-2.231-2.143-3.246l5.091-7.416L99.803-71.271l-4.744,7.51c-1.166-0.314-1.054-0.796-3.088-0.802l-1.586-8.573
			l-18.683,3.455l1.631,8.819c-0.914,0.56-1.771,1.175-2.674,1.858l-7.804-5.44l-9.975,14.553l8,5.507
			c-0.296,1.06-0.488,2.22-0.663,3.27l-9.354,1.729l3.455,18.683l9.258-1.712c0.535,0.918,1.032,1.283,1.696,2.2l-5.467,7.517
			l14.526,9.845l5.087-7.716c1.155,0.345,2.298,0.538,3.354,0.755l1.841,9.949l18.683-3.455l-1.794-9.703
			c1.895-0.756,1.747-1.217,2.776-1.978l7.125,5.114l9.896-14.536l-7.222-4.323c0.364-1.259,0.842-1.132,0.889-3.174L124.136-33.615
			z M91.566-15.054c-12.183,2.253-23.926-5.824-26.179-18.007c-2.254-12.182,5.824-23.925,18.007-26.179
			c12.183-2.253,23.926,5.824,26.18,18.006C111.826-29.052,103.749-17.307,91.566-15.054z M83.783-57.135
			C72.762-55.096,65.454-44.472,67.492-33.45c2.039,11.022,12.663,18.331,23.686,16.292c11.021-2.038,18.33-12.664,16.292-23.687
			C105.432-51.866,94.806-59.174,83.783-57.135z M90.389-20.728c-9.1,1.684-17.84-4.329-19.522-13.428
			c-1.684-9.1,4.328-17.84,13.428-19.522c9.099-1.684,17.84,4.328,19.522,13.428C105.5-31.151,99.487-22.409,90.389-20.728z"/>
	</g>
</g>
</svg>
