<?xml version="1.0" encoding="utf-8"?>
<!-- Generator: Adobe Illustrator 16.0.0, SVG Export Plug-In . SVG Version: 6.00 Build 0)  -->
<!DOCTYPE svg PUBLIC "-//W3C//DTD SVG 1.1//EN" "http://www.w3.org/Graphics/SVG/1.1/DTD/svg11.dtd">
<svg version="1.1" id="Layer_2" xmlns="http://www.w3.org/2000/svg" xmlns:xlink="http://www.w3.org/1999/xlink" x="0px" y="0px"
	 width="444.667px" height="294px" viewBox="0 0 444.667 294" enable-background="new 0 0 444.667 294" xml:space="preserve">
<g>
	<g>
		<path fill="#6054D2" d="M62.701,194.296c-13.587,0-26.358-1.472-36.294-4.143L24,189.458v-11.953l-3.995,10.783l-3.702-1.677
			C7.117,182.225,5,176.851,5,173.116v-41.131c0-40.799,22.56-43.651,29.414-43.651h56.64c12.978,0,27.947,11.197,27.947,43.651
			v41.131c0,3.891-1.923,9.46-11.525,13.903l-3.515,1.614L100,177.502v12.308l-2.554,0.677
			C87.919,192.944,75.626,194.296,62.701,194.296z"/>
		<g>
			<path fill="#FFFFFF" d="M91.053,91.333c13.904,0,24.947,14.385,24.947,40.651v41.131c0,4.406-3.626,7.978-9.567,10.727
				L97,157.098v30c-10,2.473-21.991,3.698-34.186,3.698c-12.792,0-25.814-1.35-35.814-4.022v-29.676l-9.097,26.354
				C12.236,180.747,9,177.297,9,173.116v-41.131c0-28.684,11.51-40.651,25.414-40.651H91 M91.053,84.333h-56.64
				c-9.58,0-17.865,4.493-23.606,12.486C4.862,105.097,2,116.989,2,131.985v41.131c0,4.742,2.121,11.481,12.953,16.653l6.946,3.354
				l0.132-0.481l3.301,0.893c10.225,2.749,23.493,4.263,37.378,4.263c13.212,0,25.882-1.393,35.686-3.92l3.506-0.904l0.158,0.451
				l7.134-3.229C120.475,184.976,123,178.027,123,173.116v-41.131c0-13.85-3.001-25.658-8.382-33.977
				C108.953,89.249,100.482,84.333,91.053,84.333L91.053,84.333z"/>
		</g>
	</g>
	<g display="none">
		<path display="inline" fill="#A6A8AB" d="M62.291,97.421c-13.609,0-26.421-20.322-26.421-36.073
			c0-14.568,11.853-26.42,26.421-26.42c14.568,0,26.42,11.852,26.42,26.42C88.71,77.099,75.898,97.421,62.291,97.421z"/>
		<g display="inline">
			<path fill="#FFFFFF" d="M62.291,38.428c12.638,0,22.92,10.282,22.92,22.92c0,6.865-2.882,15.295-7.521,22.002
				c-4.647,6.718-10.26,10.571-15.399,10.571c-5.14,0-10.753-3.853-15.401-10.572c-4.639-6.706-7.521-15.136-7.521-22.001
				C39.369,48.71,49.652,38.428,62.291,38.428 M62.291,31.428c-16.525,0-29.921,13.396-29.921,29.92
				c0,16.526,13.396,39.573,29.921,39.573c16.523,0,29.92-23.047,29.92-39.573C92.21,44.824,78.814,31.428,62.291,31.428
				L62.291,31.428z"/>
		</g>
	</g>
	<g>
		<path fill="#6054D2" d="M62.666,94.833c-16.818,0-30.5-13.682-30.5-30.5s13.682-30.5,30.5-30.5s30.5,13.682,30.5,30.5
			S79.484,94.833,62.666,94.833z"/>
		<path fill="#FFFFFF" d="M62.666,37.333c14.912,0,27,12.088,27,27s-12.088,27-27,27s-27-12.088-27-27S47.754,37.333,62.666,37.333
			 M62.666,30.333c-18.748,0-34,15.252-34,34s15.252,34,34,34s34-15.252,34-34S81.414,30.333,62.666,30.333L62.666,30.333z"/>
	</g>
	<g>
		<path fill="none" stroke="#FFFFFF" stroke-width="6" stroke-linecap="round" stroke-miterlimit="10" d="M78.815,90.833
			c0,0,3.956,3.225,3.956,8.938s-3.956,18.562-19.34,18.562h-1.758c-15.384,0-19.34-12.85-19.34-18.562s3.956-8.892,3.956-8.892"/>
		
			<circle fill="none" stroke="#FFFFFF" stroke-width="6" stroke-linecap="round" stroke-miterlimit="10" cx="49.526" cy="167.587" r="7.183"/>
		<circle fill="#FFFFFF" cx="49.526" cy="167.667" r="3.24"/>
	</g>
	<path fill="none" stroke="#FFFFFF" stroke-width="6" stroke-linecap="round" stroke-miterlimit="10" d="M62.75,119.458
		c0,0,3.977,10.307-9.917,19.875c-9.883,6.807-4.167,15.499-4.167,20.333"/>
</g>
<g>
	<g>
		<path fill="#FF9E0D" d="M221.153,194.296c-13.586,0-26.583-1.472-36.521-4.143L182,189.458v-11.953l-3.77,10.783l-3.314-1.677
			c-9.185-4.386-10.916-9.76-10.916-13.495v-41.131c0-40.799,22.011-43.651,28.865-43.651h56.64
			c12.978,0,28.495,11.197,28.495,43.651v41.131c0,3.891-2.197,9.46-11.799,13.903l-3.378,1.614L259,177.502v12.308l-2.828,0.678
			C246.644,192.944,234.079,194.296,221.153,194.296z"/>
		<g>
			<path fill="#FFFFFF" d="M249.504,91.333c13.904,0,24.495,14.385,24.495,40.651v41.131c0,4.406-3.626,7.978-9.567,10.727
				L255,157.098v30c-9,2.473-21.491,3.698-33.687,3.698c-12.792,0-25.313-1.35-35.313-4.022v-29.676l-9.597,26.354
				c-5.667-2.706-9.403-6.155-9.403-10.337v-41.131c0-28.684,11.962-40.651,25.865-40.651H250 M249.504,84.333h-56.64
				c-9.58,0-18.091,4.493-23.832,12.486c-5.945,8.278-9.033,20.169-9.033,35.166v41.131c0,4.742,2.347,11.481,13.179,16.653
				l7.06,3.354l0.188-0.481l3.33,0.893c10.225,2.749,23.508,4.263,37.392,4.263c13.212,0,25.89-1.393,35.694-3.92l3.509-0.904
				l0.159,0.451l6.909-3.229c11.28-5.219,13.58-12.168,13.58-17.079v-41.131c0-13.85-2.775-25.658-8.156-33.977
				C267.179,89.248,258.934,84.333,249.504,84.333L249.504,84.333z"/>
		</g>
	</g>
	<g display="none">
		<path display="inline" fill="#A6A8AB" d="M220.743,97.421c-13.609,0-26.422-20.322-26.422-36.073
			c0-14.568,11.853-26.42,26.422-26.42c14.568,0,26.42,11.852,26.42,26.42C247.163,77.099,234.351,97.421,220.743,97.421z"/>
		<g display="inline">
			<path fill="#FFFFFF" d="M220.743,38.428c12.638,0,22.92,10.282,22.92,22.92c0,6.865-2.882,15.296-7.521,22.002
				c-4.647,6.718-10.26,10.571-15.399,10.571s-10.753-3.853-15.401-10.572c-4.639-6.706-7.521-15.136-7.521-22.001
				C197.821,48.71,208.104,38.428,220.743,38.428 M220.743,31.428c-16.525,0-29.922,13.396-29.922,29.92
				c0,16.526,13.396,39.573,29.922,39.573c16.523,0,29.92-23.047,29.92-39.573C250.663,44.824,237.266,31.428,220.743,31.428
				L220.743,31.428z"/>
		</g>
	</g>
	<g>
		<path fill="#FF9E0D" d="M221.118,94.833c-16.818,0-30.5-13.682-30.5-30.5s13.682-30.5,30.5-30.5c16.817,0,30.5,13.682,30.5,30.5
			S237.935,94.833,221.118,94.833z"/>
		<path fill="#FFFFFF" d="M221.118,37.333c14.912,0,27,12.088,27,27s-12.088,27-27,27c-14.912,0-27-12.088-27-27
			S206.206,37.333,221.118,37.333 M221.118,30.333c-18.748,0-34,15.252-34,34s15.252,34,34,34c18.748,0,34-15.252,34-34
			S239.866,30.333,221.118,30.333L221.118,30.333z"/>
	</g>
</g>
<g>
	<g>
		<path fill="#00B19F" d="M385.291,194.296c-13.586,0-26.651-1.472-36.589-4.143L346,189.458v-11.953l-3.701,10.783l-3.35-1.677
			c-9.184-4.387-10.949-9.76-10.949-13.495v-41.131c0-40.799,22.149-43.651,29.004-43.651h56.639
			c12.978,0,28.357,11.197,28.357,43.651v41.131c0,3.891-2.128,9.46-11.73,13.903l-3.412,1.614L423,177.502v12.308l-2.759,0.678
			C410.713,192.944,398.216,194.296,385.291,194.296z"/>
		<g>
			<path fill="#FFFFFF" d="M413.642,91.333c13.904,0,24.357,14.385,24.357,40.651v41.131c0,4.406-3.626,7.978-9.567,10.727
				L419,157.098v30c-9,2.473-21.491,3.698-33.687,3.698c-12.792,0-25.313-1.35-35.313-4.022v-29.676l-9.597,26.354
				c-5.666-2.706-9.403-6.155-9.403-10.337v-41.131c0-28.684,12.1-40.651,26.004-40.651H414 M413.642,84.333h-56.639
				c-9.58,0-18.16,4.493-23.901,12.486c-5.945,8.277-9.103,20.169-9.103,35.166v41.131c0,4.742,2.416,11.48,13.247,16.653
				l7.094,3.354l0.206-0.482l3.339,0.893c10.226,2.749,23.513,4.263,37.396,4.263c13.212,0,25.891-1.393,35.695-3.92l3.511-0.904
				l0.16,0.451l6.84-3.229c11.28-5.219,13.512-12.168,13.512-17.079v-41.131c0-13.85-2.706-25.658-8.087-33.977
				C431.248,89.248,423.072,84.333,413.642,84.333L413.642,84.333z"/>
		</g>
	</g>
	<g display="none">
		<path display="inline" fill="#A6A8AB" d="M384.88,97.421c-13.609,0-26.422-20.322-26.422-36.073
			c0-14.568,11.853-26.42,26.422-26.42c14.568,0,26.42,11.852,26.42,26.42C411.3,77.099,398.489,97.421,384.88,97.421z"/>
		<g display="inline">
			<path fill="#FFFFFF" d="M384.88,38.428c12.638,0,22.92,10.282,22.92,22.92c0,6.865-2.882,15.296-7.521,22.002
				c-4.647,6.718-10.26,10.571-15.399,10.571c-5.141,0-10.754-3.853-15.401-10.572c-4.639-6.706-7.521-15.136-7.521-22.001
				C361.958,48.71,372.242,38.428,384.88,38.428 M384.88,31.428c-16.525,0-29.922,13.396-29.922,29.92
				c0,16.526,13.396,39.573,29.922,39.573c16.523,0,29.92-23.047,29.92-39.573C414.8,44.824,401.404,31.428,384.88,31.428
				L384.88,31.428z"/>
		</g>
	</g>
	<g>
		<path fill="#00B19F" d="M385.255,94.833c-16.817,0-30.5-13.682-30.5-30.5s13.683-30.5,30.5-30.5s30.5,13.682,30.5,30.5
			S402.073,94.833,385.255,94.833z"/>
		<path fill="#FFFFFF" d="M385.255,37.333c14.912,0,27,12.088,27,27s-12.088,27-27,27c-14.91,0-27-12.088-27-27
			S370.345,37.333,385.255,37.333 M385.255,30.333c-18.748,0-34,15.252-34,34s15.252,34,34,34s34-15.252,34-34
			S404.003,30.333,385.255,30.333L385.255,30.333z"/>
	</g>
</g>
<g display="none">
	<path display="inline" fill="#00A7A4" d="M309.987,46.684c0,2.982-2.417,5.65-5.399,5.65h-31.201c-2.982,0-5.399-2.667-5.399-5.65
		l-10-17.075c0-2.982,2.417-5.275,5.399-5.275h51.201c2.982,0,5.399,2.292,5.399,5.275L309.987,46.684z"/>
	<ellipse display="inline" fill="#00A7A4" cx="288.68" cy="28.667" rx="30.667" ry="11.667"/>
	
		<text transform="matrix(1 0 0 1 281.4302 36.9087)" display="inline" fill="#FFFFFF" stroke="#FFFFFF" stroke-width="2" stroke-miterlimit="10" font-family="'Lato-Black'" font-size="25">+</text>
</g>
<g>
	<g>
		<path fill="#FE5000" d="M290.606,241.583c-17.53,0-34.224-1.896-47.024-5.336L241,235.551v-20.76l-6.586,18.605l-3.554-1.677
			c-9.169-4.379-13.86-9.952-13.86-16.563v-53.335c0-51.941,28.279-55.488,36.924-55.488h73.446c21.528,0,35.63,21.482,35.63,55.488
			v53.335c0,6.897-4.961,12.646-14.559,17.087l-3.595,1.614L338,214.792V236l-2.566,0.677
			C323.164,239.84,307.282,241.583,290.606,241.583z"/>
		<g>
			<path fill="#FFFFFF" d="M327.37,109.333c18.028,0,31.63,18.429,31.63,52.488v53.335c0,5.714-4.383,10.345-12.088,13.91
				L335,194.386v38.901c-13,3.206-28.631,4.796-44.443,4.796c-16.59,0-33.557-1.75-46.557-5.216v-38.481l-11.626,34.176
				c-7.349-3.51-11.374-7.983-11.374-13.405v-53.335c0-37.194,14.896-52.488,32.924-52.488H327 M327.37,102.333h-73.446
				c-11.735,0-21.865,5.406-28.908,15.213C217.564,127.919,214,142.82,214,161.822v53.335c0,10.06,8.385,16.277,15.598,19.722
				l6.676,3.354l0.727-3.035v3.037l5.424,1.393c13.088,3.519,30.234,5.456,48.062,5.456c16.962,0,33.464-1.782,46.011-5.018
				l5.503-1.354v-3.515l1.029,3.452l6.728-3.229c7.524-3.481,16.243-9.823,16.243-20.263v-53.335
				c0-17.558-3.418-32.367-10.176-42.817C348.873,108.257,338.868,102.333,327.37,102.333L327.37,102.333z"/>
		</g>
	</g>
	<g>
		<path fill="#FE5000" d="M289.942,111.98c-20.391,0-36.98-16.589-36.98-36.98s16.59-36.979,36.98-36.979S326.921,54.609,326.921,75
			S310.333,111.98,289.942,111.98z"/>
		<path fill="#FFFFFF" d="M289.942,41.521c18.49,0,33.479,14.989,33.479,33.479s-14.989,33.48-33.479,33.48
			s-33.48-14.99-33.48-33.48S271.452,41.521,289.942,41.521 M289.942,34.521c-22.321,0-40.48,18.159-40.48,40.479
			c0,22.321,18.159,40.48,40.48,40.48c22.32,0,40.479-18.159,40.479-40.48C330.421,52.68,312.262,34.521,289.942,34.521
			L289.942,34.521z"/>
	</g>
	<path fill="#FFFFFF" d="M316.941,145.618c0-8.566-6.782-15.511-15.149-15.511c-4.803,0-9.075,2.294-11.851,5.864
		c-2.775-3.57-7.048-5.864-11.851-5.864c-8.367,0-15.149,6.944-15.149,15.511c0,13.205,26.701,28.787,26.701,28.787
		S316.941,160.792,316.941,145.618z"/>
</g>
<g>
	<g>
		<path fill="#002F6C" d="M149.484,293.583c-22.284,0-43.574-2.406-59.825-6.774L87,286.113v-31.374l-9.84,28.033l-3.296-1.678
			C62.53,275.68,57,268.864,57,260.833v-68.047c0-23.084,4.295-41.021,13.124-53.313c8.054-11.213,19.194-17.14,32.56-17.14h93.704
			c26.88,0,44.612,27.654,44.612,70.453v68.047c0,8.39-6.201,15.429-18.073,20.923l-3.647,1.614L209,254.739v31.938l-2.558,0.677
			C190.865,291.372,170.681,293.583,149.484,293.583z"/>
		<path fill="#FFFFFF" d="M196.387,126.333c23.001,0,40.612,23,40.612,66.453v68.047c0,7.289-5.781,13.197-15.611,17.746
			L206,234.333v49.632c-16,4.091-35.978,6.118-56.152,6.118c-21.165,0-42.848-2.232-58.848-6.654v-49.096l-15.661,43.603
			C65.963,273.458,60,267.75,60,260.833v-68.047c0-47.453,19.683-66.453,42.684-66.453H196 M196.387,119.333h-93.704
			c-14.333,0-27.039,6.354-35.653,18.348C57.766,150.582,53,168.956,53,192.787v68.047c0,11.826,10.439,19.263,19.14,23.419
			l7.058,3.355l2.793-7.339l2.01-5.125v8.285v5.367l5.001,1.393c16.539,4.446,37.992,6.895,60.574,6.895
			c21.483,0,42.182-2.252,58.037-6.34l5.388-1.354v-5.424v-8.821l1.857,5.769l2.471,7.249l6.863-3.229
			c9.09-4.205,19.809-11.8,19.809-24.099v-68.047c0-22.027-4.383-40.303-12.803-53.323
			C222.698,126.322,210.379,119.333,196.387,119.333L196.387,119.333z"/>
	</g>
	<g display="none">
		<path display="inline" fill="#002F6C" d="M148.5,143.23c-15.479,0-26.943-13.23-32.398-21.117
			c-8.596-12.427-13.937-28.208-13.937-41.185c0-25.549,20.786-46.334,46.334-46.334c25.548,0,46.333,20.785,46.333,46.334
			c0,12.977-5.34,28.758-13.936,41.185C175.442,130,163.979,143.23,148.5,143.23z"/>
		<path display="inline" fill="#FFFFFF" d="M148.5,37.76c23.803,0,43.167,19.365,43.167,43.168c0,12.368-5.125,27.458-13.374,39.384
			c-8.683,12.553-19.542,19.752-29.793,19.752c-10.251,0-21.111-7.199-29.794-19.752c-8.25-11.926-13.374-27.017-13.374-39.384
			C105.332,57.125,124.697,37.76,148.5,37.76 M148.5,31.428c-27.338,0-49.5,22.162-49.5,49.5c0,27.339,22.163,65.468,49.5,65.468
			c27.337,0,49.5-38.129,49.5-65.468C198,53.59,175.837,31.428,148.5,31.428L148.5,31.428z"/>
	</g>
	<circle fill="#002F6C" stroke="#FFFFFF" stroke-width="7" stroke-miterlimit="10" cx="148.636" cy="84.879" r="45"/>
</g>
<g>
	<path fill="#FE5000" d="M205.865,157.844c-4.655,0-6.643-3.261-7.044-4.984l-0.081-0.35c-3.15-0.392-5.001-2.779-5.627-4.24
		l-0.278-0.647c0,0-0.037-4.879-0.054-6.964c-3.057-0.073-5.812-2.709-6.051-5.819c-0.005-0.063-0.248-6.559,2.15-8.956l3.411-3.425
		c0.717-0.718,2-1.577,4.024-1.577c0.738,0,1.397,0.112,1.878,0.194c0.131,0.022,0.254,0.046,0.364,0.058
		c0.651,0.072,1.241,0.286,1.767,0.584c0.732-0.394,1.61-0.762,2.663-1.067c0.798-0.231,1.591-0.349,2.357-0.349
		c1.42,0,2.547,0.395,3.384,0.827c1.098-0.718,1.896-1.184,2.686-1.409c0.523-0.149,1.023-0.223,1.528-0.223
		c1.753,0,3.136,0.883,4.258,1.745c0.021,0.016,0.04,0.031,0.06,0.046c0.856-0.548,2.049-1.102,3.635-1.182
		c0.115-0.005,0.228-0.008,0.339-0.008c2.952,0,4.67,1.859,5.696,2.971c0.23,0.25,0.469,0.508,0.624,0.638
		c1.669,1.391,1.838,3.284,1.938,4.416c0.027,0.316,0.07,0.795,0.135,0.928c1.052,0.935,1.14,0.98,1.401,1.116
		c0.277,0.145,0.631,0.328,1.202,0.674c0.217,0.131,0.422,0.247,0.615,0.357c1.42,0.806,3.565,2.023,3.965,5.438
		c0.159,1.359-0.241,2.706-0.421,3.223l-0.274,0.79l-5.47,5.273l-2.428-2.275c-2.369-2.222-4.605-3.394-5.799-3.917l-0.687,0.22
		c-0.388,1.397-0.602,2.137-1.142,4.001l-0.496,1.717c-0.632,2.188-2.308,7.987-7.428,8.037
		C211.878,155.933,209.68,157.844,205.865,157.844z"/>
	<g>
		<path fill="#FFFFFF" d="M212.941,122.997c0.536,0,1.133,0.258,2.124,1.02c1.346,1.035,1.449,1.346,2.277,1.346
			c0.827,0,1.655-1.656,3.726-1.76c0.056-0.003,0.11-0.004,0.164-0.004c1.956,0,2.872,1.791,4.081,2.798
			c1.242,1.035,0.019,3.502,1.984,5.262c1.967,1.76,1.535,1.218,3.119,2.177c1.595,0.966,2.688,1.254,2.916,3.208
			c0.083,0.709-0.25,1.667-0.25,1.667l-2.473,2.384c-4.219-3.955-8.095-5.07-8.095-5.07l-3.655,1.172
			c-0.924,3.364-0.933,3.361-2.129,7.501c-1.034,3.58-2.519,5.509-4.382,5.509c-1.862,0-3.35-1-3.35-1s0,1.725,0,2.553
			s-0.28,2.587-3.384,2.587c-3.105,0-3.51-2.277-3.51-2.277s0.121-2.781,0.15-3.716c0.01-0.05,0.047-0.103,0.047-0.159
			c0-0.099,0.015-0.144,0.013-0.144c-0.003,0,0,0.113-0.005,0.303c-0.136,0.644-1.105,0.724-1.93,0.724
			c-0.276,0-0.534-0.009-0.74-0.009c-2.381,0-3.426-2.175-3.426-2.175L196,134.57c0,0,0,0.034,0,0.107
			c0,1.449-1.958,2.483-3.2,2.483s-2.533-1.244-2.636-2.59s0.335-5.385,1.164-6.213s2.492-2.492,3.423-3.423
			c0.428-0.429,0.991-0.554,1.557-0.554c0.667,0,1.353,0.174,1.856,0.23c0.932,0.103,1.942,1.837,1.942,1.837
			s0.647-1.506,3.856-2.438c0.513-0.148,0.971-0.21,1.381-0.21c1.958,0,2.837,1.4,3.438,1.4c0.062,0,0.12-0.015,0.176-0.047
			c0.725-0.414,2.692-1.863,3.417-2.07C212.566,123.03,212.75,122.997,212.941,122.997 M212.942,115.997L212.942,115.997
			c-0.835,0-1.65,0.117-2.49,0.357c-0.715,0.204-1.376,0.499-2.07,0.883c-0.883-0.26-1.899-0.436-3.038-0.436
			c-1.096,0-2.217,0.164-3.333,0.487c-0.641,0.187-1.236,0.394-1.787,0.616c-0.393-0.11-0.806-0.194-1.237-0.245
			c-0.066-0.01-0.135-0.022-0.208-0.034c-0.57-0.097-1.431-0.244-2.465-0.244c-3.223,0-5.315,1.417-6.503,2.606
			c-0.499,0.498-1.21,1.214-1.892,1.898c-0.579,0.582-1.134,1.142-1.515,1.521c-3.672,3.672-3.171,11.621-3.165,11.7
			c0.286,3.72,2.768,6.922,6.062,8.313c0.01,1.231,0.019,2.443,0.027,3.522l0.011,1.409l0.555,1.296
			c1,2.333,3.162,4.683,6.139,5.778c1.458,3.1,4.827,5.917,9.832,5.917c4.333,0,7.383-1.857,9.075-4.405
			c3.952-0.944,6.811-4.397,8.516-10.301l0.495-1.711c0.022-0.078,0.045-0.153,0.066-0.228c0.571,0.419,1.182,0.916,1.805,1.5
			l4.855,4.552l4.791-4.619l2.473-2.384l1.204-1.161l0.55-1.58c0.321-0.924,0.825-2.774,0.59-4.778
			c-0.604-5.176-4.184-7.208-5.712-8.075c-0.167-0.095-0.345-0.194-0.53-0.307c-0.482-0.292-0.854-0.497-1.125-0.642
			c-0.174-1.522-0.693-4.136-3.079-6.149c-0.115-0.112-0.225-0.238-0.339-0.361c-1.133-1.227-3.784-4.097-8.267-4.097
			c-0.17,0-0.34,0.004-0.514,0.013c-1.214,0.061-2.274,0.312-3.182,0.647C216.289,116.553,214.771,115.997,212.942,115.997
			L212.942,115.997z"/>
	</g>
</g>
<g>
	<path fill="#00B19F" d="M343.61,130.135c-1.458,0-2.957-0.614-3.914-1.604c-0.346-0.357-0.652-0.72-0.923-1.082
		c-0.905,0.474-1.921,0.776-2.961,0.874c-0.16,0.016-0.32,0.022-0.478,0.022c-3.049,0-4.93-2.566-5.678-4.906
		c-2.396-0.168-4.121-1.697-4.896-3.018l-0.597-1.018c0,0,0.145-1.205,0.146-1.222c-1.809-0.39-3.054-1.623-3.621-2.706
		l-0.271-0.516l-0.088-0.576c-0.712-4.622-1.09-7.137-1.122-7.472c-0.185-1.977,1.146-3.297,2.433-4.574l0.126-0.126
		c0.896-0.983,2.02-1.195,3.549-1.484l0.346-0.066c0.258-0.062,0.55-0.096,0.844-0.096c0.698,0,1.634,0.31,3.289,1.391
		c0.719-0.422,1.603-0.624,2.654-0.624h0.181l0.273-0.135c1.089,0.113,1.915,0.515,2.507,0.987c0.268-0.031,0.543-0.086,0.828-0.086
		c0.86,0,1.682,0.119,2.281,0.221c0.173,0.029,0.333,0.048,0.471,0.065c1.756,0.22,3.093,1.473,4.271,2.583
		c0.062,0.059,0.132,0.122,0.204,0.189c0.302-0.064,0.575,0.05,0.804,0.028l0.164,0.146h0.196c1.861,0,3.436,1.065,4.813,3.597
		c0.479,0.884,1.779,5.028,2.107,6.505c0.432,1.939,0.167,3.214-0.326,4.099l-1.023,2.783c-1.826,5.083-2.677,5.962-3.039,6.343
		C346.248,129.617,344.985,130.135,343.61,130.135z"/>
	<g>
		<path fill="#FFFFFF" d="M326.506,104.066c0.412,0,1.613,0.823,1.613,0.823s0.852,0.893,1.435,1.093
			c0.031,0.011,0.065,0.016,0.102,0.016c0.608,0,1.827-1.48,2.794-1.48c0.031,0,0.062,0.002,0.093,0.005
			c0.895,0.093,1.406,1.409,2.124,1.409c0.112,0,0.229-0.032,0.354-0.106c0.331-0.197,0.76-0.264,1.218-0.264
			c0.815,0,1.722,0.214,2.319,0.288c0.934,0.117,2.492,1.969,3.371,2.602c0.326,0.235,0.693,0.227,1.059,0.227
			c0.618,0,1.228-0.344,1.611-0.344c0.011,0,0.021,0,0.031,0c0.61,0,1.557,1.686,1.739,2.021c0.186,0.342,1.408,4.111,1.766,5.717
			s-0.04,1.768-0.04,1.768l-1.182,3.247c0,0-1.581,4.406-2.281,5.139c-0.279,0.293-0.649,0.408-1.022,0.408
			c-0.56,0-1.125-0.252-1.397-0.534c-2.257-2.332-1.575-4.205-1.575-4.205s1.88-3.968,1.267-5.037
			c-0.613-1.068-0.787-2.897-0.787-2.897l-0.256,0.536l-1.889,3.868c0,0-0.438,2.96-0.338,4.027
			c0.101,1.066-1.372,2.282-3.149,2.449c-0.051,0.005-0.101,0.007-0.15,0.007c-1.671,0-2.408-2.687-2.408-2.687
			s0.166-2.292,0.318-3.701c0.168-0.28,0.25-0.587,0.22-0.908c-0.011-0.115-0.024-0.168-0.04-0.168c-0.047,0-0.111,0.451-0.18,1.076
			c-0.469,0.784-1.613,1.365-2.884,1.484c-0.092,0.009-0.181,0.013-0.268,0.013c-1.548,0-2.313-1.305-2.313-1.305
			s0.638-5.298,0.209-5.298c-0.025,0-0.056,0.02-0.09,0.061c-0.598,0.722-0.804,1.255-2.174,1.383
			c-0.079,0.008-0.155,0.011-0.229,0.011c-1.206,0-1.706-0.954-1.706-0.954s-1.058-6.868-1.097-7.274
			c-0.038-0.406,1.518-1.834,1.655-2.001c0.139-0.167,1.754-0.422,2.104-0.506C326.469,104.068,326.487,104.066,326.506,104.066
			 M326.506,97.066c-0.533,0-1.064,0.059-1.581,0.174l-0.258,0.049c-1.776,0.335-3.777,0.713-5.44,2.515l-0.05,0.05
			c-1.418,1.407-3.792,3.763-3.453,7.377c0.023,0.243,0.06,0.621,1.148,7.687l0.177,1.15l0.54,1.031
			c0.603,1.151,1.66,2.405,3.118,3.329l1.034,1.764c0.954,1.625,2.822,3.453,5.392,4.293c1.71,3.324,4.736,5.36,8.201,5.36
			c0.269,0,0.541-0.013,0.81-0.038c0.554-0.052,1.104-0.146,1.644-0.277c1.578,1.328,3.698,2.104,5.822,2.104
			c2.341,0,4.502-0.913,6.086-2.571c0.642-0.672,1.723-1.803,3.806-7.602l0.924-2.53c0.77-1.489,1.165-3.545,0.543-6.34
			c-0.272-1.223-1.675-6.069-2.446-7.492c-2.505-4.6-5.646-5.584-7.854-5.595c-1.3-1.137-2.978-2.317-5.238-2.601
			c-0.096-0.013-0.207-0.034-0.326-0.054c-0.649-0.11-1.615-0.273-2.705-0.288c-0.839-0.473-1.881-0.873-3.133-1.002
			c-0.271-0.028-0.545-0.042-0.816-0.042c-0.902,0-1.723,0.151-2.455,0.382C328.785,97.33,327.66,97.066,326.506,97.066
			L326.506,97.066z"/>
	</g>
</g>
<path fill="#FFFFFF" d="M380.911,111.333l-3.316-5.797l3.316-3.203h6.633l3.317,3.203l-3.317,5.797H380.911z M384.181,168.443
	l8.394-9.492l-4.796-45.617h-7.292l-4.796,45.617l8.394,9.525L384.181,168.443z"/>
<g>
	<path fill="none" stroke="#FFFFFF" stroke-width="3" stroke-linecap="round" stroke-miterlimit="10" d="M193.5,72
		c0,0,7.167,10.667,24.387,7.746"/>
	<circle fill="#FFFFFF" cx="217.677" cy="78.866" r="3.6"/>
</g>
<g>
	<path d="M48.277,13.738c0.048,0,0.096,0.009,0.144,0.027c0.048,0.018,0.094,0.049,0.138,0.093l0.804,0.846
		c-0.352,0.46-0.793,0.807-1.323,1.041c-0.53,0.234-1.157,0.351-1.881,0.351c-0.664,0-1.259-0.113-1.785-0.339
		c-0.526-0.226-0.972-0.538-1.338-0.936c-0.366-0.398-0.647-0.87-0.843-1.416c-0.196-0.546-0.294-1.139-0.294-1.779
		c0-0.652,0.112-1.251,0.336-1.797c0.224-0.546,0.537-1.017,0.939-1.413c0.402-0.396,0.883-0.704,1.443-0.924
		c0.56-0.22,1.178-0.33,1.854-0.33c0.328,0,0.637,0.029,0.927,0.087s0.561,0.138,0.813,0.24c0.252,0.102,0.484,0.224,0.696,0.366
		c0.212,0.142,0.4,0.299,0.564,0.471l-0.684,0.918c-0.044,0.056-0.096,0.107-0.156,0.153c-0.06,0.046-0.144,0.069-0.252,0.069
		c-0.072,0-0.14-0.016-0.204-0.048c-0.064-0.032-0.132-0.071-0.204-0.117c-0.072-0.046-0.151-0.096-0.237-0.15
		c-0.086-0.054-0.188-0.104-0.306-0.15c-0.118-0.046-0.256-0.085-0.414-0.117c-0.158-0.032-0.343-0.048-0.555-0.048
		c-0.368,0-0.704,0.065-1.008,0.195c-0.304,0.13-0.565,0.316-0.783,0.558c-0.218,0.242-0.388,0.535-0.51,0.879
		c-0.122,0.344-0.183,0.73-0.183,1.158c0,0.448,0.061,0.846,0.183,1.194c0.122,0.348,0.288,0.641,0.498,0.879
		c0.21,0.238,0.455,0.419,0.735,0.543c0.28,0.124,0.58,0.186,0.9,0.186c0.184,0,0.352-0.009,0.504-0.027
		c0.152-0.018,0.293-0.049,0.423-0.093c0.13-0.044,0.254-0.101,0.372-0.171c0.118-0.07,0.237-0.157,0.357-0.261
		c0.048-0.04,0.1-0.073,0.156-0.099C48.159,13.751,48.217,13.738,48.277,13.738z"/>
	<path d="M52.207,7.019V16h-1.86V7.019H52.207z"/>
	<path d="M55.843,8.075c0,0.148-0.03,0.287-0.09,0.417c-0.06,0.13-0.142,0.244-0.246,0.342s-0.225,0.176-0.363,0.234
		c-0.138,0.058-0.285,0.087-0.441,0.087c-0.152,0-0.294-0.029-0.426-0.087c-0.132-0.058-0.249-0.136-0.351-0.234
		s-0.182-0.212-0.24-0.342c-0.058-0.13-0.087-0.269-0.087-0.417c0-0.152,0.029-0.294,0.087-0.426
		c0.058-0.132,0.138-0.248,0.24-0.348c0.102-0.1,0.219-0.178,0.351-0.234c0.132-0.056,0.274-0.084,0.426-0.084
		c0.156,0,0.303,0.028,0.441,0.084c0.138,0.056,0.259,0.134,0.363,0.234c0.104,0.1,0.186,0.216,0.246,0.348
		S55.843,7.922,55.843,8.075z M55.627,9.778V16h-1.86V9.778H55.627z"/>
	<path d="M57.127,16V9.778h1.152c0.116,0,0.213,0.026,0.291,0.078c0.078,0.052,0.133,0.13,0.165,0.234l0.108,0.36
		c0.12-0.112,0.244-0.216,0.372-0.312c0.128-0.096,0.265-0.177,0.411-0.243C59.771,9.83,59.93,9.777,60.1,9.739
		c0.17-0.038,0.355-0.057,0.555-0.057c0.34,0,0.641,0.059,0.903,0.177c0.262,0.118,0.483,0.282,0.663,0.492s0.316,0.46,0.408,0.75
		c0.092,0.29,0.138,0.605,0.138,0.945V16h-1.86v-3.954c0-0.304-0.07-0.541-0.21-0.711s-0.346-0.255-0.618-0.255
		c-0.204,0-0.396,0.044-0.576,0.132c-0.18,0.088-0.352,0.206-0.516,0.354V16H57.127z"/>
	<path d="M66.223,8.075c0,0.148-0.03,0.287-0.09,0.417c-0.06,0.13-0.142,0.244-0.246,0.342s-0.225,0.176-0.363,0.234
		c-0.138,0.058-0.285,0.087-0.441,0.087c-0.152,0-0.294-0.029-0.426-0.087c-0.132-0.058-0.249-0.136-0.351-0.234
		s-0.182-0.212-0.24-0.342c-0.058-0.13-0.087-0.269-0.087-0.417c0-0.152,0.029-0.294,0.087-0.426
		c0.058-0.132,0.138-0.248,0.24-0.348c0.102-0.1,0.219-0.178,0.351-0.234c0.132-0.056,0.274-0.084,0.426-0.084
		c0.156,0,0.303,0.028,0.441,0.084c0.138,0.056,0.259,0.134,0.363,0.234c0.104,0.1,0.186,0.216,0.246,0.348
		S66.223,7.922,66.223,8.075z M66.007,9.778V16h-1.86V9.778H66.007z"/>
	<path d="M71.995,11.254c-0.056,0.068-0.11,0.122-0.162,0.162c-0.052,0.04-0.126,0.06-0.222,0.06c-0.092,0-0.175-0.022-0.249-0.066
		c-0.074-0.044-0.157-0.093-0.249-0.147c-0.092-0.054-0.2-0.103-0.324-0.147s-0.278-0.066-0.462-0.066
		c-0.228,0-0.425,0.042-0.591,0.126c-0.166,0.084-0.303,0.204-0.411,0.36c-0.108,0.156-0.188,0.347-0.24,0.573
		c-0.052,0.226-0.078,0.481-0.078,0.765c0,0.596,0.115,1.054,0.345,1.374s0.547,0.48,0.951,0.48c0.216,0,0.387-0.027,0.513-0.081
		s0.233-0.114,0.321-0.18c0.088-0.066,0.169-0.127,0.243-0.183c0.074-0.056,0.167-0.084,0.279-0.084c0.148,0,0.26,0.054,0.336,0.162
		l0.54,0.666c-0.192,0.22-0.394,0.399-0.606,0.537s-0.429,0.246-0.651,0.324c-0.222,0.078-0.445,0.132-0.669,0.162
		c-0.224,0.03-0.442,0.045-0.654,0.045c-0.38,0-0.743-0.072-1.089-0.216c-0.346-0.144-0.65-0.353-0.912-0.627
		c-0.262-0.274-0.47-0.611-0.624-1.011s-0.231-0.856-0.231-1.368c0-0.448,0.067-0.867,0.201-1.257
		c0.134-0.39,0.332-0.728,0.594-1.014s0.586-0.511,0.972-0.675c0.386-0.164,0.833-0.246,1.341-0.246
		c0.488,0,0.916,0.078,1.284,0.234c0.368,0.156,0.7,0.384,0.996,0.684L71.995,11.254z"/>
	<path d="M77.634,16c-0.176,0-0.309-0.024-0.399-0.072c-0.09-0.048-0.165-0.148-0.225-0.3l-0.132-0.342
		c-0.156,0.132-0.306,0.248-0.45,0.348c-0.144,0.1-0.293,0.185-0.447,0.255c-0.154,0.07-0.318,0.122-0.492,0.156
		c-0.174,0.034-0.367,0.051-0.579,0.051c-0.284,0-0.542-0.037-0.774-0.111c-0.232-0.075-0.429-0.184-0.591-0.328
		c-0.162-0.145-0.287-0.324-0.375-0.539c-0.088-0.214-0.132-0.462-0.132-0.743c0-0.221,0.056-0.448,0.168-0.68
		c0.112-0.233,0.306-0.444,0.582-0.635c0.276-0.19,0.648-0.35,1.116-0.479c0.468-0.128,1.058-0.192,1.77-0.192v-0.267
		c0-0.367-0.075-0.633-0.225-0.796s-0.363-0.245-0.639-0.245c-0.22,0-0.4,0.024-0.54,0.072c-0.14,0.048-0.265,0.102-0.375,0.162
		c-0.11,0.06-0.217,0.114-0.321,0.162s-0.228,0.072-0.372,0.072c-0.128,0-0.237-0.031-0.327-0.093
		c-0.09-0.062-0.161-0.139-0.213-0.231l-0.336-0.582c0.376-0.332,0.793-0.579,1.251-0.741s0.949-0.243,1.473-0.243
		c0.376,0,0.715,0.061,1.017,0.183c0.302,0.122,0.558,0.292,0.768,0.51c0.21,0.218,0.371,0.477,0.483,0.777
		c0.112,0.3,0.168,0.628,0.168,0.984V16H77.634z M75.498,14.867c0.24,0,0.45-0.042,0.63-0.126c0.18-0.084,0.362-0.22,0.546-0.408
		V13.48c-0.372,0-0.678,0.024-0.918,0.073c-0.24,0.048-0.43,0.109-0.57,0.182s-0.237,0.155-0.291,0.248
		c-0.054,0.093-0.081,0.193-0.081,0.303c0,0.214,0.058,0.364,0.174,0.451C75.104,14.823,75.274,14.867,75.498,14.867z"/>
	<path d="M81.727,7.019V16h-1.86V7.019H81.727z"/>
	<path d="M54.505,20.258v1.608h-2.46V29h-2.028v-7.134h-2.46v-1.608H54.505z"/>
	<path d="M56.809,22.683c0.412,0,0.789,0.064,1.131,0.192c0.342,0.128,0.636,0.314,0.882,0.558s0.438,0.543,0.576,0.897
		c0.138,0.354,0.207,0.755,0.207,1.203c0,0.14-0.006,0.254-0.018,0.342c-0.012,0.088-0.034,0.158-0.066,0.21
		c-0.032,0.052-0.075,0.088-0.129,0.108c-0.054,0.02-0.123,0.03-0.207,0.03h-3.588c0.06,0.52,0.218,0.897,0.474,1.131
		s0.586,0.351,0.99,0.351c0.216,0,0.402-0.026,0.558-0.078c0.156-0.052,0.295-0.11,0.417-0.174s0.234-0.122,0.336-0.174
		c0.102-0.052,0.209-0.078,0.321-0.078c0.148,0,0.26,0.054,0.336,0.162l0.54,0.666c-0.192,0.22-0.399,0.399-0.621,0.537
		s-0.45,0.246-0.684,0.324c-0.234,0.078-0.468,0.132-0.702,0.162c-0.234,0.03-0.457,0.045-0.669,0.045
		c-0.436,0-0.845-0.071-1.227-0.213c-0.382-0.142-0.716-0.353-1.002-0.633c-0.286-0.28-0.512-0.628-0.678-1.044
		s-0.249-0.9-0.249-1.452c0-0.416,0.071-0.81,0.213-1.182c0.142-0.372,0.346-0.698,0.612-0.978c0.266-0.28,0.588-0.502,0.966-0.666
		S56.333,22.683,56.809,22.683z M56.845,23.966c-0.356,0-0.634,0.101-0.834,0.303s-0.332,0.493-0.396,0.873h2.322
		c0-0.148-0.019-0.292-0.057-0.432s-0.1-0.265-0.186-0.375s-0.199-0.199-0.339-0.267C57.215,24,57.045,23.966,56.845,23.966z"/>
	<path d="M64.969,29c-0.176,0-0.309-0.024-0.399-0.072c-0.09-0.048-0.165-0.148-0.225-0.3l-0.132-0.342
		c-0.156,0.132-0.306,0.248-0.45,0.348c-0.144,0.1-0.293,0.185-0.447,0.255c-0.154,0.07-0.318,0.122-0.492,0.156
		c-0.174,0.034-0.367,0.051-0.579,0.051c-0.284,0-0.542-0.037-0.774-0.111c-0.232-0.075-0.429-0.184-0.591-0.328
		c-0.162-0.145-0.287-0.324-0.375-0.539c-0.088-0.214-0.132-0.462-0.132-0.743c0-0.221,0.056-0.448,0.168-0.68
		c0.112-0.233,0.306-0.444,0.582-0.635c0.276-0.19,0.648-0.35,1.116-0.479c0.468-0.128,1.058-0.192,1.77-0.192v-0.267
		c0-0.367-0.075-0.633-0.225-0.796s-0.363-0.245-0.639-0.245c-0.22,0-0.4,0.024-0.54,0.072c-0.14,0.048-0.265,0.102-0.375,0.162
		c-0.11,0.06-0.217,0.114-0.321,0.162s-0.228,0.072-0.372,0.072c-0.128,0-0.237-0.031-0.327-0.093
		c-0.09-0.062-0.161-0.139-0.213-0.231l-0.336-0.582c0.376-0.332,0.793-0.579,1.251-0.741s0.949-0.243,1.473-0.243
		c0.376,0,0.715,0.061,1.017,0.183c0.302,0.122,0.558,0.292,0.768,0.51c0.21,0.218,0.371,0.477,0.483,0.777
		c0.112,0.3,0.168,0.628,0.168,0.984V29H64.969z M62.833,27.867c0.24,0,0.45-0.042,0.63-0.126c0.18-0.084,0.362-0.22,0.546-0.408
		V26.48c-0.372,0-0.678,0.024-0.918,0.073c-0.24,0.048-0.43,0.109-0.57,0.182s-0.237,0.155-0.291,0.248
		c-0.054,0.093-0.081,0.193-0.081,0.303c0,0.214,0.058,0.364,0.174,0.451C62.439,27.823,62.609,27.867,62.833,27.867z"/>
	<path d="M67.141,29v-6.222h1.152c0.116,0,0.213,0.026,0.291,0.078c0.078,0.052,0.133,0.13,0.165,0.234l0.102,0.336
		c0.104-0.108,0.212-0.207,0.324-0.297c0.112-0.09,0.233-0.168,0.363-0.234c0.13-0.066,0.27-0.118,0.42-0.156
		c0.15-0.038,0.315-0.057,0.495-0.057c0.375,0,0.687,0.097,0.933,0.291c0.246,0.194,0.433,0.453,0.561,0.777
		c0.104-0.192,0.231-0.356,0.381-0.492c0.15-0.136,0.312-0.246,0.486-0.33s0.358-0.146,0.552-0.186
		c0.194-0.04,0.387-0.06,0.579-0.06c0.356,0,0.672,0.053,0.948,0.159c0.276,0.106,0.507,0.26,0.693,0.462
		c0.186,0.202,0.327,0.45,0.423,0.744c0.096,0.294,0.144,0.627,0.144,0.999V29h-1.86v-3.954c0-0.644-0.276-0.966-0.828-0.966
		c-0.252,0-0.461,0.083-0.627,0.249s-0.249,0.405-0.249,0.717V29h-1.86v-3.954c0-0.356-0.07-0.606-0.21-0.75
		c-0.14-0.144-0.346-0.216-0.618-0.216c-0.168,0-0.327,0.038-0.477,0.114c-0.15,0.076-0.291,0.178-0.423,0.306V29H67.141z"/>
</g>
<g>
	<path d="M210.731,13.738c0.048,0,0.096,0.009,0.144,0.027c0.048,0.018,0.094,0.049,0.138,0.093l0.804,0.846
		c-0.352,0.46-0.793,0.807-1.323,1.041c-0.53,0.234-1.157,0.351-1.881,0.351c-0.664,0-1.259-0.113-1.785-0.339
		c-0.526-0.226-0.972-0.538-1.338-0.936c-0.366-0.398-0.647-0.87-0.843-1.416c-0.196-0.546-0.294-1.139-0.294-1.779
		c0-0.652,0.112-1.251,0.336-1.797c0.224-0.546,0.537-1.017,0.939-1.413c0.402-0.396,0.883-0.704,1.443-0.924
		c0.56-0.22,1.178-0.33,1.854-0.33c0.328,0,0.637,0.029,0.927,0.087s0.561,0.138,0.813,0.24c0.252,0.102,0.484,0.224,0.696,0.366
		c0.212,0.142,0.4,0.299,0.564,0.471l-0.684,0.918c-0.044,0.056-0.096,0.107-0.156,0.153c-0.06,0.046-0.144,0.069-0.252,0.069
		c-0.072,0-0.14-0.016-0.204-0.048c-0.064-0.032-0.132-0.071-0.204-0.117c-0.072-0.046-0.151-0.096-0.237-0.15
		c-0.086-0.054-0.188-0.104-0.306-0.15c-0.118-0.046-0.256-0.085-0.414-0.117c-0.158-0.032-0.343-0.048-0.555-0.048
		c-0.368,0-0.704,0.065-1.008,0.195c-0.304,0.13-0.565,0.316-0.783,0.558c-0.218,0.242-0.388,0.535-0.51,0.879
		c-0.122,0.344-0.183,0.73-0.183,1.158c0,0.448,0.061,0.846,0.183,1.194c0.122,0.348,0.288,0.641,0.498,0.879
		c0.21,0.238,0.455,0.419,0.735,0.543c0.28,0.124,0.58,0.186,0.9,0.186c0.184,0,0.352-0.009,0.504-0.027
		c0.152-0.018,0.293-0.049,0.423-0.093c0.13-0.044,0.254-0.101,0.372-0.171c0.118-0.07,0.237-0.157,0.357-0.261
		c0.048-0.04,0.1-0.073,0.156-0.099C210.613,13.751,210.671,13.738,210.731,13.738z"/>
	<path d="M214.661,7.019V16h-1.86V7.019H214.661z"/>
	<path d="M218.296,8.075c0,0.148-0.029,0.287-0.09,0.417c-0.061,0.13-0.143,0.244-0.246,0.342s-0.225,0.176-0.363,0.234
		c-0.138,0.058-0.285,0.087-0.441,0.087c-0.151,0-0.293-0.029-0.426-0.087c-0.131-0.058-0.248-0.136-0.351-0.234
		s-0.183-0.212-0.239-0.342c-0.059-0.13-0.088-0.269-0.088-0.417c0-0.152,0.029-0.294,0.088-0.426
		c0.057-0.132,0.137-0.248,0.239-0.348c0.103-0.1,0.22-0.178,0.351-0.234c0.133-0.056,0.274-0.084,0.426-0.084
		c0.156,0,0.304,0.028,0.441,0.084c0.139,0.056,0.26,0.134,0.363,0.234c0.104,0.1,0.186,0.216,0.246,0.348
		S218.296,7.922,218.296,8.075z M218.081,9.778V16h-1.86V9.778H218.081z"/>
	<path d="M222.244,9.683c0.412,0,0.789,0.064,1.132,0.192c0.342,0.128,0.636,0.314,0.882,0.558s0.438,0.543,0.576,0.897
		c0.138,0.354,0.207,0.755,0.207,1.203c0,0.14-0.006,0.254-0.018,0.342c-0.013,0.088-0.035,0.158-0.066,0.21
		c-0.032,0.052-0.075,0.088-0.129,0.108c-0.055,0.02-0.123,0.03-0.207,0.03h-3.588c0.06,0.52,0.218,0.897,0.474,1.131
		s0.586,0.351,0.99,0.351c0.216,0,0.401-0.026,0.558-0.078c0.156-0.052,0.295-0.11,0.417-0.174s0.234-0.122,0.336-0.174
		c0.103-0.052,0.209-0.078,0.321-0.078c0.148,0,0.26,0.054,0.336,0.162l0.54,0.666c-0.192,0.22-0.399,0.399-0.621,0.537
		s-0.45,0.246-0.685,0.324c-0.233,0.078-0.467,0.132-0.701,0.162c-0.234,0.03-0.457,0.045-0.67,0.045
		c-0.436,0-0.844-0.071-1.227-0.213c-0.382-0.142-0.716-0.353-1.002-0.633c-0.285-0.28-0.512-0.628-0.678-1.044
		s-0.249-0.9-0.249-1.452c0-0.416,0.071-0.81,0.213-1.182c0.142-0.372,0.347-0.698,0.612-0.978c0.266-0.28,0.588-0.502,0.966-0.666
		S221.768,9.683,222.244,9.683z M222.281,10.966c-0.356,0-0.635,0.101-0.834,0.303c-0.201,0.202-0.332,0.493-0.396,0.873h2.322
		c0-0.148-0.02-0.292-0.057-0.432c-0.039-0.14-0.101-0.265-0.187-0.375s-0.199-0.199-0.339-0.267
		C222.65,11,222.48,10.966,222.281,10.966z"/>
	<path d="M226.109,16V9.778h1.151c0.116,0,0.213,0.026,0.291,0.078c0.078,0.052,0.133,0.13,0.165,0.234l0.107,0.36
		c0.121-0.112,0.244-0.216,0.373-0.312c0.127-0.096,0.264-0.177,0.41-0.243s0.305-0.118,0.475-0.156
		c0.17-0.038,0.354-0.057,0.555-0.057c0.34,0,0.641,0.059,0.902,0.177c0.263,0.118,0.483,0.282,0.664,0.492
		c0.18,0.21,0.315,0.46,0.408,0.75c0.092,0.29,0.137,0.605,0.137,0.945V16h-1.859v-3.954c0-0.304-0.07-0.541-0.21-0.711
		s-0.347-0.255-0.618-0.255c-0.204,0-0.396,0.044-0.576,0.132s-0.352,0.206-0.516,0.354V16H226.109z"/>
	<path d="M235.251,16.097c-0.295,0-0.557-0.043-0.782-0.129s-0.416-0.208-0.57-0.366c-0.153-0.158-0.271-0.349-0.351-0.573
		c-0.08-0.224-0.12-0.474-0.12-0.75v-3.216H232.9c-0.096,0-0.178-0.031-0.246-0.093s-0.102-0.153-0.102-0.273V9.971l0.99-0.192
		l0.365-1.518c0.049-0.192,0.185-0.288,0.408-0.288h0.973v1.818h1.512v1.272h-1.512v3.09c0,0.144,0.035,0.263,0.104,0.357
		c0.069,0.094,0.171,0.141,0.304,0.141c0.067,0,0.125-0.007,0.17-0.021c0.047-0.014,0.086-0.03,0.121-0.048
		c0.033-0.018,0.065-0.034,0.096-0.048c0.029-0.014,0.064-0.021,0.104-0.021c0.056,0,0.101,0.013,0.136,0.039
		c0.033,0.026,0.068,0.067,0.104,0.123l0.563,0.882c-0.24,0.18-0.51,0.315-0.81,0.405S235.572,16.097,235.251,16.097z"/>
	<path d="M203.393,22.035c-0.06,0.096-0.123,0.168-0.189,0.216c-0.066,0.048-0.151,0.072-0.255,0.072
		c-0.092,0-0.191-0.029-0.297-0.087c-0.106-0.058-0.226-0.123-0.36-0.195c-0.134-0.072-0.287-0.137-0.459-0.195
		c-0.172-0.058-0.368-0.087-0.588-0.087c-0.38,0-0.663,0.081-0.849,0.243c-0.186,0.162-0.279,0.381-0.279,0.657
		c0,0.176,0.056,0.322,0.168,0.438c0.112,0.116,0.259,0.216,0.441,0.3c0.182,0.084,0.39,0.161,0.624,0.231
		c0.234,0.07,0.473,0.148,0.717,0.234c0.244,0.086,0.483,0.187,0.717,0.303s0.442,0.264,0.624,0.444
		c0.182,0.18,0.329,0.399,0.441,0.657c0.112,0.258,0.168,0.569,0.168,0.933c0,0.404-0.07,0.782-0.21,1.134s-0.343,0.659-0.609,0.921
		c-0.266,0.262-0.594,0.468-0.984,0.618s-0.833,0.225-1.329,0.225c-0.272,0-0.549-0.028-0.831-0.084
		c-0.282-0.056-0.555-0.135-0.819-0.237s-0.512-0.223-0.744-0.363s-0.434-0.296-0.606-0.468l0.6-0.948
		c0.044-0.072,0.106-0.13,0.186-0.174c0.08-0.044,0.166-0.066,0.258-0.066c0.12,0,0.241,0.038,0.363,0.114
		c0.122,0.076,0.26,0.16,0.414,0.252c0.154,0.092,0.331,0.176,0.531,0.252c0.2,0.076,0.436,0.114,0.708,0.114
		c0.368,0,0.654-0.081,0.858-0.243s0.306-0.419,0.306-0.771c0-0.204-0.056-0.37-0.168-0.498c-0.112-0.128-0.259-0.234-0.441-0.318
		c-0.182-0.084-0.389-0.158-0.621-0.222s-0.47-0.135-0.714-0.213c-0.244-0.078-0.482-0.174-0.714-0.288
		c-0.232-0.114-0.439-0.264-0.621-0.45c-0.182-0.186-0.329-0.418-0.441-0.696s-0.168-0.621-0.168-1.029
		c0-0.328,0.066-0.648,0.198-0.96c0.132-0.312,0.326-0.59,0.582-0.834c0.256-0.244,0.57-0.439,0.942-0.585s0.798-0.219,1.278-0.219
		c0.268,0,0.529,0.021,0.783,0.063c0.254,0.042,0.495,0.104,0.723,0.186c0.228,0.082,0.441,0.18,0.639,0.294
		c0.198,0.114,0.375,0.243,0.531,0.387L203.393,22.035z"/>
	<path d="M207.688,22.683c0.412,0,0.789,0.064,1.131,0.192c0.342,0.128,0.636,0.314,0.882,0.558s0.438,0.543,0.576,0.897
		c0.138,0.354,0.207,0.755,0.207,1.203c0,0.14-0.006,0.254-0.018,0.342c-0.012,0.088-0.034,0.158-0.066,0.21
		c-0.032,0.052-0.075,0.088-0.129,0.108c-0.054,0.02-0.123,0.03-0.207,0.03h-3.588c0.06,0.52,0.218,0.897,0.474,1.131
		s0.586,0.351,0.99,0.351c0.216,0,0.402-0.026,0.558-0.078c0.156-0.052,0.295-0.11,0.417-0.174s0.234-0.122,0.336-0.174
		c0.102-0.052,0.209-0.078,0.321-0.078c0.148,0,0.26,0.054,0.336,0.162l0.54,0.666c-0.192,0.22-0.399,0.399-0.621,0.537
		s-0.45,0.246-0.684,0.324c-0.234,0.078-0.468,0.132-0.702,0.162c-0.234,0.03-0.457,0.045-0.669,0.045
		c-0.436,0-0.845-0.071-1.227-0.213c-0.382-0.142-0.716-0.353-1.002-0.633c-0.286-0.28-0.512-0.628-0.678-1.044
		s-0.249-0.9-0.249-1.452c0-0.416,0.071-0.81,0.213-1.182c0.142-0.372,0.346-0.698,0.612-0.978c0.266-0.28,0.588-0.502,0.966-0.666
		S207.212,22.683,207.688,22.683z M207.725,23.966c-0.356,0-0.634,0.101-0.834,0.303s-0.332,0.493-0.396,0.873h2.322
		c0-0.148-0.019-0.292-0.057-0.432s-0.1-0.265-0.186-0.375s-0.199-0.199-0.339-0.267C208.095,24,207.925,23.966,207.725,23.966z"/>
	<path d="M211.553,29v-6.222h1.104c0.092,0,0.169,0.008,0.231,0.024c0.062,0.016,0.113,0.042,0.155,0.075
		c0.042,0.034,0.074,0.079,0.097,0.135c0.021,0.056,0.041,0.124,0.057,0.204l0.102,0.582c0.229-0.352,0.484-0.63,0.768-0.834
		c0.285-0.204,0.595-0.306,0.931-0.306c0.284,0,0.512,0.068,0.685,0.204l-0.24,1.368c-0.017,0.084-0.049,0.143-0.096,0.177
		c-0.049,0.034-0.113,0.051-0.193,0.051c-0.067,0-0.147-0.009-0.239-0.027c-0.093-0.018-0.208-0.027-0.349-0.027
		c-0.487,0-0.871,0.26-1.151,0.78V29H211.553z"/>
	<path d="M219.953,29h-1.691l-2.412-6.222h1.547c0.133,0,0.244,0.031,0.334,0.093s0.15,0.139,0.183,0.231l0.864,2.79
		c0.068,0.228,0.133,0.45,0.195,0.666c0.062,0.216,0.114,0.432,0.158,0.648c0.044-0.216,0.098-0.432,0.162-0.648
		c0.064-0.216,0.133-0.438,0.204-0.666l0.899-2.79c0.033-0.092,0.093-0.169,0.181-0.231s0.192-0.093,0.312-0.093h1.477L219.953,29z"
		/>
	<path d="M225.281,21.075c0,0.148-0.03,0.287-0.09,0.417c-0.061,0.13-0.143,0.244-0.246,0.342c-0.104,0.098-0.226,0.176-0.363,0.234
		c-0.139,0.058-0.285,0.087-0.441,0.087c-0.152,0-0.294-0.029-0.426-0.087c-0.132-0.058-0.249-0.136-0.352-0.234
		c-0.102-0.098-0.182-0.212-0.239-0.342c-0.058-0.13-0.087-0.269-0.087-0.417c0-0.152,0.029-0.294,0.087-0.426
		s0.138-0.248,0.239-0.348c0.103-0.1,0.22-0.178,0.352-0.234c0.132-0.056,0.273-0.084,0.426-0.084c0.156,0,0.303,0.028,0.441,0.084
		c0.138,0.056,0.259,0.134,0.363,0.234c0.104,0.1,0.186,0.216,0.246,0.348C225.25,20.78,225.281,20.922,225.281,21.075z
		 M225.064,22.778V29h-1.859v-6.222H225.064z"/>
	<path d="M231.052,24.254c-0.057,0.068-0.109,0.122-0.162,0.162c-0.052,0.04-0.126,0.06-0.222,0.06
		c-0.093,0-0.175-0.022-0.249-0.066s-0.157-0.093-0.249-0.147c-0.093-0.054-0.2-0.103-0.324-0.147s-0.278-0.066-0.462-0.066
		c-0.229,0-0.426,0.042-0.591,0.126c-0.166,0.084-0.304,0.204-0.411,0.36c-0.107,0.156-0.188,0.347-0.24,0.573
		c-0.052,0.226-0.078,0.481-0.078,0.765c0,0.596,0.115,1.054,0.346,1.374c0.229,0.32,0.547,0.48,0.951,0.48
		c0.215,0,0.387-0.027,0.512-0.081c0.127-0.054,0.234-0.114,0.322-0.18c0.088-0.066,0.168-0.127,0.242-0.183
		c0.074-0.056,0.167-0.084,0.279-0.084c0.148,0,0.26,0.054,0.336,0.162l0.54,0.666c-0.192,0.22-0.394,0.399-0.606,0.537
		c-0.211,0.138-0.429,0.246-0.65,0.324c-0.223,0.078-0.445,0.132-0.67,0.162c-0.223,0.03-0.441,0.045-0.653,0.045
		c-0.38,0-0.743-0.072-1.089-0.216s-0.65-0.353-0.912-0.627s-0.471-0.611-0.624-1.011s-0.231-0.856-0.231-1.368
		c0-0.448,0.067-0.867,0.201-1.257c0.135-0.39,0.332-0.728,0.594-1.014c0.263-0.286,0.586-0.511,0.973-0.675
		c0.386-0.164,0.833-0.246,1.341-0.246c0.488,0,0.916,0.078,1.284,0.234c0.367,0.156,0.699,0.384,0.996,0.684L231.052,24.254z"/>
	<path d="M235.06,22.683c0.412,0,0.789,0.064,1.131,0.192s0.637,0.314,0.883,0.558s0.438,0.543,0.576,0.897
		c0.137,0.354,0.207,0.755,0.207,1.203c0,0.14-0.007,0.254-0.019,0.342c-0.013,0.088-0.034,0.158-0.065,0.21
		c-0.033,0.052-0.076,0.088-0.13,0.108s-0.122,0.03-0.207,0.03h-3.588c0.06,0.52,0.218,0.897,0.474,1.131s0.586,0.351,0.99,0.351
		c0.217,0,0.402-0.026,0.559-0.078c0.156-0.052,0.295-0.11,0.416-0.174c0.123-0.064,0.234-0.122,0.336-0.174
		c0.103-0.052,0.209-0.078,0.322-0.078c0.147,0,0.26,0.054,0.336,0.162l0.539,0.666c-0.191,0.22-0.398,0.399-0.621,0.537
		c-0.222,0.138-0.449,0.246-0.684,0.324c-0.234,0.078-0.468,0.132-0.701,0.162c-0.234,0.03-0.457,0.045-0.67,0.045
		c-0.436,0-0.845-0.071-1.227-0.213c-0.383-0.142-0.717-0.353-1.002-0.633c-0.286-0.28-0.512-0.628-0.678-1.044
		s-0.25-0.9-0.25-1.452c0-0.416,0.071-0.81,0.213-1.182c0.143-0.372,0.347-0.698,0.613-0.978c0.266-0.28,0.588-0.502,0.965-0.666
		C234.158,22.765,234.583,22.683,235.06,22.683z M235.096,23.966c-0.356,0-0.634,0.101-0.834,0.303s-0.332,0.493-0.396,0.873h2.322
		c0-0.148-0.02-0.292-0.058-0.432s-0.101-0.265-0.187-0.375s-0.199-0.199-0.338-0.267C235.466,24,235.296,23.966,235.096,23.966z"/>
	<path d="M242.728,24.141c-0.048,0.076-0.1,0.13-0.152,0.162c-0.055,0.032-0.123,0.048-0.207,0.048
		c-0.088,0-0.177-0.019-0.265-0.057s-0.183-0.079-0.284-0.123c-0.103-0.044-0.218-0.085-0.346-0.123s-0.273-0.057-0.438-0.057
		c-0.236,0-0.418,0.045-0.543,0.135c-0.127,0.09-0.189,0.215-0.189,0.375c0,0.116,0.041,0.212,0.123,0.288s0.191,0.143,0.326,0.201
		c0.137,0.058,0.291,0.113,0.463,0.165c0.172,0.052,0.348,0.11,0.527,0.174c0.181,0.064,0.356,0.139,0.528,0.225
		c0.172,0.086,0.326,0.192,0.462,0.318c0.137,0.126,0.245,0.279,0.327,0.459c0.082,0.18,0.123,0.396,0.123,0.648
		c0,0.308-0.056,0.592-0.168,0.852c-0.112,0.26-0.278,0.484-0.501,0.672s-0.496,0.334-0.822,0.438s-0.701,0.156-1.125,0.156
		c-0.212,0-0.424-0.02-0.636-0.06s-0.417-0.094-0.615-0.162s-0.381-0.149-0.549-0.243c-0.168-0.094-0.312-0.195-0.433-0.303
		l0.433-0.684c0.052-0.08,0.114-0.143,0.187-0.189c0.071-0.046,0.166-0.069,0.281-0.069c0.108,0,0.205,0.024,0.291,0.072
		s0.18,0.1,0.279,0.156c0.1,0.056,0.217,0.108,0.352,0.156c0.133,0.048,0.303,0.072,0.506,0.072c0.145,0,0.267-0.015,0.367-0.045
		c0.1-0.03,0.18-0.071,0.239-0.123c0.06-0.052,0.104-0.11,0.132-0.174c0.028-0.064,0.043-0.13,0.043-0.198
		c0-0.124-0.043-0.226-0.127-0.306s-0.193-0.149-0.33-0.207c-0.136-0.058-0.291-0.112-0.465-0.162
		c-0.174-0.05-0.352-0.107-0.531-0.171s-0.356-0.141-0.531-0.231c-0.174-0.09-0.328-0.204-0.465-0.342
		c-0.136-0.138-0.246-0.307-0.33-0.507c-0.084-0.2-0.125-0.442-0.125-0.726c0-0.264,0.051-0.515,0.152-0.753
		c0.102-0.238,0.256-0.447,0.459-0.627c0.204-0.18,0.46-0.323,0.768-0.429c0.309-0.106,0.668-0.159,1.08-0.159
		c0.225,0,0.441,0.02,0.651,0.06s0.407,0.096,0.591,0.168c0.185,0.072,0.353,0.157,0.504,0.255c0.152,0.098,0.287,0.205,0.402,0.321
		L242.728,24.141z"/>
</g>
<g>
	<path d="M281.762,251.667l0.132,3.322l-2.026,0.08l-0.133-3.321l-3.381-5.287l1.787-0.071c0.175-0.008,0.317,0.028,0.424,0.105
		c0.106,0.078,0.195,0.18,0.265,0.305l1.337,2.493c0.107,0.199,0.206,0.383,0.297,0.553c0.091,0.168,0.172,0.335,0.243,0.5
		c0.053-0.174,0.118-0.349,0.195-0.524c0.077-0.175,0.159-0.364,0.248-0.567l1.121-2.592c0.022-0.052,0.053-0.105,0.093-0.159
		c0.039-0.053,0.085-0.103,0.139-0.146c0.052-0.044,0.112-0.081,0.181-0.109c0.069-0.029,0.146-0.045,0.229-0.048l1.799-0.071
		L281.762,251.667z"/>
	<path d="M287.218,248.453c0.472-0.019,0.904,0.038,1.298,0.171s0.734,0.331,1.023,0.595c0.288,0.266,0.519,0.592,0.688,0.979
		c0.168,0.387,0.263,0.826,0.283,1.318c0.02,0.495-0.04,0.945-0.178,1.35s-0.341,0.75-0.607,1.038
		c-0.267,0.289-0.591,0.517-0.973,0.683c-0.381,0.164-0.809,0.257-1.28,0.275c-0.476,0.019-0.911-0.039-1.307-0.173
		c-0.396-0.135-0.74-0.336-1.032-0.602c-0.294-0.266-0.524-0.595-0.694-0.987c-0.17-0.392-0.265-0.836-0.284-1.331
		c-0.02-0.492,0.04-0.938,0.178-1.337c0.139-0.4,0.342-0.743,0.614-1.03c0.27-0.287,0.597-0.512,0.981-0.676
		C286.313,248.563,286.742,248.472,287.218,248.453z M287.418,253.482c0.428-0.017,0.735-0.18,0.927-0.489
		c0.189-0.31,0.272-0.772,0.248-1.388c-0.025-0.616-0.145-1.069-0.357-1.361c-0.215-0.292-0.535-0.429-0.963-0.412
		c-0.439,0.018-0.755,0.18-0.948,0.488c-0.19,0.308-0.273,0.77-0.249,1.385c0.024,0.616,0.144,1.07,0.359,1.364
		C286.652,253.362,286.979,253.5,287.418,253.482z"/>
	<path d="M293.145,248.313l0.157,3.944c0.013,0.308,0.092,0.543,0.238,0.705s0.356,0.238,0.628,0.228
		c0.204-0.008,0.393-0.058,0.566-0.148c0.176-0.092,0.344-0.217,0.505-0.375l-0.176-4.431l1.858-0.073l0.248,6.218l-1.151,0.045
		c-0.231,0.01-0.388-0.089-0.469-0.294l-0.127-0.354c-0.117,0.12-0.235,0.23-0.36,0.329c-0.123,0.099-0.258,0.185-0.4,0.257
		c-0.144,0.072-0.298,0.129-0.464,0.175c-0.167,0.044-0.351,0.07-0.551,0.078c-0.339,0.014-0.642-0.033-0.908-0.142
		c-0.268-0.106-0.494-0.263-0.684-0.467c-0.188-0.206-0.333-0.45-0.438-0.733c-0.104-0.284-0.16-0.599-0.174-0.942l-0.157-3.945
		L293.145,248.313z"/>
	<path d="M298.609,254.323l-0.248-6.218l1.104-0.044c0.092-0.004,0.168,0.001,0.231,0.014c0.062,0.015,0.114,0.038,0.159,0.07
		c0.042,0.031,0.077,0.075,0.101,0.131c0.023,0.055,0.046,0.122,0.064,0.201l0.125,0.577c0.214-0.36,0.459-0.647,0.734-0.864
		c0.276-0.214,0.583-0.328,0.918-0.341c0.283-0.012,0.515,0.047,0.691,0.176l-0.186,1.376c-0.013,0.085-0.042,0.146-0.089,0.181
		c-0.047,0.036-0.11,0.056-0.19,0.059c-0.067,0.003-0.147-0.002-0.239-0.017c-0.094-0.016-0.21-0.02-0.35-0.014
		c-0.487,0.02-0.861,0.295-1.12,0.825l0.152,3.813L298.609,254.323z"/>
	<path d="M270.164,266.202c0.049-0.002,0.096,0.005,0.146,0.021c0.048,0.017,0.095,0.045,0.141,0.087l0.837,0.813
		c-0.333,0.475-0.76,0.838-1.279,1.093c-0.521,0.255-1.144,0.397-1.866,0.426c-0.663,0.026-1.263-0.062-1.797-0.269
		c-0.535-0.203-0.993-0.498-1.374-0.881c-0.383-0.384-0.682-0.843-0.899-1.382c-0.217-0.538-0.339-1.126-0.364-1.766
		c-0.026-0.651,0.062-1.254,0.264-1.81c0.202-0.553,0.496-1.037,0.883-1.448c0.385-0.412,0.854-0.739,1.404-0.98
		c0.552-0.243,1.164-0.377,1.84-0.403c0.327-0.014,0.638,0.003,0.93,0.049c0.292,0.047,0.565,0.116,0.821,0.208
		c0.256,0.091,0.493,0.205,0.711,0.338c0.217,0.133,0.411,0.283,0.582,0.449l-0.647,0.944c-0.041,0.057-0.092,0.11-0.149,0.158
		s-0.141,0.074-0.25,0.078c-0.071,0.003-0.139-0.01-0.204-0.039c-0.066-0.029-0.136-0.065-0.209-0.108
		c-0.074-0.044-0.155-0.09-0.243-0.141s-0.191-0.097-0.312-0.139c-0.12-0.04-0.26-0.073-0.418-0.101
		c-0.159-0.024-0.345-0.033-0.558-0.024c-0.366,0.015-0.7,0.092-0.999,0.234c-0.298,0.142-0.552,0.339-0.761,0.588
		c-0.207,0.251-0.364,0.551-0.474,0.898c-0.107,0.35-0.153,0.737-0.137,1.165c0.018,0.448,0.095,0.844,0.23,1.186
		c0.137,0.344,0.313,0.63,0.532,0.859c0.22,0.229,0.472,0.4,0.757,0.514c0.284,0.112,0.587,0.162,0.905,0.149
		c0.185-0.007,0.353-0.023,0.503-0.047c0.151-0.023,0.291-0.061,0.42-0.109c0.128-0.05,0.249-0.111,0.364-0.187
		c0.115-0.074,0.231-0.166,0.346-0.275c0.048-0.041,0.097-0.076,0.152-0.104S270.104,266.204,270.164,266.202z"/>
	<path d="M276.555,268.211c-0.177,0.007-0.311-0.012-0.402-0.057c-0.093-0.045-0.171-0.142-0.237-0.291l-0.146-0.337
		c-0.149,0.14-0.295,0.261-0.436,0.365c-0.14,0.106-0.286,0.197-0.437,0.273c-0.151,0.077-0.312,0.134-0.485,0.176
		c-0.173,0.04-0.364,0.065-0.576,0.074c-0.284,0.011-0.543-0.016-0.777-0.08c-0.235-0.065-0.437-0.167-0.604-0.305
		s-0.3-0.312-0.396-0.523c-0.096-0.212-0.149-0.458-0.161-0.737c-0.009-0.221,0.038-0.45,0.141-0.688
		c0.104-0.236,0.288-0.455,0.557-0.657c0.269-0.201,0.633-0.375,1.097-0.522c0.462-0.147,1.049-0.234,1.76-0.263l-0.011-0.267
		c-0.015-0.366-0.099-0.629-0.256-0.787c-0.156-0.157-0.373-0.229-0.647-0.219c-0.221,0.009-0.399,0.04-0.538,0.093
		c-0.138,0.054-0.26,0.113-0.368,0.177c-0.107,0.064-0.212,0.123-0.313,0.175c-0.102,0.053-0.226,0.081-0.369,0.086
		c-0.128,0.006-0.238-0.021-0.331-0.078c-0.092-0.059-0.166-0.133-0.222-0.223l-0.358-0.568c0.362-0.347,0.77-0.61,1.221-0.791
		c0.451-0.18,0.938-0.279,1.463-0.3c0.374-0.016,0.716,0.031,1.022,0.141c0.307,0.111,0.569,0.271,0.787,0.479
		c0.219,0.21,0.39,0.463,0.515,0.757c0.123,0.296,0.192,0.622,0.207,0.977l0.154,3.886L276.555,268.211z M274.375,267.163
		c0.24-0.01,0.448-0.059,0.625-0.15s0.353-0.234,0.528-0.43l-0.033-0.852c-0.371,0.015-0.677,0.052-0.915,0.11
		c-0.237,0.057-0.425,0.125-0.562,0.204c-0.137,0.077-0.229,0.163-0.28,0.259c-0.05,0.094-0.072,0.196-0.068,0.306
		c0.009,0.213,0.072,0.361,0.191,0.443S274.15,267.171,274.375,267.163z"/>
	<path d="M278.725,268.125l-0.248-6.218l1.103-0.044c0.092-0.003,0.171,0.002,0.232,0.015c0.062,0.015,0.116,0.037,0.158,0.07
		c0.044,0.031,0.077,0.075,0.103,0.131c0.024,0.055,0.046,0.122,0.064,0.2l0.125,0.577c0.214-0.36,0.458-0.647,0.734-0.863
		c0.275-0.215,0.581-0.328,0.917-0.342c0.283-0.011,0.514,0.047,0.691,0.176l-0.186,1.377c-0.013,0.084-0.042,0.146-0.088,0.181
		c-0.047,0.035-0.11,0.055-0.19,0.058c-0.068,0.003-0.148-0.002-0.241-0.017s-0.208-0.019-0.349-0.014
		c-0.487,0.02-0.861,0.296-1.12,0.826l0.151,3.813L278.725,268.125z"/>
	<path d="M286.086,261.508c0.412-0.017,0.791,0.033,1.138,0.146c0.347,0.115,0.648,0.289,0.904,0.522
		c0.256,0.234,0.459,0.525,0.611,0.873c0.151,0.349,0.237,0.747,0.255,1.194c0.006,0.141,0.003,0.254-0.005,0.342
		c-0.009,0.089-0.027,0.159-0.057,0.214c-0.031,0.053-0.073,0.091-0.126,0.112s-0.12,0.035-0.205,0.038l-3.585,0.144
		c0.08,0.518,0.253,0.888,0.518,1.11c0.266,0.224,0.6,0.327,1.004,0.312c0.217-0.009,0.4-0.042,0.555-0.101
		c0.154-0.057,0.29-0.121,0.409-0.19c0.12-0.068,0.229-0.13,0.328-0.187c0.101-0.057,0.206-0.087,0.319-0.091
		c0.147-0.007,0.262,0.044,0.342,0.148l0.565,0.644c-0.183,0.229-0.383,0.414-0.6,0.562c-0.216,0.147-0.438,0.264-0.67,0.352
		c-0.231,0.087-0.462,0.15-0.694,0.189s-0.455,0.063-0.667,0.071c-0.436,0.018-0.848-0.037-1.234-0.163
		c-0.389-0.128-0.73-0.325-1.026-0.593c-0.297-0.269-0.536-0.608-0.719-1.018s-0.286-0.889-0.308-1.439
		c-0.017-0.416,0.039-0.813,0.166-1.19c0.127-0.378,0.318-0.712,0.573-1.001c0.255-0.291,0.567-0.525,0.938-0.704
		C285.188,261.626,285.611,261.527,286.086,261.508z M286.173,262.789c-0.355,0.015-0.629,0.127-0.82,0.337
		c-0.192,0.21-0.312,0.506-0.361,0.889l2.321-0.093c-0.006-0.147-0.031-0.291-0.075-0.43s-0.111-0.261-0.201-0.367
		c-0.091-0.106-0.207-0.19-0.349-0.253C286.545,262.809,286.374,262.781,286.173,262.789z"/>
	<path d="M292.142,261.255c0.264-0.011,0.513,0.005,0.748,0.049c0.236,0.041,0.456,0.106,0.66,0.195l1.876-0.075l0.027,0.678
		c0.004,0.104-0.021,0.188-0.077,0.249c-0.055,0.062-0.152,0.112-0.291,0.149l-0.452,0.12c0.064,0.178,0.099,0.363,0.106,0.555
		c0.013,0.312-0.041,0.594-0.161,0.847s-0.29,0.471-0.508,0.653c-0.22,0.183-0.481,0.328-0.785,0.434
		c-0.304,0.106-0.632,0.166-0.983,0.181c-0.196,0.008-0.381,0.003-0.554-0.014c-0.132,0.086-0.195,0.182-0.191,0.286
		s0.062,0.179,0.173,0.221c0.112,0.042,0.259,0.068,0.439,0.08c0.18,0.011,0.386,0.011,0.617,0.001
		c0.232-0.009,0.469-0.007,0.71,0.006c0.241,0.014,0.478,0.041,0.711,0.083c0.234,0.043,0.443,0.119,0.629,0.229
		c0.184,0.108,0.335,0.259,0.452,0.448c0.118,0.189,0.183,0.436,0.195,0.736c0.011,0.281-0.047,0.559-0.172,0.831
		c-0.125,0.275-0.315,0.521-0.571,0.74c-0.255,0.22-0.572,0.4-0.951,0.541c-0.378,0.142-0.814,0.223-1.311,0.242
		c-0.487,0.02-0.911-0.01-1.269-0.087c-0.356-0.079-0.656-0.188-0.896-0.328c-0.239-0.141-0.419-0.308-0.538-0.498
		c-0.12-0.193-0.184-0.394-0.192-0.606c-0.011-0.276,0.063-0.513,0.224-0.709c0.16-0.197,0.384-0.355,0.671-0.476
		c-0.144-0.086-0.26-0.199-0.35-0.34c-0.09-0.14-0.139-0.319-0.147-0.539c-0.004-0.092,0.009-0.189,0.036-0.292
		c0.028-0.104,0.074-0.204,0.139-0.303c0.064-0.098,0.146-0.193,0.247-0.285c0.1-0.092,0.222-0.175,0.362-0.249
		c-0.331-0.159-0.595-0.377-0.792-0.652c-0.197-0.276-0.303-0.603-0.318-0.979c-0.012-0.312,0.043-0.595,0.164-0.85
		c0.123-0.256,0.295-0.475,0.517-0.657c0.224-0.183,0.489-0.328,0.797-0.435C291.441,261.331,291.777,261.27,292.142,261.255z
		 M293.78,267.739c-0.004-0.102-0.037-0.182-0.101-0.241c-0.065-0.058-0.151-0.104-0.258-0.136
		c-0.109-0.033-0.233-0.056-0.376-0.065c-0.143-0.011-0.296-0.014-0.46-0.007s-0.334,0.013-0.509,0.021
		c-0.176,0.007-0.351-0.002-0.523-0.03c-0.113,0.085-0.204,0.178-0.274,0.278c-0.07,0.102-0.103,0.215-0.098,0.339
		c0.003,0.089,0.026,0.168,0.066,0.238c0.041,0.069,0.11,0.13,0.208,0.179c0.098,0.048,0.229,0.084,0.392,0.107
		s0.368,0.03,0.616,0.021c0.268-0.011,0.487-0.035,0.657-0.075c0.171-0.04,0.306-0.091,0.406-0.151
		c0.1-0.061,0.167-0.132,0.204-0.213C293.768,267.92,293.784,267.833,293.78,267.739z M292.257,264.145
		c0.307-0.013,0.526-0.099,0.658-0.258s0.192-0.361,0.183-0.604c-0.01-0.252-0.086-0.447-0.23-0.585
		c-0.144-0.139-0.368-0.202-0.676-0.189c-0.309,0.013-0.528,0.094-0.661,0.242c-0.132,0.149-0.193,0.35-0.183,0.602
		c0.005,0.12,0.026,0.229,0.063,0.328c0.039,0.099,0.096,0.183,0.171,0.254c0.074,0.071,0.167,0.126,0.278,0.163
		C291.973,264.135,292.105,264.151,292.257,264.145z"/>
	<path d="M298.29,259.414c0.006,0.147-0.02,0.287-0.073,0.419c-0.055,0.134-0.132,0.25-0.232,0.352
		c-0.101,0.103-0.219,0.186-0.353,0.249c-0.137,0.063-0.281,0.098-0.438,0.104c-0.152,0.006-0.296-0.017-0.43-0.07
		c-0.135-0.053-0.255-0.126-0.36-0.221c-0.105-0.093-0.189-0.203-0.254-0.331c-0.062-0.128-0.097-0.266-0.103-0.413
		c-0.007-0.151,0.018-0.296,0.069-0.43c0.054-0.134,0.129-0.253,0.227-0.357c0.098-0.104,0.211-0.187,0.342-0.247
		c0.129-0.062,0.27-0.096,0.422-0.102c0.156-0.006,0.304,0.017,0.444,0.066c0.139,0.051,0.263,0.124,0.371,0.219
		c0.108,0.097,0.195,0.209,0.26,0.339C298.248,259.12,298.284,259.261,298.29,259.414z M298.141,261.124l0.248,6.218l-1.859,0.074
		l-0.247-6.218L298.141,261.124z"/>
	<path d="M303.329,267.145l-1.69,0.067l-2.657-6.122l1.545-0.062c0.133-0.005,0.245,0.021,0.338,0.08
		c0.092,0.059,0.155,0.133,0.191,0.224l0.975,2.753c0.077,0.225,0.15,0.445,0.222,0.658c0.07,0.213,0.132,0.428,0.184,0.641
		c0.036-0.217,0.081-0.436,0.137-0.653c0.056-0.219,0.115-0.443,0.178-0.674l0.787-2.823c0.029-0.094,0.086-0.173,0.172-0.238
		c0.085-0.065,0.188-0.101,0.308-0.105l1.475-0.059L303.329,267.145z"/>
	<path d="M308.688,260.608c0.412-0.017,0.791,0.033,1.139,0.146c0.347,0.115,0.647,0.289,0.903,0.522
		c0.256,0.234,0.459,0.525,0.611,0.873c0.151,0.349,0.237,0.747,0.255,1.194c0.005,0.141,0.004,0.254-0.004,0.342
		c-0.01,0.089-0.029,0.16-0.059,0.214c-0.03,0.053-0.071,0.091-0.124,0.112c-0.054,0.021-0.122,0.035-0.206,0.038l-3.585,0.144
		c0.08,0.518,0.254,0.888,0.519,1.11c0.265,0.224,0.6,0.327,1.003,0.312c0.216-0.009,0.4-0.042,0.555-0.101
		c0.154-0.057,0.29-0.121,0.409-0.19c0.12-0.068,0.229-0.13,0.329-0.187c0.101-0.057,0.206-0.087,0.317-0.091
		c0.148-0.006,0.262,0.044,0.343,0.148l0.566,0.644c-0.184,0.229-0.384,0.414-0.6,0.562s-0.44,0.264-0.671,0.352
		c-0.23,0.087-0.462,0.15-0.694,0.189c-0.233,0.039-0.455,0.063-0.668,0.071c-0.435,0.018-0.846-0.037-1.233-0.163
		c-0.388-0.128-0.729-0.325-1.026-0.593c-0.297-0.269-0.537-0.608-0.719-1.018c-0.183-0.408-0.285-0.889-0.307-1.439
		c-0.017-0.416,0.039-0.812,0.165-1.19c0.127-0.377,0.318-0.712,0.573-1.001c0.254-0.291,0.567-0.525,0.938-0.704
		S308.212,260.626,308.688,260.608z M308.776,261.889c-0.356,0.014-0.63,0.126-0.821,0.336c-0.192,0.21-0.312,0.506-0.361,0.889
		l2.32-0.093c-0.006-0.147-0.031-0.291-0.073-0.43c-0.045-0.139-0.111-0.261-0.201-0.367c-0.091-0.106-0.207-0.19-0.35-0.253
		C309.146,261.909,308.975,261.88,308.776,261.889z"/>
	<path d="M312.801,266.767l-0.247-6.217l1.103-0.045c0.092-0.003,0.17,0.002,0.232,0.015c0.062,0.015,0.115,0.037,0.157,0.07
		c0.045,0.031,0.078,0.075,0.103,0.131c0.024,0.055,0.046,0.122,0.064,0.2l0.126,0.577c0.213-0.36,0.458-0.647,0.733-0.863
		c0.276-0.215,0.581-0.328,0.917-0.342c0.284-0.011,0.514,0.047,0.692,0.176l-0.186,1.377c-0.014,0.084-0.042,0.146-0.089,0.181
		s-0.11,0.055-0.19,0.058c-0.068,0.003-0.148-0.002-0.241-0.017c-0.092-0.015-0.208-0.019-0.349-0.014
		c-0.487,0.02-0.86,0.296-1.12,0.826l0.152,3.813L312.801,266.767z"/>
</g>
<g>
	<path fill="#FFFFFF" d="M129.842,172.183V178h-3.549v-5.817l-5.544-9.48h3.129c0.308,0,0.553,0.071,0.735,0.215
		s0.329,0.327,0.441,0.551l2.163,4.452c0.175,0.356,0.336,0.687,0.483,0.987s0.276,0.598,0.388,0.893
		c0.105-0.301,0.231-0.602,0.378-0.903c0.147-0.301,0.305-0.626,0.473-0.977l2.142-4.452c0.042-0.091,0.1-0.182,0.173-0.273
		c0.073-0.09,0.157-0.172,0.252-0.246c0.094-0.074,0.203-0.133,0.325-0.179s0.257-0.067,0.404-0.067h3.15L129.842,172.183z"/>
	<path fill="#FFFFFF" d="M139.607,166.944c0.826,0,1.579,0.13,2.258,0.389c0.679,0.259,1.262,0.63,1.748,1.112
		c0.486,0.484,0.864,1.07,1.134,1.76c0.269,0.689,0.404,1.465,0.404,2.325c0,0.868-0.135,1.65-0.404,2.347
		c-0.27,0.697-0.648,1.288-1.134,1.775c-0.486,0.486-1.069,0.86-1.748,1.123c-0.679,0.262-1.432,0.394-2.258,0.394
		c-0.833,0-1.591-0.132-2.273-0.394c-0.683-0.263-1.271-0.637-1.764-1.123c-0.494-0.487-0.875-1.078-1.145-1.775
		c-0.27-0.696-0.404-1.479-0.404-2.347c0-0.86,0.135-1.636,0.404-2.325s0.651-1.275,1.145-1.76c0.494-0.482,1.082-0.854,1.764-1.112
		C138.016,167.074,138.774,166.944,139.607,166.944z M139.607,175.753c0.749,0,1.3-0.264,1.654-0.793
		c0.354-0.528,0.53-1.332,0.53-2.41c0-1.077-0.177-1.879-0.53-2.404c-0.354-0.524-0.905-0.787-1.654-0.787
		c-0.77,0-1.333,0.263-1.69,0.787c-0.357,0.525-0.536,1.327-0.536,2.404c0,1.078,0.179,1.882,0.536,2.41
		C138.273,175.49,138.837,175.753,139.607,175.753z"/>
	<path fill="#FFFFFF" d="M149.981,167.112v6.909c0,0.539,0.122,0.955,0.367,1.25c0.245,0.293,0.605,0.44,1.082,0.44
		c0.357,0,0.691-0.073,1.003-0.22c0.312-0.148,0.614-0.354,0.908-0.62v-7.76h3.255V178h-2.016c-0.406,0-0.672-0.183-0.798-0.546
		l-0.199-0.63c-0.21,0.203-0.427,0.387-0.651,0.552c-0.224,0.164-0.464,0.304-0.719,0.42c-0.255,0.115-0.53,0.205-0.824,0.272
		c-0.294,0.066-0.616,0.1-0.966,0.1c-0.595,0-1.122-0.104-1.581-0.31c-0.458-0.207-0.845-0.495-1.16-0.866s-0.553-0.809-0.714-1.312
		c-0.161-0.505-0.242-1.058-0.242-1.659v-6.909H149.981z"/>
	<path fill="#FFFFFF" d="M168.88,162.535c0.679,0,1.277,0.1,1.795,0.299s0.956,0.462,1.312,0.787
		c0.357,0.326,0.637,0.702,0.84,1.129c0.203,0.428,0.329,0.865,0.378,1.312l-2.1,0.42c-0.035,0.008-0.065,0.012-0.089,0.016
		c-0.025,0.004-0.051,0.006-0.079,0.006c-0.294,0-0.511-0.154-0.651-0.463c-0.161-0.363-0.348-0.641-0.562-0.829
		c-0.214-0.188-0.496-0.283-0.845-0.283c-0.245,0-0.458,0.046-0.641,0.136c-0.182,0.092-0.334,0.211-0.457,0.357
		s-0.215,0.318-0.278,0.515s-0.095,0.399-0.095,0.608c0,0.183,0.016,0.357,0.047,0.525c0.031,0.168,0.084,0.338,0.157,0.51
		c0.074,0.172,0.175,0.348,0.305,0.529c0.129,0.183,0.296,0.379,0.499,0.588l3.78,3.99c0.189-0.42,0.339-0.857,0.452-1.312
		c0.112-0.455,0.192-0.927,0.241-1.417c0.014-0.196,0.079-0.351,0.194-0.462s0.268-0.168,0.457-0.168h2.058
		c0,1.021-0.136,1.976-0.409,2.861c-0.273,0.885-0.662,1.695-1.166,2.431l3.213,3.381h-3.213c-0.161,0-0.305-0.009-0.431-0.026
		s-0.243-0.047-0.352-0.09c-0.109-0.041-0.212-0.101-0.31-0.178s-0.203-0.175-0.315-0.294l-0.662-0.692
		c-0.665,0.461-1.391,0.818-2.179,1.07s-1.626,0.378-2.515,0.378c-0.609,0-1.206-0.104-1.79-0.315
		c-0.585-0.209-1.104-0.509-1.56-0.897c-0.455-0.388-0.822-0.858-1.103-1.412c-0.28-0.553-0.42-1.173-0.42-1.858
		c0-0.462,0.072-0.899,0.215-1.312s0.345-0.797,0.604-1.15c0.259-0.354,0.569-0.675,0.93-0.965c0.36-0.291,0.754-0.545,1.181-0.762
		c-0.329-0.512-0.567-1.012-0.714-1.502c-0.147-0.49-0.221-0.966-0.221-1.428c0-0.546,0.1-1.062,0.299-1.549
		c0.199-0.486,0.49-0.914,0.872-1.281c0.381-0.367,0.85-0.659,1.407-0.877C167.521,162.642,168.159,162.535,168.88,162.535z
		 M165.709,173.422c0,0.336,0.051,0.641,0.152,0.913c0.102,0.273,0.247,0.508,0.436,0.704s0.415,0.349,0.677,0.456
		c0.262,0.109,0.555,0.164,0.876,0.164c0.469,0,0.905-0.062,1.308-0.185c0.402-0.122,0.778-0.296,1.128-0.52l-3.518-3.728
		c-0.385,0.314-0.658,0.658-0.819,1.029S165.709,173.017,165.709,173.422z"/>
	<path fill="#FFFFFF" d="M100.757,195.183V201h-3.549v-5.817l-5.544-9.48h3.129c0.308,0,0.553,0.071,0.735,0.215
		s0.329,0.327,0.441,0.551l2.163,4.452c0.175,0.356,0.336,0.687,0.483,0.987s0.276,0.598,0.388,0.893
		c0.105-0.301,0.231-0.602,0.378-0.903c0.147-0.301,0.305-0.626,0.473-0.977l2.142-4.452c0.042-0.091,0.1-0.182,0.173-0.273
		c0.073-0.09,0.157-0.172,0.252-0.246c0.094-0.074,0.203-0.133,0.325-0.179s0.257-0.067,0.404-0.067h3.15L100.757,195.183z"/>
	<path fill="#FFFFFF" d="M110.522,189.944c0.826,0,1.579,0.13,2.258,0.389c0.679,0.259,1.262,0.63,1.748,1.112
		c0.486,0.484,0.864,1.07,1.134,1.76c0.269,0.689,0.404,1.465,0.404,2.325c0,0.868-0.135,1.65-0.404,2.347
		c-0.27,0.697-0.648,1.288-1.134,1.775c-0.486,0.486-1.069,0.86-1.748,1.123c-0.679,0.262-1.432,0.394-2.258,0.394
		c-0.833,0-1.591-0.132-2.273-0.394c-0.683-0.263-1.271-0.637-1.764-1.123c-0.494-0.487-0.875-1.078-1.145-1.775
		c-0.27-0.696-0.404-1.479-0.404-2.347c0-0.86,0.135-1.636,0.404-2.325s0.651-1.275,1.145-1.76c0.494-0.482,1.082-0.854,1.764-1.112
		C108.932,190.074,109.689,189.944,110.522,189.944z M110.522,198.753c0.749,0,1.3-0.264,1.654-0.793
		c0.354-0.528,0.53-1.332,0.53-2.41c0-1.077-0.177-1.879-0.53-2.404c-0.354-0.524-0.905-0.787-1.654-0.787
		c-0.77,0-1.333,0.263-1.69,0.787c-0.357,0.525-0.536,1.327-0.536,2.404c0,1.078,0.179,1.882,0.536,2.41
		C109.189,198.49,109.752,198.753,110.522,198.753z"/>
	<path fill="#FFFFFF" d="M120.896,190.112v6.909c0,0.539,0.122,0.955,0.367,1.25c0.245,0.293,0.605,0.44,1.082,0.44
		c0.357,0,0.691-0.073,1.003-0.22c0.312-0.148,0.614-0.354,0.908-0.62v-7.76h3.255V201h-2.016c-0.406,0-0.672-0.183-0.798-0.546
		l-0.199-0.63c-0.21,0.203-0.427,0.387-0.651,0.552c-0.224,0.164-0.464,0.304-0.719,0.42c-0.255,0.115-0.53,0.205-0.824,0.272
		c-0.294,0.066-0.616,0.1-0.966,0.1c-0.595,0-1.122-0.104-1.581-0.31c-0.458-0.207-0.845-0.495-1.16-0.866s-0.553-0.809-0.714-1.312
		c-0.161-0.505-0.242-1.058-0.242-1.659v-6.909H120.896z"/>
	<path fill="#FFFFFF" d="M130.031,201v-10.889h1.932c0.161,0,0.296,0.015,0.404,0.042c0.108,0.028,0.2,0.072,0.273,0.131
		c0.074,0.061,0.129,0.139,0.168,0.236c0.039,0.099,0.072,0.218,0.1,0.357l0.178,1.019c0.399-0.616,0.847-1.103,1.344-1.46
		c0.497-0.356,1.04-0.535,1.627-0.535c0.497,0,0.896,0.119,1.197,0.357l-0.42,2.394c-0.028,0.147-0.084,0.251-0.168,0.31
		c-0.084,0.061-0.196,0.09-0.336,0.09c-0.119,0-0.259-0.016-0.42-0.047c-0.161-0.032-0.364-0.048-0.609-0.048
		c-0.854,0-1.526,0.455-2.016,1.364V201H130.031z"/>
	<path fill="#FFFFFF" d="M152.605,185.703v2.729h-6.279v3.874h5.229v2.74h-5.229V201h-3.57v-15.298H152.605z"/>
	<path fill="#FFFFFF" d="M161.971,201c-0.308,0-0.541-0.042-0.698-0.126c-0.157-0.084-0.289-0.259-0.394-0.525l-0.231-0.598
		c-0.273,0.23-0.536,0.434-0.788,0.608s-0.513,0.324-0.782,0.446c-0.27,0.123-0.557,0.213-0.861,0.273
		c-0.305,0.059-0.643,0.089-1.013,0.089c-0.498,0-0.949-0.065-1.354-0.194c-0.406-0.131-0.751-0.322-1.035-0.574
		c-0.283-0.254-0.502-0.567-0.656-0.943c-0.154-0.375-0.231-0.809-0.231-1.301c0-0.387,0.098-0.783,0.294-1.19
		c0.196-0.407,0.536-0.778,1.019-1.111s1.134-0.612,1.953-0.837s1.852-0.338,3.098-0.338v-0.466c0-0.644-0.131-1.107-0.394-1.394
		c-0.262-0.286-0.635-0.43-1.118-0.43c-0.385,0-0.7,0.043-0.945,0.127c-0.245,0.084-0.464,0.178-0.656,0.283
		c-0.193,0.104-0.38,0.199-0.562,0.283s-0.399,0.126-0.651,0.126c-0.224,0-0.415-0.054-0.572-0.163
		c-0.157-0.107-0.282-0.242-0.373-0.404l-0.588-1.018c0.658-0.582,1.388-1.014,2.189-1.297c0.801-0.283,1.661-0.426,2.578-0.426
		c0.658,0,1.251,0.107,1.78,0.32c0.528,0.214,0.977,0.512,1.344,0.893c0.367,0.382,0.649,0.835,0.845,1.359
		c0.196,0.525,0.294,1.1,0.294,1.723V201H161.971z M158.233,199.016c0.42,0,0.788-0.073,1.103-0.221s0.633-0.385,0.956-0.714v-1.491
		c-0.651,0-1.187,0.042-1.606,0.128c-0.42,0.084-0.753,0.189-0.998,0.317c-0.245,0.127-0.415,0.271-0.509,0.435
		c-0.095,0.162-0.142,0.338-0.142,0.529c0,0.374,0.102,0.637,0.305,0.789S157.841,199.016,158.233,199.016z"/>
	<path fill="#FFFFFF" d="M165.772,201v-10.889h2.016c0.203,0,0.373,0.046,0.509,0.137c0.137,0.091,0.233,0.228,0.289,0.409
		l0.178,0.588c0.182-0.188,0.371-0.361,0.567-0.52c0.196-0.157,0.408-0.294,0.635-0.409c0.228-0.116,0.473-0.206,0.735-0.272
		c0.262-0.067,0.551-0.101,0.866-0.101c0.658,0,1.202,0.17,1.633,0.509c0.43,0.34,0.757,0.793,0.981,1.36
		c0.182-0.336,0.404-0.623,0.667-0.86c0.262-0.238,0.546-0.432,0.851-0.578c0.304-0.146,0.626-0.256,0.966-0.326
		c0.339-0.069,0.677-0.104,1.013-0.104c0.623,0,1.176,0.093,1.659,0.278c0.483,0.186,0.887,0.455,1.212,0.809
		c0.326,0.354,0.572,0.787,0.74,1.302s0.252,1.098,0.252,1.749V201h-3.255v-6.919c0-1.127-0.483-1.691-1.449-1.691
		c-0.441,0-0.807,0.146-1.097,0.436c-0.291,0.291-0.436,0.709-0.436,1.256V201h-3.255v-6.919c0-0.623-0.123-1.061-0.368-1.312
		s-0.605-0.379-1.082-0.379c-0.294,0-0.572,0.066-0.834,0.199c-0.263,0.134-0.509,0.312-0.74,0.536V201H165.772z"/>
	<path fill="#FFFFFF" d="M187.591,187.13c0,0.259-0.053,0.502-0.158,0.729s-0.249,0.427-0.43,0.599
		c-0.182,0.172-0.394,0.308-0.635,0.409c-0.242,0.102-0.499,0.152-0.772,0.152c-0.266,0-0.515-0.051-0.746-0.152
		s-0.436-0.237-0.614-0.409c-0.178-0.172-0.318-0.371-0.42-0.599s-0.152-0.471-0.152-0.729c0-0.266,0.051-0.515,0.152-0.746
		c0.102-0.23,0.242-0.434,0.42-0.609c0.179-0.174,0.383-0.311,0.614-0.408c0.231-0.099,0.479-0.148,0.746-0.148
		c0.273,0,0.53,0.05,0.772,0.148c0.241,0.098,0.453,0.234,0.635,0.408c0.182,0.176,0.325,0.379,0.43,0.609
		C187.539,186.616,187.591,186.865,187.591,187.13z M187.213,190.112V201h-3.255v-10.889H187.213z"/>
	<path fill="#FFFFFF" d="M193.198,185.283V201h-3.255v-15.718H193.198z"/>
	<path fill="#FFFFFF" d="M200.274,203.826c-0.098,0.217-0.217,0.375-0.357,0.477s-0.364,0.152-0.672,0.152h-2.436l2.1-4.41
		l-4.347-9.933h2.877c0.252,0,0.448,0.056,0.588,0.168s0.238,0.245,0.294,0.399l1.785,4.693c0.168,0.434,0.305,0.868,0.41,1.302
		c0.07-0.224,0.147-0.444,0.231-0.661s0.165-0.438,0.241-0.662l1.617-4.672c0.056-0.161,0.166-0.296,0.331-0.404
		s0.341-0.163,0.53-0.163h2.625L200.274,203.826z"/>
</g>
<g>
	<path d="M363.21,13.738c0.049,0,0.096,0.009,0.145,0.027c0.048,0.018,0.094,0.049,0.138,0.093l0.804,0.846
		c-0.352,0.46-0.793,0.807-1.322,1.041c-0.53,0.234-1.158,0.351-1.881,0.351c-0.664,0-1.26-0.113-1.785-0.339
		c-0.526-0.226-0.973-0.538-1.338-0.936c-0.367-0.398-0.647-0.87-0.844-1.416c-0.195-0.546-0.294-1.139-0.294-1.779
		c0-0.652,0.112-1.251,0.336-1.797s0.537-1.017,0.939-1.413c0.401-0.396,0.883-0.704,1.442-0.924c0.561-0.22,1.178-0.33,1.854-0.33
		c0.327,0,0.637,0.029,0.927,0.087s0.561,0.138,0.812,0.24c0.252,0.102,0.484,0.224,0.697,0.366
		c0.211,0.142,0.399,0.299,0.563,0.471l-0.685,0.918c-0.043,0.056-0.096,0.107-0.155,0.153s-0.144,0.069-0.253,0.069
		c-0.071,0-0.139-0.016-0.203-0.048c-0.064-0.032-0.133-0.071-0.204-0.117c-0.072-0.046-0.151-0.096-0.237-0.15
		c-0.086-0.054-0.188-0.104-0.306-0.15s-0.257-0.085-0.414-0.117c-0.158-0.032-0.343-0.048-0.556-0.048
		c-0.367,0-0.703,0.065-1.008,0.195c-0.304,0.13-0.564,0.316-0.783,0.558c-0.217,0.242-0.387,0.535-0.51,0.879
		c-0.121,0.344-0.183,0.73-0.183,1.158c0,0.448,0.062,0.846,0.183,1.194c0.123,0.348,0.289,0.641,0.498,0.879
		c0.211,0.238,0.455,0.419,0.735,0.543s0.58,0.186,0.899,0.186c0.185,0,0.353-0.009,0.504-0.027
		c0.152-0.018,0.293-0.049,0.424-0.093c0.13-0.044,0.254-0.101,0.372-0.171c0.118-0.07,0.237-0.157,0.356-0.261
		c0.049-0.04,0.1-0.073,0.156-0.099C363.093,13.751,363.151,13.738,363.21,13.738z"/>
	<path d="M367.993,9.683c0.472,0,0.901,0.074,1.29,0.222c0.388,0.148,0.721,0.36,0.998,0.636c0.279,0.276,0.494,0.611,0.648,1.005
		s0.231,0.837,0.231,1.329c0,0.496-0.077,0.943-0.231,1.341c-0.154,0.398-0.369,0.736-0.648,1.014
		c-0.277,0.278-0.61,0.492-0.998,0.642c-0.389,0.15-0.818,0.225-1.29,0.225c-0.476,0-0.909-0.075-1.3-0.225
		c-0.389-0.15-0.726-0.364-1.008-0.642c-0.281-0.278-0.5-0.616-0.654-1.014c-0.153-0.398-0.23-0.845-0.23-1.341
		c0-0.492,0.077-0.935,0.23-1.329c0.154-0.394,0.373-0.729,0.654-1.005c0.282-0.276,0.619-0.488,1.008-0.636
		C367.083,9.756,367.517,9.683,367.993,9.683z M367.993,14.716c0.428,0,0.743-0.151,0.944-0.453
		c0.203-0.302,0.304-0.761,0.304-1.377c0-0.616-0.101-1.074-0.304-1.374c-0.201-0.3-0.517-0.45-0.944-0.45
		c-0.44,0-0.763,0.15-0.966,0.45c-0.205,0.3-0.307,0.758-0.307,1.374c0,0.616,0.102,1.075,0.307,1.377
		C367.23,14.565,367.552,14.716,367.993,14.716z"/>
	<path d="M372.181,16V9.778h1.104c0.092,0,0.169,0.008,0.23,0.024c0.062,0.016,0.114,0.042,0.156,0.075
		c0.042,0.034,0.074,0.079,0.096,0.135c0.022,0.056,0.041,0.124,0.057,0.204l0.103,0.582c0.228-0.352,0.483-0.63,0.769-0.834
		c0.283-0.204,0.594-0.306,0.93-0.306c0.283,0,0.512,0.068,0.684,0.204l-0.24,1.368c-0.016,0.084-0.047,0.143-0.096,0.177
		c-0.048,0.034-0.111,0.051-0.191,0.051c-0.068,0-0.148-0.009-0.24-0.027s-0.208-0.027-0.348-0.027c-0.488,0-0.873,0.26-1.152,0.78
		V16H372.181z"/>
	<path d="M377.136,17.975V9.778h1.152c0.115,0,0.213,0.026,0.291,0.078c0.078,0.052,0.133,0.13,0.165,0.234l0.138,0.456
		c0.12-0.132,0.249-0.252,0.387-0.36c0.139-0.108,0.287-0.201,0.444-0.279c0.158-0.078,0.328-0.139,0.511-0.183
		c0.182-0.044,0.381-0.066,0.596-0.066c0.324,0,0.625,0.072,0.9,0.216c0.276,0.144,0.514,0.352,0.715,0.624
		c0.199,0.272,0.356,0.605,0.471,0.999c0.113,0.394,0.171,0.841,0.171,1.341c0,0.468-0.065,0.9-0.195,1.296s-0.312,0.74-0.546,1.032
		s-0.514,0.52-0.84,0.684s-0.688,0.246-1.083,0.246c-0.324,0-0.597-0.046-0.815-0.138c-0.221-0.092-0.421-0.216-0.601-0.372v2.388
		H377.136z M380.172,11.081c-0.136,0-0.259,0.013-0.368,0.039c-0.111,0.026-0.213,0.063-0.307,0.111s-0.182,0.109-0.262,0.183
		s-0.159,0.159-0.239,0.255v2.64c0.14,0.156,0.292,0.265,0.456,0.327c0.164,0.062,0.336,0.093,0.516,0.093
		c0.172,0,0.33-0.034,0.475-0.102c0.144-0.068,0.269-0.177,0.375-0.327c0.105-0.15,0.188-0.345,0.248-0.585
		c0.061-0.24,0.091-0.532,0.091-0.876c0-0.328-0.024-0.604-0.072-0.828c-0.048-0.224-0.115-0.405-0.201-0.543
		c-0.086-0.138-0.188-0.237-0.309-0.297S380.32,11.081,380.172,11.081z"/>
	<path d="M386.845,9.683c0.471,0,0.901,0.074,1.289,0.222c0.389,0.148,0.721,0.36,0.999,0.636s0.494,0.611,0.648,1.005
		c0.153,0.394,0.231,0.837,0.231,1.329c0,0.496-0.078,0.943-0.231,1.341c-0.154,0.398-0.37,0.736-0.648,1.014
		s-0.61,0.492-0.999,0.642c-0.388,0.15-0.818,0.225-1.289,0.225c-0.477,0-0.91-0.075-1.3-0.225s-0.726-0.364-1.008-0.642
		s-0.5-0.616-0.654-1.014c-0.153-0.398-0.231-0.845-0.231-1.341c0-0.492,0.078-0.935,0.231-1.329
		c0.154-0.394,0.372-0.729,0.654-1.005s0.618-0.488,1.008-0.636C385.935,9.756,386.369,9.683,386.845,9.683z M386.845,14.716
		c0.428,0,0.742-0.151,0.944-0.453c0.202-0.302,0.304-0.761,0.304-1.377c0-0.616-0.102-1.074-0.304-1.374
		c-0.202-0.3-0.517-0.45-0.944-0.45c-0.441,0-0.763,0.15-0.967,0.45c-0.204,0.3-0.306,0.758-0.306,1.374
		c0,0.616,0.102,1.075,0.306,1.377C386.083,14.565,386.404,14.716,386.845,14.716z"/>
	<path d="M391.033,16V9.778h1.104c0.092,0,0.169,0.008,0.23,0.024c0.062,0.016,0.114,0.042,0.156,0.075
		c0.042,0.034,0.074,0.079,0.096,0.135c0.022,0.056,0.041,0.124,0.057,0.204l0.103,0.582c0.228-0.352,0.483-0.63,0.769-0.834
		c0.283-0.204,0.594-0.306,0.93-0.306c0.283,0,0.512,0.068,0.684,0.204l-0.24,1.368c-0.016,0.084-0.047,0.143-0.096,0.177
		c-0.048,0.034-0.111,0.051-0.191,0.051c-0.068,0-0.148-0.009-0.24-0.027s-0.208-0.027-0.348-0.027c-0.488,0-0.873,0.26-1.152,0.78
		V16H391.033z"/>
	<path d="M400.164,16c-0.176,0-0.309-0.024-0.398-0.072c-0.09-0.048-0.165-0.148-0.225-0.3l-0.133-0.342
		c-0.156,0.132-0.306,0.248-0.449,0.348c-0.145,0.1-0.293,0.185-0.447,0.255c-0.154,0.07-0.318,0.122-0.492,0.156
		s-0.367,0.051-0.579,0.051c-0.284,0-0.542-0.037-0.774-0.111c-0.231-0.075-0.429-0.184-0.591-0.328
		c-0.161-0.145-0.286-0.324-0.375-0.539c-0.088-0.214-0.132-0.462-0.132-0.743c0-0.221,0.057-0.448,0.168-0.68
		c0.111-0.233,0.307-0.444,0.582-0.635c0.275-0.19,0.648-0.35,1.116-0.479s1.058-0.192,1.771-0.192v-0.267
		c0-0.367-0.076-0.633-0.226-0.796s-0.363-0.245-0.64-0.245c-0.219,0-0.399,0.024-0.539,0.072c-0.141,0.048-0.266,0.102-0.375,0.162
		c-0.11,0.06-0.217,0.114-0.321,0.162s-0.228,0.072-0.372,0.072c-0.128,0-0.236-0.031-0.327-0.093
		c-0.09-0.062-0.161-0.139-0.213-0.231l-0.336-0.582c0.376-0.332,0.793-0.579,1.251-0.741s0.949-0.243,1.473-0.243
		c0.377,0,0.715,0.061,1.018,0.183c0.302,0.122,0.558,0.292,0.768,0.51c0.21,0.218,0.371,0.477,0.483,0.777
		c0.112,0.3,0.168,0.628,0.168,0.984V16H400.164z M398.028,14.867c0.24,0,0.45-0.042,0.63-0.126c0.18-0.084,0.362-0.22,0.547-0.408
		V13.48c-0.373,0-0.679,0.024-0.918,0.073c-0.24,0.048-0.431,0.109-0.57,0.182c-0.141,0.073-0.237,0.155-0.291,0.248
		c-0.055,0.093-0.082,0.193-0.082,0.303c0,0.214,0.059,0.364,0.175,0.451S397.804,14.867,398.028,14.867z"/>
	<path d="M404.52,16.097c-0.296,0-0.557-0.043-0.782-0.129c-0.227-0.086-0.416-0.208-0.57-0.366s-0.271-0.349-0.352-0.573
		c-0.08-0.224-0.119-0.474-0.119-0.75v-3.216h-0.529c-0.096,0-0.178-0.031-0.245-0.093c-0.068-0.062-0.103-0.153-0.103-0.273V9.971
		l0.99-0.192l0.366-1.518c0.048-0.192,0.185-0.288,0.407-0.288h0.973v1.818h1.512v1.272h-1.512v3.09
		c0,0.144,0.035,0.263,0.105,0.357c0.069,0.094,0.17,0.141,0.303,0.141c0.068,0,0.125-0.007,0.171-0.021
		c0.046-0.014,0.086-0.03,0.12-0.048c0.033-0.018,0.066-0.034,0.096-0.048c0.03-0.014,0.064-0.021,0.105-0.021
		c0.056,0,0.101,0.013,0.135,0.039c0.033,0.026,0.068,0.067,0.105,0.123l0.563,0.882c-0.24,0.18-0.511,0.315-0.81,0.405
		C405.15,16.051,404.84,16.097,404.52,16.097z"/>
	<path d="M409.8,9.683c0.412,0,0.789,0.064,1.131,0.192s0.636,0.314,0.882,0.558s0.438,0.543,0.576,0.897s0.207,0.755,0.207,1.203
		c0,0.14-0.007,0.254-0.019,0.342s-0.033,0.158-0.065,0.21c-0.032,0.052-0.075,0.088-0.13,0.108c-0.053,0.02-0.122,0.03-0.207,0.03
		h-3.588c0.061,0.52,0.219,0.897,0.475,1.131s0.586,0.351,0.99,0.351c0.216,0,0.402-0.026,0.558-0.078
		c0.156-0.052,0.295-0.11,0.417-0.174s0.234-0.122,0.336-0.174c0.102-0.052,0.209-0.078,0.321-0.078c0.147,0,0.26,0.054,0.336,0.162
		l0.54,0.666c-0.191,0.22-0.398,0.399-0.621,0.537s-0.449,0.246-0.684,0.324c-0.234,0.078-0.469,0.132-0.702,0.162
		c-0.234,0.03-0.457,0.045-0.669,0.045c-0.437,0-0.846-0.071-1.227-0.213c-0.383-0.142-0.717-0.353-1.003-0.633
		c-0.286-0.28-0.512-0.628-0.678-1.044s-0.249-0.9-0.249-1.452c0-0.416,0.07-0.81,0.213-1.182c0.143-0.372,0.346-0.698,0.612-0.978
		c0.266-0.28,0.588-0.502,0.966-0.666S409.324,9.683,409.8,9.683z M409.835,10.966c-0.355,0-0.633,0.101-0.834,0.303
		c-0.199,0.202-0.332,0.493-0.396,0.873h2.322c0-0.148-0.019-0.292-0.058-0.432c-0.037-0.14-0.1-0.265-0.186-0.375
		s-0.199-0.199-0.339-0.267C410.207,11,410.037,10.966,409.835,10.966z"/>
	<path d="M367.531,22.035c-0.061,0.096-0.123,0.168-0.189,0.216s-0.15,0.072-0.255,0.072c-0.092,0-0.19-0.029-0.297-0.087
		c-0.106-0.058-0.226-0.123-0.36-0.195c-0.134-0.072-0.287-0.137-0.459-0.195c-0.172-0.058-0.367-0.087-0.588-0.087
		c-0.38,0-0.663,0.081-0.849,0.243c-0.187,0.162-0.279,0.381-0.279,0.657c0,0.176,0.056,0.322,0.168,0.438
		c0.112,0.116,0.259,0.216,0.44,0.3c0.183,0.084,0.391,0.161,0.625,0.231c0.234,0.07,0.473,0.148,0.717,0.234
		c0.244,0.086,0.482,0.187,0.717,0.303s0.441,0.264,0.624,0.444c0.183,0.18,0.329,0.399,0.44,0.657
		c0.113,0.258,0.168,0.569,0.168,0.933c0,0.404-0.069,0.782-0.209,1.134c-0.141,0.352-0.344,0.659-0.609,0.921
		c-0.266,0.262-0.594,0.468-0.984,0.618c-0.39,0.15-0.832,0.225-1.328,0.225c-0.272,0-0.549-0.028-0.832-0.084
		c-0.281-0.056-0.555-0.135-0.818-0.237s-0.512-0.223-0.744-0.363s-0.434-0.296-0.605-0.468l0.6-0.948
		c0.044-0.072,0.105-0.13,0.186-0.174c0.08-0.044,0.166-0.066,0.258-0.066c0.121,0,0.242,0.038,0.363,0.114
		c0.122,0.076,0.26,0.16,0.414,0.252s0.331,0.176,0.531,0.252c0.199,0.076,0.436,0.114,0.708,0.114c0.368,0,0.653-0.081,0.858-0.243
		c0.203-0.162,0.306-0.419,0.306-0.771c0-0.204-0.056-0.37-0.168-0.498s-0.259-0.234-0.44-0.318
		c-0.183-0.084-0.39-0.158-0.621-0.222c-0.232-0.064-0.471-0.135-0.715-0.213c-0.244-0.078-0.482-0.174-0.714-0.288
		c-0.231-0.114-0.438-0.264-0.621-0.45c-0.182-0.186-0.329-0.418-0.44-0.696c-0.112-0.278-0.168-0.621-0.168-1.029
		c0-0.328,0.065-0.648,0.197-0.96c0.133-0.312,0.326-0.59,0.582-0.834c0.256-0.244,0.57-0.439,0.942-0.585s0.798-0.219,1.278-0.219
		c0.268,0,0.528,0.021,0.783,0.063c0.254,0.042,0.494,0.104,0.723,0.186c0.228,0.082,0.441,0.18,0.639,0.294
		c0.198,0.114,0.375,0.243,0.531,0.387L367.531,22.035z"/>
	<path d="M371.826,22.683c0.412,0,0.789,0.064,1.132,0.192c0.342,0.128,0.636,0.314,0.882,0.558s0.438,0.543,0.576,0.897
		c0.138,0.354,0.207,0.755,0.207,1.203c0,0.14-0.006,0.254-0.018,0.342c-0.013,0.088-0.035,0.158-0.066,0.21
		c-0.032,0.052-0.075,0.088-0.129,0.108c-0.055,0.02-0.123,0.03-0.207,0.03h-3.588c0.06,0.52,0.218,0.897,0.474,1.131
		s0.586,0.351,0.99,0.351c0.216,0,0.401-0.026,0.558-0.078c0.156-0.052,0.295-0.11,0.417-0.174s0.234-0.122,0.336-0.174
		c0.103-0.052,0.209-0.078,0.321-0.078c0.148,0,0.26,0.054,0.336,0.162l0.54,0.666c-0.192,0.22-0.399,0.399-0.621,0.537
		s-0.45,0.246-0.685,0.324c-0.233,0.078-0.467,0.132-0.701,0.162c-0.234,0.03-0.457,0.045-0.67,0.045
		c-0.436,0-0.844-0.071-1.227-0.213c-0.382-0.142-0.716-0.353-1.002-0.633c-0.285-0.28-0.512-0.628-0.678-1.044
		s-0.249-0.9-0.249-1.452c0-0.416,0.071-0.81,0.213-1.182c0.142-0.372,0.347-0.698,0.612-0.978c0.266-0.28,0.588-0.502,0.966-0.666
		S371.35,22.683,371.826,22.683z M371.863,23.966c-0.356,0-0.635,0.101-0.834,0.303c-0.201,0.202-0.332,0.493-0.396,0.873h2.322
		c0-0.148-0.02-0.292-0.057-0.432c-0.039-0.14-0.101-0.265-0.187-0.375s-0.199-0.199-0.339-0.267
		C372.232,24,372.062,23.966,371.863,23.966z"/>
	<path d="M375.691,29v-6.222h1.104c0.092,0,0.169,0.008,0.23,0.024c0.062,0.016,0.114,0.042,0.156,0.075
		c0.042,0.034,0.074,0.079,0.096,0.135c0.022,0.056,0.041,0.124,0.057,0.204l0.103,0.582c0.228-0.352,0.483-0.63,0.769-0.834
		c0.283-0.204,0.594-0.306,0.93-0.306c0.283,0,0.512,0.068,0.684,0.204l-0.24,1.368c-0.016,0.084-0.047,0.143-0.096,0.177
		c-0.048,0.034-0.111,0.051-0.191,0.051c-0.068,0-0.148-0.009-0.24-0.027s-0.208-0.027-0.348-0.027c-0.488,0-0.873,0.26-1.152,0.78
		V29H375.691z"/>
	<path d="M384.09,29h-1.692l-2.412-6.222h1.549c0.132,0,0.242,0.031,0.332,0.093s0.151,0.139,0.184,0.231l0.863,2.79
		c0.068,0.228,0.134,0.45,0.195,0.666c0.062,0.216,0.115,0.432,0.159,0.648c0.044-0.216,0.099-0.432,0.162-0.648
		c0.063-0.216,0.132-0.438,0.204-0.666l0.9-2.79c0.031-0.092,0.092-0.169,0.18-0.231s0.191-0.093,0.312-0.093h1.476L384.09,29z"/>
	<path d="M389.417,21.075c0,0.148-0.029,0.287-0.09,0.417c-0.06,0.13-0.142,0.244-0.246,0.342c-0.104,0.098-0.225,0.176-0.362,0.234
		c-0.138,0.058-0.285,0.087-0.441,0.087c-0.151,0-0.294-0.029-0.426-0.087c-0.132-0.058-0.249-0.136-0.351-0.234
		c-0.103-0.098-0.183-0.212-0.24-0.342c-0.059-0.13-0.088-0.269-0.088-0.417c0-0.152,0.029-0.294,0.088-0.426
		c0.058-0.132,0.138-0.248,0.24-0.348c0.102-0.1,0.219-0.178,0.351-0.234c0.132-0.056,0.274-0.084,0.426-0.084
		c0.156,0,0.304,0.028,0.441,0.084c0.138,0.056,0.259,0.134,0.362,0.234c0.104,0.1,0.187,0.216,0.246,0.348
		C389.388,20.78,389.417,20.922,389.417,21.075z M389.203,22.778V29h-1.861v-6.222H389.203z"/>
	<path d="M395.19,24.254c-0.056,0.068-0.11,0.122-0.162,0.162s-0.126,0.06-0.222,0.06c-0.092,0-0.176-0.022-0.249-0.066
		c-0.074-0.044-0.157-0.093-0.249-0.147c-0.092-0.054-0.2-0.103-0.324-0.147s-0.277-0.066-0.462-0.066
		c-0.228,0-0.425,0.042-0.591,0.126s-0.303,0.204-0.411,0.36c-0.108,0.156-0.188,0.347-0.24,0.573
		c-0.052,0.226-0.077,0.481-0.077,0.765c0,0.596,0.114,1.054,0.344,1.374c0.23,0.32,0.547,0.48,0.951,0.48
		c0.217,0,0.387-0.027,0.514-0.081c0.125-0.054,0.232-0.114,0.32-0.18c0.088-0.066,0.17-0.127,0.243-0.183
		c0.074-0.056,0.167-0.084,0.279-0.084c0.147,0,0.26,0.054,0.336,0.162l0.54,0.666c-0.191,0.22-0.395,0.399-0.605,0.537
		c-0.213,0.138-0.43,0.246-0.651,0.324c-0.222,0.078-0.445,0.132-0.669,0.162c-0.225,0.03-0.442,0.045-0.654,0.045
		c-0.38,0-0.743-0.072-1.089-0.216c-0.347-0.144-0.65-0.353-0.912-0.627c-0.263-0.274-0.47-0.611-0.624-1.011
		s-0.23-0.856-0.23-1.368c0-0.448,0.066-0.867,0.201-1.257c0.133-0.39,0.331-0.728,0.594-1.014c0.262-0.286,0.586-0.511,0.972-0.675
		s0.833-0.246,1.341-0.246c0.488,0,0.916,0.078,1.284,0.234c0.368,0.156,0.7,0.384,0.996,0.684L395.19,24.254z"/>
	<path d="M399.198,22.683c0.412,0,0.789,0.064,1.132,0.192c0.342,0.128,0.635,0.314,0.881,0.558s0.438,0.543,0.576,0.897
		c0.139,0.354,0.207,0.755,0.207,1.203c0,0.14-0.006,0.254-0.018,0.342s-0.034,0.158-0.066,0.21
		c-0.031,0.052-0.074,0.088-0.129,0.108c-0.054,0.02-0.123,0.03-0.207,0.03h-3.588c0.061,0.52,0.219,0.897,0.475,1.131
		s0.586,0.351,0.99,0.351c0.215,0,0.401-0.026,0.557-0.078c0.156-0.052,0.295-0.11,0.418-0.174c0.121-0.064,0.234-0.122,0.336-0.174
		c0.102-0.052,0.209-0.078,0.32-0.078c0.148,0,0.26,0.054,0.336,0.162l0.541,0.666c-0.192,0.22-0.399,0.399-0.621,0.537
		c-0.223,0.138-0.45,0.246-0.685,0.324c-0.233,0.078-0.468,0.132-0.702,0.162c-0.234,0.03-0.457,0.045-0.669,0.045
		c-0.437,0-0.845-0.071-1.227-0.213c-0.382-0.142-0.716-0.353-1.003-0.633c-0.285-0.28-0.512-0.628-0.678-1.044
		s-0.248-0.9-0.248-1.452c0-0.416,0.07-0.81,0.213-1.182c0.142-0.372,0.346-0.698,0.611-0.978c0.266-0.28,0.588-0.502,0.967-0.666
		C398.294,22.765,398.722,22.683,399.198,22.683z M399.234,23.966c-0.355,0-0.634,0.101-0.834,0.303s-0.332,0.493-0.396,0.873h2.322
		c0-0.148-0.019-0.292-0.057-0.432s-0.1-0.265-0.186-0.375s-0.199-0.199-0.34-0.267C399.604,24,399.434,23.966,399.234,23.966z"/>
	<path d="M406.866,24.141c-0.048,0.076-0.099,0.13-0.153,0.162c-0.054,0.032-0.123,0.048-0.207,0.048
		c-0.088,0-0.176-0.019-0.264-0.057s-0.184-0.079-0.285-0.123s-0.217-0.085-0.345-0.123s-0.274-0.057-0.438-0.057
		c-0.236,0-0.416,0.045-0.543,0.135c-0.125,0.09-0.188,0.215-0.188,0.375c0,0.116,0.041,0.212,0.123,0.288s0.19,0.143,0.327,0.201
		c0.136,0.058,0.289,0.113,0.462,0.165c0.172,0.052,0.348,0.11,0.528,0.174c0.18,0.064,0.355,0.139,0.527,0.225
		c0.172,0.086,0.326,0.192,0.462,0.318s0.245,0.279,0.327,0.459c0.082,0.18,0.123,0.396,0.123,0.648
		c0,0.308-0.057,0.592-0.168,0.852c-0.111,0.26-0.279,0.484-0.501,0.672s-0.496,0.334-0.822,0.438
		c-0.325,0.104-0.7,0.156-1.125,0.156c-0.212,0-0.424-0.02-0.636-0.06s-0.417-0.094-0.615-0.162
		c-0.197-0.068-0.381-0.149-0.549-0.243c-0.168-0.094-0.312-0.195-0.432-0.303l0.432-0.684c0.052-0.08,0.114-0.143,0.186-0.189
		c0.072-0.046,0.166-0.069,0.283-0.069c0.107,0,0.204,0.024,0.291,0.072c0.086,0.048,0.178,0.1,0.278,0.156
		c0.101,0.056,0.217,0.108,0.351,0.156c0.135,0.048,0.303,0.072,0.508,0.072c0.144,0,0.266-0.015,0.365-0.045
		c0.1-0.03,0.18-0.071,0.24-0.123c0.061-0.052,0.104-0.11,0.133-0.174c0.027-0.064,0.041-0.13,0.041-0.198
		c0-0.124-0.041-0.226-0.126-0.306c-0.084-0.08-0.194-0.149-0.329-0.207c-0.137-0.058-0.291-0.112-0.466-0.162
		c-0.174-0.05-0.351-0.107-0.53-0.171c-0.181-0.064-0.357-0.141-0.531-0.231c-0.174-0.09-0.33-0.204-0.465-0.342
		c-0.137-0.138-0.246-0.307-0.33-0.507c-0.084-0.2-0.127-0.442-0.127-0.726c0-0.264,0.052-0.515,0.153-0.753
		c0.103-0.238,0.255-0.447,0.46-0.627c0.203-0.18,0.459-0.323,0.768-0.429c0.308-0.106,0.668-0.159,1.08-0.159
		c0.224,0,0.44,0.02,0.65,0.06c0.211,0.04,0.407,0.096,0.592,0.168c0.184,0.072,0.352,0.157,0.504,0.255
		c0.151,0.098,0.285,0.205,0.401,0.321L406.866,24.141z"/>
</g>
</svg>
