<?xml version="1.0" encoding="utf-8"?>
<!-- Generator: Adobe Illustrator 18.0.0, SVG Export Plug-In . SVG Version: 6.00 Build 0)  -->
<!DOCTYPE svg PUBLIC "-//W3C//DTD SVG 1.1//EN" "http://www.w3.org/Graphics/SVG/1.1/DTD/svg11.dtd">
<svg version="1.1" id="Layer_1" xmlns="http://www.w3.org/2000/svg" xmlns:xlink="http://www.w3.org/1999/xlink" x="0px" y="0px"
	 viewBox="0 0 413.256 100.731" enable-background="new 0 0 413.256 100.731" xml:space="preserve">
<g>
	<path fill="#002E6D" d="M413.139,19.491c0,3.107-2.46,5.529-5.648,5.529s-5.648-2.423-5.648-5.529c0-3.106,2.46-5.529,5.648-5.529
		S413.139,16.384,413.139,19.491z M402.723,19.491c0,2.646,2.034,4.742,4.768,4.742s4.768-2.097,4.768-4.742
		s-2.034-4.741-4.768-4.741S402.723,16.845,402.723,19.491z M406.245,22.687h-0.805v-6.392h2.505c1.474,0,2.126,0.624,2.126,1.769
		c0,1.13-0.759,1.635-1.64,1.783l1.943,2.84h-0.941l-1.837-2.84h-1.352V22.687z M407.308,19.178c0.987,0,1.959-0.029,1.959-1.114
		c0-0.892-0.759-1.1-1.549-1.1h-1.473v2.214H407.308z"/>
</g>
<g>
	<path fill="#002E6D" d="M27.485,30.63c3.549,7.809,11.917,13.754,22.179,15.305C46.114,38.121,37.741,32.188,27.485,30.63z"/>
	<path fill="#FF5000" d="M25.658,21.885c-0.056,2.972,0.557,5.827,1.712,8.471c0.556-0.015,1.111-0.017,1.674-0.007
		c16.085,0.312,28.914,11.259,28.661,24.454c-0.023,1.194-0.154,2.361-0.382,3.501L77.21,38.417L39.104,0.202
		C31.618,6.114,25.829,13.119,25.658,21.885z"/>
	<path fill="#002E6D" d="M38.709,76.232c7.878-7.486,12.61-12.795,12.778-21.549c0.06-2.977-0.555-5.827-1.713-8.476
		c-0.553,0.016-1.112,0.02-1.676,0.007c-16.084-0.31-28.914-11.262-28.658-24.452c0.017-0.957,0.115-1.904,0.267-2.829L0.221,38.417
		L38.709,76.232z"/>
</g>
<g>
	<path fill="#FF5000" d="M96.017,14.79h8.476v46.721h-8.476V14.79z"/>
	<path fill="#FF5000" d="M115.201,13.961c1.448,0,2.691,0.541,3.729,1.611c1.037,1.073,1.557,2.373,1.557,3.898
		c0,1.509-0.514,2.793-1.541,3.856c-1.027,1.062-2.255,1.593-3.686,1.593c-1.469,0-2.724-0.541-3.761-1.625
		c-1.037-1.083-1.555-2.398-1.555-3.945c0-1.486,0.513-2.755,1.541-3.808C112.512,14.488,113.75,13.961,115.201,13.961z
		 M110.977,27.815h8.477v33.697h-8.477V27.815z"/>
	<path fill="#FF5000" d="M124.491,27.815h3.101c0.02-4.412,0.093-7.018,0.217-7.823c0.226-1.854,1.006-3.324,2.338-4.405
		c1.333-1.083,3.218-1.625,5.657-1.625c1.754,0,3.738,0.411,5.949,1.225v6.527c-1.223-0.343-2.228-0.515-3.014-0.515
		c-0.995,0-1.719,0.204-2.174,0.608c-0.332,0.303-0.498,0.931-0.498,1.881l-0.029,4.128h5.405v7.132h-5.376v26.564h-8.475V34.947
		h-3.101V27.815z"/>
	<path fill="#FF5000" d="M178.013,41.481l-25.936,8.385c1.113,2.163,2.701,3.656,4.763,4.48c2.061,0.824,4.354,0.827,6.877,0.012
		c3.017-0.976,5.266-2.866,6.754-5.676l7.831,0.989c-0.917,2.95-2.37,5.382-4.361,7.296c-1.991,1.914-4.609,3.396-7.859,4.448
		c-5.041,1.63-9.659,1.374-13.851-0.768c-4.194-2.14-7.061-5.592-8.601-10.355c-1.578-4.881-1.309-9.444,0.81-13.69
		c2.117-4.246,5.56-7.141,10.327-8.683c5.061-1.635,9.697-1.359,13.906,0.831c4.21,2.188,7.169,5.92,8.875,11.195L178.013,41.481z
		 M167.942,37.784c-1.098-1.574-2.608-2.653-4.532-3.239c-1.925-0.588-3.923-0.545-5.996,0.125
		c-2.253,0.729-4.029,1.979-5.328,3.757c-0.818,1.113-1.37,2.785-1.651,5.017L167.942,37.784z"/>
	<path fill="#002E6D" d="M350.065,41.481l-25.936,8.385c1.116,2.163,2.7,3.656,4.764,4.48c2.062,0.824,4.354,0.827,6.879,0.012
		c3.015-0.976,5.268-2.866,6.753-5.676l7.831,0.989c-0.917,2.95-2.369,5.382-4.361,7.296c-1.99,1.914-4.608,3.396-7.857,4.448
		c-5.041,1.63-9.66,1.374-13.854-0.768c-4.193-2.14-7.059-5.592-8.601-10.355c-1.575-4.881-1.307-9.444,0.812-13.69
		c2.116-4.246,5.559-7.141,10.326-8.683c5.06-1.635,9.694-1.359,13.906,0.831c4.211,2.188,7.169,5.92,8.875,11.195L350.065,41.481z
		 M339.996,37.784c-1.099-1.574-2.607-2.653-4.534-3.239c-1.922-0.588-3.922-0.545-5.996,0.125
		c-2.252,0.729-4.028,1.979-5.326,3.757c-0.82,1.113-1.369,2.785-1.651,5.017L339.996,37.784z"/>
	<path fill="#002E6D" d="M181.322,27.815h8.476v3.933c1.454-1.598,3.069-2.791,4.846-3.58c1.775-0.789,3.712-1.181,5.811-1.181
		c2.12,0,4.031,0.52,5.735,1.56c1.703,1.04,3.075,2.558,4.116,4.555c1.347-1.997,3.003-3.515,4.968-4.555
		c1.964-1.04,4.109-1.56,6.438-1.56c2.41,0,4.528,0.557,6.356,1.672c1.83,1.114,3.144,2.567,3.943,4.359
		c0.801,1.795,1.199,4.714,1.199,8.757v19.736h-8.476V44.487c0-3.804-0.484-6.38-1.452-7.728c-0.971-1.346-2.422-2.02-4.357-2.02
		c-1.474,0-2.794,0.411-3.964,1.233c-1.167,0.825-2.034,1.96-2.604,3.408c-0.568,1.451-0.853,3.777-0.853,6.985v15.146h-8.478
		V45.257c0-3.001-0.222-5.177-0.671-6.524c-0.447-1.346-1.116-2.348-2.012-3.006c-0.895-0.659-1.977-0.987-3.244-0.987
		c-1.416,0-2.701,0.418-3.855,1.249c-1.155,0.834-2.018,2-2.591,3.5c-0.571,1.502-0.857,3.867-0.857,7.095v14.928h-8.476V27.815z"/>
	<path fill="#002E6D" d="M264.065,27.815h8.477v33.697h-8.477v-3.589c-1.652,1.566-3.311,2.694-4.973,3.382
		c-1.664,0.688-3.464,1.034-5.406,1.034c-4.36,0-8.129-1.684-11.31-5.054c-3.183-3.366-4.771-7.556-4.771-12.56
		c0-5.192,1.537-9.445,4.616-12.762c3.077-3.316,6.816-4.976,11.218-4.976c2.024,0,3.922,0.378,5.698,1.133
		c1.777,0.757,3.422,1.892,4.928,3.403V27.815z M255.255,34.739c-2.604,0-4.767,0.921-6.488,2.767
		c-1.722,1.844-2.583,4.211-2.583,7.095c0,2.906,0.875,5.295,2.628,7.171c1.754,1.877,3.913,2.813,6.474,2.813
		c2.646,0,4.837-0.923,6.58-2.767c1.743-1.846,2.615-4.261,2.615-7.247c0-2.927-0.872-5.297-2.615-7.112
		C260.122,35.647,257.921,34.739,255.255,34.739z"/>
	<path fill="#002E6D" d="M280.168,15.41h8.476v12.404h5.067v7.132h-5.067v26.564h-8.476V34.947h-4.34v-7.132h4.34V15.41z"/>
	<path fill="#002E6D" d="M300.594,15.41h8.476v12.404h5.064v7.132h-5.064v26.564h-8.476V34.947h-4.343v-7.132h4.343V15.41z"/>
	<path fill="#002E6D" d="M353.422,27.815h7.442v4.287c0.763-1.672,1.777-2.945,3.044-3.813c1.263-0.868,2.648-1.301,4.156-1.301
		c1.062,0,2.177,0.29,3.345,0.871l-2.584,7.313c-0.974-0.495-1.772-0.741-2.399-0.741c-1.277,0-2.355,0.804-3.238,2.409
		c-0.88,1.605-1.32,4.754-1.32,9.449l0.03,1.634v13.589h-8.476V27.815z"/>
	<path fill="#002E6D" d="M394.448,32.637l-5.234,5.308c-2.127-2.135-4.057-3.206-5.788-3.206c-0.952,0-1.696,0.201-2.23,0.6
		c-0.539,0.4-0.806,0.897-0.806,1.491c0,0.452,0.17,0.868,0.511,1.247c0.339,0.38,1.181,0.899,2.525,1.555l3.096,1.537
		c3.262,1.601,5.501,3.232,6.72,4.893c1.218,1.663,1.826,3.61,1.826,5.846c0,2.976-1.098,5.456-3.295,7.445
		c-2.196,1.99-5.139,2.985-8.83,2.985c-4.907,0-8.825-1.911-11.754-5.733l5.195-5.637c0.986,1.142,2.146,2.064,3.475,2.77
		c1.33,0.703,2.51,1.054,3.54,1.054c1.112,0,2.009-0.267,2.688-0.803c0.68-0.534,1.021-1.151,1.021-1.854
		c0-1.297-1.228-2.563-3.679-3.801l-2.843-1.422c-5.439-2.738-8.157-6.167-8.157-10.287c0-2.655,1.027-4.926,3.077-6.812
		c2.052-1.885,4.676-2.827,7.869-2.827c2.187,0,4.24,0.487,6.17,1.46C391.475,29.421,393.105,30.817,394.448,32.637z"/>
</g>
<g>
	<path fill="#002E6D" d="M104.43,92.641h-0.046c-0.742,1.183-2.204,1.717-3.595,1.717c-3.525,0-6.007-2.946-6.007-6.355
		c0-3.409,2.436-6.332,5.961-6.332c1.368,0,2.806,0.51,3.688,1.554v-8.512h4.221v19.25h-4.221V92.641z M99.142,88.025
		c0,1.508,0.997,2.667,2.714,2.667c1.716,0,2.713-1.159,2.713-2.667c0-1.461-0.998-2.69-2.713-2.69
		C100.139,85.335,99.142,86.564,99.142,88.025z"/>
	<path fill="#002E6D" d="M123.518,88.721h-8.883c0,1.716,0.904,2.644,2.644,2.644c0.905,0,1.554-0.302,2.018-1.09h4.059
		c-0.325,1.392-1.16,2.412-2.25,3.084c-1.09,0.672-2.435,0.998-3.804,0.998c-3.942,0-6.888-2.227-6.888-6.332
		c0-3.966,2.713-6.355,6.587-6.355c4.128,0,6.517,2.551,6.517,6.61V88.721z M119.598,86.286c-0.208-1.137-1.252-1.879-2.389-1.879
		c-1.229,0-2.25,0.649-2.505,1.879H119.598z"/>
	<path fill="#002E6D" d="M129.664,93.963h-4.221v-19.25h4.221V93.963z"/>
	<path fill="#002E6D" d="M136.923,77.496c0,1.299-1.066,2.366-2.365,2.366s-2.366-1.067-2.366-2.366s1.067-2.366,2.366-2.366
		S136.923,76.197,136.923,77.496z M136.668,93.963h-4.221V82.064h4.221V93.963z"/>
	<path fill="#002E6D" d="M145.295,88.165l2.83-6.1h4.731l-6.216,11.898h-2.69l-6.239-11.898h4.731L145.295,88.165z"/>
	<path fill="#002E6D" d="M166.123,88.721h-8.883c0,1.716,0.905,2.644,2.644,2.644c0.904,0,1.554-0.302,2.018-1.09h4.059
		c-0.325,1.392-1.16,2.412-2.25,3.084c-1.09,0.672-2.436,0.998-3.804,0.998c-3.943,0-6.889-2.227-6.889-6.332
		c0-3.966,2.714-6.355,6.587-6.355c4.128,0,6.518,2.551,6.518,6.61V88.721z M162.203,86.286c-0.209-1.137-1.252-1.879-2.389-1.879
		c-1.229,0-2.25,0.649-2.505,1.879H162.203z"/>
	<path fill="#002E6D" d="M172.269,84.013h0.046c0.812-1.461,2.203-2.11,3.85-2.11h0.812v4.059c-0.58-0.324-1.137-0.394-1.786-0.394
		c-2.343,0-2.922,1.554-2.922,3.595v4.801h-4.221V82.064h4.221V84.013z"/>
	<path fill="#002E6D" d="M183.03,77.496c0,1.299-1.066,2.366-2.365,2.366s-2.366-1.067-2.366-2.366s1.067-2.366,2.366-2.366
		S183.03,76.197,183.03,77.496z M182.775,93.963h-4.221V82.064h4.221V93.963z"/>
	<path fill="#002E6D" d="M189.779,83.596h0.046c0.974-1.438,2.157-1.925,3.804-1.925c3.201,0,4.476,2.018,4.476,4.94v7.353h-4.221
		v-5.798c0-1.136,0.186-3.131-1.902-3.131c-1.716,0-2.203,1.276-2.203,2.76v6.169h-4.221V82.064h4.221V83.596z"/>
	<path fill="#002E6D" d="M213.947,92.803c0,5.056-2.505,7.097-6.889,7.097c-2.737,0-6.401-1.415-6.772-4.546h4.731
		c0.116,0.417,0.417,0.719,0.789,0.904s0.812,0.278,1.206,0.278c2.273,0,2.713-1.484,2.713-3.409v-0.557
		c-1.09,1.09-2.203,1.624-3.78,1.624c-3.479,0-5.868-2.644-5.868-6.077c0-3.479,2.459-6.448,6.1-6.448
		c1.392,0,2.667,0.464,3.502,1.647h0.046v-1.253h4.222V92.803z M204.438,87.933c0,1.508,0.998,2.667,2.714,2.667
		s2.714-1.159,2.714-2.667c0-1.461-0.998-2.69-2.714-2.69S204.438,86.472,204.438,87.933z"/>
	<path fill="#002E6D" d="M228.628,83.41h0.047c0.765-1.183,2.203-1.74,3.595-1.74c3.548,0,6.007,2.969,6.007,6.378
		c0,3.433-2.436,6.309-5.961,6.309c-1.368,0-2.783-0.487-3.688-1.531V99.9h-4.221V82.064h4.221V83.41z M228.489,88.025
		c0,1.508,0.997,2.667,2.713,2.667c1.717,0,2.714-1.159,2.714-2.667c0-1.461-0.997-2.69-2.714-2.69
		C229.486,85.335,228.489,86.564,228.489,88.025z"/>
	<path fill="#002E6D" d="M252.586,88.721h-8.883c0,1.716,0.904,2.644,2.644,2.644c0.905,0,1.555-0.302,2.019-1.09h4.059
		c-0.325,1.392-1.159,2.412-2.25,3.084c-1.09,0.672-2.435,0.998-3.804,0.998c-3.942,0-6.889-2.227-6.889-6.332
		c0-3.966,2.714-6.355,6.588-6.355c4.128,0,6.517,2.551,6.517,6.61V88.721z M248.667,86.286c-0.209-1.137-1.253-1.879-2.39-1.879
		c-1.229,0-2.249,0.649-2.505,1.879H248.667z"/>
	<path fill="#002E6D" d="M267.522,93.963h-4.222v-1.322h-0.046c-0.742,1.183-2.203,1.717-3.596,1.717
		c-3.525,0-6.007-2.946-6.007-6.355c0-3.409,2.436-6.332,5.961-6.332c1.368,0,2.807,0.51,3.688,1.554v-1.16h4.222V93.963z
		 M258.013,88.025c0,1.508,0.998,2.667,2.714,2.667s2.714-1.159,2.714-2.667c0-1.461-0.998-2.69-2.714-2.69
		S258.013,86.564,258.013,88.025z"/>
	<path fill="#002E6D" d="M278.909,85.938c-0.626-0.464-1.368-0.835-2.18-0.835c-1.623,0-2.899,1.252-2.899,2.899
		c0,1.717,1.229,2.923,2.969,2.923c0.742,0,1.554-0.302,2.11-0.812v3.572c-0.928,0.464-1.947,0.673-2.969,0.673
		c-3.525,0-6.471-2.621-6.471-6.216c0-3.827,2.923-6.471,6.656-6.471c0.975,0,1.949,0.232,2.783,0.696V85.938z"/>
	<path fill="#002E6D" d="M293.753,88.721h-8.883c0,1.716,0.904,2.644,2.645,2.644c0.904,0,1.554-0.302,2.018-1.09h4.059
		c-0.324,1.392-1.16,2.412-2.25,3.084s-2.436,0.998-3.804,0.998c-3.942,0-6.888-2.227-6.888-6.332c0-3.966,2.713-6.355,6.586-6.355
		c4.129,0,6.518,2.551,6.518,6.61V88.721z M289.833,86.286c-0.208-1.137-1.252-1.879-2.389-1.879c-1.229,0-2.25,0.649-2.505,1.879
		H289.833z"/>
	<path fill="#002E6D" d="M317.085,88.025c0,4.036-3.34,6.332-7.167,6.332c-3.804,0-7.167-2.273-7.167-6.332s3.34-6.355,7.167-6.355
		S317.085,83.967,317.085,88.025z M307.204,88.025c0,1.508,0.998,2.667,2.714,2.667c1.717,0,2.714-1.159,2.714-2.667
		c0-1.461-0.997-2.69-2.714-2.69C308.202,85.335,307.204,86.564,307.204,88.025z"/>
	<path fill="#002E6D" d="M323.625,93.963h-4.222v-8.419h-1.484v-3.479h1.484v-1.507c0-1.647,0.047-2.853,1.207-4.175
		c1.043-1.229,2.551-1.902,4.151-1.902c0.649,0,1.229,0.116,1.809,0.417v3.641c-0.487-0.208-0.928-0.394-1.484-0.394
		c-1.09,0-1.461,0.649-1.461,1.995v1.925h2.945v3.479h-2.945V93.963z"/>
	<path fill="#002E6D" d="M340.161,83.549h0.047c0.997-1.322,2.227-1.878,3.758-1.878c1.716,0,3.2,0.696,4.059,2.273
		c0.812-1.484,2.412-2.273,4.035-2.273c3.016,0,4.059,1.971,4.059,4.708v7.584h-4.221V88.28c0-1.229,0.047-3.247-1.739-3.247
		c-1.948,0-2.019,1.833-2.019,3.247v5.683h-4.221V88.28c0-1.322,0-3.34-1.879-3.34s-1.879,2.018-1.879,3.34v5.683h-4.221V82.064
		h4.221V83.549z"/>
	<path fill="#002E6D" d="M363.355,77.496c0,1.299-1.067,2.366-2.366,2.366s-2.365-1.067-2.365-2.366s1.066-2.366,2.365-2.366
		S363.355,76.197,363.355,77.496z M363.101,93.963h-4.222V82.064h4.222V93.963z"/>
	<path fill="#002E6D" d="M370.105,83.596h0.046c0.974-1.438,2.157-1.925,3.804-1.925c3.201,0,4.477,2.018,4.477,4.94v7.353h-4.222
		v-5.798c0-1.136,0.186-3.131-1.901-3.131c-1.717,0-2.203,1.276-2.203,2.76v6.169h-4.222V82.064h4.222V83.596z"/>
	<path fill="#002E6D" d="M390.167,92.641h-0.047c-0.742,1.183-2.203,1.717-3.595,1.717c-3.525,0-6.007-2.946-6.007-6.355
		c0-3.409,2.435-6.332,5.96-6.332c1.368,0,2.807,0.51,3.688,1.554v-8.512h4.221v19.25h-4.221V92.641z M384.878,88.025
		c0,1.508,0.998,2.667,2.714,2.667c1.717,0,2.714-1.159,2.714-2.667c0-1.461-0.997-2.69-2.714-2.69
		C385.876,85.335,384.878,86.564,384.878,88.025z"/>
</g>
</svg>
