<?xml version="1.0" encoding="utf-8"?>
<!-- Generator: Adobe Illustrator 16.0.0, SVG Export Plug-In . SVG Version: 6.00 Build 0)  -->
<!DOCTYPE svg PUBLIC "-//W3C//DTD SVG 1.1//EN" "http://www.w3.org/Graphics/SVG/1.1/DTD/svg11.dtd">
<svg version="1.1" xmlns="http://www.w3.org/2000/svg" xmlns:xlink="http://www.w3.org/1999/xlink" x="0px" y="0px"
	 width="768.553px" height="194.548px" viewBox="0 0 768.553 194.548" enable-background="new 0 0 768.553 194.548"
	 xml:space="preserve">
<g id="BG" display="none">
	<rect id="ourstory_5_" display="inline" fill="#FFFFFF" width="769" height="195"/>
</g>
<g id="Symbols">
	<g>
		<g>
			<g>
				<path fill="#FE5000" d="M228.035,121.961c0-9.672,0-11.407-0.124-13.392c-0.124-2.107-0.62-3.1-2.666-3.533
					c-0.496-0.124-1.55-0.187-2.107-0.187c-0.248,0-0.496-0.124-0.496-0.372c0-0.372,0.31-0.496,0.992-0.496
					c2.79,0,6.571,0.187,7.129,0.187c0.559,0,4.278-0.187,6.138-0.187c0.683,0,0.992,0.124,0.992,0.496
					c0,0.248-0.248,0.372-0.496,0.372c-0.434,0-0.806,0.062-1.55,0.187c-1.674,0.247-2.17,1.363-2.294,3.533
					c-0.124,1.984-0.124,3.72-0.124,13.392v8.68c0,8.927,1.984,12.771,4.65,15.312c3.037,2.852,5.827,3.41,9.361,3.41
					c3.781,0,7.501-1.798,9.733-4.464c2.852-3.534,3.596-8.804,3.596-15.189v-7.749c0-9.672,0-11.407-0.124-13.392
					c-0.124-2.107-0.62-3.1-2.666-3.533c-0.496-0.124-1.55-0.187-2.107-0.187c-0.248,0-0.496-0.124-0.496-0.372
					c0-0.372,0.31-0.496,0.991-0.496c2.79,0,6.2,0.187,6.572,0.187c0.434,0,3.348-0.187,5.208-0.187
					c0.682,0,0.991,0.124,0.991,0.496c0,0.248-0.248,0.372-0.496,0.372c-0.434,0-0.806,0.062-1.55,0.187
					c-1.674,0.371-2.17,1.363-2.294,3.533c-0.124,1.984-0.124,3.72-0.124,13.392v6.634c0,6.695-0.743,14.135-5.703,18.536
					c-4.464,3.968-9.113,4.588-12.771,4.588c-2.107,0-8.369-0.248-12.771-4.401c-3.037-2.914-5.394-7.254-5.394-16.306V121.961z"/>
				<path fill="#FE5000" d="M294.746,142.42c0.124,5.083,0.744,6.695,2.418,7.191c1.178,0.31,2.542,0.372,3.1,0.372
					c0.311,0,0.496,0.124,0.496,0.372c0,0.371-0.372,0.495-1.115,0.495c-3.534,0-6.014-0.186-6.572-0.186
					c-0.558,0-3.161,0.186-5.951,0.186c-0.62,0-0.992-0.062-0.992-0.495c0-0.248,0.186-0.372,0.496-0.372
					c0.496,0,1.611-0.062,2.542-0.372c1.55-0.435,1.859-2.232,1.859-7.874l0.062-35.523c0-2.418,0.186-3.101,0.682-3.101
					s1.55,1.364,2.17,1.984c0.93,1.054,10.167,11.035,19.715,21.265c6.138,6.571,12.896,14.136,14.879,16.182l-0.682-31.495
					c-0.062-4.029-0.496-5.394-2.418-5.89c-1.116-0.247-2.542-0.31-3.038-0.31c-0.434,0-0.496-0.186-0.496-0.434
					c0-0.372,0.496-0.435,1.24-0.435c2.79,0,5.766,0.187,6.448,0.187c0.682,0,2.728-0.187,5.27-0.187
					c0.682,0,1.115,0.062,1.115,0.435c0,0.248-0.248,0.434-0.682,0.434c-0.31,0-0.744,0-1.488,0.187
					c-2.046,0.434-2.293,1.798-2.293,5.518l-0.124,36.329c0,4.092-0.124,4.402-0.559,4.402c-0.496,0-1.239-0.682-4.525-3.968
					c-0.682-0.62-9.609-9.733-16.182-16.801c-7.191-7.75-14.197-15.562-16.181-17.793L294.746,142.42z"/>
				<path fill="#FE5000" d="M366.976,132.872c0,5.951,0,10.85,0.31,13.453c0.187,1.798,0.559,3.162,2.418,3.41
					c0.868,0.124,2.232,0.248,2.79,0.248c0.372,0,0.496,0.186,0.496,0.372c0,0.31-0.311,0.495-0.992,0.495
					c-3.409,0-7.315-0.186-7.625-0.186c-0.311,0-4.216,0.186-6.076,0.186c-0.682,0-0.992-0.124-0.992-0.495
					c0-0.187,0.124-0.372,0.496-0.372c0.559,0,1.302-0.124,1.86-0.248c1.239-0.248,1.55-1.612,1.798-3.41
					c0.31-2.604,0.31-7.502,0.31-13.453v-10.911c0-9.672,0-11.407-0.124-13.392c-0.124-2.107-0.744-3.162-2.107-3.472
					c-0.683-0.186-1.488-0.248-1.922-0.248c-0.248,0-0.496-0.124-0.496-0.372c0-0.372,0.31-0.496,0.992-0.496
					c2.046,0,5.951,0.187,6.262,0.187c0.31,0,4.216-0.187,6.075-0.187c0.682,0,0.992,0.124,0.992,0.496
					c0,0.248-0.248,0.372-0.496,0.372c-0.434,0-0.806,0.062-1.55,0.187c-1.674,0.31-2.17,1.363-2.294,3.533
					c-0.124,1.984-0.124,3.72-0.124,13.392V132.872z"/>
				<path fill="#FE5000" d="M412.481,143.287c3.596-8.308,11.903-29.944,13.268-34.407c0.31-0.931,0.558-1.799,0.558-2.356
					c0-0.496-0.186-1.116-0.806-1.426c-0.744-0.248-1.674-0.248-2.355-0.248c-0.372,0-0.683-0.062-0.683-0.372
					c0-0.372,0.372-0.496,1.364-0.496c2.479,0,5.332,0.187,6.075,0.187c0.372,0,3.038-0.187,4.836-0.187
					c0.683,0,1.054,0.124,1.054,0.435c0,0.31-0.247,0.434-0.743,0.434c-0.435,0-1.798,0-2.977,0.744
					c-0.806,0.558-1.735,1.611-3.409,5.827c-0.683,1.736-3.782,9.176-6.944,16.802c-3.781,9.051-6.571,15.747-7.997,18.784
					c-1.736,3.72-1.983,4.712-2.604,4.712c-0.744,0-1.055-0.868-2.232-3.844l-15.188-38.004c-1.364-3.472-2.294-4.153-4.464-4.773
					c-0.931-0.248-1.984-0.248-2.356-0.248s-0.496-0.186-0.496-0.434c0-0.372,0.62-0.435,1.612-0.435
					c2.976,0,6.51,0.187,7.254,0.187c0.62,0,3.409-0.187,5.766-0.187c1.115,0,1.674,0.124,1.674,0.435
					c0,0.31-0.187,0.434-0.62,0.434c-0.682,0-1.798,0.062-2.355,0.31c-0.683,0.311-0.807,0.807-0.807,1.24
					c0,0.806,0.744,2.728,1.674,5.146L412.481,143.287z"/>
				<path fill="#FE5000" d="M455.014,121.961c0-9.672,0-11.407-0.124-13.392c-0.124-2.107-0.62-3.1-2.666-3.533
					c-0.495-0.124-1.55-0.187-2.107-0.187c-0.248,0-0.496-0.124-0.496-0.372c0-0.372,0.31-0.496,0.992-0.496
					c1.426,0,3.1,0,4.464,0.062l2.542,0.124c0.434,0,12.771,0,14.196-0.062c1.179-0.062,2.17-0.186,2.666-0.31
					c0.311-0.062,0.559-0.311,0.868-0.311c0.187,0,0.248,0.248,0.248,0.559c0,0.434-0.31,1.178-0.496,2.914
					c-0.062,0.619-0.186,3.348-0.31,4.091c-0.062,0.311-0.187,0.683-0.435,0.683c-0.372,0-0.496-0.311-0.496-0.806
					c0-0.435-0.062-1.488-0.371-2.232c-0.435-0.992-1.055-1.735-4.402-2.107c-1.054-0.124-7.812-0.187-8.493-0.187
					c-0.248,0-0.372,0.187-0.372,0.62v17.111c0,0.434,0.062,0.62,0.372,0.62c0.806,0,8.432,0,9.857-0.124
					c1.487-0.124,2.355-0.248,2.914-0.868c0.434-0.496,0.682-0.807,0.93-0.807c0.186,0,0.31,0.124,0.31,0.496
					s-0.31,1.426-0.496,3.472c-0.124,1.24-0.248,3.534-0.248,3.968c0,0.496,0,1.179-0.434,1.179c-0.31,0-0.434-0.248-0.434-0.559
					c0-0.62,0-1.239-0.248-2.046c-0.248-0.867-0.807-1.922-3.224-2.17c-1.675-0.186-7.812-0.31-8.866-0.31
					c-0.31,0-0.434,0.186-0.434,0.434v5.456c0,2.107-0.062,9.3,0,10.602c0.186,4.277,1.116,5.084,7.191,5.084
					c1.612,0,4.34,0,5.952-0.683c1.611-0.682,2.355-1.922,2.789-4.464c0.124-0.682,0.248-0.93,0.559-0.93
					c0.372,0,0.372,0.496,0.372,0.93c0,0.496-0.496,4.712-0.807,6.014c-0.434,1.612-0.93,1.612-3.348,1.612
					c-4.649,0-8.06-0.124-10.478-0.187c-2.418-0.124-3.905-0.186-4.835-0.186c-0.124,0-1.179,0-2.48,0.062
					c-1.239,0-2.666,0.124-3.596,0.124c-0.682,0-0.992-0.124-0.992-0.495c0-0.187,0.124-0.372,0.496-0.372
					c0.559,0,1.302-0.124,1.86-0.248c1.239-0.248,1.55-1.612,1.798-3.41c0.31-2.604,0.31-7.502,0.31-13.453V121.961z"/>
				<path fill="#FE5000" d="M502.815,121.961c0-9.672,0-11.407-0.124-13.392c-0.124-2.107-0.62-3.1-2.666-3.533
					c-0.495-0.124-1.55-0.187-2.107-0.187c-0.248,0-0.496-0.124-0.496-0.372c0-0.372,0.311-0.496,0.992-0.496
					c2.79,0,6.695,0.187,7.006,0.187c0.682,0,5.394-0.187,7.315-0.187c3.905,0,8.06,0.372,11.345,2.729
					c1.55,1.115,4.278,4.153,4.278,8.431c0,4.588-1.922,9.176-7.502,14.321c5.084,6.51,9.3,12.027,12.896,15.871
					c3.348,3.534,6.014,4.216,7.563,4.464c1.178,0.187,2.046,0.187,2.418,0.187c0.31,0,0.558,0.186,0.558,0.372
					c0,0.371-0.372,0.495-1.487,0.495h-4.402c-3.472,0-5.021-0.31-6.634-1.178c-2.665-1.426-4.835-4.464-8.369-9.113
					c-2.604-3.41-5.518-7.563-6.758-9.176c-0.248-0.248-0.434-0.372-0.806-0.372l-7.626-0.124c-0.31,0-0.434,0.187-0.434,0.496
					v1.488c0,5.951,0,10.85,0.31,13.453c0.187,1.798,0.559,3.162,2.418,3.41c0.868,0.124,2.232,0.248,2.79,0.248
					c0.372,0,0.496,0.186,0.496,0.372c0,0.31-0.31,0.495-0.992,0.495c-3.409,0-7.315-0.186-7.625-0.186
					c-0.062,0-3.968,0.186-5.828,0.186c-0.682,0-0.992-0.124-0.992-0.495c0-0.187,0.124-0.372,0.496-0.372
					c0.559,0,1.302-0.124,1.86-0.248c1.239-0.248,1.55-1.612,1.798-3.41c0.31-2.604,0.31-7.502,0.31-13.453V121.961z
					 M507.775,127.354c0,0.31,0.124,0.558,0.434,0.744c0.931,0.558,3.782,0.991,6.51,0.991c1.488,0,3.224-0.186,4.65-1.178
					c2.17-1.487,3.781-4.836,3.781-9.547c0-7.75-4.092-12.399-10.726-12.399c-1.859,0-3.533,0.186-4.153,0.372
					c-0.311,0.124-0.496,0.372-0.496,0.743V127.354z"/>
				<path fill="#FE5000" d="M554.958,150.045c-0.868-0.434-0.93-0.682-0.93-2.355c0-3.1,0.248-5.58,0.31-6.572
					c0.062-0.682,0.187-0.991,0.496-0.991c0.372,0,0.435,0.186,0.435,0.682c0,0.558,0,1.426,0.186,2.294
					c0.93,4.588,5.021,6.323,9.176,6.323c5.951,0,8.865-4.277,8.865-8.245c0-4.278-1.798-6.758-7.13-11.159l-2.789-2.294
					c-6.572-5.394-8.06-9.237-8.06-13.453c0-6.634,4.959-11.16,12.833-11.16c2.418,0,4.216,0.248,5.766,0.62
					c1.178,0.248,1.674,0.311,2.17,0.311s0.62,0.124,0.62,0.434c0,0.311-0.248,2.356-0.248,6.571c0,0.992-0.124,1.427-0.435,1.427
					c-0.372,0-0.434-0.311-0.496-0.807c-0.062-0.743-0.434-2.418-0.806-3.1s-2.046-3.286-7.749-3.286
					c-4.278,0-7.626,2.666-7.626,7.192c0,3.533,1.612,5.766,7.563,10.415l1.736,1.364c7.315,5.766,9.051,9.609,9.051,14.568
					c0,2.542-0.991,7.254-5.27,10.292c-2.666,1.859-6.014,2.604-9.361,2.604C560.352,151.719,557.5,151.285,554.958,150.045z"/>
				<path fill="#FE5000" d="M609.455,132.872c0,5.951,0,10.85,0.31,13.453c0.187,1.798,0.559,3.162,2.418,3.41
					c0.868,0.124,2.232,0.248,2.79,0.248c0.372,0,0.496,0.186,0.496,0.372c0,0.31-0.311,0.495-0.992,0.495
					c-3.41,0-7.315-0.186-7.625-0.186c-0.311,0-4.216,0.186-6.076,0.186c-0.682,0-0.992-0.124-0.992-0.495
					c0-0.187,0.124-0.372,0.496-0.372c0.559,0,1.302-0.124,1.86-0.248c1.239-0.248,1.55-1.612,1.798-3.41
					c0.31-2.604,0.31-7.502,0.31-13.453v-10.911c0-9.672,0-11.407-0.124-13.392c-0.124-2.107-0.744-3.162-2.107-3.472
					c-0.683-0.186-1.488-0.248-1.922-0.248c-0.248,0-0.496-0.124-0.496-0.372c0-0.372,0.31-0.496,0.992-0.496
					c2.046,0,5.951,0.187,6.262,0.187c0.31,0,4.215-0.187,6.075-0.187c0.682,0,0.992,0.124,0.992,0.496
					c0,0.248-0.248,0.372-0.496,0.372c-0.434,0-0.806,0.062-1.55,0.187c-1.674,0.31-2.17,1.363-2.294,3.533
					c-0.124,1.984-0.124,3.72-0.124,13.392V132.872z"/>
				<path fill="#FE5000" d="M654.713,132.872c0,5.951,0,10.85,0.311,13.453c0.186,1.798,0.558,3.162,2.418,3.41
					c0.867,0.124,2.231,0.248,2.789,0.248c0.372,0,0.496,0.186,0.496,0.372c0,0.31-0.31,0.495-0.991,0.495
					c-3.41,0-7.316-0.186-7.626-0.186s-4.216,0.186-6.075,0.186c-0.683,0-0.992-0.124-0.992-0.495c0-0.187,0.124-0.372,0.496-0.372
					c0.558,0,1.302-0.124,1.859-0.248c1.24-0.248,1.55-1.612,1.798-3.41c0.311-2.604,0.311-7.502,0.311-13.453v-26.225l-9.176,0.124
					c-3.844,0.062-5.332,0.496-6.323,1.984c-0.683,1.054-0.868,1.487-1.055,1.922c-0.186,0.495-0.372,0.619-0.619,0.619
					c-0.187,0-0.311-0.186-0.311-0.558c0-0.62,1.24-5.951,1.364-6.447c0.124-0.372,0.372-1.179,0.62-1.179
					c0.434,0,1.054,0.62,2.728,0.744c1.798,0.187,4.153,0.311,4.897,0.311h23.249c1.983,0,3.409-0.124,4.401-0.311
					c0.93-0.124,1.488-0.31,1.736-0.31c0.31,0,0.31,0.372,0.31,0.744c0,1.859-0.186,6.138-0.186,6.819
					c0,0.558-0.187,0.806-0.435,0.806c-0.31,0-0.434-0.186-0.496-1.054l-0.062-0.682c-0.186-1.86-1.674-3.286-7.626-3.41
					l-7.812-0.124V132.872z"/>
				<path fill="#FE5000" d="M702.577,134.794c0-3.348-0.62-4.712-1.426-6.51c-0.435-0.992-8.741-14.631-10.911-17.854
					c-1.551-2.294-3.101-3.844-4.216-4.588c-0.931-0.62-2.108-0.992-2.666-0.992c-0.311,0-0.62-0.124-0.62-0.434
					c0-0.248,0.248-0.435,0.806-0.435c1.178,0,5.828,0.187,6.138,0.187c0.435,0,2.79-0.187,5.208-0.187
					c0.682,0,0.806,0.187,0.806,0.435s-0.372,0.31-0.93,0.558c-0.496,0.248-0.806,0.62-0.806,1.116c0,0.744,0.31,1.487,0.806,2.418
					c0.992,1.798,10.291,17.793,11.407,19.591c1.178-2.604,9.052-16.182,10.291-18.228c0.807-1.302,1.055-2.355,1.055-3.161
					c0-0.868-0.248-1.551-0.992-1.736c-0.558-0.186-0.93-0.31-0.93-0.62c0-0.248,0.372-0.372,0.991-0.372
					c1.612,0,3.597,0.187,4.092,0.187c0.372,0,4.836-0.187,6.014-0.187c0.435,0,0.807,0.124,0.807,0.372
					c0,0.311-0.311,0.496-0.807,0.496c-0.682,0-1.859,0.248-2.852,0.868c-1.24,0.744-1.922,1.487-3.286,3.162
					c-2.046,2.479-10.725,17.049-11.841,19.715c-0.93,2.231-0.93,4.153-0.93,6.199v5.332c0,0.991,0,3.596,0.186,6.199
					c0.124,1.798,0.682,3.162,2.542,3.41c0.868,0.124,2.231,0.248,2.79,0.248c0.372,0,0.496,0.186,0.496,0.372
					c0,0.31-0.311,0.495-0.992,0.495c-3.41,0-7.315-0.186-7.626-0.186c-0.31,0-4.216,0.186-6.075,0.186
					c-0.682,0-0.992-0.124-0.992-0.495c0-0.187,0.124-0.372,0.496-0.372c0.558,0,1.302-0.124,1.86-0.248
					c1.239-0.248,1.798-1.612,1.922-3.41c0.186-2.604,0.186-5.208,0.186-6.199V134.794z"/>
			</g>
			<g>
				<path fill="#002F6C" d="M236.896,65.938c0,8.576,0,13.199,1.407,14.405c1.139,1.005,2.881,1.475,8.107,1.475
					c3.551,0,6.164-0.067,7.839-1.877c0.804-0.87,1.608-2.747,1.742-4.02c0.066-0.604,0.201-1.005,0.736-1.005
					c0.47,0,0.536,0.335,0.536,1.139c0,0.737-0.469,5.763-1.005,7.705c-0.401,1.475-0.736,1.81-4.221,1.81
					c-4.824,0-8.309-0.135-11.323-0.201c-3.016-0.134-5.428-0.201-8.175-0.201c-0.736,0-2.211,0-3.818,0.067
					c-1.541,0-3.283,0.134-4.623,0.134c-0.871,0-1.34-0.201-1.34-0.67c0-0.335,0.268-0.536,1.071-0.536
					c1.005,0,1.81-0.134,2.412-0.269c1.34-0.268,1.675-1.741,1.943-3.685c0.335-2.814,0.335-8.107,0.335-14.271V54.146
					c0-10.185,0-12.061-0.134-14.204c-0.134-2.278-0.67-3.351-2.881-3.819c-0.536-0.134-1.341-0.201-2.212-0.201
					c-0.736,0-1.139-0.134-1.139-0.603c0-0.47,0.469-0.604,1.474-0.604c3.149,0,7.37,0.201,9.18,0.201
					c1.608,0,6.499-0.201,9.112-0.201c0.938,0,1.407,0.134,1.407,0.604c0,0.469-0.402,0.603-1.206,0.603
					c-0.737,0-1.81,0.067-2.613,0.201c-1.81,0.335-2.345,1.474-2.479,3.819c-0.134,2.144-0.134,4.02-0.134,14.204V65.938z"/>
				<path fill="#002F6C" d="M270.731,54.146c0-10.185,0-12.061-0.134-14.204c-0.135-2.278-0.805-3.417-2.278-3.752
					c-0.737-0.201-1.608-0.269-2.412-0.269c-0.67,0-1.072-0.134-1.072-0.67c0-0.402,0.536-0.536,1.608-0.536
					c2.546,0,6.767,0.201,8.71,0.201c1.675,0,5.628-0.201,8.175-0.201c0.87,0,1.406,0.134,1.406,0.536
					c0,0.536-0.401,0.67-1.071,0.67c-0.671,0-1.206,0.067-2.011,0.201c-1.809,0.335-2.345,1.474-2.479,3.819
					c-0.135,2.144-0.135,4.02-0.135,14.204v11.792c0,6.499,0,11.792,0.269,14.674c0.201,1.809,0.67,3.015,2.68,3.282
					c0.938,0.135,2.412,0.269,3.417,0.269c0.737,0,1.072,0.201,1.072,0.536c0,0.469-0.536,0.67-1.272,0.67
					c-4.423,0-8.644-0.201-10.452-0.201c-1.542,0-5.763,0.201-8.442,0.201c-0.871,0-1.34-0.201-1.34-0.67
					c0-0.335,0.268-0.536,1.071-0.536c1.005,0,1.81-0.134,2.412-0.269c1.34-0.268,1.742-1.406,1.943-3.35
					c0.335-2.814,0.335-8.107,0.335-14.606V54.146z"/>
				<path fill="#002F6C" d="M311.132,65.938c0,6.433,0,11.457,0.335,14.271c0.201,1.943,0.603,3.417,2.613,3.685
					c0.938,0.135,2.411,0.269,3.35,0.269c0.871,0,1.139,0.201,1.139,0.536c0,0.469-0.469,0.67-1.474,0.67
					c-4.221,0-8.442-0.201-10.185-0.201s-5.963,0.201-8.509,0.201c-0.938,0-1.407-0.134-1.407-0.67c0-0.335,0.269-0.536,1.005-0.536
					c1.005,0,1.81-0.134,2.412-0.269c1.34-0.268,1.675-1.741,1.943-3.685c0.335-2.814,0.335-7.839,0.335-14.271V54.146
					c0-10.185,0-12.061-0.134-14.204c-0.134-2.278-0.67-3.351-2.881-3.819c-0.536-0.134-1.676-0.201-2.613-0.201
					c-0.67,0-1.14-0.134-1.14-0.536c0-0.536,0.536-0.67,1.541-0.67c1.742,0,3.686,0.067,5.428,0.067
					c1.742,0.066,3.283,0.134,4.221,0.134c2.546,0,16.147,0,17.688-0.067c1.273-0.066,2.077-0.066,2.747-0.268
					c0.402-0.134,0.737-0.402,1.072-0.402c0.268,0,0.469,0.269,0.469,0.604c0,0.469-0.335,1.272-0.536,3.015
					c-0.066,0.67-0.201,4.623-0.335,5.428c-0.066,0.535-0.201,0.938-0.67,0.938s-0.603-0.335-0.67-1.072
					c0-0.536,0-1.607-0.402-2.546c-0.469-0.938-1.876-1.943-4.422-2.01l-10.318-0.201c-0.401,0-0.603,0.201-0.603,0.938v16.75
					c0,0.402,0.066,0.603,0.469,0.603l8.576-0.066c1.139,0,2.077,0,3.015-0.067c1.273-0.066,2.212-0.335,2.882-1.206
					c0.335-0.401,0.469-0.67,0.871-0.67c0.268,0,0.401,0.201,0.401,0.604c0,0.401-0.335,2.076-0.536,4.153
					c-0.134,1.341-0.268,4.423-0.268,4.892c0,0.603,0,1.272-0.67,1.272c-0.402,0-0.536-0.469-0.536-0.938s-0.134-1.273-0.402-2.077
					c-0.335-0.938-1.34-2.144-3.417-2.412c-1.675-0.201-8.777-0.201-9.916-0.201c-0.335,0-0.469,0.134-0.469,0.604V65.938z"/>
				<path fill="#002F6C" d="M346.038,54.146c0-10.185,0-12.061-0.134-14.204c-0.135-2.278-0.67-3.351-2.881-3.819
					c-0.536-0.134-1.676-0.201-2.613-0.201c-0.737,0-1.14-0.134-1.14-0.603c0-0.47,0.47-0.604,1.475-0.604
					c1.809,0,3.752,0.067,5.427,0.067c1.742,0.066,3.283,0.134,4.222,0.134c2.144,0,15.477,0,16.75-0.067
					c1.272-0.134,2.345-0.268,2.881-0.401c0.335-0.067,0.737-0.269,1.072-0.269s0.401,0.269,0.401,0.604
					c0,0.469-0.335,1.272-0.535,4.354c-0.067,0.67-0.201,3.618-0.335,4.423c-0.067,0.335-0.201,0.736-0.671,0.736
					c-0.469,0-0.603-0.335-0.603-0.938c0-0.47-0.067-1.608-0.402-2.412c-0.469-1.206-1.139-2.01-4.488-2.412
					c-1.14-0.134-8.175-0.269-9.515-0.269c-0.335,0-0.469,0.201-0.469,0.671v16.951c0,0.469,0.066,0.736,0.469,0.736
					c1.474,0,9.179,0,10.72-0.134c1.608-0.134,2.613-0.335,3.217-1.005c0.469-0.536,0.736-0.871,1.071-0.871
					c0.269,0,0.47,0.134,0.47,0.536s-0.269,1.474-0.536,4.891c-0.067,1.341-0.269,4.021-0.269,4.489c0,0.536,0,1.273-0.603,1.273
					c-0.469,0-0.604-0.269-0.604-0.604c-0.066-0.67-0.066-1.541-0.268-2.412c-0.335-1.34-1.273-2.345-3.752-2.612
					c-1.273-0.135-7.906-0.201-9.515-0.201c-0.335,0-0.401,0.268-0.401,0.67v5.293c0,2.278-0.067,8.442,0,10.386
					c0.134,4.623,1.206,5.628,8.04,5.628c1.742,0,4.556,0,6.298-0.805c1.742-0.804,2.546-2.211,3.016-4.958
					c0.134-0.736,0.268-1.005,0.736-1.005c0.536,0,0.536,0.536,0.536,1.206c0,1.541-0.536,6.098-0.871,7.438
					c-0.469,1.742-1.072,1.742-3.618,1.742c-5.024,0-8.71-0.135-11.591-0.201c-2.881-0.134-4.958-0.201-6.968-0.201
					c-0.737,0-2.212,0-3.819,0.067c-1.541,0-3.283,0.134-4.623,0.134c-0.871,0-1.34-0.201-1.34-0.67
					c0-0.335,0.268-0.536,1.071-0.536c1.005,0,1.81-0.134,2.412-0.269c1.34-0.268,1.675-1.741,1.943-3.685
					c0.335-2.814,0.335-8.107,0.335-14.271V54.146z"/>
				<path fill="#002F6C" d="M392.535,34.984c0.201-1.14,0.604-1.742,1.14-1.742s0.938,0.335,1.809,2.077l18.292,37.788
					l18.224-38.258c0.536-1.071,0.871-1.607,1.475-1.607c0.603,0,1.005,0.67,1.206,2.077l6.097,41.406
					c0.604,4.222,1.273,6.164,3.283,6.768c1.943,0.603,3.283,0.67,4.154,0.67c0.603,0,1.072,0.066,1.072,0.469
					c0,0.536-0.805,0.737-1.742,0.737c-1.675,0-10.922-0.201-13.602-0.402c-1.541-0.134-1.943-0.335-1.943-0.737
					c0-0.335,0.269-0.535,0.737-0.736c0.402-0.134,0.604-1.005,0.335-2.881l-4.02-29.481h-0.269L414.177,81.55
					c-1.541,3.149-1.876,3.752-2.479,3.752c-0.604,0-1.273-1.34-2.346-3.35c-1.607-3.082-6.9-13.334-7.705-15.21
					c-0.603-1.406-4.623-9.849-6.968-14.874h-0.268l-3.484,26.667c-0.134,1.206-0.201,2.077-0.201,3.148
					c0,1.273,0.871,1.876,2.01,2.145c1.206,0.268,2.145,0.335,2.814,0.335c0.536,0,1.005,0.134,1.005,0.469
					c0,0.604-0.603,0.737-1.608,0.737c-2.813,0-5.829-0.201-7.035-0.201c-1.272,0-4.488,0.201-6.633,0.201
					c-0.67,0-1.206-0.134-1.206-0.737c0-0.335,0.402-0.469,1.072-0.469c0.536,0,1.005,0,2.01-0.201
					c1.876-0.402,2.412-3.015,2.747-5.293L392.535,34.984z"/>
				<path fill="#002F6C" d="M464.962,67.882c-0.335,0-0.469,0.134-0.603,0.536l-3.618,9.581c-0.67,1.675-1.005,3.283-1.005,4.087
					c0,1.206,0.603,2.077,2.68,2.077h1.005c0.805,0,1.005,0.134,1.005,0.536c0,0.536-0.401,0.67-1.139,0.67
					c-2.144,0-5.025-0.201-7.103-0.201c-0.736,0-4.422,0.201-7.905,0.201c-0.871,0-1.273-0.134-1.273-0.67
					c0-0.402,0.268-0.536,0.804-0.536c0.604,0,1.541-0.067,2.077-0.134c3.082-0.402,4.355-2.681,5.695-6.03l16.817-42.077
					c0.804-1.943,1.206-2.68,1.876-2.68c0.604,0,1.005,0.603,1.675,2.144c1.608,3.686,12.328,31.021,16.616,41.206
					c2.547,6.03,4.489,6.968,5.896,7.303c1.005,0.201,2.01,0.269,2.814,0.269c0.535,0,0.871,0.066,0.871,0.536
					c0,0.536-0.604,0.67-3.083,0.67c-2.411,0-7.303,0-12.663-0.134c-1.206-0.067-2.01-0.067-2.01-0.536
					c0-0.402,0.268-0.536,0.938-0.604c0.469-0.134,0.938-0.736,0.603-1.541l-5.36-14.204c-0.134-0.335-0.335-0.469-0.67-0.469
					H464.962z M478.631,64.531c0.335,0,0.401-0.201,0.335-0.401l-6.03-16.55c-0.067-0.268-0.134-0.603-0.335-0.603
					s-0.335,0.335-0.402,0.603l-6.164,16.482c-0.067,0.268,0,0.469,0.269,0.469H478.631z"/>
				<path fill="#002F6C" d="M515.414,38.468l-9.983,0.269c-3.886,0.134-5.494,0.469-6.499,1.942c-0.67,1.006-1.005,1.81-1.139,2.346
					c-0.135,0.536-0.335,0.804-0.737,0.804c-0.469,0-0.603-0.335-0.603-1.072c0-1.071,1.272-7.169,1.406-7.705
					c0.201-0.871,0.402-1.272,0.805-1.272c0.536,0,1.206,0.67,2.881,0.804c1.943,0.201,4.489,0.335,6.7,0.335h26.532
					c2.145,0,3.618-0.201,4.623-0.335c1.005-0.201,1.541-0.335,1.81-0.335c0.469,0,0.535,0.402,0.535,1.407
					c0,1.406-0.2,6.03-0.2,7.771c-0.067,0.67-0.201,1.072-0.604,1.072c-0.536,0-0.67-0.335-0.737-1.34l-0.066-0.737
					c-0.134-1.742-1.943-3.618-7.906-3.752l-8.442-0.201v27.471c0,6.164,0,11.457,0.335,14.339c0.201,1.876,0.604,3.35,2.613,3.617
					c0.938,0.135,2.412,0.269,3.417,0.269c0.737,0,1.072,0.201,1.072,0.536c0,0.469-0.536,0.67-1.273,0.67
					c-4.422,0-8.643-0.201-10.519-0.201c-1.541,0-5.763,0.201-8.442,0.201c-0.871,0-1.34-0.201-1.34-0.67
					c0-0.335,0.268-0.536,1.071-0.536c1.005,0,1.81-0.134,2.412-0.269c1.34-0.268,1.742-1.741,1.943-3.685
					c0.335-2.814,0.335-8.107,0.335-14.271V38.468z"/>
				<path fill="#002F6C" d="M564.658,38.468l-9.983,0.269c-3.886,0.134-5.494,0.469-6.499,1.942c-0.67,1.006-1.005,1.81-1.139,2.346
					c-0.135,0.536-0.335,0.804-0.737,0.804c-0.469,0-0.603-0.335-0.603-1.072c0-1.071,1.272-7.169,1.406-7.705
					c0.201-0.871,0.402-1.272,0.805-1.272c0.536,0,1.206,0.67,2.881,0.804c1.943,0.201,4.489,0.335,6.7,0.335h26.532
					c2.145,0,3.618-0.201,4.623-0.335c1.005-0.201,1.541-0.335,1.81-0.335c0.469,0,0.535,0.402,0.535,1.407
					c0,1.406-0.2,6.03-0.2,7.771c-0.067,0.67-0.201,1.072-0.604,1.072c-0.536,0-0.67-0.335-0.737-1.34l-0.066-0.737
					c-0.134-1.742-1.943-3.618-7.906-3.752l-8.442-0.201v27.471c0,6.164,0,11.457,0.335,14.339c0.201,1.876,0.604,3.35,2.613,3.617
					c0.938,0.135,2.412,0.269,3.417,0.269c0.737,0,1.072,0.201,1.072,0.536c0,0.469-0.536,0.67-1.273,0.67
					c-4.422,0-8.643-0.201-10.519-0.201c-1.541,0-5.763,0.201-8.442,0.201c-0.871,0-1.34-0.201-1.34-0.67
					c0-0.335,0.268-0.536,1.071-0.536c1.005,0,1.81-0.134,2.412-0.269c1.34-0.268,1.742-1.741,1.943-3.685
					c0.335-2.814,0.335-8.107,0.335-14.271V38.468z"/>
				<path fill="#002F6C" d="M604.992,54.146c0-10.185,0-12.061-0.134-14.204c-0.134-2.278-0.67-3.351-2.881-3.819
					c-0.536-0.134-1.676-0.201-2.613-0.201c-0.737,0-1.14-0.134-1.14-0.603c0-0.47,0.47-0.604,1.475-0.604
					c1.809,0,3.752,0.067,5.427,0.067c1.742,0.066,3.283,0.134,4.222,0.134c2.144,0,15.477,0,16.75-0.067
					c1.272-0.134,2.345-0.268,2.881-0.401c0.335-0.067,0.737-0.269,1.072-0.269s0.402,0.269,0.402,0.604
					c0,0.469-0.336,1.272-0.536,4.354c-0.067,0.67-0.201,3.618-0.335,4.423c-0.067,0.335-0.201,0.736-0.671,0.736
					c-0.469,0-0.603-0.335-0.603-0.938c0-0.47-0.067-1.608-0.402-2.412c-0.469-1.206-1.139-2.01-4.488-2.412
					c-1.14-0.134-8.175-0.269-9.515-0.269c-0.335,0-0.469,0.201-0.469,0.671v16.951c0,0.469,0.066,0.736,0.469,0.736
					c1.474,0,9.179,0,10.72-0.134c1.608-0.134,2.613-0.335,3.217-1.005c0.469-0.536,0.736-0.871,1.071-0.871
					c0.269,0,0.47,0.134,0.47,0.536s-0.269,1.474-0.536,4.891c-0.067,1.341-0.269,4.021-0.269,4.489c0,0.536,0,1.273-0.603,1.273
					c-0.469,0-0.604-0.269-0.604-0.604c-0.066-0.67-0.066-1.541-0.268-2.412c-0.335-1.34-1.273-2.345-3.752-2.612
					c-1.273-0.135-7.906-0.201-9.515-0.201c-0.335,0-0.401,0.268-0.401,0.67v5.293c0,2.278-0.067,8.442,0,10.386
					c0.134,4.623,1.206,5.628,8.04,5.628c1.742,0,4.556,0,6.298-0.805c1.742-0.804,2.546-2.211,3.016-4.958
					c0.134-0.736,0.268-1.005,0.736-1.005c0.536,0,0.536,0.536,0.536,1.206c0,1.541-0.536,6.098-0.871,7.438
					c-0.469,1.742-1.072,1.742-3.618,1.742c-5.024,0-8.71-0.135-11.591-0.201c-2.881-0.134-4.958-0.201-6.969-0.201
					c-0.736,0-2.211,0-3.818,0.067c-1.541,0-3.283,0.134-4.623,0.134c-0.871,0-1.34-0.201-1.34-0.67
					c0-0.335,0.268-0.536,1.071-0.536c1.005,0,1.81-0.134,2.412-0.269c1.34-0.268,1.675-1.741,1.943-3.685
					c0.335-2.814,0.335-8.107,0.335-14.271V54.146z"/>
				<path fill="#002F6C" d="M649.01,54.146c0-10.185,0-12.061-0.134-14.204c-0.134-2.278-0.67-3.351-2.881-3.819
					c-0.536-0.134-1.676-0.201-2.613-0.201c-0.737,0-1.14-0.134-1.14-0.603c0-0.47,0.47-0.604,1.475-0.604
					c3.551,0,7.771,0.201,9.179,0.201c2.278,0,7.37-0.201,9.447-0.201c4.222,0,8.71,0.402,12.328,2.881
					c1.876,1.273,4.557,4.69,4.557,9.18c0,4.958-2.077,9.514-8.845,15.008c5.964,7.505,10.587,13.468,14.54,17.622
					c3.752,3.886,6.499,4.354,7.504,4.556c0.737,0.134,1.34,0.201,1.876,0.201s0.804,0.201,0.804,0.536
					c0,0.536-0.469,0.67-1.272,0.67h-6.365c-3.752,0-5.428-0.335-7.169-1.273c-2.882-1.541-5.428-4.689-9.18-9.849
					c-2.68-3.686-5.762-8.241-6.633-9.246c-0.335-0.402-0.737-0.47-1.206-0.47l-5.829-0.134c-0.335,0-0.536,0.134-0.536,0.536v0.938
					c0,6.231,0,11.524,0.335,14.339c0.201,1.943,0.603,3.417,2.613,3.685c1.005,0.135,2.479,0.269,3.283,0.269
					c0.535,0,0.804,0.201,0.804,0.536c0,0.469-0.469,0.67-1.34,0.67c-3.887,0-8.845-0.201-9.85-0.201
					c-1.273,0-5.494,0.201-8.174,0.201c-0.871,0-1.34-0.201-1.34-0.67c0-0.335,0.268-0.536,1.071-0.536
					c1.005,0,1.81-0.134,2.412-0.269c1.34-0.268,1.675-1.741,1.943-3.685c0.335-2.814,0.335-8.107,0.335-14.271V54.146z
					 M656.916,59.439c0,0.737,0.134,1.005,0.603,1.206c1.407,0.469,3.417,0.67,5.093,0.67c2.68,0,3.551-0.268,4.757-1.139
					c2.01-1.475,3.953-4.557,3.953-10.051c0-9.514-6.298-12.261-10.251-12.261c-1.676,0-2.882,0.066-3.552,0.268
					c-0.469,0.134-0.603,0.402-0.603,0.938V59.439z"/>
				<path fill="#002F6C" d="M696.579,84.565c-1.071-0.47-1.272-0.805-1.272-2.278c0-3.686,0.268-7.705,0.335-8.777
					c0.067-1.005,0.268-1.742,0.804-1.742c0.604,0,0.67,0.604,0.67,1.139c0,0.871,0.269,2.278,0.604,3.418
					c1.474,4.958,5.427,6.767,9.581,6.767c6.03,0,8.979-4.087,8.979-7.638c0-3.283-1.006-6.365-6.566-10.721l-3.082-2.412
					c-7.37-5.762-9.916-10.452-9.916-15.879c0-7.37,6.164-12.663,15.477-12.663c4.355,0,7.17,0.67,8.911,1.139
					c0.604,0.134,0.938,0.335,0.938,0.804c0,0.871-0.268,2.814-0.268,8.04c0,1.475-0.201,2.011-0.737,2.011
					c-0.469,0-0.67-0.402-0.67-1.206c0-0.604-0.335-2.681-1.742-4.423c-1.005-1.272-2.948-3.282-7.304-3.282
					c-4.958,0-7.973,2.881-7.973,6.9c0,3.082,1.541,5.428,7.103,9.648l1.876,1.407c8.106,6.097,10.988,10.72,10.988,17.085
					c0,3.887-1.475,8.51-6.299,11.658c-3.35,2.145-7.102,2.747-10.653,2.747C702.476,86.307,699.461,85.838,696.579,84.565z"/>
			</g>
		</g>
		<g>
			<g>
				<g>
					<path fill="#4967A9" d="M118.306,181.218c0,0-9.311-11.231-31.034-14.88c-21.15-4.885-46.734-25.335-53.298-54.053
						c-7.605-28.44,5.191-58.178,21.552-72.079c16.249-14.601,31.479-16.869,31.171-17.063c0.362,0.437-14.734,3.035-30.566,17.69
						c-15.974,13.99-28.127,43.337-20.42,71.018c6.696,27.96,31.751,47.539,52.21,52.087c4.904,0.744,9.272,1.905,13.102,3.265
						c14.438,5.067,19.992,11.616,19.992,11.616L118.306,181.218z"/>
				</g>
				<g>
					<path fill="#4967A9" d="M95.544,181.218c0,0,9.31-11.231,31.034-14.88c21.148-4.885,46.735-25.335,53.297-54.053
						c7.607-28.44-5.191-58.178-21.553-72.079c-16.249-14.601-31.478-16.869-31.168-17.063c-0.363,0.437,14.734,3.035,30.568,17.69
						c15.969,13.99,28.126,43.337,20.415,71.018c-6.692,27.96-31.751,47.539-52.207,52.087c-4.906,0.744-9.275,1.905-13.104,3.265
						c-14.438,5.067-19.991,11.616-19.991,11.616L95.544,181.218z"/>
				</g>
				<g>
					<g>
						<path fill="#4967A9" d="M81.003,148.569c0,0,5.925,2.016,7.885,6.698c2.455,5.846,1.397,10.743,1.397,10.743
							s-5.933-3.057-7.918-6.227C79.571,155.332,81.003,148.569,81.003,148.569z"/>
						<path fill="#4967A9" d="M70.612,174.261c0,0,5.989,1.824,10.359-0.822c5.454-3.295,7.502-7.87,7.502-7.87
							s-6.612-0.988-10.101,0.414C73.473,167.957,70.612,174.261,70.612,174.261z"/>
					</g>
					<g>
						<path fill="#4967A9" d="M71.788,143.527c0,0,5.367,2.945,6.462,7.796c1.363,6.057-0.505,10.604-0.505,10.604
							s-5.201-3.95-6.573-7.345C69.246,149.815,71.788,143.527,71.788,143.527z"/>
						<path fill="#4967A9" d="M57.343,166.569c0,0,5.467,2.77,10.141,0.957c5.827-2.264,8.595-6.334,8.595-6.334
							s-6.212-2.07-9.828-1.304C61.187,160.967,57.343,166.569,57.343,166.569z"/>
					</g>
					<g>
						<path fill="#4967A9" d="M63.508,136.986c0,0,4.673,3.75,4.894,8.61c0.277,6.078-2.308,10.152-2.308,10.152
							s-4.342-4.69-5.078-8.197C59.968,142.627,63.508,136.986,63.508,136.986z"/>
						<path fill="#4967A9" d="M45.609,156.79c0,0,4.802,3.592,9.617,2.632c6.018-1.202,9.386-4.665,9.386-4.665
							s-5.643-3.044-9.257-2.908C50.284,152.032,45.609,156.79,45.609,156.79z"/>
					</g>
					<g>
						<path fill="#4967A9" d="M56.483,129.051c0,0,3.871,4.409,3.247,9.137c-0.777,5.912-3.967,9.409-3.967,9.409
							s-3.383-5.259-3.5-8.772C52.106,133.898,56.483,129.051,56.483,129.051z"/>
						<path fill="#4967A9" d="M35.808,145.146c0,0,4.018,4.278,8.835,4.161c6.012-0.143,9.858-2.919,9.858-2.919
							s-4.923-3.891-8.435-4.372C41.132,141.344,35.808,145.146,35.808,145.146z"/>
					</g>
					<g>
						<path fill="#4967A9" d="M50.905,120.053c0,0,2.98,4.906,1.568,9.366c-1.764,5.575-5.446,8.411-5.446,8.411
							s-2.363-5.643-1.866-9.051C45.848,123.992,50.905,120.053,50.905,120.053z"/>
						<path fill="#4967A9" d="M28.192,132.104c0,0,3.142,4.802,7.805,5.503c5.829,0.875,10.017-1.156,10.017-1.156
							s-4.082-4.584-7.389-5.638C33.981,129.326,28.192,132.104,28.192,132.104z"/>
					</g>
					<g>
						<path fill="#4967A9" d="M47.06,110.279c0,0,2.031,5.234-0.098,9.296c-2.659,5.085-6.694,7.202-6.694,7.202
							s-1.312-5.842-0.257-9.052C41.504,113.226,47.06,110.279,47.06,110.279z"/>
						<path fill="#4967A9" d="M23.069,118.081c0,0,2.207,5.164,6.587,6.624c5.477,1.828,9.867,0.572,9.867,0.572
							s-3.149-5.109-6.159-6.69C29.134,116.372,23.069,118.081,23.069,118.081z"/>
					</g>
					<g>
						<path fill="#4967A9" d="M44.944,100.025c0,0,1.062,5.398-1.693,8.962c-3.44,4.46-7.705,5.82-7.705,5.82
							s-0.261-5.861,1.315-8.777C39.068,101.934,44.944,100.025,44.944,100.025z"/>
						<path fill="#4967A9" d="M20.448,103.51c0,0,1.239,5.355,5.216,7.508c4.972,2.686,9.429,2.216,9.429,2.216
							s-2.167-5.461-4.799-7.492C26.593,102.889,20.448,103.51,20.448,103.51z"/>
					</g>
					<g>
						<path fill="#4967A9" d="M44.649,89.505c0,0,0.096,5.389-3.177,8.36c-4.087,3.724-8.43,4.322-8.43,4.322s0.755-5.7,2.777-8.25
							C38.655,90.355,44.649,89.505,44.649,89.505z"/>
						<path fill="#4967A9" d="M20.409,88.734c0,0,0.277,5.381,3.746,8.133c4.339,3.424,8.715,3.726,8.715,3.726
							s-1.153-5.642-3.342-8.044C26.446,89.175,20.409,88.734,20.409,88.734z"/>
					</g>
					<g>
						<path fill="#4967A9" d="M46.166,78.76c0,0-0.828,5.213-4.5,7.535c-4.582,2.902-8.88,2.746-8.88,2.746s1.706-5.378,4.097-7.496
							C40.234,78.57,46.166,78.76,46.166,78.76z"/>
						<path fill="#4967A9" d="M22.907,73.926c0,0-0.659,5.242,2.22,8.477c3.594,4.044,7.77,5.071,7.77,5.071
							s-0.141-5.639-1.844-8.326C28.658,75.37,22.907,73.926,22.907,73.926z"/>
					</g>
					<g>
						<path fill="#4967A9" d="M49.574,68.279c0,0-1.699,4.89-5.642,6.508c-4.923,2.035-9.039,1.16-9.039,1.16
							s2.571-4.899,5.241-6.544C43.877,67.094,49.574,68.279,49.574,68.279z"/>
						<path fill="#4967A9" d="M27.947,59.694c0,0-1.53,4.947,0.696,8.549c2.772,4.512,6.62,6.204,6.62,6.204
							s0.837-5.459-0.343-8.344C33.255,62.056,27.947,59.694,27.947,59.694z"/>
					</g>
					<g>
						<path fill="#4967A9" d="M54.815,58.557c0,0-2.476,4.434-6.556,5.336c-5.101,1.129-8.927-0.416-8.927-0.416
							s3.327-4.291,6.182-5.426C49.523,56.458,54.815,58.557,54.815,58.557z"/>
						<path fill="#4967A9" d="M35.426,46.629c0,0-2.33,4.516-0.804,8.374c1.905,4.814,5.335,7.097,5.335,7.097
							s1.742-5.13,1.093-8.111C40.141,49.802,35.426,46.629,35.426,46.629z"/>
					</g>
					<g>
						<path fill="#4967A9" d="M61.74,49.9c0,0-3.151,3.864-7.243,4.046c-5.117,0.224-8.54-1.902-8.54-1.902s3.944-3.588,6.896-4.202
							C56.998,46.98,61.74,49.9,61.74,49.9z"/>
						<path fill="#4967A9" d="M45.079,35.118c0,0-3.025,3.965-2.215,7.945c1.011,4.97,3.925,7.753,3.925,7.753
							s2.562-4.66,2.451-7.645C49.082,38.976,45.079,35.118,45.079,35.118z"/>
					</g>
					<g>
						<path fill="#4967A9" d="M70.019,42.642c0,0-3.711,3.201-7.695,2.687c-4.976-0.643-7.919-3.276-7.919-3.276
							s4.426-2.794,7.384-2.891C65.937,39.026,70.019,42.642,70.019,42.642z"/>
						<path fill="#4967A9" d="M56.47,25.566c0,0-3.602,3.32-3.506,7.297c0.123,4.968,2.457,8.143,2.457,8.143
							s3.274-4.065,3.68-6.965C59.671,29.963,56.47,25.566,56.47,25.566z"/>
					</g>
					<g>
						<path fill="#4967A9" d="M79.382,36.964c0,0-4.129,2.457-7.882,1.288c-4.696-1.459-7.082-4.492-7.082-4.492
							s4.752-1.952,7.62-1.544C76.066,32.781,79.382,36.964,79.382,36.964z"/>
						<path fill="#4967A9" d="M69.242,18.197c0,0-4.044,2.595-4.633,6.446c-0.735,4.816,0.974,8.278,0.974,8.278
							s3.857-3.37,4.745-6.104C71.576,22.982,69.242,18.197,69.242,18.197z"/>
					</g>
					<g>
						<path fill="#4967A9" d="M89.437,33.022c0,0-4.407,1.678-7.83-0.087c-4.282-2.196-6.061-5.53-6.061-5.53
							s4.921-1.079,7.622-0.204C86.952,28.434,89.437,33.022,89.437,33.022z"/>
						<path fill="#4967A9" d="M82.876,13.2c0,0-4.351,1.827-5.58,5.445c-1.536,4.523-0.486,8.15-0.486,8.15s4.307-2.603,5.627-5.09
							C84.299,18.217,82.876,13.2,82.876,13.2z"/>
					</g>
					<path fill="#4967A9" d="M83.066,24.359c0,0,3.251,1.824,6.143,0.842c3.608-1.229,5.393-3.639,5.393-3.639
						s-3.726-1.41-5.939-1.035C85.548,21.053,83.066,24.359,83.066,24.359z"/>
					<g>
						<path fill="#4967A9" d="M132.841,148.569c0,0-5.926,2.016-7.885,6.698c-2.455,5.846-1.397,10.743-1.397,10.743
							s5.933-3.057,7.92-6.227C134.275,155.332,132.841,148.569,132.841,148.569z"/>
						<path fill="#4967A9" d="M143.233,174.261c0,0-5.99,1.824-10.36-0.822c-5.453-3.295-7.502-7.87-7.502-7.87
							s6.613-0.988,10.101,0.414C140.371,167.957,143.233,174.261,143.233,174.261z"/>
					</g>
					<g>
						<path fill="#4967A9" d="M142.058,143.527c0,0-5.369,2.945-6.461,7.796c-1.366,6.057,0.504,10.604,0.504,10.604
							s5.199-3.95,6.571-7.345C144.598,149.815,142.058,143.527,142.058,143.527z"/>
						<path fill="#4967A9" d="M156.501,166.569c0,0-5.467,2.77-10.139,0.957c-5.829-2.264-8.597-6.334-8.597-6.334
							s6.212-2.07,9.828-1.304C152.657,160.967,156.501,166.569,156.501,166.569z"/>
					</g>
					<g>
						<path fill="#4967A9" d="M150.339,136.986c0,0-4.676,3.75-4.894,8.61c-0.279,6.078,2.305,10.152,2.305,10.152
							s4.341-4.69,5.078-8.197C153.878,142.627,150.339,136.986,150.339,136.986z"/>
						<path fill="#4967A9" d="M168.235,156.79c0,0-4.804,3.592-9.618,2.632c-6.018-1.202-9.384-4.665-9.384-4.665
							s5.643-3.044,9.255-2.908C163.562,152.032,168.235,156.79,168.235,156.79z"/>
					</g>
					<g>
						<path fill="#4967A9" d="M157.362,129.051c0,0-3.871,4.409-3.246,9.137c0.774,5.912,3.966,9.409,3.966,9.409
							s3.383-5.259,3.499-8.772C161.739,133.898,157.362,129.051,157.362,129.051z"/>
						<path fill="#4967A9" d="M178.037,145.146c0,0-4.019,4.278-8.835,4.161c-6.012-0.143-9.86-2.919-9.86-2.919
							s4.926-3.891,8.435-4.372C172.712,141.344,178.037,145.146,178.037,145.146z"/>
					</g>
					<g>
						<path fill="#4967A9" d="M162.94,120.053c0,0-2.98,4.906-1.569,9.366c1.765,5.575,5.445,8.411,5.445,8.411
							s2.363-5.643,1.868-9.051C167.996,123.992,162.94,120.053,162.94,120.053z"/>
						<path fill="#4967A9" d="M185.653,132.104c0,0-3.143,4.802-7.808,5.503c-5.828,0.875-10.018-1.156-10.018-1.156
							s4.085-4.584,7.39-5.638C179.864,129.326,185.653,132.104,185.653,132.104z"/>
					</g>
					<g>
						<path fill="#4967A9" d="M166.786,110.279c0,0-2.033,5.234,0.096,9.296c2.66,5.085,6.694,7.202,6.694,7.202
							s1.314-5.842,0.258-9.052C172.34,113.226,166.786,110.279,166.786,110.279z"/>
						<path fill="#4967A9" d="M190.776,118.081c0,0-2.208,5.164-6.587,6.624c-5.479,1.828-9.866,0.572-9.866,0.572
							s3.146-5.109,6.156-6.69C184.71,116.372,190.776,118.081,190.776,118.081z"/>
					</g>
					<g>
						<path fill="#4967A9" d="M168.9,100.025c0,0-1.061,5.398,1.694,8.962c3.441,4.46,7.701,5.82,7.701,5.82
							s0.262-5.861-1.312-8.777C174.776,101.934,168.9,100.025,168.9,100.025z"/>
						<path fill="#4967A9" d="M193.399,103.51c0,0-1.243,5.355-5.221,7.508c-4.971,2.686-9.428,2.216-9.428,2.216
							s2.166-5.461,4.802-7.492C187.251,102.889,193.399,103.51,193.399,103.51z"/>
					</g>
					<g>
						<path fill="#4967A9" d="M169.195,89.505c0,0-0.095,5.389,3.183,8.36c4.081,3.724,8.426,4.322,8.426,4.322
							s-0.751-5.7-2.776-8.25C175.188,90.355,169.195,89.505,169.195,89.505z"/>
						<path fill="#4967A9" d="M193.435,88.734c0,0-0.274,5.381-3.744,8.133c-4.341,3.424-8.716,3.726-8.716,3.726
							s1.152-5.642,3.341-8.044C187.396,89.175,193.435,88.734,193.435,88.734z"/>
					</g>
					<g>
						<path fill="#4967A9" d="M167.678,78.76c0,0,0.828,5.213,4.5,7.535c4.588,2.902,8.88,2.746,8.88,2.746
							s-1.706-5.378-4.098-7.496C173.609,78.57,167.678,78.76,167.678,78.76z"/>
						<path fill="#4967A9" d="M190.94,73.926c0,0,0.654,5.242-2.223,8.477c-3.596,4.044-7.771,5.071-7.771,5.071
							s0.143-5.639,1.846-8.326C185.186,75.37,190.94,73.926,190.94,73.926z"/>
					</g>
					<g>
						<path fill="#4967A9" d="M164.271,68.279c0,0,1.699,4.89,5.641,6.508c4.923,2.035,9.037,1.16,9.037,1.16
							s-2.569-4.899-5.238-6.544C169.966,67.094,164.271,68.279,164.271,68.279z"/>
						<path fill="#4967A9" d="M185.896,59.694c0,0,1.529,4.947-0.695,8.549c-2.771,4.512-6.62,6.204-6.62,6.204
							s-0.836-5.459,0.346-8.344C180.588,62.056,185.896,59.694,185.896,59.694z"/>
					</g>
					<g>
						<path fill="#4967A9" d="M159.028,58.557c0,0,2.475,4.434,6.556,5.336c5.101,1.129,8.927-0.416,8.927-0.416
							s-3.328-4.291-6.183-5.426C164.32,56.458,159.028,58.557,159.028,58.557z"/>
						<path fill="#4967A9" d="M178.419,46.629c0,0,2.33,4.516,0.806,8.374c-1.906,4.814-5.336,7.097-5.336,7.097
							s-1.741-5.13-1.095-8.111C173.705,49.802,178.419,46.629,178.419,46.629z"/>
					</g>
					<g>
						<path fill="#4967A9" d="M152.104,49.9c0,0,3.153,3.864,7.243,4.046c5.12,0.224,8.54-1.902,8.54-1.902
							s-3.944-3.588-6.896-4.202C156.848,46.98,152.104,49.9,152.104,49.9z"/>
						<path fill="#4967A9" d="M168.767,35.118c0,0,3.023,3.965,2.214,7.945c-1.012,4.97-3.925,7.753-3.925,7.753
							s-2.562-4.66-2.451-7.645C164.762,38.976,168.767,35.118,168.767,35.118z"/>
					</g>
					<g>
						<path fill="#4967A9" d="M143.828,42.642c0,0,3.71,3.201,7.693,2.687c4.978-0.643,7.919-3.276,7.919-3.276
							s-4.423-2.794-7.385-2.891C147.909,39.026,143.828,42.642,143.828,42.642z"/>
						<path fill="#4967A9" d="M157.376,25.566c0,0,3.601,3.32,3.505,7.297c-0.124,4.968-2.458,8.143-2.458,8.143
							s-3.275-4.065-3.678-6.965C154.175,29.963,157.376,25.566,157.376,25.566z"/>
					</g>
					<g>
						<path fill="#4967A9" d="M134.463,36.964c0,0,4.13,2.457,7.881,1.288c4.696-1.459,7.082-4.492,7.082-4.492
							s-4.75-1.952-7.619-1.544C137.776,32.781,134.463,36.964,134.463,36.964z"/>
						<path fill="#4967A9" d="M144.602,18.197c0,0,4.045,2.595,4.636,6.446c0.734,4.816-0.976,8.278-0.976,8.278
							s-3.856-3.37-4.746-6.104C142.269,22.982,144.602,18.197,144.602,18.197z"/>
					</g>
					<g>
						<path fill="#4967A9" d="M124.407,33.022c0,0,4.408,1.678,7.83-0.087c4.283-2.196,6.061-5.53,6.061-5.53
							s-4.918-1.079-7.619-0.204C126.893,28.434,124.407,33.022,124.407,33.022z"/>
						<path fill="#4967A9" d="M130.969,13.2c0,0,4.352,1.827,5.583,5.445c1.532,4.523,0.483,8.15,0.483,8.15
							s-4.306-2.603-5.628-5.09C129.548,18.217,130.969,13.2,130.969,13.2z"/>
					</g>
					<path fill="#4967A9" d="M130.777,24.359c0,0-3.251,1.824-6.143,0.842c-3.608-1.229-5.392-3.639-5.392-3.639
						s3.727-1.41,5.938-1.035C128.295,21.053,130.777,24.359,130.777,24.359z"/>
				</g>
			</g>
			<g>
				<defs>
					<path id="SVGID_5_" d="M162.372,92.735c0,30.486-24.79,55.199-55.37,55.199c-30.576,0-55.366-24.713-55.366-55.199
						c0-30.484,24.79-55.197,55.366-55.197C137.582,37.538,162.372,62.251,162.372,92.735z"/>
				</defs>
				<clipPath id="SVGID_2_">
					<use xlink:href="#SVGID_5_"  overflow="visible"/>
				</clipPath>
				<g clip-path="url(#SVGID_2_)">
					<path fill="#4967A9" d="M83.091,77.099c7.508,16.382,25.2,28.855,46.896,32.111C122.48,92.822,104.782,80.368,83.091,77.099
						L83.091,77.099z"/>
					<path fill="#FE5000" d="M79.227,58.755c-0.114,6.233,1.18,12.217,3.622,17.771c1.176-0.034,2.352-0.037,3.542-0.018
						c34.01,0.656,61.138,23.622,60.602,51.305c-0.045,2.505-0.32,4.95-0.805,7.345l42.05-41.717l-80.574-80.179
						C91.832,25.666,79.588,40.36,79.227,58.755L79.227,58.755z"/>
					<path fill="#002F6C" d="M106.826,172.768c16.656-15.704,26.666-26.842,27.021-45.205c0.127-6.244-1.173-12.229-3.623-17.783
						c-1.167,0.035-2.351,0.044-3.546,0.015c-34.011-0.647-61.135-23.627-60.602-51.299c0.041-2.008,0.25-3.994,0.571-5.937
						L25.44,93.44L106.826,172.768L106.826,172.768z"/>
				</g>
			</g>
		</g>
	</g>
</g>
</svg>
