<?xml version="1.0" encoding="utf-8"?>
<!-- Generator: Adobe Illustrator 16.0.0, SVG Export Plug-In . SVG Version: 6.00 Build 0)  -->
<!DOCTYPE svg PUBLIC "-//W3C//DTD SVG 1.1//EN" "http://www.w3.org/Graphics/SVG/1.1/DTD/svg11.dtd">
<svg version="1.1" xmlns="http://www.w3.org/2000/svg" xmlns:xlink="http://www.w3.org/1999/xlink" x="0px" y="0px"
	 width="681.559px" height="141px" viewBox="0 0 681.559 141" enable-background="new 0 0 681.559 141" xml:space="preserve">
<g id="BG">
	<rect id="ourstory_5_" fill="#FFFFFF" width="680" height="141"/>
</g>
<g id="Symbols">
	<g>
		<circle fill="#E6E7E8" cx="71" cy="69.413" r="57"/>
		<g>
			<path fill="#3A5675" d="M165.146,97.275c0-10.228,0-12.112-0.135-14.266c-0.135-2.288-0.673-3.364-2.894-3.835
				c-0.538-0.135-1.683-0.202-2.624-0.202c-0.74,0-1.145-0.135-1.145-0.605c0-0.472,0.471-0.605,1.48-0.605
				c3.566,0,7.806,0.201,9.824,0.201c1.615,0,5.854-0.201,8.277-0.201c1.009,0,1.48,0.134,1.48,0.605
				c0,0.471-0.404,0.605-1.077,0.605c-0.74,0-1.144,0.067-1.951,0.202c-1.816,0.336-2.355,1.48-2.49,3.835
				c-0.134,2.153-0.134,4.038-0.134,14.266v9.421c0,9.758,1.951,13.862,5.248,16.554c3.028,2.49,6.124,2.759,8.412,2.759
				c2.961,0,6.594-0.941,9.286-3.634c3.701-3.7,3.902-9.757,3.902-16.688v-8.412c0-10.228,0-12.112-0.135-14.266
				c-0.134-2.288-0.673-3.364-2.894-3.835c-0.538-0.135-1.682-0.202-2.422-0.202s-1.145-0.135-1.145-0.605
				c0-0.472,0.472-0.605,1.413-0.605c3.433,0,7.672,0.201,7.739,0.201c0.808,0,5.047-0.201,7.671-0.201
				c0.942,0,1.413,0.134,1.413,0.605c0,0.471-0.403,0.605-1.211,0.605c-0.74,0-1.145,0.067-1.952,0.202
				c-1.816,0.336-2.354,1.48-2.489,3.835c-0.135,2.153-0.135,4.038-0.135,14.266v7.2c0,7.47-0.74,15.41-6.393,20.255
				c-4.777,4.104-9.623,4.845-13.996,4.845c-3.567,0-10.027-0.201-14.939-4.643c-3.432-3.096-5.988-8.075-5.988-17.832V97.275z"/>
			<path fill="#3A5675" d="M235.861,119.481c0.135,5.249,1.01,6.999,2.355,7.47c1.145,0.404,2.423,0.471,3.499,0.471
				c0.74,0,1.145,0.135,1.145,0.539c0,0.538-0.606,0.673-1.548,0.673c-4.374,0-7.065-0.202-8.345-0.202
				c-0.605,0-3.768,0.202-7.267,0.202c-0.875,0-1.48-0.067-1.48-0.673c0-0.404,0.403-0.539,1.076-0.539
				c0.875,0,2.086-0.066,3.028-0.336c1.749-0.538,2.019-2.49,2.086-8.344l0.605-39.837c0-1.346,0.202-2.288,0.875-2.288
				c0.74,0,1.346,0.875,2.489,2.086c0.808,0.875,11.036,11.844,20.86,21.601c4.576,4.576,13.66,14.266,14.805,15.343h0.336
				l-0.673-30.214c-0.067-4.104-0.673-5.384-2.288-6.057c-1.009-0.403-2.624-0.403-3.566-0.403c-0.808,0-1.076-0.202-1.076-0.605
				c0-0.539,0.74-0.605,1.749-0.605c3.5,0,6.729,0.201,8.143,0.201c0.74,0,3.297-0.201,6.595-0.201c0.875,0,1.548,0.066,1.548,0.605
				c0,0.403-0.404,0.605-1.212,0.605c-0.673,0-1.211,0-2.019,0.202c-1.884,0.538-2.422,1.951-2.489,5.72l-0.74,42.461
				c0,1.479-0.27,2.086-0.875,2.086c-0.74,0-1.548-0.74-2.288-1.48c-4.239-4.038-12.853-12.853-19.851-19.784
				c-7.335-7.268-14.805-15.679-16.016-16.957h-0.202L235.861,119.481z"/>
			<path fill="#3A5675" d="M302.54,97.275c0-10.228,0-12.112-0.135-14.266c-0.135-2.288-0.808-3.432-2.288-3.768
				c-0.74-0.202-1.615-0.27-2.423-0.27c-0.673,0-1.076-0.135-1.076-0.673c0-0.404,0.538-0.538,1.615-0.538
				c2.557,0,6.796,0.201,8.747,0.201c1.683,0,5.653-0.201,8.21-0.201c0.875,0,1.413,0.134,1.413,0.538
				c0,0.538-0.403,0.673-1.076,0.673c-0.674,0-1.212,0.067-2.02,0.202c-1.816,0.336-2.354,1.48-2.489,3.835
				c-0.135,2.153-0.135,4.038-0.135,14.266v11.844c0,6.527,0,11.843,0.27,14.736c0.201,1.817,0.673,3.028,2.691,3.298
				c0.942,0.135,2.423,0.269,3.432,0.269c0.74,0,1.077,0.202,1.077,0.539c0,0.471-0.539,0.673-1.279,0.673
				c-4.44,0-8.681-0.202-10.497-0.202c-1.548,0-5.787,0.202-8.479,0.202c-0.875,0-1.346-0.202-1.346-0.673
				c0-0.337,0.269-0.539,1.076-0.539c1.01,0,1.817-0.134,2.423-0.269c1.346-0.27,1.749-1.413,1.951-3.365
				c0.337-2.826,0.337-8.142,0.337-14.669V97.275z"/>
			<path fill="#3A5675" d="M333.489,84.355c-1.548-3.7-2.691-4.44-5.114-5.113c-1.009-0.27-2.086-0.27-2.624-0.27
				c-0.605,0-0.808-0.202-0.808-0.605c0-0.539,0.74-0.605,1.75-0.605c3.566,0,7.401,0.201,9.757,0.201
				c1.683,0,4.912-0.201,8.277-0.201c0.807,0,1.547,0.134,1.547,0.605c0,0.471-0.403,0.605-1.009,0.605
				c-1.077,0-2.086,0.067-2.625,0.471c-0.471,0.337-0.673,0.808-0.673,1.413c0,0.875,0.606,2.759,1.548,5.182l11.574,30.55h0.27
				c2.894-7.401,11.642-29.069,13.256-33.511c0.337-0.875,0.605-1.884,0.605-2.489c0-0.539-0.269-1.077-0.874-1.279
				c-0.808-0.269-1.817-0.336-2.692-0.336c-0.605,0-1.144-0.067-1.144-0.538c0-0.539,0.605-0.673,1.884-0.673
				c3.365,0,6.191,0.201,7.066,0.201c1.144,0,4.307-0.201,6.325-0.201c0.875,0,1.413,0.134,1.413,0.605
				c0,0.471-0.404,0.605-1.077,0.605s-2.086,0-3.297,0.808c-0.875,0.605-1.884,1.749-3.701,6.056
				c-2.624,6.326-4.441,9.959-8.075,18.236c-4.307,9.824-7.469,17.159-8.949,20.523c-1.75,3.903-2.153,4.979-3.096,4.979
				c-0.875,0-1.278-0.941-2.557-4.104L333.489,84.355z"/>
			<path fill="#3A5675" d="M395.122,97.275c0-10.228,0-12.112-0.135-14.266c-0.135-2.288-0.673-3.364-2.894-3.835
				c-0.538-0.135-1.683-0.202-2.625-0.202c-0.739,0-1.144-0.135-1.144-0.605c0-0.472,0.471-0.605,1.48-0.605
				c1.817,0,3.769,0.066,5.45,0.066c1.75,0.067,3.298,0.135,4.24,0.135c2.153,0,15.544,0,16.822-0.067
				c1.278-0.134,2.355-0.269,2.894-0.403c0.337-0.067,0.74-0.27,1.077-0.27c0.336,0,0.403,0.27,0.403,0.605
				c0,0.472-0.337,1.279-0.538,4.374c-0.067,0.673-0.202,3.634-0.337,4.441c-0.067,0.337-0.202,0.74-0.673,0.74
				s-0.605-0.336-0.605-0.942c0-0.471-0.067-1.614-0.403-2.422c-0.472-1.211-1.145-2.019-4.509-2.423
				c-1.145-0.135-8.21-0.269-9.556-0.269c-0.336,0-0.471,0.201-0.471,0.673v17.024c0,0.471,0.067,0.74,0.471,0.74
				c1.48,0,9.219,0,10.767-0.135c1.615-0.135,2.625-0.336,3.23-1.009c0.471-0.539,0.74-0.875,1.076-0.875
				c0.27,0,0.471,0.135,0.471,0.538s-0.269,1.48-0.538,4.912c-0.067,1.346-0.269,4.038-0.269,4.509c0,0.538,0,1.278-0.606,1.278
				c-0.471,0-0.605-0.27-0.605-0.605c-0.067-0.673-0.067-1.548-0.269-2.423c-0.337-1.346-1.279-2.354-3.769-2.624
				c-1.278-0.135-7.94-0.202-9.556-0.202c-0.336,0-0.403,0.27-0.403,0.673v5.316c0,2.288-0.067,8.479,0,10.43
				c0.135,4.644,1.211,5.652,8.075,5.652c1.749,0,4.575,0,6.325-0.807c1.749-0.808,2.557-2.221,3.028-4.979
				c0.134-0.74,0.269-1.01,0.74-1.01c0.538,0,0.538,0.538,0.538,1.211c0,1.548-0.538,6.124-0.875,7.47
				c-0.471,1.749-1.077,1.749-3.634,1.749c-5.047,0-8.748-0.134-11.642-0.201c-2.894-0.135-4.979-0.202-6.998-0.202
				c-0.74,0-2.221,0-3.836,0.067c-1.548,0-3.297,0.135-4.643,0.135c-0.875,0-1.346-0.202-1.346-0.673
				c0-0.337,0.269-0.539,1.076-0.539c1.01,0,1.817-0.134,2.423-0.269c1.346-0.27,1.682-1.75,1.951-3.701
				c0.337-2.826,0.337-8.143,0.337-14.333V97.275z"/>
			<path fill="#3A5675" d="M444.374,97.275c0-10.228,0-12.112-0.135-14.266c-0.135-2.288-0.673-3.364-2.894-3.835
				c-0.538-0.135-1.683-0.202-2.625-0.202c-0.739,0-1.144-0.135-1.144-0.605c0-0.472,0.471-0.605,1.48-0.605
				c3.566,0,7.806,0.201,9.219,0.201c2.288,0,7.402-0.201,9.488-0.201c4.239,0,8.748,0.403,12.382,2.894
				c1.884,1.278,4.575,4.71,4.575,9.219c0,4.979-2.086,9.555-8.882,15.073c5.988,7.536,10.632,13.525,14.602,17.697
				c3.769,3.903,6.527,4.374,7.537,4.576c0.74,0.135,1.346,0.201,1.884,0.201s0.808,0.202,0.808,0.539
				c0,0.538-0.471,0.673-1.278,0.673h-6.393c-3.769,0-5.451-0.337-7.2-1.278c-2.894-1.548-5.451-4.711-9.219-9.893
				c-2.692-3.701-5.787-8.276-6.662-9.286c-0.337-0.403-0.74-0.471-1.211-0.471l-5.854-0.135c-0.337,0-0.538,0.135-0.538,0.538
				v0.942c0,6.258,0,11.574,0.336,14.4c0.202,1.951,0.605,3.432,2.624,3.701c1.01,0.135,2.49,0.269,3.298,0.269
				c0.538,0,0.808,0.202,0.808,0.539c0,0.471-0.472,0.673-1.346,0.673c-3.903,0-8.883-0.202-9.893-0.202
				c-1.278,0-5.518,0.202-8.209,0.202c-0.875,0-1.346-0.202-1.346-0.673c0-0.337,0.269-0.539,1.076-0.539
				c1.01,0,1.817-0.134,2.423-0.269c1.346-0.27,1.682-1.75,1.951-3.701c0.337-2.826,0.337-8.143,0.337-14.333V97.275z
				 M452.314,102.592c0,0.74,0.134,1.01,0.605,1.211c1.413,0.472,3.432,0.673,5.114,0.673c2.691,0,3.566-0.269,4.777-1.144
				c2.019-1.48,3.97-4.576,3.97-10.094c0-9.556-6.325-12.314-10.295-12.314c-1.683,0-2.894,0.067-3.566,0.27
				c-0.472,0.135-0.605,0.403-0.605,0.941V102.592z"/>
			<path fill="#3A5675" d="M497.19,127.826c-1.077-0.471-1.278-0.808-1.278-2.288c0-3.701,0.269-7.738,0.336-8.815
				c0.067-1.009,0.27-1.749,0.808-1.749c0.605,0,0.673,0.605,0.673,1.144c0,0.875,0.27,2.288,0.605,3.432
				c1.48,4.979,5.451,6.797,9.623,6.797c6.056,0,9.017-4.104,9.017-7.671c0-3.298-1.009-6.394-6.595-10.767l-3.095-2.423
				c-7.402-5.787-9.959-10.497-9.959-15.948c0-7.402,6.19-12.718,15.544-12.718c4.374,0,7.2,0.673,8.949,1.144
				c0.606,0.135,0.942,0.337,0.942,0.808c0,0.875-0.269,2.826-0.269,8.075c0,1.48-0.202,2.019-0.74,2.019
				c-0.472,0-0.674-0.403-0.674-1.211c0-0.605-0.336-2.691-1.749-4.441c-1.01-1.278-2.961-3.297-7.335-3.297
				c-4.979,0-8.008,2.894-8.008,6.931c0,3.096,1.548,5.45,7.133,9.689l1.885,1.413c8.142,6.124,11.035,10.767,11.035,17.16
				c0,3.902-1.48,8.546-6.325,11.708c-3.364,2.153-7.133,2.759-10.699,2.759C503.112,129.575,500.084,129.104,497.19,127.826z"/>
			<path fill="#3A5675" d="M546.778,97.275c0-10.228,0-12.112-0.135-14.266c-0.135-2.288-0.808-3.432-2.288-3.768
				c-0.74-0.202-1.615-0.27-2.423-0.27c-0.673,0-1.076-0.135-1.076-0.673c0-0.404,0.538-0.538,1.615-0.538
				c2.557,0,6.796,0.201,8.747,0.201c1.683,0,5.653-0.201,8.21-0.201c0.875,0,1.413,0.134,1.413,0.538
				c0,0.538-0.403,0.673-1.076,0.673c-0.674,0-1.212,0.067-2.02,0.202c-1.816,0.336-2.354,1.48-2.489,3.835
				c-0.135,2.153-0.135,4.038-0.135,14.266v11.844c0,6.527,0,11.843,0.27,14.736c0.201,1.817,0.673,3.028,2.691,3.298
				c0.942,0.135,2.423,0.269,3.432,0.269c0.74,0,1.077,0.202,1.077,0.539c0,0.471-0.539,0.673-1.279,0.673
				c-4.44,0-8.681-0.202-10.497-0.202c-1.548,0-5.787,0.202-8.479,0.202c-0.875,0-1.346-0.202-1.346-0.673
				c0-0.337,0.269-0.539,1.076-0.539c1.01,0,1.817-0.134,2.423-0.269c1.346-0.27,1.749-1.413,1.951-3.365
				c0.337-2.826,0.337-8.142,0.337-14.669V97.275z"/>
			<path fill="#3A5675" d="M592.868,81.529l-10.026,0.27c-3.902,0.135-5.518,0.471-6.527,1.951c-0.673,1.01-1.009,1.817-1.144,2.355
				s-0.337,0.808-0.74,0.808c-0.472,0-0.605-0.337-0.605-1.077c0-1.076,1.278-7.2,1.413-7.738c0.201-0.875,0.403-1.278,0.808-1.278
				c0.538,0,1.211,0.673,2.894,0.808c1.951,0.201,4.508,0.336,6.729,0.336h26.647c2.153,0,3.634-0.201,4.644-0.336
				c1.009-0.202,1.547-0.337,1.816-0.337c0.471,0,0.538,0.404,0.538,1.413c0,1.413-0.201,6.057-0.201,7.806
				c-0.067,0.673-0.202,1.077-0.606,1.077c-0.538,0-0.673-0.337-0.74-1.346l-0.066-0.74c-0.135-1.75-1.952-3.634-7.94-3.769
				l-8.479-0.202v27.59c0,6.19,0,11.507,0.337,14.4c0.202,1.884,0.605,3.364,2.624,3.634c0.942,0.135,2.423,0.269,3.433,0.269
				c0.739,0,1.076,0.202,1.076,0.539c0,0.471-0.538,0.673-1.278,0.673c-4.441,0-8.681-0.202-10.564-0.202
				c-1.548,0-5.787,0.202-8.479,0.202c-0.874,0-1.346-0.202-1.346-0.673c0-0.337,0.27-0.539,1.077-0.539
				c1.009,0,1.816-0.134,2.422-0.269c1.346-0.27,1.75-1.75,1.952-3.701c0.336-2.826,0.336-8.143,0.336-14.333V81.529z"/>
			<path fill="#3A5675" d="M646.29,111.205c0-3.634-0.673-5.114-1.548-7.065c-0.471-1.077-9.488-15.881-11.843-19.38
				c-1.683-2.49-3.365-4.172-4.644-4.912c-0.875-0.472-2.019-0.875-2.826-0.875c-0.538,0-1.009-0.135-1.009-0.605
				c0-0.404,0.471-0.605,1.278-0.605c1.211,0,6.258,0.201,8.479,0.201c1.413,0,4.172-0.201,7.2-0.201c0.673,0,1.01,0.201,1.01,0.605
				c0,0.403-0.472,0.471-1.48,0.74c-0.606,0.135-0.942,0.673-0.942,1.211s0.336,1.346,0.808,2.288
				c0.942,2.019,10.362,18.235,11.439,20.12c0.673-1.615,9.151-16.419,10.094-18.505c0.673-1.48,0.942-2.625,0.942-3.5
				c0-0.673-0.27-1.413-1.414-1.682c-0.605-0.135-1.211-0.27-1.211-0.673c0-0.472,0.337-0.605,1.145-0.605
				c2.22,0,4.373,0.201,6.325,0.201c1.48,0,5.921-0.201,7.2-0.201c0.74,0,1.211,0.134,1.211,0.538c0,0.471-0.538,0.673-1.278,0.673
				c-0.673,0-1.951,0.27-2.961,0.808c-1.413,0.673-2.153,1.48-3.634,3.297c-2.221,2.691-11.642,18.505-12.853,21.398
				c-1.01,2.423-1.01,4.509-1.01,6.729v5.518c0,1.077,0,3.903,0.202,6.729c0.135,1.951,0.74,3.432,2.759,3.701
				c0.942,0.135,2.423,0.269,3.364,0.269c0.74,0,1.077,0.202,1.077,0.539c0,0.471-0.538,0.673-1.413,0.673
				c-4.239,0-8.479-0.202-10.296-0.202c-1.682,0-5.921,0.202-8.411,0.202c-0.942,0-1.48-0.135-1.48-0.673
				c0-0.337,0.337-0.539,1.077-0.539c0.941,0,1.749-0.134,2.354-0.269c1.346-0.27,1.952-1.75,2.086-3.701
				c0.202-2.826,0.202-5.652,0.202-6.729V111.205z"/>
		</g>
		<g>
			<path fill="#4967A9" d="M51.947,56.573c6.008,13.218,20.171,23.279,37.537,25.903C83.477,69.251,69.308,59.21,51.947,56.573
				L51.947,56.573z"/>
			<path fill="#FF893D" d="M48.854,41.772c-0.094,5.029,0.944,9.86,2.899,14.337c0.94-0.026,1.881-0.029,2.832-0.014
				c27.226,0.529,48.94,19.058,48.511,41.39c-0.038,2.021-0.26,3.996-0.646,5.926l33.658-33.659L71.613,5.072
				C58.942,15.078,49.146,26.935,48.854,41.772L48.854,41.772z"/>
			<path fill="#3A5675" d="M70.945,133.755c13.334-12.671,21.344-21.656,21.628-36.471c0.101-5.038-0.94-9.863-2.899-14.347
				c-0.936,0.027-1.883,0.035-2.837,0.013c-27.222-0.524-48.938-19.062-48.505-41.387c0.031-1.619,0.195-3.223,0.452-4.788
				L5.803,69.752L70.945,133.755L70.945,133.755z"/>
		</g>
		<g>
			<path fill="#3A5675" d="M197.148,57.689h-34.114V46.245h3.041v-19.88h-3.041V14.858h19.848v11.507h-3.982v19.88h5.456v-6.679
				h12.793V57.689z M193.292,53.958V43.234h-5.519v6.741h-12.73V22.634h3.982v-4.045h-12.135v4.045h3.041v27.342h-3.041v3.982
				H193.292z"/>
			<path fill="#3A5675" d="M225.612,57.689h-18.844V46.245h3.041v-19.88h-3.041V14.858h18.844v11.507h-2.979v19.88h2.979V57.689z
				 M221.756,53.958v-3.982h-2.979V22.634h2.979v-4.045h-11.131v4.045h3.041v27.342h-3.041v3.982H221.756z"/>
			<path fill="#3A5675" d="M269.975,29.062h-12.855v-2.696h-5.394v5.049h9.438v10.849h-9.438v3.982h2.885v11.444h-18.75V46.245
				h3.041v-19.88h-3.041V14.858h34.114V29.062z M266.118,25.394v-6.805h-26.401v4.045h2.885v27.342h-2.885v3.982h11.068v-3.982
				h-2.916V38.594h9.595v-3.449h-9.595V22.634h13.106v2.76H266.118z"/>
			<path fill="#3A5675" d="M313.521,57.689h-34.114V46.245h2.979v-19.88h-2.979V14.858h34.114v13.733h-12.855v-2.227h-5.394v4.202
				h10.097v10.88h-10.097v4.798h5.394V43.36h12.855V57.689z M309.664,53.958v-6.866h-5.143v2.884h-13.106V37.653h10.159v-3.418
				h-10.159V22.634h13.106v2.289h5.143v-6.334h-26.401v4.045h3.041v27.342h-3.041v3.982H309.664z"/>
			<path fill="#3A5675" d="M396.757,57.689h-17.872V46.245h3.104v-9.94l-4.766,7.902h-5.644l-4.704-7.902v9.94h3.042v11.444h-17.81
				V46.245h3.041v-19.88h-3.041V14.858h14.768l7.525,13.169l7.588-13.169h14.769v11.507h-2.947v19.88h2.947V57.689z M392.9,53.958
				v-3.982h-2.822V22.634h2.822v-4.045h-8.874L374.4,34.706l-9.375-16.117h-9.062v4.045h2.885v27.342h-2.885v3.982h10.097v-3.982
				h-2.885V23.073l10.064,17.34h2.258l10.128-17.34v26.902h-2.885v3.982H392.9z"/>
			<path fill="#3A5675" d="M445.822,57.689h-17.998V46.903h2.76l-0.69-2.446h-8.184l-0.752,2.446h2.634v10.786h-17.402V46.245h3.856
				l10.171-31.387h12.048l9.764,31.387h3.794V57.689z M442.028,53.958v-3.982h-2.696l-9.971-31.387h-6.491l-10.379,31.387h-2.445
				v3.982h9.688v-3.982h-3.354l2.854-8.34h13.012l2.697,8.34h-3.261v3.982H442.028z M431.242,38.375h-10.943l5.205-15.741h0.784
				L431.242,38.375z M427.26,35.458l-1.348-4.421l-1.506,4.421H427.26z"/>
			<path fill="#3A5675" d="M491.124,30.599h-10.661v-4.233h-1.536v19.88h2.947v11.444h-18.75V46.245h3.041v-19.88h-1.567v4.233
				h-10.441v-15.74h36.968V30.599z M487.268,26.992v-8.403h-29.475v8.403h3.48v-4.358h8.654v27.342h-2.947v3.982h11.037v-3.982
				h-2.947V22.634h8.748v4.358H487.268z"/>
			<path fill="#3A5675" d="M536.207,30.599h-10.661v-4.233h-1.536v19.88h2.947v11.444h-18.75V46.245h3.041v-19.88h-1.567v4.233
				h-10.441v-15.74h36.968V30.599z M532.351,26.992v-8.403h-29.475v8.403h3.48v-4.358h8.654v27.342h-2.947v3.982h11.037v-3.982
				h-2.947V22.634h8.748v4.358H532.351z"/>
			<path fill="#3A5675" d="M579.503,57.689h-34.114V46.245h2.979v-19.88h-2.979V14.858h34.114v13.733h-12.855v-2.227h-5.394v4.202
				h10.097v10.88h-10.097v4.798h5.394V43.36h12.855V57.689z M575.646,53.958v-6.866h-5.143v2.884h-13.106V37.653h10.159v-3.418
				h-10.159V22.634h13.106v2.289h5.143v-6.334h-26.401v4.045h3.041v27.342h-3.041v3.982H575.646z"/>
			<path fill="#3A5675" d="M626.248,57.689h-17.215V47.092h1.223l-2.759-5.456h-2.258v5.456h2.069v10.598h-17.935V46.245h2.979
				v-19.88h-2.979V14.858h26.275l7.463,7.399V34.33l-4.265,3.888l3.605,8.027h3.795V57.689z M622.453,53.958v-4.045h-2.101
				l-5.801-12.197l4.703-4.609v-9.249l-5.268-5.269H593.23v4.045h2.885v27.279h-2.885v4.045h10.222v-4.045h-2.069V38.218h8.31
				l5.455,11.695h-2.383v4.045H622.453z M614.113,31.633l-2.571,2.697h-10.159V22.634h10.159l2.571,2.164V31.633z M610.256,30.473
				v-4.107h-5.017v4.107H610.256z"/>
			<path fill="#3A5675" d="M667.129,50.29l-7.4,7.399H643.11l-7.399-7.399v-7.62h12.855v3.575h5.456V40.35h-12.699l-5.612-5.895
				V22.258l7.399-7.399h17.026l6.741,6.929v6.93h-12.855v-2.352h-5.456v3.763h13.357l5.205,5.612V50.29z M663.021,48.502V37.34
				l-3.794-3.794h-13.106l-1.411-1.474v-7.274l2.383-2.164h8.341l2.445,2.164v0.658h5.143v-1.599l-5.205-5.269H644.71l-5.143,5.269
				v9.03l3.605,4.045h13.357l1.349,1.505v9.155l-2.445,2.697h-8.341l-2.383-2.697v-1.725h-5.143v2.634l5.143,5.456h13.044
				L663.021,48.502z"/>
		</g>
	</g>
</g>
</svg>
